;TYPE=PLATED
;Layer: PTH_Through_Via
;EasyEDA Pro v2.2.40.8, 2025-10-17 17:16:52
;Gerber Generator version 0.3
M48
METRIC,LZ,0000.00000
;Hole size 1 = 0.30000 METRIC
T01C0.30000
%
G05
G90
T01
X21.30104Y19.65096
X22.39615Y19.65096
X23.51631Y23.39657
X24.10118Y20.70101
X17.95088Y24.6512
X17.95088Y23.47615
X17.95088Y22.27609
X17.95088Y21.12603
X24.02617Y16.44301
X19.70096Y16.46801
X23.10113Y21.07603
X14.67572Y18.75092
X14.4007Y21.60105
X2.7839Y28.66591
X5.7839Y28.66591
X14.7839Y28.66591
X17.7839Y28.66591
X20.7839Y28.66591
X23.7839Y28.66591
X7.2839Y27.16591
X10.2839Y27.16591
X13.2839Y27.16591
X19.2839Y27.16591
X22.2839Y27.16591
X5.7839Y25.66591
X11.7839Y25.66591
X14.7839Y25.66591
X17.7839Y25.66591
X20.7839Y25.66591
X2.7839Y22.66591
X11.7839Y22.66591
X4.2839Y21.16591
X10.2839Y21.16591
X2.7839Y19.66591
X5.7839Y19.66591
X11.7839Y19.66591
X17.7839Y19.66591
X24.15892Y19.69091
X4.2839Y18.16591
X7.2839Y18.16591
X13.2839Y18.16591
X19.75893Y18.51592
X24.18392Y18.16591
X2.7839Y16.66591
X5.7839Y16.66591
X8.7839Y16.66591
X14.7839Y16.66591
X4.2839Y15.16591
X7.2839Y15.16591
X10.2839Y15.16591
X19.2839Y15.16591
X21.85896Y15.19091
X2.7839Y13.66591
X5.7839Y13.66591
X8.7839Y13.66591
X11.7839Y13.66591
X19.83386Y13.69091
X23.7839Y13.66591
X7.2839Y12.16591
X10.2839Y12.16591
X13.2839Y12.16591
X19.2839Y12.16591
X2.7839Y10.66591
X21.35893Y11.99097
X23.7839Y10.66591
X7.2839Y9.1659
X10.2839Y9.1659
X13.2839Y9.1659
X17.7839Y9.1659
X19.2839Y9.1659
X21.35893Y7.99092
X23.7839Y7.66591
X17.7839Y6.16591
X20.7839Y6.16591
X20.7839Y4.66591
X22.2839Y3.16591
X14.7839Y13.66591
X13.2839Y15.16591
X11.7839Y16.66591
X10.2839Y18.16591
X8.7839Y19.66591
X7.2839Y21.16591
X5.7839Y22.66591
X2.7839Y25.66591
X17.7839Y7.66591
X14.7839Y7.66591
X17.7839Y1.6659
X19.2839Y1.6659
X14.7839Y1.6659
X1.93386Y7.6159
X1.88386Y5.06585
X24.10118Y26.05127
X0.57553Y2.51326
X0.57553Y5.06828
X0.57553Y7.62625
X0.57553Y10.15137
X0.57553Y12.7015
X0.57553Y15.25162
X0.57553Y17.77674
X0.57553Y20.30187
X0.60053Y22.85199
X0.65053Y25.40212
X0.60053Y27.95224
M30