G04 Layer: TopLayer*
G04 EasyEDA Pro v2.2.40.8, 2025-10-17 17:16:52*
G04 Gerber Generator version 0.3*
G04 Scale: 100 percent, Rotated: No, Reflected: No*
G04 Dimensions in millimeters*
G04 Leading zeros omitted, absolute positions, 4 integers and 5 decimals*
G04 Generated by one-click*
%FSLAX45Y45*%
%MOMM*%
%AMOval*1,1,$1,$2,$3*1,1,$1,$4,$5*20,1,$1,$2,$3,$4,$5,0*%
%AMRect*21,1,$1,$2,0,0,$3*%
%AMRoundRect*1,1,$1,$2,$3*1,1,$1,$4,$5*1,1,$1,0-$2,0-$3*1,1,$1,0-$4,0-$5*20,1,$1,$2,$3,$4,$5,0*20,1,$1,$4,$5,0-$2,0-$3,0*20,1,$1,0-$2,0-$3,0-$4,0-$5,0*20,1,$1,0-$4,0-$5,$2,$3,0*4,1,4,$2,$3,$4,$5,0-$2,0-$3,0-$4,0-$5,$2,$3,0*%
%ADD10C,0.2032*%
%ADD11C,0.254*%
%ADD12C,1.0*%
%ADD13R,0.54X0.79009*%
%ADD14R,0.79009X0.54*%
%ADD15R,0.54X0.56566*%
%ADD16R,0.5788X0.54*%
%ADD17R,0.56566X0.54*%
%ADD18R,0.55001X0.55001*%
%ADD19C,0.2*%
%ADD20C,1.524*%
%ADD21C,1.2*%
%ADD22C,1.1*%
%ADD23Oval,1.5X-0.17678X0.17678X0.17678X-0.17678*%
%ADD24Rect,1.5X2.0X45.0*%
%ADD25RoundRect,0.056X-0.112X-0.3095X-0.112X0.3095*%
%ADD26RoundRect,0.056X-0.3095X-0.112X-0.3095X0.112*%
%ADD27C,0.5*%
%ADD28C,0.25*%
%ADD29C,0.3*%
%ADD30C,0.255*%
G75*


G04 Copper Start*
G36*
G01X319999Y35814D02*
G01X189369Y35814D01*
G01X205141Y49876D01*
G01X217991Y66649D01*
G01X227463Y85538D01*
G01X233219Y105869D01*
G01X235054Y126919D01*
G01X232904Y147940D01*
G01X226844Y168182D01*
G01X217090Y186927D01*
G01X203990Y203506D01*
G01X188010Y217330D01*
G01X169717Y227907D01*
G01X149764Y234861D01*
G01X128860Y237943D01*
G01X107749Y237045D01*
G01X87182Y232199D01*
G01X67891Y223576D01*
G01X50563Y211484D01*
G01X35814Y196353D01*
G01X35814Y309808D01*
G01X50612Y294635D01*
G01X68004Y282521D01*
G01X87365Y273900D01*
G01X108004Y269081D01*
G01X129182Y268235D01*
G01X150140Y271393D01*
G01X170127Y278443D01*
G01X188429Y289131D01*
G01X204391Y303076D01*
G01X217439Y319777D01*
G01X227108Y338637D01*
G01X233052Y358981D01*
G01X235057Y380081D01*
G01X233052Y401180D01*
G01X227108Y421524D01*
G01X217439Y440384D01*
G01X204391Y457085D01*
G01X188429Y471030D01*
G01X170127Y481718D01*
G01X150140Y488768D01*
G01X129182Y491926D01*
G01X108004Y491080D01*
G01X87365Y486261D01*
G01X68004Y477640D01*
G01X50612Y465526D01*
G01X35814Y450353D01*
G01X35814Y563808D01*
G01X50612Y548635D01*
G01X68004Y536521D01*
G01X87365Y527900D01*
G01X108004Y523081D01*
G01X129182Y522235D01*
G01X150140Y525393D01*
G01X170127Y532443D01*
G01X188429Y543131D01*
G01X204391Y557076D01*
G01X217439Y573777D01*
G01X227108Y592637D01*
G01X233052Y612981D01*
G01X235057Y634081D01*
G01X233052Y655180D01*
G01X227108Y675524D01*
G01X217439Y694384D01*
G01X204391Y711085D01*
G01X188429Y725030D01*
G01X170127Y735718D01*
G01X150140Y742768D01*
G01X129182Y745926D01*
G01X108004Y745080D01*
G01X87365Y740261D01*
G01X68004Y731640D01*
G01X50612Y719526D01*
G01X35814Y704353D01*
G01X35814Y817808D01*
G01X49755Y803369D01*
G01X66049Y791650D01*
G01X84173Y783027D01*
G01X103545Y777777D01*
G01X123543Y776068D01*
G01X143525Y777955D01*
G01X162849Y783378D01*
G01X180895Y792162D01*
G01X197084Y804026D01*
G01X210896Y818589D01*
G01X211431Y819197D01*
G01X211626Y819420D01*
G01X224441Y834214D01*
G01X229120Y839011D01*
G01X789699Y839011D01*
G01X789699Y821070D01*
G01X793429Y803523D01*
G01X800726Y787133D01*
G01X811270Y772620D01*
G01X824602Y760615D01*
G01X840139Y751645D01*
G01X857201Y746102D01*
G01X875043Y744226D01*
G01X892884Y746102D01*
G01X909946Y751645D01*
G01X925483Y760615D01*
G01X938815Y772620D01*
G01X949360Y787133D01*
G01X956657Y803523D01*
G01X960387Y821070D01*
G01X960387Y839011D01*
G01X956657Y856558D01*
G01X949360Y872948D01*
G01X938815Y887461D01*
G01X925483Y899466D01*
G01X909946Y908436D01*
G01X892884Y913979D01*
G01X875043Y915855D01*
G01X875043Y915855D01*
G01X857201Y913979D01*
G01X840139Y908436D01*
G01X824602Y899466D01*
G01X811270Y887461D01*
G01X800726Y872948D01*
G01X793429Y856558D01*
G01X789699Y839011D01*
G01X229120Y839011D01*
G01X229630Y839533D01*
G01X232230Y841729D01*
G01X565028Y841729D01*
G01X576885Y843290D01*
G01X587935Y847867D01*
G01X597423Y855148D01*
G01X714011Y971736D01*
G01X1572552Y971736D01*
G01X1558387Y956544D01*
G01X1547271Y938998D01*
G01X1539585Y919701D01*
G01X1535594Y899317D01*
G01X1535436Y878547D01*
G01X1539115Y858105D01*
G01X1546505Y838693D01*
G01X1557352Y820979D01*
G01X1571283Y805573D01*
G01X1587819Y793004D01*
G01X1606391Y783703D01*
G01X1626362Y777992D01*
G01X1647043Y776067D01*
G01X1667725Y777992D01*
G01X1687695Y783703D01*
G01X1706267Y793004D01*
G01X1722804Y805573D01*
G01X1736735Y820979D01*
G01X1747582Y838693D01*
G01X1754972Y858105D01*
G01X1758651Y878547D01*
G01X1758492Y899317D01*
G01X1754501Y919701D01*
G01X1746816Y938998D01*
G01X1735699Y956544D01*
G01X1721534Y971736D01*
G01X1772586Y971736D01*
G01X1784444Y973297D01*
G01X1795493Y977874D01*
G01X1804982Y985154D01*
G01X1831298Y1011470D01*
G01X1874756Y1011470D01*
G01X1874756Y993530D01*
G01X1878486Y975982D01*
G01X1885783Y959593D01*
G01X1896328Y945079D01*
G01X1909660Y933075D01*
G01X1925196Y924105D01*
G01X1942258Y918561D01*
G01X1960100Y916686D01*
G01X1977942Y918561D01*
G01X1995004Y924105D01*
G01X2010540Y933075D01*
G01X2023872Y945079D01*
G01X2034417Y959593D01*
G01X2041714Y975982D01*
G01X2045444Y993530D01*
G01X2045444Y1011470D01*
G01X2041714Y1029018D01*
G01X2034417Y1045407D01*
G01X2023872Y1059921D01*
G01X2010540Y1071925D01*
G01X1995004Y1080895D01*
G01X1977942Y1086439D01*
G01X1960100Y1088314D01*
G01X1960100Y1088314D01*
G01X1942258Y1086439D01*
G01X1925196Y1080895D01*
G01X1909660Y1071925D01*
G01X1896328Y1059921D01*
G01X1885783Y1045407D01*
G01X1878486Y1029018D01*
G01X1874756Y1011470D01*
G01X1831298Y1011470D01*
G01X1936510Y1116683D01*
G01X1944223Y1116683D01*
G01X1949927Y1109423D01*
G01X1957298Y1103863D01*
G01X1965845Y1100372D01*
G01X1975000Y1099182D01*
G01X2030002Y1099182D01*
G01X2041069Y1100935D01*
G01X2051052Y1106022D01*
G01X2058976Y1113945D01*
G01X2064063Y1123929D01*
G01X2065816Y1134996D01*
G01X2065816Y1189997D01*
G01X2204185Y1189997D01*
G01X2204185Y1134996D01*
G01X2205937Y1123929D01*
G01X2211024Y1113945D01*
G01X2218948Y1106022D01*
G01X2228931Y1100935D01*
G01X2239999Y1099182D01*
G01X2295000Y1099182D01*
G01X2306067Y1100935D01*
G01X2316051Y1106022D01*
G01X2323974Y1113945D01*
G01X2329061Y1123929D01*
G01X2330814Y1134996D01*
G01X2330814Y1189997D01*
G01X2329389Y1200000D01*
G01X2330814Y1210002D01*
G01X2330814Y1265004D01*
G01X2329061Y1276071D01*
G01X2323974Y1286055D01*
G01X2316051Y1293978D01*
G01X2306067Y1299065D01*
G01X2295000Y1300818D01*
G01X2239999Y1300818D01*
G01X2228931Y1299065D01*
G01X2218948Y1293978D01*
G01X2211024Y1286055D01*
G01X2205937Y1276071D01*
G01X2204185Y1265004D01*
G01X2204185Y1210002D01*
G01X2205610Y1200000D01*
G01X2204185Y1189997D01*
G01X2204185Y1189997D01*
G01X2065816Y1189997D01*
G01X2064390Y1200000D01*
G01X2065816Y1210002D01*
G01X2065816Y1265004D01*
G01X2064063Y1276071D01*
G01X2058976Y1286055D01*
G01X2051052Y1293978D01*
G01X2041069Y1299065D01*
G01X2030002Y1300818D01*
G01X1975000Y1300818D01*
G01X1963933Y1299065D01*
G01X1953949Y1293978D01*
G01X1946026Y1286055D01*
G01X1940939Y1276071D01*
G01X1939186Y1265004D01*
G01X1939186Y1210002D01*
G01X1939226Y1208311D01*
G01X1917534Y1208311D01*
G01X1905676Y1206750D01*
G01X1894627Y1202173D01*
G01X1885138Y1194892D01*
G01X1753610Y1063364D01*
G01X1726735Y1063364D01*
G01X1739589Y1078974D01*
G01X1749427Y1096641D01*
G01X1755928Y1115789D01*
G01X1758881Y1135794D01*
G01X1758189Y1156003D01*
G01X1753874Y1175759D01*
G01X1746078Y1194418D01*
G01X1735055Y1211370D01*
G01X1721163Y1226065D01*
G01X1704856Y1238022D01*
G01X1686665Y1246853D01*
G01X1667182Y1252269D01*
G01X1647043Y1254095D01*
G01X1626904Y1252269D01*
G01X1607422Y1246853D01*
G01X1589230Y1238022D01*
G01X1572923Y1226065D01*
G01X1559031Y1211370D01*
G01X1548008Y1194418D01*
G01X1540212Y1175759D01*
G01X1535898Y1156003D01*
G01X1535206Y1135794D01*
G01X1538158Y1115789D01*
G01X1544660Y1096641D01*
G01X1554497Y1078974D01*
G01X1567351Y1063364D01*
G01X695034Y1063364D01*
G01X683176Y1061803D01*
G01X672127Y1057226D01*
G01X662639Y1049945D01*
G01X546051Y933357D01*
G01X227976Y933357D01*
G01X226295Y933431D01*
G01X219345Y945437D01*
G01X217551Y948230D01*
G01X210991Y957451D01*
G01X209187Y959680D01*
G01X205098Y964331D01*
G01X203757Y965749D01*
G01X187765Y979504D01*
G01X169479Y990016D01*
G01X149546Y996914D01*
G01X128673Y999953D01*
G01X107600Y999025D01*
G01X87076Y994163D01*
G01X67826Y985539D01*
G01X50534Y973460D01*
G01X35814Y958353D01*
G01X35814Y1071808D01*
G01X50612Y1056635D01*
G01X68004Y1044521D01*
G01X87365Y1035900D01*
G01X108004Y1031081D01*
G01X129182Y1030235D01*
G01X150140Y1033393D01*
G01X170127Y1040443D01*
G01X188429Y1051131D01*
G01X204391Y1065076D01*
G01X217439Y1081777D01*
G01X227108Y1100637D01*
G01X233052Y1120981D01*
G01X235057Y1142081D01*
G01X233052Y1163180D01*
G01X227108Y1183524D01*
G01X219116Y1199114D01*
G01X398091Y1199114D01*
G01X401357Y1180771D01*
G01X408297Y1163480D01*
G01X418619Y1147969D01*
G01X431890Y1134892D01*
G01X418619Y1121814D01*
G01X408297Y1106303D01*
G01X401357Y1089013D01*
G01X398091Y1070669D01*
G01X398638Y1052046D01*
G01X402975Y1033926D01*
G01X410918Y1017072D01*
G01X422133Y1002194D01*
G01X436148Y989918D01*
G01X452374Y980760D01*
G01X470128Y975107D01*
G01X488661Y973196D01*
G01X488661Y973196D01*
G01X507194Y975107D01*
G01X524948Y980760D01*
G01X541173Y989918D01*
G01X555189Y1002194D01*
G01X566404Y1017072D01*
G01X574347Y1033926D01*
G01X578683Y1052046D01*
G01X579230Y1070669D01*
G01X575965Y1089013D01*
G01X569025Y1106303D01*
G01X558703Y1121814D01*
G01X545432Y1134892D01*
G01X558703Y1147969D01*
G01X569025Y1163480D01*
G01X575965Y1180771D01*
G01X579230Y1199114D01*
G01X578683Y1217738D01*
G01X574347Y1235858D01*
G01X566404Y1252711D01*
G01X555189Y1267589D01*
G01X541173Y1279866D01*
G01X524948Y1289023D01*
G01X507194Y1294676D01*
G01X488661Y1296588D01*
G01X470128Y1294676D01*
G01X452374Y1289023D01*
G01X436148Y1279866D01*
G01X422133Y1267589D01*
G01X410918Y1252711D01*
G01X402975Y1235858D01*
G01X398638Y1217738D01*
G01X398091Y1199114D01*
G01X219116Y1199114D01*
G01X217439Y1202384D01*
G01X204391Y1219085D01*
G01X188429Y1233030D01*
G01X170127Y1243718D01*
G01X150140Y1250768D01*
G01X129182Y1253926D01*
G01X108004Y1253080D01*
G01X87365Y1248261D01*
G01X68004Y1239640D01*
G01X50612Y1227526D01*
G01X35814Y1212353D01*
G01X35814Y1325808D01*
G01X50612Y1310635D01*
G01X68004Y1298521D01*
G01X87365Y1289900D01*
G01X108004Y1285081D01*
G01X129182Y1284235D01*
G01X150140Y1287393D01*
G01X170127Y1294443D01*
G01X188429Y1305131D01*
G01X204391Y1319076D01*
G01X217439Y1335777D01*
G01X227108Y1354637D01*
G01X233052Y1374981D01*
G01X235057Y1396081D01*
G01X1535029Y1396081D01*
G01X1536936Y1375498D01*
G01X1542593Y1355616D01*
G01X1551807Y1337113D01*
G01X1564264Y1320617D01*
G01X1579540Y1306691D01*
G01X1597114Y1295810D01*
G01X1616389Y1288343D01*
G01X1636708Y1284544D01*
G01X1657379Y1284544D01*
G01X1677697Y1288343D01*
G01X1696972Y1295810D01*
G01X1714547Y1306691D01*
G01X1729823Y1320617D01*
G01X1742279Y1337113D01*
G01X1751493Y1355616D01*
G01X1757150Y1375498D01*
G01X1759057Y1396081D01*
G01X1759057Y1396081D01*
G01X1757150Y1416663D01*
G01X1751493Y1436545D01*
G01X1742279Y1455048D01*
G01X1729823Y1471544D01*
G01X1714547Y1485470D01*
G01X1696972Y1496351D01*
G01X1677697Y1503818D01*
G01X1657379Y1507617D01*
G01X1636708Y1507617D01*
G01X1616389Y1503818D01*
G01X1597114Y1496351D01*
G01X1579540Y1485470D01*
G01X1564264Y1471544D01*
G01X1551807Y1455048D01*
G01X1542593Y1436545D01*
G01X1536936Y1416663D01*
G01X1535029Y1396081D01*
G01X235057Y1396081D01*
G01X235057Y1396081D01*
G01X233052Y1417180D01*
G01X227108Y1437524D01*
G01X217439Y1456384D01*
G01X204391Y1473085D01*
G01X188429Y1487030D01*
G01X170127Y1497718D01*
G01X150140Y1504768D01*
G01X129182Y1507926D01*
G01X108004Y1507080D01*
G01X87365Y1502261D01*
G01X68004Y1493640D01*
G01X50612Y1481526D01*
G01X35814Y1466353D01*
G01X35814Y1579808D01*
G01X50612Y1564635D01*
G01X68004Y1552521D01*
G01X87365Y1543900D01*
G01X108004Y1539081D01*
G01X129182Y1538235D01*
G01X150140Y1541393D01*
G01X170127Y1548443D01*
G01X188429Y1559131D01*
G01X204391Y1573076D01*
G01X217439Y1589777D01*
G01X227108Y1608637D01*
G01X233052Y1628981D01*
G01X235057Y1650081D01*
G01X233052Y1671180D01*
G01X227108Y1691524D01*
G01X217439Y1710384D01*
G01X204391Y1727085D01*
G01X188429Y1741030D01*
G01X170127Y1751718D01*
G01X150140Y1758768D01*
G01X129182Y1761926D01*
G01X108004Y1761080D01*
G01X87365Y1756261D01*
G01X68004Y1747640D01*
G01X50612Y1735526D01*
G01X35814Y1720353D01*
G01X35814Y1833808D01*
G01X50612Y1818635D01*
G01X68004Y1806521D01*
G01X87365Y1797900D01*
G01X108004Y1793081D01*
G01X129182Y1792235D01*
G01X150140Y1795393D01*
G01X170127Y1802443D01*
G01X188429Y1813131D01*
G01X204391Y1827076D01*
G01X217439Y1843777D01*
G01X227108Y1862637D01*
G01X233052Y1882981D01*
G01X235057Y1904081D01*
G01X233052Y1925180D01*
G01X227108Y1945524D01*
G01X217439Y1964384D01*
G01X204391Y1981085D01*
G01X188429Y1995030D01*
G01X170127Y2005718D01*
G01X150140Y2012768D01*
G01X129182Y2015926D01*
G01X108004Y2015080D01*
G01X87365Y2010261D01*
G01X68004Y2001640D01*
G01X50612Y1989526D01*
G01X35814Y1974353D01*
G01X35814Y2087808D01*
G01X50612Y2072635D01*
G01X68004Y2060521D01*
G01X87365Y2051900D01*
G01X108004Y2047081D01*
G01X129182Y2046235D01*
G01X150140Y2049393D01*
G01X170127Y2056443D01*
G01X188429Y2067131D01*
G01X204391Y2081076D01*
G01X217439Y2097777D01*
G01X227108Y2116637D01*
G01X233052Y2136981D01*
G01X235057Y2158081D01*
G01X233052Y2179180D01*
G01X227108Y2199524D01*
G01X217439Y2218384D01*
G01X204391Y2235085D01*
G01X188429Y2249030D01*
G01X170127Y2259718D01*
G01X150140Y2266768D01*
G01X129182Y2269926D01*
G01X108004Y2269080D01*
G01X87365Y2264261D01*
G01X68004Y2255640D01*
G01X50612Y2243526D01*
G01X35814Y2228353D01*
G01X35814Y2341808D01*
G01X50612Y2326635D01*
G01X68004Y2314521D01*
G01X87365Y2305900D01*
G01X108004Y2301081D01*
G01X129182Y2300235D01*
G01X150140Y2303393D01*
G01X170127Y2310443D01*
G01X188429Y2321131D01*
G01X204391Y2335076D01*
G01X217439Y2351777D01*
G01X227108Y2370637D01*
G01X233052Y2390981D01*
G01X235057Y2412081D01*
G01X233052Y2433180D01*
G01X227108Y2453524D01*
G01X217439Y2472384D01*
G01X204391Y2489085D01*
G01X188429Y2503030D01*
G01X170127Y2513718D01*
G01X150140Y2520768D01*
G01X129182Y2523926D01*
G01X108004Y2523080D01*
G01X87365Y2518261D01*
G01X68004Y2509640D01*
G01X50612Y2497526D01*
G01X35814Y2482353D01*
G01X35814Y2595808D01*
G01X50612Y2580635D01*
G01X68004Y2568521D01*
G01X87365Y2559900D01*
G01X108004Y2555081D01*
G01X129182Y2554235D01*
G01X150140Y2557393D01*
G01X170127Y2564443D01*
G01X188429Y2575131D01*
G01X204391Y2589076D01*
G01X217439Y2605777D01*
G01X227108Y2624637D01*
G01X233052Y2644981D01*
G01X235057Y2666081D01*
G01X233052Y2687180D01*
G01X227108Y2707524D01*
G01X217439Y2726384D01*
G01X204391Y2743085D01*
G01X188429Y2757030D01*
G01X170127Y2767718D01*
G01X150140Y2774768D01*
G01X129182Y2777926D01*
G01X108004Y2777080D01*
G01X87365Y2772261D01*
G01X68004Y2763640D01*
G01X50612Y2751526D01*
G01X35814Y2736353D01*
G01X35814Y2849808D01*
G01X49856Y2835282D01*
G01X66279Y2823515D01*
G01X84548Y2814889D01*
G01X104070Y2809685D01*
G01X124209Y2808073D01*
G01X144310Y2810104D01*
G01X163719Y2815713D01*
G01X181805Y2824717D01*
G01X197980Y2836824D01*
G01X211716Y2851639D01*
G01X222568Y2868681D01*
G01X230182Y2887395D01*
G01X234311Y2907172D01*
G01X340336Y2907172D01*
G01X334213Y2889964D01*
G01X331466Y2871906D01*
G01X332195Y2853656D01*
G01X336375Y2835875D01*
G01X343852Y2819211D01*
G01X354357Y2804268D01*
G01X367505Y2791591D01*
G01X353806Y2778264D01*
G01X343024Y2762484D01*
G01X335589Y2744878D01*
G01X331796Y2726147D01*
G01X331796Y2707035D01*
G01X335589Y2688303D01*
G01X343024Y2670697D01*
G01X353806Y2654917D01*
G01X367505Y2641591D01*
G01X353806Y2628264D01*
G01X343024Y2612484D01*
G01X335589Y2594878D01*
G01X331796Y2576147D01*
G01X331796Y2557035D01*
G01X335589Y2538303D01*
G01X343024Y2520697D01*
G01X353806Y2504917D01*
G01X367506Y2491591D01*
G01X353436Y2477821D01*
G01X342477Y2461467D01*
G01X335093Y2443219D01*
G01X331593Y2423846D01*
G01X332127Y2404168D01*
G01X336671Y2385013D01*
G01X345034Y2367192D01*
G01X356863Y2351456D01*
G01X371658Y2338469D01*
G01X388795Y2328781D01*
G01X407550Y2322799D01*
G01X427132Y2320777D01*
G01X446714Y2322799D01*
G01X465469Y2328781D01*
G01X482606Y2338469D01*
G01X497401Y2351456D01*
G01X509230Y2367192D01*
G01X517593Y2385013D01*
G01X522137Y2404168D01*
G01X522671Y2423846D01*
G01X519171Y2443219D01*
G01X511786Y2461467D01*
G01X500828Y2477821D01*
G01X486758Y2491591D01*
G01X500458Y2504917D01*
G01X511240Y2520697D01*
G01X518675Y2538303D01*
G01X522468Y2557035D01*
G01X522468Y2576147D01*
G01X518675Y2594878D01*
G01X511240Y2612484D01*
G01X500458Y2628264D01*
G01X486759Y2641591D01*
G01X500458Y2654917D01*
G01X511240Y2670697D01*
G01X518675Y2688303D01*
G01X522468Y2707035D01*
G01X522468Y2726147D01*
G01X518675Y2744878D01*
G01X511240Y2762484D01*
G01X500458Y2778264D01*
G01X486759Y2791591D01*
G01X499907Y2804268D01*
G01X510412Y2819211D01*
G01X517889Y2835875D01*
G01X522069Y2853656D01*
G01X522798Y2871906D01*
G01X520051Y2889964D01*
G01X513928Y2907172D01*
G01X730103Y2907172D01*
G01X722956Y2887933D01*
G01X719438Y2867714D01*
G01X719669Y2847192D01*
G01X723640Y2827056D01*
G01X731218Y2807983D01*
G01X742149Y2790613D01*
G01X756065Y2775529D01*
G01X772500Y2763237D01*
G01X790902Y2754150D01*
G01X810653Y2748572D01*
G01X831090Y2746692D01*
G01X851526Y2748572D01*
G01X871277Y2754150D01*
G01X889679Y2763237D01*
G01X906114Y2775529D01*
G01X920030Y2790613D01*
G01X930961Y2807983D01*
G01X938539Y2827056D01*
G01X942510Y2847192D01*
G01X942741Y2867714D01*
G01X939223Y2887933D01*
G01X932076Y2907172D01*
G01X984103Y2907172D01*
G01X976956Y2887933D01*
G01X973438Y2867714D01*
G01X973669Y2847192D01*
G01X977640Y2827056D01*
G01X985218Y2807983D01*
G01X996149Y2790613D01*
G01X1010065Y2775529D01*
G01X1026500Y2763237D01*
G01X1044902Y2754150D01*
G01X1064653Y2748572D01*
G01X1085090Y2746692D01*
G01X1105526Y2748572D01*
G01X1125277Y2754150D01*
G01X1143679Y2763237D01*
G01X1160114Y2775529D01*
G01X1174030Y2790613D01*
G01X1184961Y2807983D01*
G01X1192539Y2827056D01*
G01X1196510Y2847192D01*
G01X1196741Y2867714D01*
G01X1193223Y2887933D01*
G01X1186076Y2907172D01*
G01X1238103Y2907172D01*
G01X1230956Y2887933D01*
G01X1227438Y2867714D01*
G01X1227669Y2847192D01*
G01X1231640Y2827056D01*
G01X1239218Y2807983D01*
G01X1250149Y2790613D01*
G01X1264065Y2775529D01*
G01X1280500Y2763237D01*
G01X1298902Y2754150D01*
G01X1318653Y2748572D01*
G01X1339090Y2746692D01*
G01X1359526Y2748572D01*
G01X1379277Y2754150D01*
G01X1397679Y2763237D01*
G01X1414114Y2775529D01*
G01X1428030Y2790613D01*
G01X1438961Y2807983D01*
G01X1446539Y2827056D01*
G01X1450510Y2847192D01*
G01X1450741Y2867714D01*
G01X1447223Y2887933D01*
G01X1440076Y2907172D01*
G01X1535775Y2907172D01*
G01X1539947Y2887255D01*
G01X1547652Y2868422D01*
G01X1558638Y2851294D01*
G01X1572541Y2836435D01*
G01X1588903Y2824337D01*
G01X1607183Y2815399D01*
G01X1626779Y2809915D01*
G01X1647043Y2808067D01*
G01X1667308Y2809915D01*
G01X1686903Y2815399D01*
G01X1705184Y2824337D01*
G01X1721545Y2836435D01*
G01X1735448Y2851294D01*
G01X1746434Y2868422D01*
G01X1754140Y2887255D01*
G01X1758311Y2907172D01*
G01X2464986Y2907172D01*
G01X2464986Y2631353D01*
G01X2457777Y2642902D01*
G01X2448180Y2652557D01*
G01X2436675Y2659836D01*
G01X2423839Y2664373D01*
G01X2410316Y2665941D01*
G01X2396782Y2664461D01*
G01X2383917Y2660008D01*
G01X2372365Y2652804D01*
G01X2362705Y2643211D01*
G01X2355421Y2631710D01*
G01X2350878Y2618876D01*
G01X2349304Y2605354D01*
G01X2350778Y2591820D01*
G01X2355225Y2578952D01*
G01X2336075Y2578952D01*
G01X2332213Y2578210D01*
G01X2328902Y2576089D01*
G01X2286067Y2535394D01*
G01X1820670Y2535394D01*
G01X1815463Y2533999D01*
G01X1811651Y2530187D01*
G01X1810256Y2524980D01*
G01X1810256Y2505370D01*
G01X1808356Y2498866D01*
G01X1807715Y2492120D01*
G01X1807715Y2453431D01*
G01X1754875Y2453431D01*
G01X1752966Y2453520D01*
G01X1750150Y2458250D01*
G01X1745545Y2466238D01*
G01X1744227Y2468350D01*
G01X1738320Y2477124D01*
G01X1736449Y2479655D01*
G01X1734832Y2481652D01*
G01X1733374Y2483453D01*
G01X1732797Y2484167D01*
G01X1731152Y2486059D01*
G01X1716901Y2499642D01*
G01X1700491Y2510521D01*
G01X1682431Y2518358D01*
G01X1663277Y2522912D01*
G01X1643622Y2524042D01*
G01X1624073Y2521714D01*
G01X1605233Y2515999D01*
G01X1587685Y2507074D01*
G01X1571970Y2495214D01*
G01X1558575Y2480786D01*
G01X1547912Y2464236D01*
G01X1540312Y2446074D01*
G01X1536009Y2426863D01*
G01X1535136Y2407194D01*
G01X1537720Y2387677D01*
G01X1543681Y2368914D01*
G01X1552835Y2351484D01*
G01X1564900Y2335926D01*
G01X1545075Y2335926D01*
G01X1533218Y2334365D01*
G01X1522168Y2329788D01*
G01X1512680Y2322507D01*
G01X1467678Y2277505D01*
G01X1460397Y2268017D01*
G01X1455820Y2256967D01*
G01X1454259Y2245110D01*
G01X1454259Y1930094D01*
G01X1455820Y1918237D01*
G01X1460397Y1907187D01*
G01X1467678Y1897699D01*
G01X1493691Y1871685D01*
G01X1503180Y1864404D01*
G01X1514229Y1859828D01*
G01X1526087Y1858267D01*
G01X1537409Y1858267D01*
G01X1540039Y1856041D01*
G01X1545246Y1850697D01*
G01X1558231Y1835676D01*
G01X1559260Y1834501D01*
G01X1569339Y1823401D01*
G01X1496549Y1823401D01*
G01X1423381Y1896568D01*
G01X1423381Y2541148D01*
G01X1502500Y2620267D01*
G01X1537409Y2620267D01*
G01X1540039Y2618041D01*
G01X1545246Y2612697D01*
G01X1558231Y2597676D01*
G01X1559260Y2596501D01*
G01X1573990Y2581167D01*
G01X1591352Y2568892D01*
G01X1610721Y2560119D01*
G01X1631398Y2555164D01*
G01X1652639Y2554206D01*
G01X1673679Y2557279D01*
G01X1693759Y2564273D01*
G01X1712155Y2574935D01*
G01X1728206Y2588881D01*
G01X1741331Y2605609D01*
G01X1751060Y2624515D01*
G01X1757040Y2644920D01*
G01X1759057Y2666087D01*
G01X1757038Y2687253D01*
G01X1751055Y2707657D01*
G01X1741325Y2726563D01*
G01X1728197Y2743289D01*
G01X1712145Y2757234D01*
G01X1693747Y2767893D01*
G01X1673667Y2774885D01*
G01X1652627Y2777955D01*
G01X1631386Y2776995D01*
G01X1610709Y2772038D01*
G01X1591341Y2763263D01*
G01X1573981Y2750986D01*
G01X1559253Y2735650D01*
G01X1558080Y2734311D01*
G01X1545246Y2719464D01*
G01X1540039Y2714120D01*
G01X1537409Y2711895D01*
G01X1483523Y2711895D01*
G01X1471665Y2710333D01*
G01X1460616Y2705757D01*
G01X1451127Y2698476D01*
G01X1345172Y2592520D01*
G01X1337891Y2583032D01*
G01X1333314Y2571982D01*
G01X1331753Y2560125D01*
G01X1331753Y1877592D01*
G01X1333314Y1865734D01*
G01X1337891Y1854685D01*
G01X1345172Y1845196D01*
G01X1445177Y1745191D01*
G01X1454665Y1737911D01*
G01X1465715Y1733334D01*
G01X1477572Y1731773D01*
G01X1570404Y1731773D01*
G01X1556771Y1716399D01*
G01X1546176Y1698793D01*
G01X1538975Y1679548D01*
G01X1535410Y1659312D01*
G01X1535602Y1638764D01*
G01X1539544Y1618598D01*
G01X1547104Y1599491D01*
G01X1558027Y1582087D01*
G01X1571945Y1566970D01*
G01X1588390Y1554650D01*
G01X1606809Y1545542D01*
G01X1626582Y1539951D01*
G01X1647043Y1538067D01*
G01X1667505Y1539951D01*
G01X1687278Y1545542D01*
G01X1705696Y1554650D01*
G01X1722142Y1566970D01*
G01X1736060Y1582087D01*
G01X1746982Y1599491D01*
G01X1754542Y1618598D01*
G01X1758484Y1638764D01*
G01X1758676Y1659312D01*
G01X1755112Y1679548D01*
G01X1747911Y1698793D01*
G01X1737315Y1716399D01*
G01X1723682Y1731773D01*
G01X1791553Y1731773D01*
G01X1803875Y1730579D01*
G01X1815739Y1727042D01*
G01X1815739Y1680079D01*
G01X1815373Y1673646D01*
G01X1807451Y1663953D01*
G01X1802449Y1652479D01*
G01X1800739Y1640079D01*
G01X1800739Y1612150D01*
G01X1801685Y1603412D01*
G01X1804481Y1595079D01*
G01X1801685Y1586746D01*
G01X1800739Y1578008D01*
G01X1800739Y1540079D01*
G01X1802300Y1528221D01*
G01X1806877Y1517172D01*
G01X1814158Y1507683D01*
G01X1823646Y1500403D01*
G01X1834696Y1495826D01*
G01X1846553Y1494265D01*
G01X1876553Y1494265D01*
G01X1888411Y1495826D01*
G01X1899460Y1500403D01*
G01X1908948Y1507683D01*
G01X1916229Y1517172D01*
G01X1920806Y1528221D01*
G01X1922367Y1540079D01*
G01X1922367Y1578008D01*
G01X1921420Y1586746D01*
G01X1918625Y1595078D01*
G01X1921421Y1603411D01*
G01X1922367Y1612150D01*
G01X1922367Y1640079D01*
G01X1920657Y1652479D01*
G01X1915655Y1663953D01*
G01X1907733Y1673646D01*
G01X1907367Y1680079D01*
G01X1907367Y1860077D01*
G01X1990770Y1943481D01*
G01X1991785Y1944528D01*
G01X1991785Y1792121D01*
G01X1984721Y1786405D01*
G01X1979323Y1779095D01*
G01X1975938Y1770661D01*
G01X1974785Y1761647D01*
G01X1974785Y1705081D01*
G01X1975618Y1697403D01*
G01X1978077Y1690082D01*
G01X1975618Y1682762D01*
G01X1974785Y1675084D01*
G01X1974785Y1618518D01*
G01X1976538Y1607451D01*
G01X1981625Y1597467D01*
G01X1989548Y1589544D01*
G01X1999532Y1584457D01*
G01X2010599Y1582704D01*
G01X2064600Y1582704D01*
G01X2075667Y1584457D01*
G01X2085651Y1589544D01*
G01X2093574Y1597467D01*
G01X2098661Y1607451D01*
G01X2100414Y1618518D01*
G01X2100414Y1675084D01*
G01X2098449Y1686782D01*
G01X2165104Y1686782D01*
G01X2173817Y1687618D01*
G01X2182212Y1690096D01*
G01X2188001Y1690096D01*
G01X2196396Y1687618D01*
G01X2205109Y1686782D01*
G01X2275234Y1686782D01*
G01X2273041Y1679833D01*
G01X2272300Y1672584D01*
G01X2272300Y1616018D01*
G01X2274053Y1604951D01*
G01X2279140Y1594967D01*
G01X2287063Y1587044D01*
G01X2297047Y1581957D01*
G01X2308114Y1580204D01*
G01X2362114Y1580204D01*
G01X2373181Y1581957D01*
G01X2383165Y1587044D01*
G01X2391088Y1594967D01*
G01X2396175Y1604951D01*
G01X2397928Y1616018D01*
G01X2397928Y1672584D01*
G01X2397095Y1680262D01*
G01X2394636Y1687582D01*
G01X2397095Y1694903D01*
G01X2397928Y1702581D01*
G01X2397928Y1759147D01*
G01X2396775Y1768161D01*
G01X2393391Y1776595D01*
G01X2387992Y1783905D01*
G01X2380928Y1789621D01*
G01X2380928Y1987597D01*
G01X2379367Y1999455D01*
G01X2374790Y2010504D01*
G01X2367509Y2019992D01*
G01X2335267Y2052235D01*
G01X2342920Y2056397D01*
G01X2349899Y2061610D01*
G01X2354002Y2046663D01*
G01X2361749Y2033239D01*
G01X2372639Y2022209D01*
G01X2385963Y2014290D01*
G01X2400856Y2009997D01*
G01X2416350Y2009607D01*
G01X2431440Y2013148D01*
G01X2445145Y2020387D01*
G01X2456574Y2030857D01*
G01X2464986Y2043875D01*
G01X2464986Y492173D01*
G01X2463755Y479665D01*
G01X2460111Y467637D01*
G01X2454192Y456549D01*
G01X2446227Y446827D01*
G01X2054753Y54654D01*
G01X2045022Y46655D01*
G01X2033916Y40711D01*
G01X2021862Y37050D01*
G01X2009326Y35814D01*
G01X1713369Y35814D01*
G01X1728391Y49076D01*
G01X1740810Y64803D01*
G01X1750228Y82491D01*
G01X1756344Y101574D01*
G01X1758961Y121441D01*
G01X1757997Y141457D01*
G01X1753482Y160981D01*
G01X1745560Y179387D01*
G01X1734485Y196088D01*
G01X1720612Y210548D01*
G01X1704384Y222305D01*
G01X1686322Y230982D01*
G01X1667002Y236302D01*
G01X1647043Y238095D01*
G01X1627085Y236302D01*
G01X1607765Y230982D01*
G01X1589702Y222305D01*
G01X1573474Y210548D01*
G01X1559601Y196088D01*
G01X1548527Y179387D01*
G01X1540605Y160981D01*
G01X1536090Y141457D01*
G01X1535125Y121441D01*
G01X1537743Y101574D01*
G01X1543858Y82491D01*
G01X1553276Y64803D01*
G01X1565695Y49076D01*
G01X1580718Y35814D01*
G01X1450344Y35814D01*
G01X1436061Y37423D01*
G01X1422495Y42170D01*
G01X1410325Y49817D01*
G01X1400161Y59981D01*
G01X1392514Y72151D01*
G01X1387767Y85717D01*
G01X1386158Y100000D01*
G01X1386158Y380074D01*
G01X1535029Y380074D01*
G01X1537048Y358908D01*
G01X1543031Y338504D01*
G01X1552762Y319598D01*
G01X1565889Y302872D01*
G01X1581941Y288928D01*
G01X1600339Y278268D01*
G01X1620419Y271276D01*
G01X1641459Y268206D01*
G01X1662701Y269166D01*
G01X1676910Y272573D01*
G01X1926727Y272573D01*
G01X1929552Y252319D01*
G01X1936051Y232930D01*
G01X1946001Y215065D01*
G01X1959065Y199333D01*
G01X1959065Y199333D01*
G01X1994421Y163978D01*
G01X2010153Y150914D01*
G01X2028018Y140963D01*
G01X2047407Y134464D01*
G01X2067660Y131639D01*
G01X2088088Y132584D01*
G01X2107994Y137266D01*
G01X2126701Y145525D01*
G01X2143571Y157082D01*
G01X2158031Y171542D01*
G01X2169588Y188412D01*
G01X2177847Y207119D01*
G01X2182529Y227025D01*
G01X2183474Y247453D01*
G01X2180649Y267706D01*
G01X2174150Y287095D01*
G01X2164199Y304960D01*
G01X2151135Y320692D01*
G01X2115780Y356048D01*
G01X2100048Y369112D01*
G01X2082183Y379062D01*
G01X2062793Y385561D01*
G01X2042540Y388386D01*
G01X2022113Y387442D01*
G01X2002207Y382760D01*
G01X1983500Y374500D01*
G01X1966629Y362943D01*
G01X1952170Y348484D01*
G01X1940613Y331613D01*
G01X1932353Y312906D01*
G01X1927671Y293000D01*
G01X1926727Y272573D01*
G01X1676910Y272573D01*
G01X1683377Y274123D01*
G01X1702745Y282898D01*
G01X1720106Y295175D01*
G01X1734834Y310511D01*
G01X1736006Y311850D01*
G01X1748840Y326697D01*
G01X1754048Y332041D01*
G01X1756678Y334267D01*
G01X1800150Y334267D01*
G01X1812007Y335828D01*
G01X1823057Y340404D01*
G01X1832545Y347685D01*
G01X1889986Y405126D01*
G01X1897267Y414614D01*
G01X1901844Y425664D01*
G01X1903405Y437521D01*
G01X1903405Y495425D01*
G01X2108115Y495425D01*
G01X2108115Y484220D01*
G01X2111578Y473563D01*
G01X2118164Y464498D01*
G01X2259586Y323077D01*
G01X2268651Y316490D01*
G01X2279307Y313028D01*
G01X2290513Y313028D01*
G01X2301169Y316490D01*
G01X2310234Y323077D01*
G01X2416300Y429143D01*
G01X2416300Y429143D01*
G01X2422886Y438208D01*
G01X2426349Y448864D01*
G01X2426349Y460069D01*
G01X2422886Y470726D01*
G01X2416300Y479791D01*
G01X2274879Y621213D01*
G01X2265814Y627799D01*
G01X2255157Y631261D01*
G01X2243952Y631261D01*
G01X2233295Y627799D01*
G01X2224230Y621213D01*
G01X2118164Y515147D01*
G01X2111578Y506082D01*
G01X2108115Y495425D01*
G01X1903405Y495425D01*
G01X1903405Y666057D01*
G01X1948383Y711035D01*
G01X1956020Y704626D01*
G01X1965127Y700570D01*
G01X1975000Y699182D01*
G01X2030002Y699182D01*
G01X2041069Y700935D01*
G01X2051052Y706022D01*
G01X2058976Y713945D01*
G01X2064063Y723929D01*
G01X2065816Y734996D01*
G01X2065816Y789997D01*
G01X2204185Y789997D01*
G01X2204185Y734996D01*
G01X2205937Y723929D01*
G01X2211024Y713945D01*
G01X2218948Y706022D01*
G01X2228931Y700935D01*
G01X2239999Y699182D01*
G01X2295000Y699182D01*
G01X2306067Y700935D01*
G01X2316051Y706022D01*
G01X2323974Y713945D01*
G01X2329061Y723929D01*
G01X2330814Y734996D01*
G01X2330814Y789997D01*
G01X2329389Y800000D01*
G01X2330814Y810002D01*
G01X2330814Y865004D01*
G01X2329061Y876071D01*
G01X2323974Y886055D01*
G01X2316051Y893978D01*
G01X2306067Y899065D01*
G01X2295000Y900818D01*
G01X2239999Y900818D01*
G01X2228931Y899065D01*
G01X2218948Y893978D01*
G01X2211024Y886055D01*
G01X2205937Y876071D01*
G01X2204185Y865004D01*
G01X2204185Y810002D01*
G01X2205610Y800000D01*
G01X2204185Y789997D01*
G01X2204185Y789997D01*
G01X2065816Y789997D01*
G01X2064390Y800000D01*
G01X2065816Y810002D01*
G01X2065816Y865004D01*
G01X2064063Y876071D01*
G01X2058976Y886055D01*
G01X2051052Y893978D01*
G01X2041069Y899065D01*
G01X2030002Y900818D01*
G01X1975000Y900818D01*
G01X1963933Y899065D01*
G01X1953949Y893978D01*
G01X1946026Y886055D01*
G01X1940939Y876071D01*
G01X1939186Y865004D01*
G01X1939186Y810002D01*
G01X1939224Y808351D01*
G01X1935094Y808351D01*
G01X1923237Y806790D01*
G01X1912187Y802213D01*
G01X1902699Y794933D01*
G01X1825195Y717429D01*
G01X1817915Y707940D01*
G01X1813338Y696891D01*
G01X1811777Y685033D01*
G01X1811777Y456498D01*
G01X1811777Y456498D01*
G01X1781173Y425895D01*
G01X1756678Y425895D01*
G01X1754048Y428120D01*
G01X1748840Y433464D01*
G01X1735855Y448485D01*
G01X1734826Y449660D01*
G01X1720096Y464994D01*
G01X1702734Y477269D01*
G01X1683366Y486042D01*
G01X1662688Y490997D01*
G01X1641447Y491955D01*
G01X1620408Y488882D01*
G01X1600328Y481888D01*
G01X1581931Y471226D01*
G01X1565881Y457280D01*
G01X1552755Y440553D01*
G01X1543027Y421646D01*
G01X1537046Y401241D01*
G01X1535029Y380074D01*
G01X1386158Y380074D01*
G01X1386158Y549999D01*
G01X1384486Y571245D01*
G01X1379511Y591967D01*
G01X1371355Y611657D01*
G01X1360220Y629828D01*
G01X1356588Y634081D01*
G01X1535029Y634081D01*
G01X1536936Y613498D01*
G01X1542593Y593616D01*
G01X1551807Y575113D01*
G01X1564264Y558617D01*
G01X1579540Y544691D01*
G01X1597114Y533810D01*
G01X1616389Y526343D01*
G01X1636708Y522544D01*
G01X1657379Y522544D01*
G01X1677697Y526343D01*
G01X1696972Y533810D01*
G01X1714547Y544691D01*
G01X1729823Y558617D01*
G01X1742279Y575113D01*
G01X1751493Y593616D01*
G01X1757150Y613498D01*
G01X1759057Y634081D01*
G01X1759057Y634081D01*
G01X1757150Y654663D01*
G01X1751493Y674545D01*
G01X1742279Y693048D01*
G01X1729823Y709544D01*
G01X1714547Y723470D01*
G01X1696972Y734351D01*
G01X1677697Y741818D01*
G01X1657379Y745617D01*
G01X1636708Y745617D01*
G01X1616389Y741818D01*
G01X1597114Y734351D01*
G01X1579540Y723470D01*
G01X1564264Y709544D01*
G01X1551807Y693048D01*
G01X1542593Y674545D01*
G01X1536936Y654663D01*
G01X1535029Y634081D01*
G01X1356588Y634081D01*
G01X1346379Y646034D01*
G01X1330173Y659875D01*
G01X1312002Y671010D01*
G01X1292313Y679165D01*
G01X1271590Y684141D01*
G01X1250344Y685813D01*
G01X519999Y685813D01*
G01X498753Y684141D01*
G01X478030Y679165D01*
G01X458341Y671010D01*
G01X440170Y659875D01*
G01X423964Y646034D01*
G01X410123Y629828D01*
G01X398988Y611657D01*
G01X390832Y591967D01*
G01X385857Y571245D01*
G01X384185Y549999D01*
G01X384185Y100000D01*
G01X382576Y85717D01*
G01X377829Y72151D01*
G01X370182Y59981D01*
G01X360018Y49817D01*
G01X347848Y42170D01*
G01X334282Y37423D01*
G01X319999Y35814D01*
G37*
G36*
G01X1815739Y1828132D02*
G01X1803875Y1824595D01*
G01X1791553Y1823401D01*
G01X1724747Y1823401D01*
G01X1738065Y1838796D01*
G01X1748377Y1856347D01*
G01X1755343Y1875474D01*
G01X1758732Y1895546D01*
G01X1758432Y1915901D01*
G01X1754453Y1935864D01*
G01X1746927Y1954778D01*
G01X1736103Y1972018D01*
G01X1722337Y1987014D01*
G01X1706085Y1999271D01*
G01X1687882Y2008384D01*
G01X1668331Y2014053D01*
G01X1648077Y2016090D01*
G01X1627789Y2014427D01*
G01X1608136Y2009120D01*
G01X1589769Y2000345D01*
G01X1573293Y1988390D01*
G01X1559253Y1973650D01*
G01X1558080Y1972311D01*
G01X1545887Y1958205D01*
G01X1545887Y2109970D01*
G01X1555859Y2093023D01*
G01X1568640Y2078080D01*
G01X1583838Y2065602D01*
G01X1600983Y2055975D01*
G01X1619548Y2049493D01*
G01X1638960Y2046359D01*
G01X1658621Y2046666D01*
G01X1677926Y2050408D01*
G01X1696278Y2057467D01*
G01X1713114Y2067627D01*
G01X1727913Y2080574D01*
G01X1740220Y2095910D01*
G01X1741612Y2097802D01*
G01X1743301Y2100316D01*
G01X1748890Y2109440D01*
G01X1749436Y2110362D01*
G01X1753946Y2118247D01*
G01X1757526Y2123941D01*
G01X1757702Y2124173D01*
G01X1760072Y2124292D01*
G01X1807715Y2124292D01*
G01X1807715Y2085603D01*
G01X1809468Y2074536D01*
G01X1814555Y2064552D01*
G01X1822478Y2056629D01*
G01X1832462Y2051542D01*
G01X1843529Y2049789D01*
G01X1900095Y2049789D01*
G01X1906428Y2050353D01*
G01X1912561Y2052029D01*
G01X1912561Y1994853D01*
G01X1829158Y1911449D01*
G01X1821877Y1901961D01*
G01X1817300Y1890911D01*
G01X1815739Y1879054D01*
G01X1815739Y1828132D01*
G37*
G36*
G01X1807715Y2244298D02*
G01X1807715Y2215920D01*
G01X1745784Y2215920D01*
G01X1743848Y2217473D01*
G01X1739129Y2222153D01*
G01X1738239Y2223122D01*
G01X1729082Y2234348D01*
G01X1718553Y2244298D01*
G01X1807715Y2244298D01*
G37*
G36*
G01X1735958Y2343953D02*
G01X1745425Y2354697D01*
G01X1750470Y2359821D01*
G01X1752851Y2361804D01*
G01X1807715Y2361804D01*
G01X1807715Y2335926D01*
G01X1729187Y2335926D01*
G01X1735958Y2343953D01*
G37*
G54D10*
G01X319999Y35814D02*
G01X189369Y35814D01*
G03X203990Y203506I-66326J90267D01*
G03X35814Y196353I-80947J-77426D01*
G01X35814Y309808D01*
G03X235057Y380081I87229J70272D01*
G03X35814Y450353I-112014J0D01*
G01X35814Y563808D01*
G03X235057Y634081I87229J70272D01*
G03X35814Y704353I-112014J0D01*
G01X35814Y817808D01*
G03X210896Y818589I87229J70272D01*
G01X211431Y819197D01*
G01X211626Y819420D01*
G01X224441Y834214D01*
G01X229630Y839533D01*
G01X232230Y841729D01*
G01X565028Y841729D01*
G03X597423Y855148I0J45814D01*
G01X714011Y971736D01*
G01X1572552Y971736D01*
G03X1647043Y776067I74491J-83655D01*
G03X1721534Y971736I0J112014D01*
G01X1772586Y971736D01*
G03X1804982Y985154I0J45814D01*
G01X1936510Y1116683D01*
G01X1944223Y1116683D01*
G03X1975000Y1099182I30778J18313D01*
G01X2030002Y1099182D01*
G03X2065816Y1134996I0J35814D01*
G01X2065816Y1189997D01*
G03X2064390Y1200000I-35814J0D01*
G03X2065816Y1210002I-34389J10003D01*
G01X2065816Y1265004D01*
G03X2030002Y1300818I-35814J0D01*
G01X1975000Y1300818D01*
G03X1939186Y1265004I0J-35814D01*
G01X1939186Y1210002D01*
G01X1939226Y1208311D01*
G01X1917534Y1208311D01*
G03X1885138Y1194892I0J-45814D01*
G01X1753610Y1063364D01*
G01X1726735Y1063364D01*
G03X1647043Y1254095I-79692J78717D01*
G03X1567351Y1063364I0J-112014D01*
G01X695034Y1063364D01*
G03X662639Y1049945I0J-45814D01*
G01X546051Y933357D01*
G01X227976Y933357D01*
G01X226295Y933431D01*
G01X219345Y945437D01*
G03X217551Y948230I-30995J-17943D01*
G03X210991Y957451I-96317J-61574D01*
G03X209187Y959680I-28713J-21405D01*
G03X205098Y964331I-86144J-71599D01*
G01X203757Y965749D01*
G03X35814Y958353I-80714J-77669D01*
G01X35814Y1071808D01*
G03X235057Y1142081I87229J70272D01*
G03X35814Y1212353I-112014J0D01*
G01X35814Y1325808D01*
G03X235057Y1396081I87229J70272D01*
G03X35814Y1466353I-112014J0D01*
G01X35814Y1579808D01*
G03X235057Y1650081I87229J70272D01*
G03X35814Y1720353I-112014J0D01*
G01X35814Y1833808D01*
G03X235057Y1904081I87229J70272D01*
G03X35814Y1974353I-112014J0D01*
G01X35814Y2087808D01*
G03X235057Y2158081I87229J70272D01*
G03X35814Y2228353I-112014J0D01*
G01X35814Y2341808D01*
G03X235057Y2412081I87229J70272D01*
G03X35814Y2482353I-112014J0D01*
G01X35814Y2595808D01*
G03X235057Y2666081I87229J70272D01*
G03X35814Y2736353I-112014J0D01*
G01X35814Y2849808D01*
G03X234311Y2907172I87229J70272D01*
G01X340336Y2907172D01*
G03X367505Y2791591I86796J-40581D01*
G03X367505Y2641591I59627J-75000D01*
G03X367506Y2491591I59627J-75000D01*
G03X427132Y2320777I59626J-75000D01*
G03X486758Y2491591I0J95814D01*
G03X486759Y2641591I-59626J75000D01*
G03X486759Y2791591I-59627J75000D01*
G03X513928Y2907172I-59627J75000D01*
G01X730103Y2907172D01*
G03X831090Y2746692I100986J-48465D01*
G03X932076Y2907172I0J112014D01*
G01X984103Y2907172D01*
G03X1085090Y2746692I100986J-48465D01*
G03X1186076Y2907172I0J112014D01*
G01X1238103Y2907172D01*
G03X1339090Y2746692I100986J-48465D01*
G03X1440076Y2907172I0J112014D01*
G01X1535775Y2907172D01*
G03X1758311Y2907172I111268J12909D01*
G01X2464986Y2907172D01*
G01X2464986Y2631353D01*
G03X2383917Y2660008I-54868J-26226D01*
G03X2355225Y2578952I26200J-54881D01*
G01X2336075Y2578952D01*
G03X2328902Y2576089I0J-10414D01*
G01X2286067Y2535394D01*
G01X1820670Y2535394D01*
G03X1810256Y2524980I0J-10414D01*
G01X1810256Y2505370D01*
G03X1807715Y2492120I33273J-13250D01*
G01X1807715Y2453431D01*
G01X1754875Y2453431D01*
G01X1752966Y2453520D01*
G01X1750150Y2458250D01*
G01X1745545Y2466238D01*
G01X1744227Y2468350D01*
G01X1738320Y2477124D01*
G03X1736449Y2479655I-29708J-20002D01*
G01X1734832Y2481652D01*
G01X1733374Y2483453D01*
G01X1732797Y2484167D01*
G01X1731152Y2486059D01*
G03X1571970Y2495214I-84109J-73979D01*
G03X1564900Y2335926I75073J-83133D01*
G01X1545075Y2335926D01*
G03X1512680Y2322507I0J-45814D01*
G01X1467678Y2277505D01*
G03X1454259Y2245110I32395J-32395D01*
G01X1454259Y1930094D01*
G03X1467678Y1897699I45814J0D01*
G01X1493691Y1871685D01*
G03X1526087Y1858267I32395J32395D01*
G01X1537409Y1858267D01*
G01X1540039Y1856041D01*
G01X1545246Y1850697D01*
G01X1558231Y1835676D01*
G01X1559260Y1834501D01*
G03X1569339Y1823401I87783J69579D01*
G01X1496549Y1823401D01*
G01X1423381Y1896568D01*
G01X1423381Y2541148D01*
G01X1502500Y2620267D01*
G01X1537409Y2620267D01*
G01X1540039Y2618041D01*
G01X1545246Y2612697D01*
G01X1558231Y2597676D01*
G01X1559260Y2596501D01*
G03X1759057Y2666087I87783J69579D01*
G03X1559253Y2735650I-112014J-6D01*
G01X1558080Y2734311D01*
G01X1545246Y2719464D01*
G01X1540039Y2714120D01*
G01X1537409Y2711895D01*
G01X1483523Y2711895D01*
G03X1451127Y2698476I0J-45814D01*
G01X1345172Y2592520D01*
G03X1331753Y2560125I32395J-32395D01*
G01X1331753Y1877592D01*
G03X1345172Y1845196I45814J0D01*
G01X1445177Y1745191D01*
G03X1477572Y1731773I32395J32395D01*
G01X1570404Y1731773D01*
G03X1647043Y1538067I76639J-81692D01*
G03X1723682Y1731773I0J112014D01*
G01X1791553Y1731773D01*
G02X1815739Y1727042I0J-64186D01*
G01X1815739Y1680079D01*
G02X1815373Y1673646I-56686J0D01*
G03X1800739Y1640079I31180J-33567D01*
G01X1800739Y1612150D01*
G03X1804481Y1595079I40814J0D01*
G03X1800739Y1578008I37072J-17071D01*
G01X1800739Y1540079D01*
G03X1846553Y1494265I45814J0D01*
G01X1876553Y1494265D01*
G03X1922367Y1540079I0J45814D01*
G01X1922367Y1578008D01*
G03X1918625Y1595078I-40814J-2D01*
G03X1922367Y1612150I-37072J17072D01*
G01X1922367Y1640079D01*
G03X1907733Y1673646I-45814J0D01*
G02X1907367Y1680079I56320J6433D01*
G01X1907367Y1860077D01*
G01X1990770Y1943481D01*
G01X1991785Y1944528D01*
G01X1991785Y1792121D01*
G03X1974785Y1761647I18814J-30474D01*
G01X1974785Y1705081D01*
G03X1978077Y1690082I35814J0D01*
G03X1974785Y1675084I32522J-14999D01*
G01X1974785Y1618518D01*
G03X2010599Y1582704I35814J0D01*
G01X2064600Y1582704D01*
G03X2100414Y1618518I0J35814D01*
G01X2100414Y1675084D01*
G03X2098449Y1686782I-35814J0D01*
G01X2165104Y1686782D01*
G03X2182212Y1690096I0J45814D01*
G01X2188001Y1690096D01*
G03X2205109Y1686782I17108J42500D01*
G01X2275234Y1686782D01*
G03X2272300Y1672584I32879J-14198D01*
G01X2272300Y1616018D01*
G03X2308114Y1580204I35814J0D01*
G01X2362114Y1580204D01*
G03X2397928Y1616018I0J35814D01*
G01X2397928Y1672584D01*
G03X2394636Y1687582I-35814J0D01*
G03X2397928Y1702581I-32522J14999D01*
G01X2397928Y1759147D01*
G03X2380928Y1789621I-35814J0D01*
G01X2380928Y1987597D01*
G03X2367509Y2019992I-45814J0D01*
G01X2335267Y2052235D01*
G03X2342920Y2056397I-25154J55368D01*
G03X2349899Y2061610I-32807J51206D01*
G03X2400856Y2009997I60218J8491D01*
G03X2464986Y2043875I9262J60104D01*
G01X2464986Y492173D01*
G02X2446227Y446827I-64186J0D01*
G01X2054753Y54654D01*
G02X2009326Y35814I-45427J45346D01*
G01X1713369Y35814D01*
G03X1647043Y238095I-66326J90267D01*
G03X1580718Y35814I0J-112014D01*
G01X1450344Y35814D01*
G02X1386158Y100000I0J64186D01*
G01X1386158Y549999D01*
G03X1250344Y685813I-135814J0D01*
G01X519999Y685813D01*
G03X384185Y549999I0J-135814D01*
G01X384185Y100000D01*
G02X319999Y35814I-64186J0D01*
G01X488661Y973196D02*
G03X545432Y1134892I0J90814D01*
G03X488661Y1296588I-56771J70882D01*
G03X431890Y1134892I0J-90814D01*
G03X488661Y973196I56771J-70882D01*
G01X875043Y915855D02*
G03X875043Y744226I0J-85814D01*
G03X875043Y915855I0J85814D01*
G01X1759057Y634081D02*
G03X1535029Y634081I-112014J0D01*
G03X1759057Y634081I112014J0D01*
G01X1811777Y456498D02*
G01X1781173Y425895D01*
G01X1756678Y425895D01*
G01X1754048Y428120D01*
G01X1748840Y433464D01*
G01X1735855Y448485D01*
G01X1734826Y449660D01*
G03X1535029Y380074I-87783J-69579D01*
G03X1734834Y310511I112014J6D01*
G01X1736006Y311850D01*
G01X1748840Y326697D01*
G01X1754048Y332041D01*
G01X1756678Y334267D01*
G01X1800150Y334267D01*
G03X1832545Y347685I0J45814D01*
G01X1889986Y405126D01*
G03X1903405Y437521I-32395J32395D01*
G01X1903405Y666057D01*
G01X1948383Y711035D01*
G03X1975000Y699182I26618J23961D01*
G01X2030002Y699182D01*
G03X2065816Y734996I0J35814D01*
G01X2065816Y789997D01*
G03X2064390Y800000I-35814J0D01*
G03X2065816Y810002I-34389J10003D01*
G01X2065816Y865004D01*
G03X2030002Y900818I-35814J0D01*
G01X1975000Y900818D01*
G03X1939186Y865004I0J-35814D01*
G01X1939186Y810002D01*
G01X1939224Y808351D01*
G01X1935094Y808351D01*
G03X1902699Y794933I0J-45814D01*
G01X1825195Y717429D01*
G03X1811777Y685033I32395J-32395D01*
G01X1811777Y456498D01*
G01X1759057Y1396081D02*
G03X1535029Y1396081I-112014J0D01*
G03X1759057Y1396081I112014J0D01*
G01X1960100Y1088314D02*
G03X1960100Y916686I0J-85814D01*
G03X1960100Y1088314I0J85814D01*
G01X1959065Y199333D02*
G01X1994421Y163978D01*
G03X2151135Y320692I78357J78357D01*
G01X2115780Y356048D01*
G03X1959065Y199333I-78357J-78357D01*
G01X2416300Y429143D02*
G03X2416300Y479791I-25324J25324D01*
G01X2274879Y621213D01*
G03X2224230Y621213I-25324J-25324D01*
G01X2118164Y515147D01*
G03X2118164Y464498I25324J-25324D01*
G01X2259586Y323077D01*
G03X2310234Y323077I25324J25324D01*
G01X2416300Y429143D01*
G01X2204185Y1189997D02*
G01X2204185Y1134996D01*
G03X2239999Y1099182I35814J0D01*
G01X2295000Y1099182D01*
G03X2330814Y1134996I0J35814D01*
G01X2330814Y1189997D01*
G03X2329389Y1200000I-35814J0D01*
G03X2330814Y1210002I-34389J10003D01*
G01X2330814Y1265004D01*
G03X2295000Y1300818I-35814J0D01*
G01X2239999Y1300818D01*
G03X2204185Y1265004I0J-35814D01*
G01X2204185Y1210002D01*
G03X2205610Y1200000I35814J0D01*
G03X2204185Y1189997I34389J-10003D01*
G01X2204185Y789997D02*
G01X2204185Y734996D01*
G03X2239999Y699182I35814J0D01*
G01X2295000Y699182D01*
G03X2330814Y734996I0J35814D01*
G01X2330814Y789997D01*
G03X2329389Y800000I-35814J0D01*
G03X2330814Y810002I-34389J10003D01*
G01X2330814Y865004D01*
G03X2295000Y900818I-35814J0D01*
G01X2239999Y900818D01*
G03X2204185Y865004I0J-35814D01*
G01X2204185Y810002D01*
G03X2205610Y800000I35814J0D01*
G03X2204185Y789997I34389J-10003D01*
G01X1815739Y1828132D02*
G02X1791553Y1823401I-24186J59455D01*
G01X1724747Y1823401D01*
G03X1722337Y1987014I-77704J80680D01*
G03X1559253Y1973650I-75294J-82934D01*
G01X1558080Y1972311D01*
G01X1545887Y1958205D01*
G01X1545887Y2109970D01*
G03X1740220Y2095910I101156J48110D01*
G01X1741612Y2097802D01*
G03X1743301Y2100316I-28851J21219D01*
G01X1748890Y2109440D01*
G01X1749436Y2110362D01*
G01X1753946Y2118247D01*
G01X1757526Y2123941D01*
G01X1757702Y2124173D01*
G01X1760072Y2124292D01*
G01X1807715Y2124292D01*
G01X1807715Y2085603D01*
G03X1843529Y2049789I35814J0D01*
G01X1900095Y2049789D01*
G03X1912561Y2052029I0J35814D01*
G01X1912561Y1994853D01*
G01X1829158Y1911449D01*
G03X1815739Y1879054I32395J-32395D01*
G01X1815739Y1828132D01*
G01X1807715Y2244298D02*
G01X1807715Y2215920D01*
G01X1745784Y2215920D01*
G01X1743848Y2217473D01*
G01X1739129Y2222153D01*
G01X1738239Y2223122D01*
G03X1718553Y2244298I-91196J-65042D01*
G01X1807715Y2244298D01*
G01X1735958Y2343953D02*
G01X1745425Y2354697D01*
G01X1750470Y2359821D01*
G01X1752851Y2361804D01*
G01X1807715Y2361804D01*
G01X1807715Y2335926D01*
G01X1729187Y2335926D01*
G03X1735958Y2343953I-82144J76155D01*
G54D11*
G01X2240253Y1162497D02*
G01X2214345Y1162497D01*
G01X2294746Y1162497D02*
G01X2320654Y1162497D01*
G01X2267499Y1135250D02*
G01X2267499Y1109342D01*
G01X2240253Y1237503D02*
G01X2214345Y1237503D01*
G01X2294746Y1237503D02*
G01X2320654Y1237503D01*
G01X2267499Y1264750D02*
G01X2267499Y1290658D01*
G01X2037599Y1618772D02*
G01X2037599Y1592864D01*
G01X2064346Y1646801D02*
G01X2090254Y1646801D01*
G01X2010853Y1646801D02*
G01X1984945Y1646801D01*
G01X2240253Y762497D02*
G01X2214345Y762497D01*
G01X2294746Y762497D02*
G01X2320654Y762497D01*
G01X2267499Y735250D02*
G01X2267499Y709342D01*
G01X2240253Y837503D02*
G01X2214345Y837503D01*
G01X2294746Y837503D02*
G01X2320654Y837503D01*
G01X2267499Y864750D02*
G01X2267499Y890658D01*
G01X2335114Y1616272D02*
G01X2335114Y1590364D01*
G01X2361860Y1644301D02*
G01X2387768Y1644301D01*
G01X2308368Y1644301D02*
G01X2282460Y1644301D01*
G01X1843783Y2112603D02*
G01X1817875Y2112603D01*
G01X1871812Y2085857D02*
G01X1871812Y2059949D01*
G01X1861553Y1530333D02*
G01X1861553Y1504425D01*
G01X1836807Y1566543D02*
G01X1810899Y1566543D01*
G01X1886299Y1566543D02*
G01X1912207Y1566543D01*
G01X198989Y634081D02*
G01X224897Y634081D01*
G01X123043Y558135D02*
G01X123043Y532227D01*
G01X123043Y710027D02*
G01X123043Y735935D01*
G01X1722989Y1142081D02*
G01X1748897Y1142081D01*
G01X1571097Y1142081D02*
G01X1545189Y1142081D01*
G01X1647043Y1218027D02*
G01X1647043Y1243935D01*
G01X1722989Y1650081D02*
G01X1748897Y1650081D01*
G01X1571097Y1650081D02*
G01X1545189Y1650081D01*
G01X1647043Y1574135D02*
G01X1647043Y1548227D01*
G01X1722989Y888081D02*
G01X1748897Y888081D01*
G01X1571097Y888081D02*
G01X1545189Y888081D01*
G01X1647043Y812135D02*
G01X1647043Y786227D01*
G01X486878Y2866591D02*
G01X512786Y2866591D01*
G01X367386Y2866591D02*
G01X341478Y2866591D01*
G01X2214379Y419291D02*
G01X2196059Y400972D01*
G01X2320086Y524998D02*
G01X2338405Y543318D01*
G01X2196701Y542676D02*
G01X2178381Y560995D01*
G01X2337763Y401614D02*
G01X2356083Y383294D01*
G04 Copper End*

G04 TearDrop Start*
G36*
G01X2400118Y2339049D02*
G01X2420118Y2339049D01*
G03X2435118Y2314121I28213J0D01*
G01X2385118Y2314121D01*
G03X2400118Y2339049I-13213J24928D01*
G37*
G36*
G01X2369257Y2153214D02*
G01X2369257Y2178714D01*
G03X2383117Y2197839I-6265J19125D01*
G01X2383117Y2134089D01*
G03X2369257Y2153214I-20125J0D01*
G37*
G36*
G01X2422618Y2088595D02*
G01X2397618Y2088595D01*
G03X2383117Y2126095I-55741J0D01*
G01X2437118Y2126095D01*
G03X2422618Y2088595I41240J-37500D01*
G37*
G36*
G01X2249615Y1843093D02*
G01X2229615Y1843093D01*
G03X2214615Y1873093I-37500J0D01*
G01X2264615Y1873093D01*
G03X2249615Y1843093I22500J-30000D01*
G37*
G36*
G01X2224615Y1965096D02*
G01X2254615Y1965096D01*
G03X2277115Y1927093I43344J0D01*
G01X2202115Y1927093D01*
G03X2224615Y1965096I-20844J38003D01*
G37*
G36*
G01X2140598Y1843093D02*
G01X2120598Y1843093D01*
G03X2105598Y1873093I-37500J0D01*
G01X2155598Y1873093D01*
G03X2140598Y1843093I22500J-30000D01*
G37*
G36*
G01X2115598Y1964602D02*
G01X2145598Y1964602D01*
G03X2168098Y1927093I42515J0D01*
G01X2093098Y1927093D01*
G03X2115598Y1964602I-20015J37509D01*
G37*
G36*
G01X1970096Y1631801D02*
G01X1970096Y1661801D01*
G03X2010599Y1675084I0J68394D01*
G01X2010599Y1618518D01*
G03X1970096Y1631801I-40503J-55111D01*
G37*
G36*
G01X2094600Y1742596D02*
G01X2094600Y1722596D01*
G03X2064600Y1707596I0J-37500D01*
G01X2064600Y1757596D01*
G03X2094600Y1742596I30000J22500D01*
G37*
G36*
G01X2027599Y1791647D02*
G01X2047599Y1791647D01*
G03X2062599Y1761647I37500J0D01*
G01X2012599Y1761647D01*
G03X2027599Y1791647I-22500J30000D01*
G37*
G36*
G01X2402617Y1659301D02*
G01X2402617Y1629301D01*
G03X2362114Y1616018I0J-68394D01*
G01X2362114Y1672584D01*
G03X2402617Y1659301I40503J55111D01*
G37*
G36*
G01X2278114Y1722596D02*
G01X2278114Y1742596D01*
G03X2308114Y1757596I0J37500D01*
G01X2308114Y1707596D01*
G03X2278114Y1722596I-30000J-22500D01*
G37*
G36*
G01X2325114Y1789147D02*
G01X2345114Y1789147D01*
G03X2360114Y1759147I37500J0D01*
G01X2310114Y1759147D01*
G03X2325114Y1789147I-22500J30000D01*
G37*
G36*
G01X1806029Y2100103D02*
G01X1806029Y2125103D01*
G03X1843529Y2139603I0J55741D01*
G01X1843529Y2085603D01*
G03X1806029Y2100103I-37500J-41240D01*
G37*
G36*
G01X1968375Y2055603D02*
G01X1948375Y2055603D01*
G03X1933375Y2085603I-37500J0D01*
G01X1983375Y2085603D01*
G03X1968375Y2055603I22500J-30000D01*
G37*
G36*
G01X2016658Y2122603D02*
G01X2016658Y2102603D01*
G03X1986658Y2087603I0J-37500D01*
G01X1986658Y2137603D01*
G03X2016658Y2122603I30000J22500D01*
G37*
G36*
G01X1806029Y2215109D02*
G01X1806029Y2240109D01*
G03X1843529Y2257109I0J49859D01*
G01X1843529Y2203109D01*
G03X1806029Y2215109I-37500J-52593D01*
G37*
G36*
G01X1968375Y2185886D02*
G01X1948375Y2185886D01*
G03X1933375Y2203109I-17387J0D01*
G01X1983375Y2203109D01*
G03X1968375Y2185886I2387J-17222D01*
G37*
G36*
G01X2000956Y2235967D02*
G01X2000956Y2215967D01*
G03X1986658Y2203109I0J-14379D01*
G01X1986658Y2250967D01*
G03X2000956Y2235967I15017J0D01*
G37*
G36*
G01X1806029Y2335115D02*
G01X1806029Y2360115D01*
G03X1843529Y2374615I0J55741D01*
G01X1843529Y2320614D01*
G03X1806029Y2335115I-37500J-41240D01*
G37*
G36*
G01X1968375Y2303392D02*
G01X1948375Y2303392D01*
G03X1933375Y2320614I-17387J0D01*
G01X1983375Y2320614D01*
G03X1968375Y2303392I2387J-17222D01*
G37*
G36*
G01X2016658Y2357615D02*
G01X2016658Y2337615D01*
G03X1986658Y2322615I0J-37500D01*
G01X1986658Y2372615D01*
G03X2016658Y2357615I30000J22500D01*
G37*
G36*
G01X1806029Y2452620D02*
G01X1806029Y2477620D01*
G03X1843529Y2492120I0J55741D01*
G01X1843529Y2438120D01*
G03X1806029Y2452620I-37500J-41240D01*
G37*
G36*
G01X1995097Y2475120D02*
G01X1995097Y2455120D01*
G03X1986658Y2440120I9111J-15000D01*
G01X1986658Y2490120D01*
G03X1995097Y2475120I17550J0D01*
G37*
G36*
G01X1968375Y2425898D02*
G01X1948375Y2425898D01*
G03X1933375Y2438120I-15000J-3093D01*
G01X1983375Y2438120D01*
G03X1968375Y2425898I0J-15316D01*
G37*
G36*
G01X2012501Y1180002D02*
G01X1992501Y1180002D01*
G03X1977501Y1210002I-37500J0D01*
G01X2027501Y1210002D01*
G03X2012501Y1180002I22500J-30000D01*
G37*
G36*
G01X2277499Y1180002D02*
G01X2257499Y1180002D01*
G03X2242499Y1210002I-37500J0D01*
G01X2292499Y1210002D01*
G03X2277499Y1180002I22500J-30000D01*
G37*
G36*
G01X1945000Y1152497D02*
G01X1945000Y1172497D01*
G03X1975000Y1187497I0J37500D01*
G01X1975000Y1137497D01*
G03X1945000Y1152497I-30000J-22500D01*
G37*
G36*
G01X1992501Y1219997D02*
G01X2012501Y1219997D01*
G03X2027501Y1189997I37500J0D01*
G01X1977501Y1189997D01*
G03X1992501Y1219997I-22500J30000D01*
G37*
G36*
G01X2257499Y1219997D02*
G01X2277499Y1219997D01*
G03X2292499Y1189997I37500J0D01*
G01X2242499Y1189997D01*
G03X2257499Y1219997I-22500J30000D01*
G37*
G36*
G01X2012501Y780003D02*
G01X1992501Y780003D01*
G03X1977501Y810002I-37500J0D01*
G01X2027501Y810002D01*
G03X2012501Y780003I22500J-30000D01*
G37*
G36*
G01X2277499Y780003D02*
G01X2257499Y780003D01*
G03X2242499Y810002I-37500J0D01*
G01X2292499Y810002D01*
G03X2277499Y780003I22500J-30000D01*
G37*
G36*
G01X1945000Y752537D02*
G01X1945000Y772537D01*
G03X1975000Y787537I0J37500D01*
G01X1975000Y737537D01*
G03X1945000Y752537I-30000J-22500D01*
G37*
G36*
G01X1992501Y819997D02*
G01X2012501Y819997D01*
G03X2027501Y789997I37500J0D01*
G01X1977501Y789997D01*
G03X1992501Y819997I-22500J30000D01*
G37*
G36*
G01X2257499Y819997D02*
G01X2277499Y819997D01*
G03X2292499Y789997I37500J0D01*
G01X2242499Y789997D01*
G03X2257499Y819997I-22500J30000D01*
G37*
G36*
G01X1750785Y390081D02*
G01X1750785Y370081D01*
G01X1747396Y369681D01*
G01X1743924Y368538D01*
G01X1740390Y366739D01*
G01X1736812Y364371D01*
G01X1729600Y358270D01*
G01X1722444Y350926D01*
G01X1708912Y335271D01*
G01X1702843Y328341D01*
G01X1697445Y322931D01*
G01X1697445Y437231D01*
G01X1702843Y431820D01*
G01X1708912Y424890D01*
G01X1722444Y409235D01*
G01X1729600Y401891D01*
G01X1736812Y395790D01*
G01X1740390Y393422D01*
G01X1743924Y391623D01*
G01X1747396Y390481D01*
G01X1750785Y390081D01*
G37*
G36*
G01X1543302Y1894081D02*
G01X1543302Y1914081D01*
G01X1546691Y1914481D01*
G01X1550162Y1915623D01*
G01X1553696Y1917422D01*
G01X1557275Y1919790D01*
G01X1564486Y1925891D01*
G01X1571642Y1933235D01*
G01X1585175Y1948890D01*
G01X1591243Y1955820D01*
G01X1596642Y1961231D01*
G01X1596642Y1846931D01*
G01X1591243Y1852341D01*
G01X1585175Y1859271D01*
G01X1571642Y1874926D01*
G01X1564486Y1882270D01*
G01X1557275Y1888371D01*
G01X1553696Y1890739D01*
G01X1550162Y1892538D01*
G01X1546691Y1893681D01*
G01X1543302Y1894081D01*
G37*
G36*
G01X1741134Y2180106D02*
G01X1759172Y2160106D01*
G01X1753408Y2159816D01*
G01X1748337Y2158972D01*
G01X1743880Y2157609D01*
G01X1739958Y2155766D01*
G01X1736491Y2153478D01*
G01X1733402Y2150784D01*
G01X1730610Y2147720D01*
G01X1728037Y2144323D01*
G01X1723230Y2136678D01*
G01X1718349Y2128146D01*
G01X1712761Y2119021D01*
G01X1705832Y2109601D01*
G01X1687794Y2222468D01*
G01X1694078Y2217607D01*
G01X1700403Y2211381D01*
G01X1713313Y2197316D01*
G01X1719967Y2190717D01*
G01X1726798Y2185236D01*
G01X1730292Y2183108D01*
G01X1733843Y2181492D01*
G01X1737455Y2180465D01*
G01X1741134Y2180106D01*
G37*
G36*
G01X1754046Y2417617D02*
G01X1747351Y2397618D01*
G01X1743868Y2397231D01*
G01X1740352Y2396128D01*
G01X1736816Y2394390D01*
G01X1733269Y2392103D01*
G01X1726192Y2386210D01*
G01X1719209Y2379117D01*
G01X1705884Y2363996D01*
G01X1699721Y2357302D01*
G01X1694011Y2352077D01*
G01X1700706Y2466180D01*
G01X1704960Y2461634D01*
G01X1708612Y2457122D01*
G01X1714518Y2448349D01*
G01X1719249Y2440144D01*
G01X1723625Y2432793D01*
G01X1725938Y2429527D01*
G01X1728471Y2426581D01*
G01X1731326Y2423990D01*
G01X1734608Y2421791D01*
G01X1738417Y2420018D01*
G01X1742858Y2418708D01*
G01X1748033Y2417896D01*
G01X1754046Y2417617D01*
G37*
G36*
G01X1543302Y2656081D02*
G01X1543302Y2676081D01*
G01X1546691Y2676481D01*
G01X1550162Y2677623D01*
G01X1553696Y2679422D01*
G01X1557275Y2681790D01*
G01X1564486Y2687891D01*
G01X1571642Y2695235D01*
G01X1585175Y2710890D01*
G01X1591243Y2717820D01*
G01X1596642Y2723231D01*
G01X1596642Y2608931D01*
G01X1591243Y2614341D01*
G01X1585175Y2621271D01*
G01X1571642Y2636926D01*
G01X1564486Y2644270D01*
G01X1557275Y2650371D01*
G01X1553696Y2652739D01*
G01X1550162Y2654538D01*
G01X1546691Y2655681D01*
G01X1543302Y2656081D01*
G37*
G36*
G01X227186Y897543D02*
G01X226381Y877543D01*
G01X222981Y877145D01*
G01X219505Y876007D01*
G01X215970Y874215D01*
G01X212396Y871856D01*
G01X205200Y865779D01*
G01X198064Y858463D01*
G01X184556Y842869D01*
G01X178476Y835966D01*
G01X173041Y830577D01*
G01X173846Y944874D01*
G01X178415Y940442D01*
G01X182278Y936046D01*
G01X188350Y927495D01*
G01X197126Y912334D01*
G01X199295Y909151D01*
G01X201686Y906279D01*
G01X204415Y903754D01*
G01X207598Y901611D01*
G01X211350Y899883D01*
G01X215788Y898606D01*
G01X221029Y897815D01*
G01X227186Y897543D01*
G37*
G36*
G01X2064927Y2201253D02*
G01X2064927Y2221253D01*
G03X2094926Y2236253I0J37500D01*
G01X2094926Y2186253D01*
G03X2064927Y2201253I-30000J-22500D01*
G37*
G36*
G01X2168940Y2147503D02*
G01X2148940Y2147503D01*
G03X2147739Y2177503I-375472J0D01*
G01X2170140Y2177503D01*
G03X2168940Y2147503I374272J-30000D01*
G37*
G36*
G01X2218927Y2147503D02*
G01X2198927Y2147503D01*
G03X2197726Y2177503I-375472J0D01*
G01X2220127Y2177503D01*
G03X2218927Y2147503I374272J-30000D01*
G37*
G36*
G01X2268939Y2158776D02*
G01X2248939Y2158776D01*
G03X2247739Y2177503I-146671J0D01*
G01X2270140Y2177503D01*
G03X2268939Y2158776I145471J-18727D01*
G37*
G36*
G01X2328952Y2300203D02*
G01X2328952Y2274703D01*
G03X2316128Y2273453I0J-66389D01*
G01X2316128Y2301454D01*
G03X2328952Y2300203I12824J65138D01*
G37*
G36*
G01X2351631Y2351983D02*
G01X2351631Y2326983D01*
G03X2318928Y2326240I0J-719771D01*
G01X2318928Y2348641D01*
G03X2351631Y2351983I0J161656D01*
G37*
G36*
G01X2272678Y2387453D02*
G01X2297678Y2387453D01*
G03X2316128Y2351441I44370J0D01*
G01X2254227Y2351441D01*
G03X2272678Y2387453I-25920J36012D01*
G37*
G36*
G01X2297678Y2337440D02*
G01X2272678Y2337440D01*
G03X2254227Y2373452I-44370J0D01*
G01X2316128Y2373452D01*
G03X2297678Y2337440I25920J-36012D01*
G37*
G36*
G01X2301145Y2476153D02*
G01X2301145Y2451153D01*
G03X2272940Y2432703I0J-30784D01*
G01X2272940Y2494603D01*
G03X2301145Y2476153I28205J12334D01*
G37*
G36*
G01X2032763Y2377453D02*
G01X2032763Y2397453D01*
G03X2048938Y2398653I0J109586D01*
G01X2048938Y2376253D01*
G03X2032763Y2377453I-16176J-108386D01*
G37*
G36*
G01X2027773Y2327440D02*
G01X2027773Y2347440D01*
G03X2048938Y2348641I0J187201D01*
G01X2048938Y2326240D01*
G03X2027773Y2327440I-21166J-186000D01*
G37*
G36*
G01X2027440Y2277453D02*
G01X2027440Y2297453D01*
G03X2048938Y2298654I0J193105D01*
G01X2048938Y2276253D01*
G03X2027440Y2277453I-21498J-191904D01*
G37*
G36*
G01X1851553Y1680079D02*
G01X1871553Y1680079D01*
G03X1876553Y1650079I92500J0D01*
G01X1871553Y1650079D01*
G01X1851553Y1650079D01*
G01X1846553Y1650079D01*
G03X1851553Y1680079I-87500J30000D01*
G37*
G36*
G01X2145598Y1931434D02*
G01X2115598Y1930693D01*
G01X2115616Y1935533D01*
G01X2115319Y1940096D01*
G01X2114184Y1944332D01*
G01X2113137Y1946312D01*
G01X2111685Y1948192D01*
G01X2149177Y1948934D01*
G01X2147791Y1947000D01*
G01X2146808Y1944996D01*
G01X2145778Y1940774D01*
G01X2145554Y1936257D01*
G01X2145598Y1931434D01*
G37*
G36*
G01X2254615Y1931060D02*
G01X2224615Y1931060D01*
G01X2224645Y1935890D01*
G01X2224383Y1940431D01*
G01X2223299Y1944661D01*
G01X2222284Y1946653D01*
G01X2220865Y1948560D01*
G01X2258365Y1948560D01*
G01X2256946Y1946653D01*
G01X2255931Y1944661D01*
G01X2254847Y1940431D01*
G01X2254585Y1935890D01*
G01X2254615Y1931060D01*
G37*
G36*
G01X2317726Y2326983D02*
G01X2317465Y2351983D01*
G01X2321856Y2352479D01*
G01X2326714Y2353832D01*
G01X2331323Y2355837D01*
G01X2334965Y2358292D01*
G01X2335226Y2320793D01*
G01X2331569Y2323197D01*
G01X2326954Y2325165D01*
G01X2322099Y2326495D01*
G01X2317726Y2326983D01*
G37*
G36*
G01X2385667Y2349657D02*
G01X2385667Y2329657D01*
G01X2383219Y2329460D01*
G01X2380840Y2328905D01*
G01X2376297Y2326923D01*
G01X2372064Y2324120D01*
G01X2368167Y2320907D01*
G01X2368167Y2358407D01*
G01X2372064Y2355194D01*
G01X2376297Y2352391D01*
G01X2380840Y2350409D01*
G01X2383219Y2349854D01*
G01X2385667Y2349657D01*
G37*
G36*
G01X2397618Y2104137D02*
G01X2422618Y2104137D01*
G01X2423110Y2099755D01*
G01X2424451Y2094899D01*
G01X2426438Y2090287D01*
G01X2428868Y2086637D01*
G01X2391368Y2086637D01*
G01X2393797Y2090287D01*
G01X2395784Y2094899D01*
G01X2397125Y2099755D01*
G01X2397618Y2104137D01*
G37*
G36*
G01X1829123Y2477620D02*
G01X1829123Y2452620D01*
G01X1824742Y2452128D01*
G01X1819885Y2450787D01*
G01X1815273Y2448800D01*
G01X1811624Y2446370D01*
G01X1811624Y2483870D01*
G01X1815273Y2481441D01*
G01X1819885Y2479454D01*
G01X1824742Y2478113D01*
G01X1829123Y2477620D01*
G37*
G36*
G01X1829123Y2360115D02*
G01X1829123Y2335115D01*
G01X1824742Y2334622D01*
G01X1819885Y2333281D01*
G01X1815273Y2331294D01*
G01X1811624Y2328865D01*
G01X1811624Y2366365D01*
G01X1815273Y2363935D01*
G01X1819885Y2361948D01*
G01X1824742Y2360607D01*
G01X1829123Y2360115D01*
G37*
G36*
G01X1829123Y2240109D02*
G01X1829123Y2215109D01*
G01X1824742Y2214616D01*
G01X1819885Y2213275D01*
G01X1815273Y2211288D01*
G01X1811624Y2208859D01*
G01X1811624Y2246359D01*
G01X1815273Y2243929D01*
G01X1819885Y2241942D01*
G01X1824742Y2240601D01*
G01X1829123Y2240109D01*
G37*
G36*
G01X1829123Y2125103D02*
G01X1829123Y2100103D01*
G01X1824742Y2099611D01*
G01X1819885Y2098270D01*
G01X1815273Y2096283D01*
G01X1811624Y2093853D01*
G01X1811624Y2131353D01*
G01X1815273Y2128924D01*
G01X1819885Y2126937D01*
G01X1824742Y2125595D01*
G01X1829123Y2125103D01*
G37*
G36*
G01X2368581Y1629301D02*
G01X2368581Y1659301D01*
G01X2373412Y1659271D01*
G01X2377952Y1659533D01*
G01X2382183Y1660616D01*
G01X2384175Y1661632D01*
G01X2386081Y1663051D01*
G01X2386081Y1625551D01*
G01X2384175Y1626970D01*
G01X2382183Y1627985D01*
G01X2377952Y1629069D01*
G01X2373412Y1629331D01*
G01X2368581Y1629301D01*
G37*
G36*
G01X2004132Y1661801D02*
G01X2004132Y1631801D01*
G01X1999302Y1631831D01*
G01X1994761Y1631569D01*
G01X1990531Y1630485D01*
G01X1988539Y1629470D01*
G01X1986632Y1628051D01*
G01X1986632Y1665551D01*
G01X1988539Y1664132D01*
G01X1990531Y1663117D01*
G01X1994761Y1662033D01*
G01X1999302Y1661771D01*
G01X2004132Y1661801D01*
G37*
G36*
G01X2278975Y2124599D02*
G01X2293117Y2138741D01*
G01X2294986Y2137149D01*
G01X2297062Y2135859D01*
G01X2301676Y2134049D01*
G01X2306651Y2133038D01*
G01X2311678Y2132554D01*
G01X2285162Y2106037D01*
G01X2284678Y2111065D01*
G01X2283667Y2116040D01*
G01X2281856Y2120654D01*
G01X2280566Y2122729D01*
G01X2278975Y2124599D01*
G37*
G36*
G01X2420118Y2571091D02*
G01X2400118Y2571091D01*
G01X2399921Y2573539D01*
G01X2399366Y2575918D01*
G01X2397383Y2580461D01*
G01X2394581Y2584694D01*
G01X2391368Y2588591D01*
G01X2428868Y2588591D01*
G01X2425655Y2584694D01*
G01X2422852Y2580461D01*
G01X2420870Y2575918D01*
G01X2420314Y2573539D01*
G01X2420118Y2571091D01*
G37*
G36*
G01X2351631Y2349657D02*
G03X2400118Y2369657I0J68774D01*
G01X2410118Y2339049D01*
G01X2400118Y2309657D01*
G03X2351631Y2329657I-48487J-48774D01*
G01X2351631Y2349657D01*
G37*
G36*
G01X1791553Y1767587D02*
G02X1851553Y1747587I0J-100000D01*
G01X1861553Y1777678D01*
G01X1851553Y1807587D01*
G02X1791553Y1787587I-60000J80000D01*
G01X1791553Y1767587D01*
G37*
G36*
G01X2400118Y2579133D02*
G01X2420118Y2579133D01*
G03X2435118Y2549133I37500J0D01*
G01X2385118Y2549133D01*
G03X2400118Y2579133I-22500J30000D01*
G37*
G36*
G01X2347615Y2497623D02*
G01X2347615Y2522622D01*
G03X2383117Y2541372I0J42987D01*
G01X2383117Y2478873D01*
G03X2347615Y2497623I-35503J-24237D01*
G37*
G36*
G01X2420118Y2339049D02*
G01X2400118Y2339049D01*
G03X2385118Y2361107I-23718J0D01*
G01X2435118Y2361107D01*
G03X2420118Y2339049I8718J-22058D01*
G37*
G04 TearDrop End*

G04 Pad Start*
G54D12*
G01X875043Y830041D03*
G01X1960100Y1002500D03*
G36*
G01X1836553Y1540079D02*
G01X1836553Y1578008D01*
G02X1838017Y1581543I5000J0D01*
G01X1858017Y1601543D01*
G02X1865088Y1601543I3536J-3535D01*
G01X1885088Y1581542D01*
G02X1886553Y1578006I-3536J-3536D01*
G01X1886553Y1540079D01*
G02X1876553Y1530079I-10000J0D01*
G01X1846553Y1530079D01*
G02X1836553Y1540079I0J10000D01*
G37*
G36*
G01X1846553Y1650079D02*
G01X1876553Y1650079D01*
G02X1886553Y1640079I0J-10000D01*
G01X1886553Y1612150D01*
G02X1878017Y1608615I-5000J0D01*
G01X1865088Y1621543D01*
G03X1858017Y1621543I-3536J-3536D01*
G01X1845089Y1608615D01*
G02X1836553Y1612150I-3535J3536D01*
G01X1836553Y1640079D01*
G02X1846553Y1650079I10000J0D01*
G37*
G54D13*
G01X2410118Y2274617D03*
G01X2410118Y2165600D03*
G01X2410118Y2400611D03*
G01X2410118Y2509628D03*
G54D14*
G01X2239615Y1900093D03*
G01X2130598Y1900093D03*
G54D15*
G01X2037599Y1646801D03*
G01X2037599Y1733364D03*
G01X2335114Y1644301D03*
G01X2335114Y1730864D03*
G54D17*
G01X1871812Y2112603D03*
G01X1958375Y2112603D03*
G01X1871812Y2230109D03*
G01X1958375Y2230109D03*
G01X1871812Y2347615D03*
G01X1958375Y2347615D03*
G01X1871812Y2465120D03*
G01X1958375Y2465120D03*
G54D18*
G01X2002501Y1237503D03*
G01X2267499Y1237503D03*
G01X2002501Y1162497D03*
G01X2267499Y1162497D03*
G01X2002501Y837503D03*
G01X2267499Y837503D03*
G01X2002501Y762497D03*
G01X2267499Y762497D03*
G54D19*
G01X2165104Y1732596D03*
G01X2165104Y1772575D03*
G01X2205109Y1732596D03*
G01X2205109Y1772575D03*
G54D20*
G01X1647043Y126081D03*
G01X1647043Y380081D03*
G01X1647043Y634081D03*
G01X1647043Y888081D03*
G01X1647043Y1142081D03*
G01X1647043Y1396081D03*
G01X1647043Y1650081D03*
G01X1647043Y1904081D03*
G01X1647043Y2158081D03*
G01X1647043Y2412081D03*
G01X1647043Y2666081D03*
G01X1647043Y2920081D03*
G01X1647043Y3174081D03*
G01X123043Y3174081D03*
G01X123043Y2920081D03*
G01X123043Y2666081D03*
G01X123043Y2412081D03*
G01X123043Y2158081D03*
G01X123043Y1904081D03*
G01X123043Y1650081D03*
G01X123043Y1396081D03*
G01X123043Y1142081D03*
G01X123043Y888081D03*
G01X123043Y634081D03*
G01X123043Y380081D03*
G01X123043Y126081D03*
G01X1339090Y2858706D03*
G01X1085090Y2858706D03*
G01X831090Y2858706D03*
G54D21*
G01X427132Y2866591D03*
G01X427132Y2716591D03*
G01X427132Y2566591D03*
G01X427132Y2416591D03*
G54D22*
G01X488661Y1064010D03*
G01X488661Y1205774D03*
G54D23*
G01X2055100Y260013D03*
G54D24*
G01X2267232Y472145D03*
G54D25*
G01X2108927Y2211253D03*
G01X2158940Y2211253D03*
G01X2208927Y2211253D03*
G01X2258939Y2211253D03*
G54D26*
G01X2285178Y2287453D03*
G01X2285178Y2337440D03*
G01X2285178Y2387453D03*
G54D25*
G01X2258939Y2463653D03*
G01X2208927Y2463653D03*
G01X2158940Y2463653D03*
G01X2108927Y2463653D03*
G54D26*
G01X2082689Y2387453D03*
G01X2082689Y2337440D03*
G01X2082689Y2287453D03*
G04 Pad End*

G04 Via Start*
G54D27*
G01X2130104Y1965096D03*
G01X2239615Y1965096D03*
G01X2351631Y2339657D03*
G01X2410118Y2070101D03*
G01X1795088Y2465120D03*
G01X1795088Y2347615D03*
G01X1795088Y2227609D03*
G01X1795088Y2112603D03*
G01X2402617Y1644301D03*
G01X1970096Y1646801D03*
G01X2310113Y2107603D03*
G01X1467572Y1875092D03*
G01X1440070Y2160105D03*
G01X278390Y2866591D03*
G01X578390Y2866591D03*
G01X1478390Y2866591D03*
G01X1778390Y2866591D03*
G01X2078390Y2866591D03*
G01X2378390Y2866591D03*
G01X728390Y2716591D03*
G01X1028390Y2716591D03*
G01X1328390Y2716591D03*
G01X1928390Y2716591D03*
G01X2228390Y2716591D03*
G01X578390Y2566591D03*
G01X1178390Y2566591D03*
G01X1478390Y2566591D03*
G01X1778390Y2566591D03*
G01X2078390Y2566591D03*
G01X278390Y2266591D03*
G01X1178390Y2266591D03*
G01X428390Y2116591D03*
G01X1028390Y2116591D03*
G01X278390Y1966591D03*
G01X578390Y1966591D03*
G01X1178390Y1966591D03*
G01X1778390Y1966591D03*
G01X2415892Y1969091D03*
G01X428390Y1816591D03*
G01X728390Y1816591D03*
G01X1328390Y1816591D03*
G01X1975893Y1851592D03*
G01X2418392Y1816591D03*
G01X278390Y1666591D03*
G01X578390Y1666591D03*
G01X878390Y1666591D03*
G01X1478390Y1666591D03*
G01X428390Y1516591D03*
G01X728390Y1516591D03*
G01X1028390Y1516591D03*
G01X1928390Y1516591D03*
G01X2185896Y1519091D03*
G01X278390Y1366591D03*
G01X578390Y1366591D03*
G01X878390Y1366591D03*
G01X1178390Y1366591D03*
G01X1983386Y1369091D03*
G01X2378390Y1366591D03*
G01X728390Y1216591D03*
G01X1028390Y1216591D03*
G01X1328390Y1216591D03*
G01X1928390Y1216591D03*
G01X278390Y1066591D03*
G01X2135893Y1199097D03*
G01X2378390Y1066591D03*
G01X728390Y916590D03*
G01X1028390Y916590D03*
G01X1328390Y916590D03*
G01X1778390Y916590D03*
G01X1928390Y916590D03*
G01X2135893Y799092D03*
G01X2378390Y766591D03*
G01X1778390Y616591D03*
G01X2078390Y616591D03*
G01X2078390Y466591D03*
G01X2228390Y316591D03*
G01X1478390Y1366591D03*
G01X1328390Y1516591D03*
G01X1178390Y1666591D03*
G01X1028390Y1816591D03*
G01X878390Y1966591D03*
G01X728390Y2116591D03*
G01X578390Y2266591D03*
G01X278390Y2566591D03*
G01X1778390Y766591D03*
G01X1478390Y766591D03*
G01X1778390Y166590D03*
G01X1928390Y166590D03*
G01X1478390Y166590D03*
G01X193386Y761590D03*
G01X188386Y506585D03*
G01X2410118Y2605127D03*
G01X57553Y251326D03*
G01X57553Y506828D03*
G01X57553Y762625D03*
G01X57553Y1015137D03*
G01X57553Y1270150D03*
G01X57553Y1525162D03*
G01X57553Y1777674D03*
G01X57553Y2030187D03*
G01X60053Y2285199D03*
G01X65053Y2540212D03*
G01X60053Y2795224D03*
G04 Via End*

G04 Track Start*
G54D28*
G01X2258939Y2463653D02*
G01X2301145Y2463653D01*
G01X2285178Y2387453D02*
G01X2285178Y2337440D01*
G54D19*
G01X1958375Y2347615D02*
G01X1958375Y2303392D01*
G01X1945095Y2290112D01*
G01X1545075Y2290112D01*
G01X1500073Y2245110D01*
G01X1500073Y1930094D01*
G01X1526087Y1904081D01*
G01X1647043Y1904081D01*
G01X1958375Y2230109D02*
G01X1958375Y2185886D01*
G01X1942595Y2170106D01*
G01X1659069Y2170106D02*
G01X1647043Y2158081D01*
G01X1942595Y2170106D02*
G01X1659069Y2170106D01*
G01X1958375Y2465120D02*
G01X1958375Y2425898D01*
G01X1940095Y2407617D01*
G01X1651506Y2407617D01*
G01X1647043Y2412081D01*
G01X1483523Y2666081D02*
G01X1647043Y2666081D01*
G01X2082689Y2387453D02*
G01X2032763Y2387453D01*
G01X2017598Y2402617D01*
G01X2017598Y2442619D01*
G01X1995097Y2465120D01*
G01X1958375Y2465120D01*
G01X2082689Y2337440D02*
G01X2027773Y2337440D01*
G01X2017598Y2347615D01*
G01X1958375Y2347615D01*
G01X2082689Y2287453D02*
G01X2027440Y2287453D01*
G01X2015098Y2275111D01*
G01X2015098Y2240109D01*
G01X2000956Y2225967D01*
G01X1962517Y2225967D01*
G01X1958375Y2230109D01*
G01X2108927Y2211253D02*
G01X2061246Y2211253D01*
G01X2035099Y2185107D02*
G01X2035099Y2130104D01*
G01X2017598Y2112603D01*
G01X1958375Y2112603D01*
G01X2061246Y2211253D02*
G01X2035099Y2185107D01*
G01X2158940Y2211253D02*
G01X2158940Y2103937D01*
G01X2037599Y1982597D01*
G01X2208927Y2211253D02*
G01X2208927Y2113784D01*
G01X2335114Y1987597D01*
G01X2335114Y1730864D01*
G54D29*
G01X2130598Y1900093D02*
G01X2130598Y1964602D01*
G01X2130104Y1965096D01*
G01X2239615Y1900093D02*
G01X2239615Y1965096D01*
G54D19*
G01X2165104Y1772575D02*
G01X2130598Y1807081D01*
G01X2130598Y1900093D01*
G01X2205109Y1772575D02*
G01X2239615Y1807081D01*
G01X2239615Y1900093D01*
G54D29*
G01X2335114Y1644301D02*
G01X2402617Y1644301D01*
G01X2037599Y1646801D02*
G01X1970096Y1646801D01*
G54D19*
G01X2205109Y1732596D02*
G01X2333382Y1732596D01*
G01X2335114Y1730864D01*
G01X2165104Y1732596D02*
G01X2038368Y1732596D01*
G01X2037599Y1733364D01*
G01X2037599Y1982597D02*
G01X2037599Y1733364D01*
G01X1647043Y380081D02*
G01X1800150Y380081D01*
G01X1857591Y437521D01*
G01X1857591Y685033D01*
G01X1935094Y762537D01*
G01X2002461Y762537D01*
G01X2002501Y837503D02*
G01X2002501Y762497D01*
G01X2267499Y837503D02*
G01X2267499Y762497D01*
G01X2258939Y2211253D02*
G01X2258939Y2158776D01*
G01X2310113Y2107603D01*
G01X1477572Y1777587D02*
G01X1377567Y1877592D01*
G01X1377567Y2560125D01*
G01X1483523Y2666081D01*
G54D28*
G01X1871812Y2465120D02*
G01X1795088Y2465120D01*
G01X1871812Y2347615D02*
G01X1795088Y2347615D01*
G01X1871812Y2230109D02*
G01X1869312Y2227609D01*
G01X1795088Y2227609D01*
G01X1871812Y2112603D02*
G01X1795088Y2112603D01*
G54D19*
G01X2002501Y1162497D02*
G01X2002501Y1237503D01*
G01X2267499Y1162497D02*
G01X2267499Y1237503D01*
G01X123580Y887543D02*
G01X123043Y888081D01*
G01X565028Y887543D02*
G01X123580Y887543D01*
G01X695034Y1017550D02*
G01X565028Y887543D01*
G01X1772586Y1017550D02*
G01X695034Y1017550D01*
G01X2002501Y1162497D02*
G01X1917534Y1162497D01*
G01X1772586Y1017550D01*
G01X1958375Y2112603D02*
G01X1958375Y1975876D01*
G54D28*
G01X2285178Y2337440D02*
G01X2287220Y2339483D01*
G01X2351631Y2339483D01*
G54D19*
G01X2351631Y2339657D02*
G01X2409510Y2339657D01*
G01X2410118Y2339049D01*
G01X2410118Y2400611D02*
G01X2410118Y2339049D01*
G01X2410118Y2274617D01*
G54D30*
G01X2285178Y2287453D02*
G01X2328952Y2287453D01*
G01X2329698Y2286707D01*
G01X2331018Y2286707D01*
G01X2355115Y2262610D01*
G01X2355115Y2180106D01*
G01X2369257Y2165964D01*
G01X2409753Y2165964D01*
G01X2410118Y2165600D01*
G54D28*
G01X2410118Y2165600D02*
G01X2410118Y2070101D01*
G54D19*
G01X1958375Y1975876D02*
G01X1861553Y1879054D01*
G01X1861553Y1777678D01*
G01X1861462Y1777587D02*
G01X1477572Y1777587D01*
G01X1861553Y1777678D02*
G01X1861553Y1636543D01*
G54D28*
G01X2301145Y2463653D02*
G01X2347615Y2510122D01*
G54D19*
G01X2410118Y2509628D02*
G01X2410118Y2510122D01*
G54D28*
G01X2347615Y2510122D02*
G01X2410118Y2510122D01*
G54D19*
G01X2410118Y2510122D02*
G01X2410118Y2605127D01*
G04 Track End*

M02*

