G04 Layer: BottomSilkscreenLayer*
G04 EasyEDA Pro v2.2.40.8, 2025-10-17 17:16:52*
G04 Gerber Generator version 0.3*
G04 Scale: 100 percent, Rotated: No, Reflected: No*
G04 Dimensions in millimeters*
G04 Leading zeros omitted, absolute positions, 4 integers and 5 decimals*
G04 Generated by one-click*
%FSLAX45Y45*%
%MOMM*%
%ADD10C,0.254*%
%ADD11C,0.9541*%
G75*


G04 Image Start*
G36*
G01X912244Y2163178D02*
G01X908671Y2162975D01*
G01X906326Y2163590D01*
G01X903981Y2164205D01*
G01X901627Y2163640D01*
G01X899274Y2163076D01*
G01X895630Y2163076D01*
G01X891068Y2163959D01*
G01X889346Y2164749D01*
G01X887625Y2165539D01*
G01X885760Y2166756D01*
G01X883895Y2167972D01*
G01X882463Y2169754D01*
G01X881031Y2171535D01*
G01X842004Y2243455D01*
G01X802978Y2315376D01*
G01X802314Y2317734D01*
G01X801649Y2320092D01*
G01X802123Y2325202D01*
G01X802785Y2326774D01*
G01X800010Y2324477D01*
G01X797236Y2322180D01*
G01X793864Y2319852D01*
G01X790493Y2317525D01*
G01X786449Y2315352D01*
G01X782406Y2313179D01*
G01X780029Y2312219D01*
G01X777651Y2311259D01*
G01X777651Y2310720D01*
G01X808496Y2253307D01*
G01X839340Y2195894D01*
G01X844446Y2186277D01*
G01X844913Y2183521D01*
G01X845380Y2180765D01*
G01X844890Y2178358D01*
G01X844400Y2175952D01*
G01X841906Y2171084D01*
G01X839666Y2169039D01*
G01X837427Y2166994D01*
G01X835295Y2166008D01*
G01X833163Y2165022D01*
G01X830481Y2164394D01*
G01X827799Y2163767D01*
G01X824919Y2164011D01*
G01X822038Y2164256D01*
G01X819925Y2164989D01*
G01X817874Y2164426D01*
G01X815822Y2163862D01*
G01X809240Y2163862D01*
G01X806556Y2164689D01*
G01X803873Y2165517D01*
G01X801682Y2167020D01*
G01X799491Y2168523D01*
G01X796961Y2171326D01*
G01X786946Y2189702D01*
G01X776931Y2208078D01*
G01X747615Y2262120D01*
G01X718299Y2316162D01*
G01X717793Y2318034D01*
G01X717287Y2319905D01*
G01X717472Y2323339D01*
G01X717658Y2326774D01*
G01X718924Y2329158D01*
G01X720190Y2331543D01*
G01X711582Y2323596D01*
G01X704264Y2318522D01*
G01X695647Y2313787D01*
G01X693184Y2312813D01*
G01X690721Y2311839D01*
G01X690707Y2311446D01*
G01X756202Y2189605D01*
G01X757930Y2185675D01*
G01X758164Y2182881D01*
G01X758397Y2180087D01*
G01X757851Y2177968D01*
G01X757304Y2175849D01*
G01X756237Y2173905D01*
G01X755169Y2171961D01*
G01X752854Y2169745D01*
G01X750539Y2167528D01*
G01X748251Y2166506D01*
G01X745964Y2165483D01*
G01X741907Y2164550D01*
G01X738151Y2164812D01*
G01X734394Y2165074D01*
G01X732672Y2165087D01*
G01X726039Y2163696D01*
G01X720392Y2164579D01*
G01X717573Y2165784D01*
G01X714754Y2166989D01*
G01X712522Y2169076D01*
G01X710290Y2171164D01*
G01X631341Y2316569D01*
G01X630842Y2318694D01*
G01X630343Y2320819D01*
G01X630556Y2323600D01*
G01X630769Y2326381D01*
G01X631715Y2328642D01*
G01X632661Y2330902D01*
G01X635335Y2333990D01*
G01X722085Y2333990D01*
G01X724445Y2335618D01*
G01X726154Y2336796D01*
G01X811616Y2336796D01*
G01X811870Y2336797D01*
G01X814026Y2337545D01*
G01X816181Y2338293D01*
G01X824743Y2339226D01*
G01X832100Y2341167D01*
G01X835648Y2342887D01*
G01X839196Y2344607D01*
G01X841722Y2346382D01*
G01X844249Y2348157D01*
G01X846998Y2350878D01*
G01X849747Y2353598D01*
G01X851848Y2356787D01*
G01X853948Y2359975D01*
G01X855382Y2363812D01*
G01X856816Y2367649D01*
G01X857317Y2370597D01*
G01X857818Y2373545D01*
G01X857333Y2382584D01*
G01X855513Y2388873D01*
G01X851665Y2396144D01*
G01X822365Y2396144D01*
G01X822850Y2395427D01*
G01X824545Y2387906D01*
G01X825060Y2382592D01*
G01X825575Y2377279D01*
G01X825060Y2371965D01*
G01X824545Y2366651D01*
G01X822906Y2359381D01*
G01X820160Y2351535D01*
G01X816552Y2344067D01*
G01X814142Y2340432D01*
G01X814142Y2340432D01*
G01X811616Y2336796D01*
G01X726154Y2336796D01*
G01X726806Y2337246D01*
G01X729005Y2338008D01*
G01X731203Y2338771D01*
G01X736090Y2339356D01*
G01X740977Y2339941D01*
G01X743927Y2340763D01*
G01X746876Y2341585D01*
G01X750189Y2343088D01*
G01X753502Y2344590D01*
G01X757404Y2347042D01*
G01X760032Y2349263D01*
G01X762660Y2351485D01*
G01X764588Y2353772D01*
G01X766515Y2356060D01*
G01X768386Y2359300D01*
G01X770257Y2362540D01*
G01X772417Y2368865D01*
G01X772921Y2372823D01*
G01X773425Y2376781D01*
G01X772940Y2380469D01*
G01X772456Y2384157D01*
G01X771081Y2388873D01*
G01X769228Y2392509D01*
G01X767376Y2396144D01*
G01X735842Y2396144D01*
G01X736076Y2395456D01*
G01X736309Y2394768D01*
G01X737564Y2389266D01*
G01X738594Y2380619D01*
G01X738344Y2375117D01*
G01X738094Y2369614D01*
G01X736735Y2362540D01*
G01X735634Y2358806D01*
G01X734532Y2355072D01*
G01X732599Y2350751D01*
G01X730666Y2346431D01*
G01X728343Y2342651D01*
G01X726020Y2338872D01*
G01X724053Y2336431D01*
G01X724053Y2336431D01*
G01X722085Y2333990D01*
G01X635335Y2333990D01*
G01X636074Y2334844D01*
G01X638102Y2336208D01*
G01X640131Y2337571D01*
G01X642398Y2338360D01*
G01X644665Y2339148D01*
G01X648639Y2339553D01*
G01X652614Y2339959D01*
G01X655762Y2340742D01*
G01X658911Y2341524D01*
G01X661573Y2342547D01*
G01X664235Y2343569D01*
G01X667248Y2345343D01*
G01X670261Y2347118D01*
G01X675211Y2351023D01*
G01X677817Y2354182D01*
G01X680424Y2357340D01*
G01X681855Y2359940D01*
G01X683287Y2362540D01*
G01X685496Y2368935D01*
G01X686513Y2375903D01*
G01X686254Y2379249D01*
G01X685995Y2382594D01*
G01X684936Y2386406D01*
G01X683877Y2390219D01*
G01X680161Y2397118D01*
G01X677015Y2400029D01*
G01X673869Y2402939D01*
G01X671339Y2407516D01*
G01X670312Y2412985D01*
G01X670818Y2415471D01*
G01X671325Y2417957D01*
G01X672615Y2420351D01*
G01X673905Y2422744D01*
G01X676279Y2424794D01*
G01X678652Y2426843D01*
G01X683419Y2428836D01*
G01X686670Y2429352D01*
G01X689920Y2429867D01*
G01X698238Y2429475D01*
G01X701986Y2430273D01*
G01X798602Y2429875D01*
G01X895218Y2429477D01*
G01X895466Y2429703D01*
G01X895714Y2429930D01*
G01X863320Y2489777D01*
G01X833924Y2544083D01*
G01X891159Y2544083D01*
G01X921778Y2486916D01*
G01X952397Y2429748D01*
G01X967494Y2429645D01*
G01X967494Y2429645D01*
G01X982591Y2429542D01*
G01X982402Y2429842D01*
G01X982213Y2430141D01*
G01X920923Y2543523D01*
G01X978229Y2543523D01*
G01X978235Y2543233D01*
G01X978241Y2542942D01*
G01X1008564Y2486345D01*
G01X1038886Y2429748D01*
G01X1052707Y2429645D01*
G01X1052707Y2429645D01*
G01X1066527Y2429541D01*
G01X1066034Y2430960D01*
G01X1034230Y2489711D01*
G01X1002427Y2548462D01*
G01X1001952Y2550025D01*
G01X1001476Y2551589D01*
G01X1001472Y2557364D01*
G01X998243Y2554905D01*
G01X991769Y2550315D01*
G01X988870Y2548694D01*
G01X985970Y2547074D01*
G01X978229Y2543523D01*
G01X920923Y2543523D01*
G01X917625Y2549623D01*
G01X917152Y2551706D01*
G01X916678Y2553789D01*
G01X916678Y2557116D01*
G01X917258Y2559156D01*
G01X917837Y2561195D01*
G01X913903Y2557767D01*
G01X909969Y2554340D01*
G01X906006Y2551785D01*
G01X902043Y2549230D01*
G01X891929Y2544330D01*
G01X891544Y2544207D01*
G01X891159Y2544083D01*
G01X833924Y2544083D01*
G01X830925Y2549623D01*
G01X830276Y2552530D01*
G01X829626Y2555437D01*
G01X830080Y2557938D01*
G01X830534Y2560439D01*
G01X831651Y2562668D01*
G01X832769Y2564897D01*
G01X835813Y2568289D01*
G01X837790Y2569531D01*
G01X839767Y2570773D01*
G01X843974Y2572233D01*
G01X848861Y2572817D01*
G01X853748Y2573402D01*
G01X856697Y2574227D01*
G01X859647Y2575051D01*
G01X863116Y2576612D01*
G01X866585Y2578172D01*
G01X869417Y2580109D01*
G01X872249Y2582046D01*
G01X874667Y2584430D01*
G01X877084Y2586814D01*
G01X878857Y2589198D01*
G01X880630Y2591582D01*
G01X882067Y2594422D01*
G01X883504Y2597263D01*
G01X884377Y2600169D01*
G01X885249Y2603076D01*
G01X885641Y2606613D01*
G01X886033Y2610150D01*
G01X885664Y2613687D01*
G01X885296Y2617225D01*
G01X883053Y2624300D01*
G01X881193Y2627500D01*
G01X879332Y2630701D01*
G01X876524Y2634061D01*
G01X873716Y2637422D01*
G01X872724Y2639704D01*
G01X871733Y2641986D01*
G01X871716Y2645720D01*
G01X871699Y2649454D01*
G01X873681Y2654221D01*
G01X877403Y2658552D01*
G01X881508Y2661034D01*
G01X883921Y2661899D01*
G01X886333Y2662764D01*
G01X890207Y2662762D01*
G01X894081Y2662760D01*
G01X896125Y2662085D01*
G01X898170Y2661410D01*
G01X902061Y2662616D01*
G01X907855Y2662975D01*
G01X909791Y2662606D01*
G01X911728Y2662236D01*
G01X914475Y2661003D01*
G01X917221Y2659769D01*
G01X921884Y2655349D01*
G01X924650Y2651812D01*
G01X927417Y2648275D01*
G01X930188Y2643362D01*
G01X932959Y2638449D01*
G01X934532Y2634322D01*
G01X936104Y2630195D01*
G01X936964Y2626908D01*
G01X937824Y2623621D01*
G01X938434Y2619440D01*
G01X939043Y2615260D01*
G01X939043Y2605434D01*
G01X938415Y2601121D01*
G01X937786Y2596809D01*
G01X936662Y2592709D01*
G01X935538Y2588609D01*
G01X934116Y2585206D01*
G01X932694Y2581803D01*
G01X930655Y2578094D01*
G01X928616Y2574384D01*
G01X925717Y2570242D01*
G01X925717Y2569908D01*
G01X930276Y2571814D01*
G01X935309Y2572416D01*
G01X940342Y2573019D01*
G01X943898Y2574043D01*
G01X947453Y2575067D01*
G01X950301Y2576374D01*
G01X953148Y2577682D01*
G01X956607Y2580062D01*
G01X960066Y2582442D01*
G01X964306Y2586961D01*
G01X965615Y2588730D01*
G01X966924Y2590499D01*
G01X968485Y2593333D01*
G01X970045Y2596168D01*
G01X971169Y2599622D01*
G01X972292Y2603076D01*
G01X972521Y2607895D01*
G01X972750Y2612714D01*
G01X972213Y2615755D01*
G01X971676Y2618797D01*
G01X970466Y2622046D01*
G01X969256Y2625295D01*
G01X966255Y2630195D01*
G01X963504Y2633565D01*
G01X960753Y2636934D01*
G01X959699Y2639067D01*
G01X958645Y2641200D01*
G01X958644Y2649887D01*
G01X961881Y2655866D01*
G01X966823Y2659998D01*
G01X969107Y2660955D01*
G01X971391Y2661912D01*
G01X974165Y2662346D01*
G01X976939Y2662780D01*
G01X979986Y2662303D01*
G01X983034Y2661826D01*
G01X984127Y2661303D01*
G01X985220Y2660780D01*
G01X986997Y2661390D01*
G01X988774Y2662000D01*
G01X996952Y2662031D01*
G01X1001256Y2660538D01*
G01X1005789Y2657819D01*
G01X1008608Y2654619D01*
G01X1011427Y2651419D01*
G01X1013840Y2647882D01*
G01X1016254Y2644344D01*
G01X1020340Y2636484D01*
G01X1021628Y2633112D01*
G01X1022916Y2629740D01*
G01X1024015Y2625251D01*
G01X1025114Y2620762D01*
G01X1026122Y2611330D01*
G01X1025586Y2601897D01*
G01X1024260Y2594429D01*
G01X1023157Y2590695D01*
G01X1022055Y2586961D01*
G01X1018202Y2578315D01*
G01X1016884Y2576153D01*
G01X1015566Y2573991D01*
G01X1014457Y2572248D01*
G01X1013348Y2570505D01*
G01X1015030Y2571132D01*
G01X1019242Y2571649D01*
G01X1023454Y2572167D01*
G01X1024838Y2572419D01*
G01X1026221Y2572671D01*
G01X1029019Y2573484D01*
G01X1031816Y2574298D01*
G01X1034399Y2575476D01*
G01X1036981Y2576654D01*
G01X1039564Y2578242D01*
G01X1042147Y2579830D01*
G01X1048235Y2585389D01*
G01X1050087Y2587897D01*
G01X1051940Y2590405D01*
G01X1053599Y2593638D01*
G01X1055258Y2596871D01*
G01X1056119Y2600164D01*
G01X1056980Y2603456D01*
G01X1057258Y2606808D01*
G01X1057535Y2610160D01*
G01X1057028Y2613639D01*
G01X1056521Y2617118D01*
G01X1054325Y2623514D01*
G01X1052644Y2626461D01*
G01X1050963Y2629409D01*
G01X1047986Y2633042D01*
G01X1045009Y2636674D01*
G01X1043310Y2640821D01*
G01X1043012Y2642992D01*
G01X1042715Y2645163D01*
G01X1043181Y2647463D01*
G01X1043647Y2649764D01*
G01X1044738Y2651939D01*
G01X1045829Y2654115D01*
G01X1047401Y2655867D01*
G01X1048973Y2657620D01*
G01X1051466Y2659091D01*
G01X1053958Y2660562D01*
G01X1056742Y2661250D01*
G01X1059527Y2661938D01*
G01X1062888Y2661756D01*
G01X1066250Y2661575D01*
G01X1068301Y2660741D01*
G01X1070352Y2659908D01*
G01X1072122Y2660478D01*
G01X1073891Y2661048D01*
G01X1080944Y2661048D01*
G01X1083131Y2660455D01*
G01X1085317Y2659862D01*
G01X1087900Y2658287D01*
G01X1090484Y2656712D01*
G01X1092856Y2654031D01*
G01X1095228Y2651351D01*
G01X1097809Y2647761D01*
G01X1100390Y2644171D01*
G01X1102550Y2640131D01*
G01X1104708Y2636091D01*
G01X1106262Y2631987D01*
G01X1107815Y2627883D01*
G01X1108970Y2622947D01*
G01X1110125Y2618011D01*
G01X1110153Y2599539D01*
G01X1109165Y2595084D01*
G01X1108177Y2590629D01*
G01X1106675Y2586443D01*
G01X1105173Y2582256D01*
G01X1103041Y2578181D01*
G01X1100909Y2574106D01*
G01X1098917Y2571110D01*
G01X1096925Y2568114D01*
G01X1094961Y2565747D01*
G01X1092996Y2563380D01*
G01X1087341Y2557539D01*
G01X1080036Y2551706D01*
G01X1071415Y2546445D01*
G01X1062813Y2542551D01*
G01X1062573Y2542466D01*
G01X1095930Y2480175D01*
G01X1129287Y2417884D01*
G01X1129815Y2415072D01*
G01X1130343Y2412259D01*
G01X1129853Y2409646D01*
G01X1129363Y2407033D01*
G01X1128051Y2404599D01*
G01X1126739Y2402166D01*
G01X1121997Y2398071D01*
G01X1119088Y2396813D01*
G01X1116179Y2395555D01*
G01X940567Y2395741D01*
G01X906843Y2396218D01*
G01X907664Y2393332D01*
G01X908485Y2390445D01*
G01X909885Y2381405D01*
G01X909454Y2367256D01*
G01X907571Y2358609D01*
G01X906060Y2354286D01*
G01X904549Y2349963D01*
G01X902047Y2345226D01*
G01X899545Y2340489D01*
G01X896518Y2336383D01*
G01X893491Y2332276D01*
G01X890224Y2328847D01*
G01X886957Y2325418D01*
G01X883202Y2322435D01*
G01X879447Y2319451D01*
G01X875211Y2316858D01*
G01X870975Y2314265D01*
G01X867033Y2312425D01*
G01X863090Y2310586D01*
G01X862539Y2310422D01*
G01X861987Y2310258D01*
G01X895151Y2248556D01*
G01X928315Y2186854D01*
G01X929591Y2182978D01*
G01X929591Y2177295D01*
G01X928806Y2175000D01*
G01X928022Y2172705D01*
G01X926855Y2171021D01*
G01X925688Y2169337D01*
G01X922058Y2166101D01*
G01X915818Y2163382D01*
G01X912244Y2163178D01*
G37*
G04 Image End*

G04 Text Start*
G36*
G01X408664Y1694854D02*
G01X407392Y1694672D01*
G01X405392Y1694490D01*
G01X403755Y1694309D01*
G01X401937Y1694127D01*
G01X399755Y1694309D01*
G01X395028Y1694672D01*
G01X393028Y1695036D01*
G01X390846Y1695581D01*
G01X389392Y1696127D01*
G01X387937Y1696854D01*
G01X386664Y1697763D01*
G01X385574Y1699036D01*
G01X384846Y1700854D01*
G01X384664Y1702854D01*
G01X385028Y1704490D01*
G01X385755Y1705399D01*
G01X386664Y1706127D01*
G01X387937Y1707036D01*
G01X389392Y1707945D01*
G01X390664Y1709218D01*
G01X391574Y1710672D01*
G01X392119Y1712490D01*
G01X392483Y1714309D01*
G01X392846Y1718309D01*
G01X393028Y1722491D01*
G01X392846Y1726672D01*
G01X392483Y1729582D01*
G01X391937Y1731036D01*
G01X390846Y1732309D01*
G01X388846Y1732672D01*
G01X387028Y1732309D01*
G01X385574Y1731400D01*
G01X384301Y1730309D01*
G01X382483Y1728854D01*
G01X381574Y1727945D01*
G01X380119Y1726854D01*
G01X377937Y1724672D01*
G01X376483Y1723581D01*
G01X375210Y1722309D01*
G01X372664Y1720127D01*
G01X370846Y1718309D01*
G01X369028Y1716854D01*
G01X367210Y1715036D01*
G01X365392Y1713581D01*
G01X364483Y1712672D01*
G01X362664Y1711218D01*
G01X360846Y1709400D01*
G01X359028Y1707945D01*
G01X357210Y1706127D01*
G01X355755Y1705036D01*
G01X353573Y1702854D01*
G01X352119Y1701763D01*
G01X350846Y1700490D01*
G01X348301Y1698309D01*
G01X347392Y1697399D01*
G01X344482Y1695218D01*
G01X342664Y1694490D01*
G01X340301Y1694309D01*
G01X338301Y1695218D01*
G01X336846Y1696854D01*
G01X335937Y1698672D01*
G01X335210Y1700854D01*
G01X334846Y1703036D01*
G01X334664Y1704490D01*
G01X334301Y1708490D01*
G01X333937Y1753581D01*
G01X333573Y1757218D01*
G01X333210Y1758854D01*
G01X332664Y1760491D01*
G01X331937Y1761763D01*
G01X330664Y1762854D01*
G01X329210Y1763581D01*
G01X327937Y1764309D01*
G01X326846Y1765218D01*
G01X325937Y1766127D01*
G01X325210Y1767400D01*
G01X324846Y1768854D01*
G01X324846Y1770490D01*
G01X325392Y1772127D01*
G01X326119Y1773218D01*
G01X327210Y1774127D01*
G01X328482Y1774854D01*
G01X330119Y1775400D01*
G01X331755Y1775763D01*
G01X333937Y1776127D01*
G01X336664Y1776309D01*
G01X338301Y1776490D01*
G01X342846Y1776672D01*
G01X347392Y1776490D01*
G01X351392Y1776127D01*
G01X352846Y1775763D01*
G01X354482Y1775218D01*
G01X356119Y1774309D01*
G01X357392Y1773036D01*
G01X358119Y1771581D01*
G01X358483Y1769400D01*
G01X358119Y1767400D01*
G01X357392Y1766309D01*
G01X356119Y1765218D01*
G01X353210Y1763400D01*
G01X351937Y1762127D01*
G01X351210Y1760854D01*
G01X350664Y1759218D01*
G01X350301Y1757581D01*
G01X349937Y1753218D01*
G01X349755Y1750309D01*
G01X349937Y1747400D01*
G01X350301Y1745763D01*
G01X351028Y1744309D01*
G01X352119Y1743763D01*
G01X353573Y1743581D01*
G01X355210Y1744127D01*
G01X356846Y1745218D01*
G01X358119Y1746309D01*
G01X360301Y1748127D01*
G01X361210Y1749036D01*
G01X362664Y1750127D01*
G01X363937Y1751400D01*
G01X366119Y1753218D01*
G01X367028Y1754127D01*
G01X368483Y1755218D01*
G01X369755Y1756491D01*
G01X371937Y1758309D01*
G01X372846Y1759218D01*
G01X374301Y1760309D01*
G01X375574Y1761581D01*
G01X377755Y1763400D01*
G01X378664Y1764309D01*
G01X380119Y1765400D01*
G01X381392Y1766672D01*
G01X383574Y1768490D01*
G01X384483Y1769400D01*
G01X385937Y1770490D01*
G01X387210Y1771763D01*
G01X389392Y1773581D01*
G01X390301Y1774309D01*
G01X392846Y1775581D01*
G01X395028Y1776127D01*
G01X397937Y1776490D01*
G01X402846Y1776672D01*
G01X406664Y1776490D01*
G01X411755Y1776127D01*
G01X413392Y1775763D01*
G01X415210Y1775218D01*
G01X416664Y1774672D01*
G01X418301Y1773763D01*
G01X419573Y1772490D01*
G01X420301Y1771400D01*
G01X420846Y1769581D01*
G01X420664Y1767218D01*
G01X419755Y1765763D01*
G01X418483Y1764854D01*
G01X416846Y1763945D01*
G01X415573Y1763218D01*
G01X414483Y1762491D01*
G01X413210Y1761218D01*
G01X412301Y1759763D01*
G01X411755Y1758309D01*
G01X411392Y1756854D01*
G01X411028Y1755036D01*
G01X410664Y1752854D01*
G01X410483Y1751218D01*
G01X410301Y1749945D01*
G01X409937Y1745218D01*
G01X409755Y1733581D01*
G01X409937Y1721945D01*
G01X410301Y1716490D01*
G01X410664Y1712854D01*
G01X411210Y1711218D01*
G01X411937Y1709763D01*
G01X412664Y1708854D01*
G01X413573Y1708127D01*
G01X414846Y1707400D01*
G01X416119Y1706490D01*
G01X417028Y1705581D01*
G01X417755Y1704672D01*
G01X418301Y1703036D01*
G01X418301Y1700854D01*
G01X417755Y1699399D01*
G01X417028Y1698309D01*
G01X415937Y1697399D01*
G01X414664Y1696672D01*
G01X413028Y1695945D01*
G01X410664Y1695218D01*
G01X408664Y1694854D01*
G37*
G36*
G01X477937Y1694672D02*
G01X475755Y1694309D01*
G01X473392Y1694127D01*
G01X472119Y1693945D01*
G01X469755Y1693763D01*
G01X467028Y1693945D01*
G01X463392Y1694309D01*
G01X460846Y1694672D01*
G01X457573Y1695399D01*
G01X451573Y1697399D01*
G01X449937Y1698127D01*
G01X447028Y1699581D01*
G01X444482Y1701036D01*
G01X443028Y1701945D01*
G01X441755Y1702854D01*
G01X439028Y1705036D01*
G01X435392Y1708672D01*
G01X434482Y1709763D01*
G01X433755Y1710854D01*
G01X433028Y1711763D01*
G01X432119Y1713036D01*
G01X431028Y1714672D01*
G01X430119Y1716309D01*
G01X429392Y1717581D01*
G01X427937Y1720854D01*
G01X427392Y1722491D01*
G01X427173Y1723218D01*
G01X454846Y1723218D01*
G01X455028Y1720854D01*
G01X455392Y1719036D01*
G01X455937Y1717036D01*
G01X456846Y1715400D01*
G01X458119Y1713581D01*
G01X459573Y1712490D01*
G01X460664Y1711945D01*
G01X460664Y1711945D01*
G01X462301Y1711400D01*
G01X464119Y1711036D01*
G01X465210Y1711036D01*
G01X466664Y1711218D01*
G01X468301Y1711581D01*
G01X469755Y1712309D01*
G01X470846Y1713036D01*
G01X471755Y1713763D01*
G01X472664Y1714672D01*
G01X474119Y1716490D01*
G01X474846Y1717581D01*
G01X475755Y1719036D01*
G01X478119Y1723763D01*
G01X478846Y1725400D01*
G01X480301Y1729036D01*
G01X481392Y1732309D01*
G01X481937Y1734127D01*
G01X482301Y1735763D01*
G01X482846Y1737581D01*
G01X483392Y1740491D01*
G01X483755Y1742672D01*
G01X484119Y1745581D01*
G01X484301Y1748309D01*
G01X484119Y1751036D01*
G01X483755Y1752491D01*
G01X483210Y1753945D01*
G01X482483Y1755218D01*
G01X481392Y1756854D01*
G01X480119Y1758127D01*
G01X479028Y1758854D01*
G01X477392Y1759581D01*
G01X474664Y1760127D01*
G01X472482Y1760127D01*
G01X470846Y1759581D01*
G01X469028Y1758672D01*
G01X467755Y1757763D01*
G01X465028Y1755036D01*
G01X464301Y1754127D01*
G01X463392Y1752854D01*
G01X462301Y1751036D01*
G01X459937Y1746309D01*
G01X459210Y1744309D01*
G01X458482Y1742491D01*
G01X457937Y1740854D01*
G01X457573Y1739400D01*
G01X457028Y1737581D01*
G01X456482Y1735218D01*
G01X456119Y1733581D01*
G01X455755Y1731763D01*
G01X455392Y1729218D01*
G01X455210Y1727036D01*
G01X455028Y1725581D01*
G01X454846Y1723218D01*
G01X427173Y1723218D01*
G01X426846Y1724309D01*
G01X426301Y1726491D01*
G01X425937Y1728491D01*
G01X425573Y1731400D01*
G01X425392Y1734672D01*
G01X425573Y1737945D01*
G01X425937Y1740854D01*
G01X426664Y1744491D01*
G01X427937Y1748309D01*
G01X428664Y1750127D01*
G01X429392Y1751763D01*
G01X430301Y1753581D01*
G01X431210Y1755218D01*
G01X431937Y1756491D01*
G01X432846Y1757945D01*
G01X434119Y1759763D01*
G01X435210Y1761218D01*
G01X436664Y1763036D01*
G01X440301Y1766672D01*
G01X443028Y1768854D01*
G01X443937Y1769400D01*
G01X445210Y1770309D01*
G01X447028Y1771400D01*
G01X450301Y1773036D01*
G01X451937Y1773763D01*
G01X453755Y1774490D01*
G01X457392Y1775581D01*
G01X458846Y1775945D01*
G01X460119Y1776127D01*
G01X462301Y1776490D01*
G01X465573Y1776854D01*
G01X469573Y1777036D01*
G01X472482Y1776854D01*
G01X476119Y1776490D01*
G01X478664Y1776127D01*
G01X482301Y1775218D01*
G01X484664Y1774490D01*
G01X486664Y1773763D01*
G01X490301Y1772309D01*
G01X493574Y1770490D01*
G01X494846Y1769763D01*
G01X497392Y1767945D01*
G01X498301Y1767218D01*
G01X499210Y1766309D01*
G01X501392Y1764491D01*
G01X502846Y1762672D01*
G01X503755Y1761763D01*
G01X504664Y1760672D01*
G01X505392Y1759581D01*
G01X506301Y1758309D01*
G01X508119Y1755400D01*
G01X509028Y1753581D01*
G01X509755Y1751945D01*
G01X510483Y1750127D01*
G01X511574Y1746854D01*
G01X512119Y1744491D01*
G01X512483Y1742672D01*
G01X512846Y1739763D01*
G01X513028Y1734854D01*
G01X512846Y1729945D01*
G01X512483Y1727400D01*
G01X511755Y1724127D01*
G01X511210Y1722491D01*
G01X510483Y1720491D01*
G01X509755Y1718672D01*
G01X508301Y1715763D01*
G01X507392Y1714127D01*
G01X506301Y1712490D01*
G01X505028Y1710672D01*
G01X503937Y1709218D01*
G01X502483Y1707400D01*
G01X500664Y1705581D01*
G01X498119Y1703399D01*
G01X497210Y1702672D01*
G01X496301Y1702127D01*
G01X495028Y1701218D01*
G01X493210Y1700127D01*
G01X489937Y1698490D01*
G01X488301Y1697763D01*
G01X484664Y1696309D01*
G01X482664Y1695763D01*
G01X479755Y1695036D01*
G01X477937Y1694672D01*
G37*
G36*
G01X563755Y1694672D02*
G01X561573Y1694309D01*
G01X559392Y1694127D01*
G01X558301Y1693945D01*
G01X556301Y1693763D01*
G01X553937Y1693945D01*
G01X549937Y1694309D01*
G01X546301Y1695036D01*
G01X544664Y1695581D01*
G01X542846Y1696127D01*
G01X541392Y1696672D01*
G01X539573Y1697399D01*
G01X537937Y1698127D01*
G01X535392Y1699218D01*
G01X533755Y1699763D01*
G01X532119Y1700127D01*
G01X530301Y1700672D01*
G01X528119Y1701399D01*
G01X526846Y1702309D01*
G01X525937Y1703218D01*
G01X524846Y1704490D01*
G01X523937Y1705763D01*
G01X522483Y1708309D01*
G01X521937Y1709400D01*
G01X521392Y1710672D01*
G01X520846Y1712309D01*
G01X520483Y1713945D01*
G01X520301Y1716490D01*
G01X520664Y1719036D01*
G01X521392Y1720309D01*
G01X522301Y1721400D01*
G01X523574Y1722127D01*
G01X525210Y1722491D01*
G01X526846Y1721945D01*
G01X528119Y1721036D01*
G01X529028Y1720127D01*
G01X530119Y1719218D01*
G01X531392Y1718491D01*
G01X532846Y1717763D01*
G01X534483Y1717036D01*
G01X536301Y1716309D01*
G01X538483Y1715763D01*
G01X540119Y1715400D01*
G01X542664Y1715036D01*
G01X546119Y1714854D01*
G01X549573Y1715036D01*
G01X551210Y1715400D01*
G01X553028Y1715945D01*
G01X554483Y1716490D01*
G01X555755Y1717036D01*
G01X557028Y1717763D01*
G01X558483Y1718672D01*
G01X559755Y1719581D01*
G01X562482Y1722309D01*
G01X563210Y1723218D01*
G01X564119Y1724491D01*
G01X565210Y1726127D01*
G01X566119Y1727763D01*
G01X566846Y1729218D01*
G01X567573Y1730854D01*
G01X568301Y1732854D01*
G01X569028Y1735036D01*
G01X569573Y1737763D01*
G01X569937Y1739763D01*
G01X570119Y1744491D01*
G01X569937Y1749218D01*
G01X569573Y1750672D01*
G01X569028Y1752309D01*
G01X568301Y1753945D01*
G01X567573Y1755218D01*
G01X566846Y1756127D01*
G01X565028Y1757945D01*
G01X564119Y1758672D01*
G01X563028Y1759218D01*
G01X561210Y1759945D01*
G01X559210Y1760309D01*
G01X556664Y1760672D01*
G01X552846Y1760127D01*
G01X551392Y1759763D01*
G01X549937Y1759218D01*
G01X547028Y1757763D01*
G01X545573Y1756854D01*
G01X544301Y1755763D01*
G01X543392Y1755036D01*
G01X542301Y1753945D01*
G01X541210Y1752672D01*
G01X540483Y1751763D01*
G01X539755Y1750491D01*
G01X538846Y1749036D01*
G01X536664Y1745218D01*
G01X535937Y1744127D01*
G01X534846Y1742854D01*
G01X533210Y1741581D01*
G01X531392Y1740854D01*
G01X529573Y1740491D01*
G01X527392Y1740491D01*
G01X525392Y1741036D01*
G01X524119Y1741581D01*
G01X522846Y1742309D01*
G01X521574Y1743218D01*
G01X520664Y1744309D01*
G01X519755Y1745763D01*
G01X519028Y1747218D01*
G01X518664Y1748491D01*
G01X518301Y1749945D01*
G01X518119Y1753763D01*
G01X518301Y1757218D01*
G01X518664Y1759036D01*
G01X519210Y1761036D01*
G01X519755Y1762672D01*
G01X520301Y1764127D01*
G01X521755Y1766672D01*
G01X522483Y1767763D01*
G01X523574Y1769218D01*
G01X524846Y1770490D01*
G01X525937Y1771218D01*
G01X527392Y1771763D01*
G01X528846Y1772127D01*
G01X529937Y1772127D01*
G01X532483Y1771763D01*
G01X534301Y1771581D01*
G01X536301Y1771945D01*
G01X537755Y1772490D01*
G01X540301Y1773581D01*
G01X541755Y1774127D01*
G01X543573Y1774854D01*
G01X545573Y1775400D01*
G01X548483Y1776127D01*
G01X550664Y1776490D01*
G01X552664Y1776672D01*
G01X553937Y1776854D01*
G01X556483Y1777036D01*
G01X559028Y1776854D01*
G01X562664Y1776490D01*
G01X566301Y1775763D01*
G01X568119Y1775218D01*
G01X570301Y1774490D01*
G01X572301Y1773763D01*
G01X573937Y1773036D01*
G01X575210Y1772490D01*
G01X576664Y1771763D01*
G01X578301Y1770854D01*
G01X579573Y1770127D01*
G01X581755Y1768672D01*
G01X583028Y1767763D01*
G01X584301Y1766672D01*
G01X586482Y1764854D01*
G01X589210Y1762127D01*
G01X591028Y1759945D01*
G01X591755Y1759036D01*
G01X592301Y1758127D01*
G01X593210Y1756854D01*
G01X595028Y1753945D01*
G01X595937Y1752127D01*
G01X596664Y1750491D01*
G01X597392Y1748672D01*
G01X598119Y1746491D01*
G01X598664Y1744491D01*
G01X599392Y1740854D01*
G01X599573Y1739218D01*
G01X599755Y1737945D01*
G01X599937Y1734672D01*
G01X599755Y1731400D01*
G01X599392Y1728491D01*
G01X598664Y1725218D01*
G01X597392Y1721400D01*
G01X596664Y1719763D01*
G01X594482Y1715400D01*
G01X593755Y1714127D01*
G01X592846Y1712854D01*
G01X591573Y1711036D01*
G01X590482Y1709581D01*
G01X589573Y1708672D01*
G01X587755Y1706490D01*
G01X585937Y1705036D01*
G01X585028Y1704127D01*
G01X583937Y1703218D01*
G01X582846Y1702490D01*
G01X581573Y1701581D01*
G01X580119Y1700672D01*
G01X577573Y1699218D01*
G01X576119Y1698490D01*
G01X572482Y1697036D01*
G01X570482Y1696309D01*
G01X568482Y1695763D01*
G01X565573Y1695036D01*
G01X563755Y1694672D01*
G37*
G36*
G01X647937Y1695581D02*
G01X625210Y1695399D01*
G01X615028Y1694127D01*
G01X613937Y1693945D01*
G01X612483Y1693945D01*
G01X610664Y1694490D01*
G01X609574Y1695218D01*
G01X608664Y1696309D01*
G01X607937Y1697399D01*
G01X607028Y1698672D01*
G01X604846Y1702309D01*
G01X604119Y1703945D01*
G01X603573Y1705399D01*
G01X602846Y1707218D01*
G01X602301Y1709400D01*
G01X601937Y1711036D01*
G01X601755Y1714127D01*
G01X601937Y1717218D01*
G01X602483Y1718854D01*
G01X603210Y1720491D01*
G01X603937Y1721581D01*
G01X605210Y1722672D01*
G01X607210Y1723581D01*
G01X609392Y1723763D01*
G01X610846Y1723036D01*
G01X611574Y1722127D01*
G01X612119Y1721036D01*
G01X612483Y1719763D01*
G01X613028Y1718127D01*
G01X613755Y1716309D01*
G01X614483Y1714854D01*
G01X615210Y1713763D01*
G01X615937Y1712854D01*
G01X616846Y1711945D01*
G01X617755Y1711218D01*
G01X619028Y1710309D01*
G01X621028Y1709400D01*
G01X622664Y1708854D01*
G01X624483Y1708490D01*
G01X627392Y1708127D01*
G01X630664Y1708127D01*
G01X633392Y1708672D01*
G01X635392Y1709763D01*
G01X636846Y1711400D01*
G01X637574Y1713945D01*
G01X637937Y1716127D01*
G01X638301Y1722672D01*
G01X638483Y1736854D01*
G01X638301Y1751036D01*
G01X637937Y1759763D01*
G01X637392Y1761218D01*
G01X636483Y1762672D01*
G01X635028Y1763581D01*
G01X632119Y1765036D01*
G01X630846Y1765763D01*
G01X629937Y1766854D01*
G01X629528Y1767809D01*
G01X629392Y1769218D01*
G01X629528Y1770627D01*
G01X629937Y1771581D01*
G01X630846Y1772672D01*
G01X632119Y1773581D01*
G01X634119Y1774490D01*
G01X636483Y1775218D01*
G01X638483Y1775581D01*
G01X639755Y1775763D01*
G01X643028Y1776127D01*
G01X650664Y1776490D01*
G01X653028Y1776672D01*
G01X655392Y1776490D01*
G01X661937Y1776127D01*
G01X664846Y1775763D01*
G01X668483Y1775036D01*
G01X670119Y1774490D01*
G01X671755Y1773763D01*
G01X672846Y1773218D01*
G01X674301Y1772309D01*
G01X675755Y1770672D01*
G01X676483Y1768490D01*
G01X676301Y1766490D01*
G01X675392Y1765400D01*
G01X674483Y1764672D01*
G01X673210Y1763945D01*
G01X671210Y1763218D01*
G01X669392Y1762491D01*
G01X668119Y1761763D01*
G01X667210Y1760491D01*
G01X666664Y1759036D01*
G01X666301Y1757218D01*
G01X666119Y1751036D01*
G01X665937Y1745581D01*
G01X665573Y1732127D01*
G01X665392Y1723400D01*
G01X665573Y1714672D01*
G01X665937Y1709945D01*
G01X666483Y1708672D01*
G01X667573Y1707036D01*
G01X669210Y1705763D01*
G01X672119Y1704309D01*
G01X673392Y1703399D01*
G01X674119Y1702672D01*
G01X674846Y1701218D01*
G01X674846Y1698854D01*
G01X673937Y1697399D01*
G01X673028Y1696672D01*
G01X671392Y1695945D01*
G01X647937Y1695581D01*
G37*
G36*
G01X1299392Y1695399D02*
G01X1293573Y1695036D01*
G01X1290664Y1694672D01*
G01X1289392Y1694309D01*
G01X1287573Y1694127D01*
G01X1285574Y1694672D01*
G01X1284301Y1695763D01*
G01X1283574Y1696672D01*
G01X1282664Y1697945D01*
G01X1281574Y1699763D01*
G01X1279937Y1703036D01*
G01X1279392Y1704309D01*
G01X1278846Y1705763D01*
G01X1278119Y1707581D01*
G01X1277574Y1709581D01*
G01X1277210Y1711036D01*
G01X1276846Y1712854D01*
G01X1276483Y1715036D01*
G01X1276483Y1716490D01*
G01X1276664Y1717763D01*
G01X1277028Y1719036D01*
G01X1277755Y1720309D01*
G01X1278483Y1721400D01*
G01X1279392Y1722127D01*
G01X1281028Y1722854D01*
G01X1283210Y1723036D01*
G01X1285210Y1722127D01*
G01X1286483Y1720672D01*
G01X1288664Y1716854D01*
G01X1289392Y1715400D01*
G01X1290301Y1714127D01*
G01X1291755Y1712309D01*
G01X1292664Y1711400D01*
G01X1293755Y1710490D01*
G01X1295210Y1709581D01*
G01X1296664Y1708854D01*
G01X1297937Y1708490D01*
G01X1299755Y1707945D01*
G01X1301755Y1707581D01*
G01X1303028Y1707400D01*
G01X1307755Y1707036D01*
G01X1310301Y1706854D01*
G01X1312846Y1707036D01*
G01X1316846Y1707400D01*
G01X1318301Y1707945D01*
G01X1319074Y1708445D01*
G01X1319573Y1709218D01*
G01X1320119Y1710672D01*
G01X1320483Y1712854D01*
G01X1320664Y1715218D01*
G01X1320846Y1716490D01*
G01X1321028Y1719763D01*
G01X1321210Y1722854D01*
G01X1321210Y1723763D01*
G01X1321028Y1725945D01*
G01X1320664Y1728309D01*
G01X1319937Y1729582D01*
G01X1318664Y1730491D01*
G01X1316119Y1730854D01*
G01X1313937Y1730672D01*
G01X1312664Y1730127D01*
G01X1311028Y1729036D01*
G01X1309937Y1727582D01*
G01X1309392Y1726127D01*
G01X1309028Y1724672D01*
G01X1308846Y1723400D01*
G01X1308483Y1721763D01*
G01X1307755Y1720127D01*
G01X1306119Y1719218D01*
G01X1304483Y1719036D01*
G01X1303210Y1719400D01*
G01X1302119Y1719945D01*
G01X1301392Y1720672D01*
G01X1300483Y1721945D01*
G01X1299755Y1723581D01*
G01X1299210Y1725036D01*
G01X1298664Y1726854D01*
G01X1298301Y1728491D01*
G01X1297937Y1730309D01*
G01X1297573Y1732854D01*
G01X1297392Y1738127D01*
G01X1297573Y1742672D01*
G01X1297937Y1745218D01*
G01X1298301Y1747036D01*
G01X1298846Y1749036D01*
G01X1299392Y1750491D01*
G01X1299937Y1751763D01*
G01X1300664Y1752854D01*
G01X1301573Y1753581D01*
G01X1302664Y1754127D01*
G01X1304483Y1754491D01*
G01X1306301Y1754127D01*
G01X1307392Y1753400D01*
G01X1308119Y1752309D01*
G01X1308664Y1751036D01*
G01X1309210Y1748854D01*
G01X1309573Y1746309D01*
G01X1309937Y1744672D01*
G01X1310664Y1743400D01*
G01X1312119Y1742491D01*
G01X1316119Y1742127D01*
G01X1319755Y1742309D01*
G01X1320846Y1742854D01*
G01X1321573Y1744491D01*
G01X1321937Y1746672D01*
G01X1322119Y1751218D01*
G01X1321937Y1755400D01*
G01X1321755Y1758127D01*
G01X1321392Y1761036D01*
G01X1320664Y1762309D01*
G01X1319573Y1763036D01*
G01X1318119Y1763581D01*
G01X1316119Y1763945D01*
G01X1314301Y1764127D01*
G01X1311028Y1764309D01*
G01X1307755Y1764127D01*
G01X1303392Y1763763D01*
G01X1301573Y1763400D01*
G01X1299573Y1762854D01*
G01X1297937Y1762127D01*
G01X1296664Y1761400D01*
G01X1295755Y1760672D01*
G01X1294846Y1759763D01*
G01X1291573Y1755400D01*
G01X1289937Y1754127D01*
G01X1288483Y1753581D01*
G01X1286846Y1753400D01*
G01X1284846Y1753945D01*
G01X1283574Y1755036D01*
G01X1282846Y1755945D01*
G01X1282119Y1757218D01*
G01X1281574Y1759400D01*
G01X1281392Y1763036D01*
G01X1281574Y1765945D01*
G01X1281937Y1767400D01*
G01X1282483Y1769218D01*
G01X1283210Y1771036D01*
G01X1284119Y1772672D01*
G01X1285028Y1774127D01*
G01X1285937Y1775218D01*
G01X1286846Y1776127D01*
G01X1287937Y1776854D01*
G01X1289210Y1777218D01*
G01X1290301Y1777581D01*
G01X1291392Y1777581D01*
G01X1294664Y1776854D01*
G01X1296119Y1776490D01*
G01X1298301Y1776127D01*
G01X1300846Y1775763D01*
G01X1305392Y1775581D01*
G01X1309210Y1775400D01*
G01X1352119Y1775036D01*
G01X1353574Y1774490D01*
G01X1354846Y1773581D01*
G01X1355574Y1772672D01*
G01X1356301Y1771581D01*
G01X1356846Y1769945D01*
G01X1356846Y1768490D01*
G01X1356301Y1767218D01*
G01X1355028Y1765945D01*
G01X1353028Y1765036D01*
G01X1351210Y1764309D01*
G01X1350119Y1763400D01*
G01X1349392Y1762309D01*
G01X1348846Y1760854D01*
G01X1348119Y1757945D01*
G01X1347755Y1755763D01*
G01X1347392Y1752854D01*
G01X1347210Y1750491D01*
G01X1347028Y1749218D01*
G01X1346665Y1741581D01*
G01X1346483Y1733763D01*
G01X1346665Y1725945D01*
G01X1347028Y1719400D01*
G01X1347392Y1715763D01*
G01X1347755Y1713218D01*
G01X1348483Y1709218D01*
G01X1349028Y1707763D01*
G01X1349937Y1706490D01*
G01X1350846Y1705763D01*
G01X1352119Y1705036D01*
G01X1353574Y1704309D01*
G01X1354665Y1703581D01*
G01X1355755Y1702309D01*
G01X1356301Y1700127D01*
G01X1355937Y1698309D01*
G01X1355210Y1697218D01*
G01X1354301Y1696490D01*
G01X1353028Y1695945D01*
G01X1326119Y1695581D01*
G01X1299392Y1695399D01*
G37*
G36*
G01X1495392Y1695036D02*
G01X1493210Y1694672D01*
G01X1490119Y1694490D01*
G01X1488119Y1694309D01*
G01X1485574Y1694127D01*
G01X1482665Y1694309D01*
G01X1475755Y1694672D01*
G01X1472846Y1695036D01*
G01X1470301Y1695399D01*
G01X1466665Y1696127D01*
G01X1465028Y1696672D01*
G01X1463392Y1697399D01*
G01X1462301Y1698127D01*
G01X1461392Y1699036D01*
G01X1460665Y1700127D01*
G01X1460119Y1701581D01*
G01X1459937Y1703399D01*
G01X1460665Y1705218D01*
G01X1461937Y1706490D01*
G01X1463028Y1707218D01*
G01X1464301Y1707945D01*
G01X1465937Y1709036D01*
G01X1467210Y1710672D01*
G01X1467755Y1712490D01*
G01X1468119Y1714309D01*
G01X1468301Y1716490D01*
G01X1468483Y1718309D01*
G01X1468846Y1726672D01*
G01X1469028Y1738309D01*
G01X1468846Y1749945D01*
G01X1468483Y1756127D01*
G01X1468119Y1758672D01*
G01X1467574Y1760309D01*
G01X1466846Y1761763D01*
G01X1466119Y1762672D01*
G01X1465210Y1763400D01*
G01X1464119Y1763945D01*
G01X1462846Y1764672D01*
G01X1461210Y1765763D01*
G01X1460483Y1766627D01*
G01X1460119Y1767763D01*
G01X1459937Y1769763D01*
G01X1460301Y1771036D01*
G01X1461028Y1772127D01*
G01X1462301Y1773218D01*
G01X1463755Y1774127D01*
G01X1465210Y1774672D01*
G01X1468119Y1775400D01*
G01X1473210Y1776127D01*
G01X1476119Y1776309D01*
G01X1478665Y1776490D01*
G01X1481574Y1776672D01*
G01X1484483Y1776490D01*
G01X1488846Y1776127D01*
G01X1491755Y1775763D01*
G01X1495755Y1775036D01*
G01X1499028Y1774309D01*
G01X1500665Y1773763D01*
G01X1502483Y1773036D01*
G01X1504119Y1772127D01*
G01X1505210Y1771036D01*
G01X1505755Y1769945D01*
G01X1506119Y1768309D01*
G01X1505755Y1766672D01*
G01X1505028Y1765581D01*
G01X1503755Y1764491D01*
G01X1501210Y1762672D01*
G01X1499937Y1761581D01*
G01X1499028Y1760309D01*
G01X1498119Y1758491D01*
G01X1497574Y1756127D01*
G01X1497210Y1753218D01*
G01X1497028Y1750309D01*
G01X1496846Y1748491D01*
G01X1496665Y1736127D01*
G01X1496846Y1723763D01*
G01X1497210Y1716127D01*
G01X1497574Y1712127D01*
G01X1497937Y1710490D01*
G01X1498846Y1708490D01*
G01X1500119Y1707218D01*
G01X1501028Y1706490D01*
G01X1502301Y1705581D01*
G01X1503755Y1704127D01*
G01X1504483Y1702672D01*
G01X1504665Y1700854D01*
G01X1504301Y1699218D01*
G01X1503574Y1698309D01*
G01X1502483Y1697399D01*
G01X1501210Y1696672D01*
G01X1499392Y1695945D01*
G01X1497210Y1695399D01*
G01X1495392Y1695036D01*
G37*
G36*
G01X1445210Y1695036D02*
G01X1443028Y1694672D01*
G01X1440846Y1694490D01*
G01X1439392Y1694309D01*
G01X1437573Y1694127D01*
G01X1435392Y1694309D01*
G01X1430301Y1694672D01*
G01X1428483Y1695036D01*
G01X1426483Y1695581D01*
G01X1425028Y1696127D01*
G01X1423755Y1696672D01*
G01X1422664Y1697399D01*
G01X1421755Y1698309D01*
G01X1421028Y1699218D01*
G01X1420301Y1700854D01*
G01X1420119Y1703218D01*
G01X1421028Y1705218D01*
G01X1422664Y1706490D01*
G01X1423937Y1707218D01*
G01X1424846Y1707945D01*
G01X1425937Y1708854D01*
G01X1426846Y1710127D01*
G01X1427573Y1711945D01*
G01X1427937Y1713763D01*
G01X1428119Y1715036D01*
G01X1428483Y1721945D01*
G01X1428664Y1723218D01*
G01X1428483Y1724491D01*
G01X1428119Y1728854D01*
G01X1427755Y1730127D01*
G01X1427210Y1731400D01*
G01X1426301Y1732309D01*
G01X1425210Y1732854D01*
G01X1424119Y1732854D01*
G01X1422664Y1732309D01*
G01X1420846Y1731218D01*
G01X1419392Y1730127D01*
G01X1418483Y1729218D01*
G01X1415937Y1727036D01*
G01X1415028Y1726127D01*
G01X1413210Y1724672D01*
G01X1411392Y1722854D01*
G01X1409574Y1721400D01*
G01X1407755Y1719581D01*
G01X1406301Y1718491D01*
G01X1404119Y1716309D01*
G01X1402664Y1715218D01*
G01X1400483Y1713036D01*
G01X1399028Y1711945D01*
G01X1397755Y1710672D01*
G01X1395210Y1708490D01*
G01X1393392Y1706672D01*
G01X1391574Y1705218D01*
G01X1390664Y1704309D01*
G01X1388846Y1702854D01*
G01X1387028Y1701036D01*
G01X1385210Y1699581D01*
G01X1383392Y1697763D01*
G01X1381937Y1696672D01*
G01X1380301Y1695399D01*
G01X1378665Y1694672D01*
G01X1377210Y1694309D01*
G01X1375755Y1694309D01*
G01X1374301Y1694854D01*
G01X1373210Y1695581D01*
G01X1372483Y1696490D01*
G01X1371937Y1697581D01*
G01X1371210Y1699218D01*
G01X1370665Y1701581D01*
G01X1370301Y1703399D01*
G01X1369937Y1706672D01*
G01X1369574Y1752127D01*
G01X1369210Y1756127D01*
G01X1368846Y1758672D01*
G01X1368301Y1760309D01*
G01X1367574Y1761763D01*
G01X1366483Y1762672D01*
G01X1364846Y1763581D01*
G01X1363392Y1764309D01*
G01X1362301Y1765036D01*
G01X1361210Y1766309D01*
G01X1360483Y1768127D01*
G01X1360301Y1770127D01*
G01X1360665Y1771763D01*
G01X1361392Y1772854D01*
G01X1362301Y1773763D01*
G01X1363392Y1774490D01*
G01X1365028Y1775218D01*
G01X1367392Y1775763D01*
G01X1369574Y1776127D01*
G01X1371937Y1776309D01*
G01X1373937Y1776490D01*
G01X1378483Y1776672D01*
G01X1383028Y1776490D01*
G01X1387028Y1776127D01*
G01X1388483Y1775763D01*
G01X1390301Y1775036D01*
G01X1391755Y1774127D01*
G01X1392664Y1773218D01*
G01X1393392Y1772127D01*
G01X1393937Y1770309D01*
G01X1393937Y1768127D01*
G01X1393028Y1766309D01*
G01X1391392Y1765036D01*
G01X1390119Y1764309D01*
G01X1389028Y1763581D01*
G01X1387937Y1762672D01*
G01X1387210Y1761763D01*
G01X1386483Y1760309D01*
G01X1385937Y1757945D01*
G01X1385574Y1755036D01*
G01X1385392Y1750127D01*
G01X1385574Y1746309D01*
G01X1386119Y1745036D01*
G01X1387210Y1743945D01*
G01X1388846Y1743581D01*
G01X1390301Y1743945D01*
G01X1391574Y1744672D01*
G01X1392664Y1745400D01*
G01X1393574Y1746127D01*
G01X1394483Y1747036D01*
G01X1396664Y1748854D01*
G01X1397574Y1749763D01*
G01X1399028Y1750854D01*
G01X1400301Y1752127D01*
G01X1402483Y1753945D01*
G01X1403392Y1754854D01*
G01X1404846Y1755945D01*
G01X1406119Y1757218D01*
G01X1408301Y1759036D01*
G01X1409210Y1759945D01*
G01X1410664Y1761036D01*
G01X1411937Y1762309D01*
G01X1414119Y1764127D01*
G01X1415028Y1765036D01*
G01X1416483Y1766127D01*
G01X1417755Y1767400D01*
G01X1419937Y1769218D01*
G01X1420846Y1770127D01*
G01X1422301Y1771218D01*
G01X1423573Y1772490D01*
G01X1425392Y1773945D01*
G01X1426483Y1774672D01*
G01X1427573Y1775218D01*
G01X1428846Y1775763D01*
G01X1430301Y1776127D01*
G01X1433210Y1776490D01*
G01X1437755Y1776672D01*
G01X1442301Y1776490D01*
G01X1447392Y1776127D01*
G01X1449028Y1775763D01*
G01X1450846Y1775218D01*
G01X1452301Y1774672D01*
G01X1453392Y1774127D01*
G01X1454301Y1773400D01*
G01X1455210Y1772490D01*
G01X1455937Y1771218D01*
G01X1456483Y1769400D01*
G01X1456301Y1767581D01*
G01X1455574Y1766127D01*
G01X1454664Y1765218D01*
G01X1453392Y1764491D01*
G01X1451755Y1763581D01*
G01X1450483Y1762854D01*
G01X1449574Y1762127D01*
G01X1448483Y1760854D01*
G01X1447573Y1759036D01*
G01X1447028Y1757218D01*
G01X1446301Y1753581D01*
G01X1445937Y1751036D01*
G01X1445755Y1748309D01*
G01X1445573Y1746672D01*
G01X1445392Y1733218D01*
G01X1445573Y1719763D01*
G01X1445937Y1715036D01*
G01X1446301Y1712490D01*
G01X1446846Y1710854D01*
G01X1447755Y1709400D01*
G01X1448664Y1708490D01*
G01X1449574Y1707763D01*
G01X1450846Y1707036D01*
G01X1452119Y1706127D01*
G01X1453210Y1704854D01*
G01X1453937Y1702672D01*
G01X1453937Y1700854D01*
G01X1453392Y1699581D01*
G01X1452483Y1698490D01*
G01X1451574Y1697581D01*
G01X1450664Y1696854D01*
G01X1449392Y1696309D01*
G01X1447573Y1695581D01*
G01X1445210Y1695036D01*
G37*
G36*
G01X1044664Y1694854D02*
G01X1043392Y1694672D01*
G01X1040664Y1694490D01*
G01X1038301Y1694309D01*
G01X1035755Y1694127D01*
G01X1032846Y1694309D01*
G01X1027755Y1694672D01*
G01X1025937Y1695036D01*
G01X1023937Y1695581D01*
G01X1022483Y1696127D01*
G01X1020846Y1697036D01*
G01X1019392Y1698672D01*
G01X1018664Y1700127D01*
G01X1018483Y1701581D01*
G01X1018846Y1703036D01*
G01X1020119Y1704309D01*
G01X1021937Y1705218D01*
G01X1023574Y1705763D01*
G01X1024846Y1706490D01*
G01X1025574Y1707763D01*
G01X1025574Y1709763D01*
G01X1025028Y1711400D01*
G01X1024301Y1712490D01*
G01X1023210Y1713400D01*
G01X1021210Y1713945D01*
G01X1018483Y1714127D01*
G01X1016483Y1714309D01*
G01X1013028Y1714490D01*
G01X1009574Y1714309D01*
G01X1001937Y1713945D01*
G01X999028Y1713581D01*
G01X997574Y1713036D01*
G01X995937Y1711763D01*
G01X995028Y1709400D01*
G01X995073Y1708081D01*
G01X995574Y1707036D01*
G01X997210Y1705945D01*
G01X998846Y1705399D01*
G01X1000119Y1704672D01*
G01X1001210Y1703399D01*
G01X1001755Y1700854D01*
G01X1001392Y1698854D01*
G01X1000664Y1697945D01*
G01X999392Y1696854D01*
G01X997574Y1695945D01*
G01X995392Y1695399D01*
G01X993210Y1695036D01*
G01X991392Y1694854D01*
G01X989937Y1694672D01*
G01X983028Y1694309D01*
G01X976664Y1694127D01*
G01X970301Y1694309D01*
G01X965573Y1694672D01*
G01X963028Y1695036D01*
G01X961392Y1695399D01*
G01X959573Y1695945D01*
G01X957937Y1696672D01*
G01X956664Y1697399D01*
G01X955755Y1698127D01*
G01X955028Y1699036D01*
G01X954482Y1700127D01*
G01X954119Y1702309D01*
G01X954482Y1704309D01*
G01X955210Y1705036D01*
G01X956482Y1705763D01*
G01X958664Y1706490D01*
G01X960846Y1707400D01*
G01X962119Y1708672D01*
G01X962846Y1709945D01*
G01X965755Y1715763D01*
G01X966846Y1718309D01*
G01X968301Y1721218D01*
G01X969392Y1723763D01*
G01X970846Y1726672D01*
G01X971937Y1729218D01*
G01X972301Y1729945D01*
G01X1001210Y1729945D01*
G01X1001255Y1729445D01*
G01X1001755Y1729036D01*
G01X1003392Y1728672D01*
G01X1003392Y1728672D01*
G01X1004846Y1728491D01*
G01X1010664Y1728309D01*
G01X1016119Y1728491D01*
G01X1017210Y1728672D01*
G01X1017937Y1728900D01*
G01X1018301Y1729582D01*
G01X1018301Y1731582D01*
G01X1017755Y1733218D01*
G01X1016664Y1736127D01*
G01X1016119Y1737400D01*
G01X1015574Y1738854D01*
G01X1014846Y1740672D01*
G01X1014119Y1742309D01*
G01X1013392Y1743581D01*
G01X1012301Y1744672D01*
G01X1010664Y1745036D01*
G01X1008846Y1744309D01*
G01X1007755Y1743036D01*
G01X1007028Y1741763D01*
G01X1006119Y1740309D01*
G01X1005392Y1739036D01*
G01X1004664Y1737581D01*
G01X1003210Y1735036D01*
G01X1002483Y1733581D01*
G01X1001937Y1732309D01*
G01X1001574Y1731036D01*
G01X1001210Y1729945D01*
G01X972301Y1729945D01*
G01X973392Y1732127D01*
G01X974483Y1734672D01*
G01X975937Y1737581D01*
G01X977392Y1740854D01*
G01X982483Y1751036D01*
G01X983937Y1753581D01*
G01X984665Y1755036D01*
G01X987574Y1760127D01*
G01X988483Y1761581D01*
G01X989574Y1763400D01*
G01X991755Y1766672D01*
G01X992665Y1767945D01*
G01X994846Y1770672D01*
G01X996665Y1772490D01*
G01X997574Y1773218D01*
G01X998483Y1773763D01*
G01X999755Y1774672D01*
G01X1001574Y1775581D01*
G01X1003210Y1776309D01*
G01X1005210Y1776854D01*
G01X1007755Y1777218D01*
G01X1010301Y1777218D01*
G01X1012664Y1776672D01*
G01X1014664Y1775945D01*
G01X1016483Y1774854D01*
G01X1018119Y1773400D01*
G01X1019210Y1772127D01*
G01X1019937Y1771218D01*
G01X1020483Y1770127D01*
G01X1020846Y1768854D01*
G01X1021210Y1767400D01*
G01X1021392Y1764491D01*
G01X1021574Y1761945D01*
G01X1021937Y1757218D01*
G01X1022664Y1753945D01*
G01X1023937Y1750127D01*
G01X1024664Y1748127D01*
G01X1025392Y1746309D01*
G01X1026846Y1743036D01*
G01X1027574Y1741218D01*
G01X1028301Y1739763D01*
G01X1029392Y1737218D01*
G01X1030119Y1735763D01*
G01X1030846Y1733945D01*
G01X1031574Y1732491D01*
G01X1033028Y1729218D01*
G01X1033755Y1727763D01*
G01X1035210Y1724491D01*
G01X1035937Y1723036D01*
G01X1037028Y1720491D01*
G01X1037755Y1719036D01*
G01X1039210Y1715763D01*
G01X1039937Y1714309D01*
G01X1040846Y1712854D01*
G01X1041755Y1711218D01*
G01X1042846Y1709581D01*
G01X1044119Y1708309D01*
G01X1045028Y1707581D01*
G01X1046119Y1706854D01*
G01X1047573Y1706127D01*
G01X1050846Y1704672D01*
G01X1052119Y1703399D01*
G01X1052846Y1701581D01*
G01X1053028Y1699763D01*
G01X1052483Y1698127D01*
G01X1051028Y1696672D01*
G01X1049210Y1695763D01*
G01X1046301Y1695036D01*
G01X1044664Y1694854D01*
G37*
G36*
G01X1090301Y1695036D02*
G01X1088119Y1694672D01*
G01X1085210Y1694490D01*
G01X1083028Y1694309D01*
G01X1080664Y1694127D01*
G01X1077937Y1694309D01*
G01X1070664Y1694672D01*
G01X1067755Y1695036D01*
G01X1065210Y1695399D01*
G01X1061573Y1696127D01*
G01X1060119Y1696672D01*
G01X1058483Y1697399D01*
G01X1056846Y1698490D01*
G01X1055573Y1700127D01*
G01X1055028Y1701945D01*
G01X1055028Y1703763D01*
G01X1055937Y1705581D01*
G01X1057392Y1706854D01*
G01X1059937Y1708309D01*
G01X1061028Y1709036D01*
G01X1061937Y1710127D01*
G01X1062664Y1711945D01*
G01X1063028Y1713581D01*
G01X1063392Y1716854D01*
G01X1063755Y1723763D01*
G01X1063937Y1737945D01*
G01X1063755Y1752127D01*
G01X1063392Y1756854D01*
G01X1063028Y1758672D01*
G01X1062483Y1760491D01*
G01X1061755Y1761763D01*
G01X1060846Y1762854D01*
G01X1059755Y1763581D01*
G01X1057210Y1765036D01*
G01X1056119Y1765763D01*
G01X1055392Y1766672D01*
G01X1055028Y1767763D01*
G01X1054846Y1769218D01*
G01X1055210Y1770854D01*
G01X1055937Y1772127D01*
G01X1057210Y1773218D01*
G01X1059028Y1774127D01*
G01X1060664Y1774854D01*
G01X1062119Y1775218D01*
G01X1063392Y1775400D01*
G01X1065573Y1775763D01*
G01X1068119Y1776127D01*
G01X1071210Y1776309D01*
G01X1076664Y1776672D01*
G01X1079392Y1776490D01*
G01X1083755Y1776127D01*
G01X1086664Y1775763D01*
G01X1090664Y1775036D01*
G01X1093937Y1774309D01*
G01X1095574Y1773763D01*
G01X1097574Y1773036D01*
G01X1099392Y1771945D01*
G01X1100665Y1770127D01*
G01X1101028Y1767945D01*
G01X1100846Y1766900D01*
G01X1100301Y1765945D01*
G01X1099028Y1764672D01*
G01X1096483Y1762854D01*
G01X1095210Y1761763D01*
G01X1094119Y1760491D01*
G01X1093392Y1759218D01*
G01X1092846Y1757218D01*
G01X1092483Y1755400D01*
G01X1092119Y1752491D01*
G01X1091755Y1746309D01*
G01X1091574Y1737036D01*
G01X1091755Y1727763D01*
G01X1092119Y1717218D01*
G01X1092483Y1712854D01*
G01X1092664Y1711581D01*
G01X1093028Y1710127D01*
G01X1093755Y1708672D01*
G01X1094664Y1707581D01*
G01X1096483Y1706127D01*
G01X1097937Y1705036D01*
G01X1099210Y1703399D01*
G01X1099755Y1701581D01*
G01X1099574Y1699945D01*
G01X1098846Y1698672D01*
G01X1097937Y1697763D01*
G01X1096846Y1697036D01*
G01X1095392Y1696309D01*
G01X1093574Y1695763D01*
G01X1092119Y1695399D01*
G01X1090301Y1695036D01*
G37*
G36*
G01X1157574Y1695036D02*
G01X1154664Y1694672D01*
G01X1151937Y1694490D01*
G01X1149574Y1694309D01*
G01X1144119Y1694127D01*
G01X1138301Y1694309D01*
G01X1133574Y1694672D01*
G01X1131028Y1695036D01*
G01X1129210Y1695399D01*
G01X1127210Y1695945D01*
G01X1125755Y1696490D01*
G01X1124483Y1697036D01*
G01X1123392Y1697763D01*
G01X1122483Y1698672D01*
G01X1121755Y1699581D01*
G01X1121028Y1701036D01*
G01X1120665Y1703036D01*
G01X1121210Y1704854D01*
G01X1122301Y1706127D01*
G01X1123392Y1706854D01*
G01X1126301Y1708309D01*
G01X1127755Y1709218D01*
G01X1129028Y1710309D01*
G01X1129755Y1711400D01*
G01X1130483Y1713218D01*
G01X1130846Y1715400D01*
G01X1131028Y1716854D01*
G01X1131210Y1736127D01*
G01X1131028Y1755400D01*
G01X1130664Y1757036D01*
G01X1129937Y1758491D01*
G01X1129028Y1759218D01*
G01X1127574Y1759763D01*
G01X1125755Y1759581D01*
G01X1124483Y1758854D01*
G01X1123392Y1757581D01*
G01X1122301Y1755763D01*
G01X1121392Y1754127D01*
G01X1120665Y1752854D01*
G01X1119937Y1751763D01*
G01X1118846Y1750309D01*
G01X1117574Y1749036D01*
G01X1116665Y1748309D01*
G01X1115392Y1747581D01*
G01X1113937Y1747036D01*
G01X1112483Y1746672D01*
G01X1110665Y1746491D01*
G01X1109210Y1746672D01*
G01X1107755Y1747218D01*
G01X1105937Y1748309D01*
G01X1104483Y1749945D01*
G01X1103574Y1751581D01*
G01X1103028Y1753581D01*
G01X1102846Y1757218D01*
G01X1103028Y1760127D01*
G01X1103574Y1761945D01*
G01X1104301Y1764309D01*
G01X1105028Y1766309D01*
G01X1105755Y1767763D01*
G01X1106665Y1769218D01*
G01X1107755Y1771036D01*
G01X1108665Y1772309D01*
G01X1109392Y1773218D01*
G01X1111210Y1775036D01*
G01X1112119Y1775763D01*
G01X1113210Y1776309D01*
G01X1115028Y1776854D01*
G01X1117392Y1777036D01*
G01X1119028Y1776854D01*
G01X1122301Y1776127D01*
G01X1124119Y1775763D01*
G01X1126664Y1775581D01*
G01X1128483Y1775400D01*
G01X1145210Y1775218D01*
G01X1161937Y1775400D01*
G01X1165937Y1775763D01*
G01X1169937Y1776490D01*
G01X1172119Y1776672D01*
G01X1174483Y1776309D01*
G01X1176119Y1775400D01*
G01X1177392Y1774490D01*
G01X1178301Y1773763D01*
G01X1180119Y1771581D01*
G01X1180846Y1770672D01*
G01X1181573Y1769400D01*
G01X1182664Y1767763D01*
G01X1184301Y1764491D01*
G01X1185028Y1762854D01*
G01X1185755Y1760672D01*
G01X1186301Y1758309D01*
G01X1186664Y1756491D01*
G01X1186846Y1754491D01*
G01X1186664Y1752491D01*
G01X1186119Y1751036D01*
G01X1185028Y1749218D01*
G01X1183392Y1747763D01*
G01X1181755Y1746854D01*
G01X1179392Y1746491D01*
G01X1177028Y1746854D01*
G01X1175573Y1747581D01*
G01X1173937Y1748672D01*
G01X1171755Y1750854D01*
G01X1170664Y1752127D01*
G01X1168846Y1754672D01*
G01X1167573Y1756491D01*
G01X1166483Y1757945D01*
G01X1165210Y1759036D01*
G01X1163210Y1759763D01*
G01X1162165Y1759718D01*
G01X1161210Y1759218D01*
G01X1160483Y1758400D01*
G01X1160119Y1757400D01*
G01X1159755Y1755763D01*
G01X1159392Y1752491D01*
G01X1159210Y1748127D01*
G01X1159392Y1743763D01*
G01X1159755Y1731400D01*
G01X1160119Y1723763D01*
G01X1160483Y1718672D01*
G01X1160846Y1715036D01*
G01X1161210Y1713036D01*
G01X1161755Y1711036D01*
G01X1162483Y1709763D01*
G01X1163392Y1708854D01*
G01X1164664Y1708309D01*
G01X1167937Y1707218D01*
G01X1169392Y1706490D01*
G01X1170664Y1705218D01*
G01X1171210Y1702854D01*
G01X1170664Y1700490D01*
G01X1169755Y1699218D01*
G01X1168846Y1698490D01*
G01X1167755Y1697763D01*
G01X1166119Y1697036D01*
G01X1164483Y1696490D01*
G01X1162664Y1695945D01*
G01X1159755Y1695399D01*
G01X1157574Y1695036D01*
G37*
G36*
G01X1212483Y1695218D02*
G01X1210664Y1694490D01*
G01X1208483Y1693945D01*
G01X1204846Y1693218D01*
G01X1201755Y1693036D01*
G01X1199028Y1693218D01*
G01X1194664Y1693581D01*
G01X1192846Y1693945D01*
G01X1190846Y1694490D01*
G01X1189392Y1695036D01*
G01X1188119Y1695581D01*
G01X1186664Y1696490D01*
G01X1185392Y1697581D01*
G01X1184664Y1698672D01*
G01X1183937Y1699945D01*
G01X1183392Y1701763D01*
G01X1183573Y1703581D01*
G01X1184301Y1704854D01*
G01X1185573Y1705763D01*
G01X1187573Y1706490D01*
G01X1189210Y1707218D01*
G01X1190301Y1707945D01*
G01X1191028Y1709036D01*
G01X1191392Y1710309D01*
G01X1191755Y1711763D01*
G01X1192483Y1716127D01*
G01X1192846Y1718127D01*
G01X1193210Y1719763D01*
G01X1194482Y1723581D01*
G01X1195210Y1725218D01*
G01X1195937Y1726672D01*
G01X1196846Y1727945D01*
G01X1199573Y1730672D01*
G01X1200483Y1731400D01*
G01X1204483Y1733400D01*
G01X1205755Y1733945D01*
G01X1206846Y1734491D01*
G01X1207573Y1735400D01*
G01X1207937Y1736854D01*
G01X1207710Y1737672D01*
G01X1207028Y1738309D01*
G01X1205210Y1739400D01*
G01X1203755Y1740309D01*
G01X1202846Y1741036D01*
G01X1201755Y1742309D01*
G01X1200483Y1743581D01*
G01X1199755Y1744491D01*
G01X1198483Y1747036D01*
G01X1197755Y1748672D01*
G01X1197210Y1750672D01*
G01X1196992Y1751763D01*
G01X1226119Y1751763D01*
G01X1226301Y1748127D01*
G01X1226846Y1746491D01*
G01X1227574Y1744854D01*
G01X1227574Y1744854D01*
G01X1228665Y1743581D01*
G01X1230301Y1742491D01*
G01X1231937Y1741763D01*
G01X1235210Y1741400D01*
G01X1237255Y1741581D01*
G01X1238301Y1742127D01*
G01X1238710Y1743945D01*
G01X1238846Y1747945D01*
G01X1238665Y1753581D01*
G01X1238301Y1760491D01*
G01X1237937Y1761763D01*
G01X1236846Y1763036D01*
G01X1235619Y1763445D01*
G01X1233755Y1763581D01*
G01X1230846Y1763218D01*
G01X1229574Y1762491D01*
G01X1228665Y1761581D01*
G01X1227937Y1760672D01*
G01X1227210Y1759400D01*
G01X1226665Y1757581D01*
G01X1226301Y1755763D01*
G01X1226119Y1751763D01*
G01X1196992Y1751763D01*
G01X1196846Y1752491D01*
G01X1196664Y1755945D01*
G01X1196846Y1759400D01*
G01X1197210Y1760854D01*
G01X1197755Y1762491D01*
G01X1198483Y1764127D01*
G01X1199573Y1765945D01*
G01X1200664Y1767400D01*
G01X1202483Y1769218D01*
G01X1203392Y1769945D01*
G01X1204301Y1770490D01*
G01X1205573Y1771400D01*
G01X1207210Y1772309D01*
G01X1208664Y1773036D01*
G01X1210301Y1773763D01*
G01X1212301Y1774490D01*
G01X1214483Y1775036D01*
G01X1216119Y1775400D01*
G01X1217937Y1775763D01*
G01X1220846Y1776127D01*
G01X1225937Y1776309D01*
G01X1229937Y1776127D01*
G01X1235028Y1775763D01*
G01X1240846Y1775400D01*
G01X1246483Y1775218D01*
G01X1252119Y1775400D01*
G01X1257574Y1775763D01*
G01X1261392Y1775945D01*
G01X1265210Y1775763D01*
G01X1267028Y1775400D01*
G01X1269028Y1774854D01*
G01X1270664Y1774127D01*
G01X1271937Y1773218D01*
G01X1272664Y1772309D01*
G01X1273392Y1771218D01*
G01X1273937Y1769763D01*
G01X1273937Y1768490D01*
G01X1273392Y1767218D01*
G01X1272483Y1766127D01*
G01X1271210Y1765218D01*
G01X1269574Y1764309D01*
G01X1268301Y1763400D01*
G01X1267392Y1762491D01*
G01X1266664Y1761400D01*
G01X1266301Y1760127D01*
G01X1265937Y1758672D01*
G01X1265755Y1757036D01*
G01X1265574Y1755763D01*
G01X1265392Y1737581D01*
G01X1265574Y1719400D01*
G01X1265937Y1715036D01*
G01X1266301Y1712490D01*
G01X1266846Y1710854D01*
G01X1267755Y1709400D01*
G01X1269574Y1707581D01*
G01X1272119Y1705763D01*
G01X1273210Y1704490D01*
G01X1273755Y1702127D01*
G01X1273210Y1699945D01*
G01X1272301Y1698672D01*
G01X1271392Y1697945D01*
G01X1268846Y1696672D01*
G01X1266846Y1695945D01*
G01X1264846Y1695399D01*
G01X1262664Y1695036D01*
G01X1260119Y1694672D01*
G01X1256664Y1694490D01*
G01X1253937Y1694309D01*
G01X1251028Y1694127D01*
G01X1248119Y1694309D01*
G01X1241937Y1694672D01*
G01X1239028Y1695036D01*
G01X1237392Y1695399D01*
G01X1235574Y1695945D01*
G01X1234119Y1696672D01*
G01X1232665Y1697763D01*
G01X1231574Y1699218D01*
G01X1231028Y1701218D01*
G01X1231210Y1703218D01*
G01X1231937Y1704490D01*
G01X1233210Y1705581D01*
G01X1234665Y1706490D01*
G01X1235755Y1707218D01*
G01X1236846Y1708490D01*
G01X1237574Y1710672D01*
G01X1237937Y1712854D01*
G01X1238119Y1715218D01*
G01X1238301Y1717218D01*
G01X1238483Y1721581D01*
G01X1238301Y1725945D01*
G01X1237937Y1727400D01*
G01X1237574Y1728172D01*
G01X1236846Y1728672D01*
G01X1234483Y1729036D01*
G01X1232301Y1728672D01*
G01X1230846Y1728127D01*
G01X1229755Y1727400D01*
G01X1228846Y1726491D01*
G01X1228119Y1725581D01*
G01X1227574Y1724491D01*
G01X1226846Y1722854D01*
G01X1225755Y1719581D01*
G01X1225210Y1717400D01*
G01X1224846Y1715763D01*
G01X1224301Y1713945D01*
G01X1223755Y1711763D01*
G01X1223210Y1710127D01*
G01X1222119Y1706490D01*
G01X1221392Y1704854D01*
G01X1220665Y1703036D01*
G01X1219937Y1701763D01*
G01X1219028Y1700490D01*
G01X1217937Y1699218D01*
G01X1216119Y1697399D01*
G01X1215210Y1696672D01*
G01X1213937Y1695945D01*
G01X1212483Y1695218D01*
G37*
G36*
G01X770664Y1695036D02*
G01X767755Y1694672D01*
G01X765028Y1694490D01*
G01X762664Y1694309D01*
G01X760119Y1694127D01*
G01X757210Y1694309D01*
G01X752119Y1694672D01*
G01X750301Y1695036D01*
G01X748301Y1695581D01*
G01X746846Y1696127D01*
G01X745210Y1697036D01*
G01X743755Y1698672D01*
G01X743028Y1700490D01*
G01X743028Y1702309D01*
G01X744119Y1703945D01*
G01X745937Y1705036D01*
G01X747937Y1705763D01*
G01X749574Y1706854D01*
G01X750119Y1708672D01*
G01X749755Y1710490D01*
G01X749028Y1712127D01*
G01X748119Y1713218D01*
G01X747028Y1713581D01*
G01X745574Y1713945D01*
G01X743028Y1714127D01*
G01X740846Y1714309D01*
G01X737392Y1714490D01*
G01X733937Y1714309D01*
G01X726301Y1713945D01*
G01X723392Y1713581D01*
G01X721937Y1713036D01*
G01X720483Y1711945D01*
G01X719573Y1710127D01*
G01X719392Y1708127D01*
G01X719755Y1707309D01*
G01X720483Y1706672D01*
G01X722301Y1705763D01*
G01X723937Y1705036D01*
G01X725028Y1704127D01*
G01X725755Y1703036D01*
G01X726119Y1700854D01*
G01X725937Y1699399D01*
G01X725392Y1698309D01*
G01X723755Y1696854D01*
G01X721937Y1695945D01*
G01X719755Y1695399D01*
G01X717573Y1695036D01*
G01X715755Y1694854D01*
G01X714301Y1694672D01*
G01X707392Y1694309D01*
G01X701028Y1694127D01*
G01X694664Y1694309D01*
G01X689937Y1694672D01*
G01X687392Y1695036D01*
G01X685755Y1695399D01*
G01X683937Y1695945D01*
G01X682301Y1696672D01*
G01X681028Y1697399D01*
G01X680119Y1698127D01*
G01X679392Y1699036D01*
G01X678846Y1700127D01*
G01X678483Y1702309D01*
G01X678846Y1704309D01*
G01X679573Y1705036D01*
G01X680846Y1705763D01*
G01X683028Y1706490D01*
G01X685028Y1707218D01*
G01X686301Y1708490D01*
G01X687210Y1709945D01*
G01X690119Y1715763D01*
G01X691573Y1719036D01*
G01X693028Y1721945D01*
G01X694119Y1724491D01*
G01X695573Y1727400D01*
G01X696586Y1729763D01*
G01X725755Y1729763D01*
G01X725983Y1729172D01*
G01X726664Y1728854D01*
G01X726664Y1728854D01*
G01X729210Y1728491D01*
G01X735574Y1728309D01*
G01X740483Y1728491D01*
G01X741574Y1728672D01*
G01X742301Y1728900D01*
G01X742665Y1729582D01*
G01X742665Y1731582D01*
G01X742119Y1733400D01*
G01X739210Y1740672D01*
G01X738483Y1742309D01*
G01X737392Y1744127D01*
G01X736528Y1744809D01*
G01X735392Y1745036D01*
G01X734210Y1744854D01*
G01X733210Y1744309D01*
G01X732119Y1743036D01*
G01X731392Y1741763D01*
G01X730483Y1740127D01*
G01X727573Y1735036D01*
G01X726846Y1733581D01*
G01X726301Y1732309D01*
G01X725937Y1731036D01*
G01X725755Y1729763D01*
G01X696586Y1729763D01*
G01X696664Y1729945D01*
G01X698119Y1732854D01*
G01X699210Y1735400D01*
G01X700664Y1738309D01*
G01X702119Y1741581D01*
G01X706482Y1750309D01*
G01X707937Y1752854D01*
G01X708664Y1754309D01*
G01X711392Y1759218D01*
G01X712301Y1760672D01*
G01X713028Y1761945D01*
G01X713937Y1763400D01*
G01X716119Y1766672D01*
G01X717028Y1767945D01*
G01X719210Y1770672D01*
G01X721028Y1772490D01*
G01X721937Y1773218D01*
G01X723392Y1774127D01*
G01X725210Y1775218D01*
G01X726664Y1775945D01*
G01X728119Y1776490D01*
G01X729574Y1776854D01*
G01X733392Y1777400D01*
G01X734664Y1777218D01*
G01X736301Y1776854D01*
G01X738119Y1776309D01*
G01X739755Y1775581D01*
G01X741028Y1774672D01*
G01X742119Y1773763D01*
G01X743392Y1772490D01*
G01X744301Y1771218D01*
G01X744846Y1770127D01*
G01X745210Y1768854D01*
G01X745574Y1767400D01*
G01X745755Y1764672D01*
G01X746301Y1757581D01*
G01X747028Y1753945D01*
G01X748301Y1750127D01*
G01X749028Y1748309D01*
G01X749574Y1746854D01*
G01X752301Y1740491D01*
G01X753755Y1737218D01*
G01X754483Y1735763D01*
G01X755210Y1733945D01*
G01X756664Y1731036D01*
G01X757392Y1729218D01*
G01X758119Y1727763D01*
G01X759574Y1724491D01*
G01X760301Y1723036D01*
G01X761028Y1721218D01*
G01X762483Y1718309D01*
G01X763210Y1716490D01*
G01X763937Y1715036D01*
G01X766119Y1711218D01*
G01X767210Y1709581D01*
G01X768483Y1708309D01*
G01X769392Y1707581D01*
G01X770483Y1706854D01*
G01X771937Y1706127D01*
G01X775210Y1704672D01*
G01X776301Y1703763D01*
G01X777028Y1702672D01*
G01X777392Y1700490D01*
G01X777028Y1698309D01*
G01X776301Y1697399D01*
G01X775392Y1696672D01*
G01X774119Y1695945D01*
G01X772301Y1695399D01*
G01X770664Y1695036D01*
G37*
G36*
G01X838301Y1695036D02*
G01X835392Y1694672D01*
G01X831937Y1694490D01*
G01X829573Y1694309D01*
G01X825210Y1694127D01*
G01X820482Y1694309D01*
G01X813210Y1694672D01*
G01X809573Y1695036D01*
G01X807028Y1695399D01*
G01X803392Y1696127D01*
G01X801937Y1696672D01*
G01X800664Y1697581D01*
G01X799755Y1698490D01*
G01X799028Y1699763D01*
G01X798664Y1701218D01*
G01X798664Y1702854D01*
G01X799573Y1704854D01*
G01X801392Y1706127D01*
G01X803937Y1706672D01*
G01X806301Y1707400D01*
G01X807755Y1708854D01*
G01X808664Y1711036D01*
G01X809028Y1713218D01*
G01X809210Y1714672D01*
G01X809392Y1722127D01*
G01X809255Y1727445D01*
G01X808846Y1729582D01*
G01X807210Y1730491D01*
G01X805028Y1730854D01*
G01X803392Y1730672D01*
G01X801937Y1730309D01*
G01X800301Y1729582D01*
G01X799028Y1728672D01*
G01X798301Y1727582D01*
G01X797755Y1726309D01*
G01X797392Y1725036D01*
G01X796846Y1721218D01*
G01X796301Y1719763D01*
G01X795801Y1718990D01*
G01X795028Y1718491D01*
G01X793573Y1717945D01*
G01X791937Y1717945D01*
G01X790119Y1718672D01*
G01X789028Y1719581D01*
G01X788119Y1720854D01*
G01X787210Y1722491D01*
G01X786483Y1724309D01*
G01X785937Y1726309D01*
G01X785573Y1728127D01*
G01X785210Y1730309D01*
G01X785028Y1732854D01*
G01X784846Y1734672D01*
G01X784664Y1736854D01*
G01X784846Y1739036D01*
G01X785210Y1744491D01*
G01X785573Y1746309D01*
G01X786119Y1748309D01*
G01X786664Y1749581D01*
G01X787210Y1750672D01*
G01X787937Y1751763D01*
G01X789210Y1752854D01*
G01X791028Y1753581D01*
G01X792664Y1753763D01*
G01X794301Y1753036D01*
G01X795755Y1751400D01*
G01X796664Y1749400D01*
G01X797392Y1747036D01*
G01X798483Y1744854D01*
G01X799346Y1744127D01*
G01X800483Y1743763D01*
G01X802664Y1743400D01*
G01X804846Y1743400D01*
G01X807210Y1743763D01*
G01X808664Y1744491D01*
G01X809210Y1745581D01*
G01X809573Y1747036D01*
G01X809573Y1749218D01*
G01X809392Y1752127D01*
G01X809210Y1754309D01*
G01X808846Y1757218D01*
G01X808483Y1759036D01*
G01X807755Y1761218D01*
G01X806483Y1762491D01*
G01X804846Y1763036D01*
G01X800119Y1763218D01*
G01X795755Y1763036D01*
G01X791755Y1762672D01*
G01X789210Y1762309D01*
G01X787573Y1761763D01*
G01X785937Y1761036D01*
G01X784846Y1760309D01*
G01X783392Y1759218D01*
G01X782301Y1757945D01*
G01X781573Y1757036D01*
G01X779755Y1755218D01*
G01X778846Y1754127D01*
G01X777574Y1752854D01*
G01X776119Y1751945D01*
G01X774119Y1751581D01*
G01X771755Y1752127D01*
G01X770301Y1753036D01*
G01X769392Y1754127D01*
G01X768664Y1755581D01*
G01X768119Y1757581D01*
G01X767937Y1760672D01*
G01X768119Y1763036D01*
G01X768846Y1766309D01*
G01X769392Y1767763D01*
G01X770846Y1770672D01*
G01X771574Y1771945D01*
G01X772483Y1773218D01*
G01X773574Y1774490D01*
G01X774483Y1775218D01*
G01X775755Y1775945D01*
G01X777937Y1776309D01*
G01X779755Y1776127D01*
G01X783028Y1775763D01*
G01X788846Y1775400D01*
G01X806301Y1775218D01*
G01X823755Y1775400D01*
G01X829937Y1775763D01*
G01X835755Y1776127D01*
G01X837937Y1776127D01*
G01X840664Y1775581D01*
G01X842301Y1774854D01*
G01X843392Y1774127D01*
G01X844483Y1772854D01*
G01X845210Y1771036D01*
G01X845392Y1769218D01*
G01X845028Y1767945D01*
G01X844301Y1767218D01*
G01X843028Y1766309D01*
G01X841210Y1765400D01*
G01X839392Y1764309D01*
G01X838119Y1762854D01*
G01X837392Y1761400D01*
G01X837028Y1759945D01*
G01X836846Y1758672D01*
G01X836482Y1754309D01*
G01X836301Y1741036D01*
G01X836482Y1727763D01*
G01X836846Y1718309D01*
G01X837210Y1713581D01*
G01X837573Y1711945D01*
G01X838119Y1710309D01*
G01X838846Y1709218D01*
G01X839755Y1708309D01*
G01X840846Y1707581D01*
G01X842483Y1706854D01*
G01X844483Y1705763D01*
G01X845573Y1704309D01*
G01X845937Y1703036D01*
G01X846301Y1701945D01*
G01X846301Y1700854D01*
G01X845937Y1699581D01*
G01X845028Y1697945D01*
G01X843392Y1696490D01*
G01X841210Y1695581D01*
G01X838301Y1695036D01*
G37*
G36*
G01X923573Y1695581D02*
G01X900846Y1695399D01*
G01X890664Y1694127D01*
G01X889574Y1693945D01*
G01X888119Y1693945D01*
G01X886301Y1694490D01*
G01X885210Y1695218D01*
G01X884119Y1696490D01*
G01X881937Y1699763D01*
G01X881028Y1701399D01*
G01X880301Y1702672D01*
G01X879210Y1705218D01*
G01X878664Y1706672D01*
G01X878301Y1708127D01*
G01X877755Y1709945D01*
G01X877392Y1714127D01*
G01X877755Y1717763D01*
G01X878301Y1719218D01*
G01X878846Y1720491D01*
G01X879574Y1721581D01*
G01X880846Y1722672D01*
G01X882846Y1723581D01*
G01X885028Y1723763D01*
G01X886483Y1723036D01*
G01X887210Y1722127D01*
G01X887755Y1721036D01*
G01X888119Y1719763D01*
G01X888664Y1718127D01*
G01X889392Y1716127D01*
G01X890483Y1714309D01*
G01X891574Y1712854D01*
G01X892483Y1711945D01*
G01X893392Y1711218D01*
G01X894664Y1710309D01*
G01X896664Y1709400D01*
G01X898301Y1708854D01*
G01X900119Y1708490D01*
G01X903028Y1708127D01*
G01X906301Y1708127D01*
G01X909028Y1708672D01*
G01X911028Y1709763D01*
G01X912483Y1711400D01*
G01X913210Y1713945D01*
G01X913573Y1716127D01*
G01X913755Y1737763D01*
G01X913573Y1759400D01*
G01X913210Y1760854D01*
G01X912664Y1762127D01*
G01X911573Y1763036D01*
G01X909937Y1763945D01*
G01X907028Y1765400D01*
G01X905755Y1766490D01*
G01X905210Y1767763D01*
G01X905028Y1769581D01*
G01X905574Y1771581D01*
G01X906483Y1772672D01*
G01X907755Y1773581D01*
G01X909573Y1774490D01*
G01X911573Y1775036D01*
G01X913210Y1775400D01*
G01X915392Y1775763D01*
G01X918664Y1776127D01*
G01X923028Y1776309D01*
G01X926301Y1776490D01*
G01X928664Y1776672D01*
G01X931028Y1776490D01*
G01X937573Y1776127D01*
G01X940482Y1775763D01*
G01X942301Y1775400D01*
G01X944301Y1774854D01*
G01X945937Y1774309D01*
G01X947392Y1773763D01*
G01X948846Y1773036D01*
G01X950119Y1772127D01*
G01X951028Y1771218D01*
G01X951755Y1769945D01*
G01X952119Y1768490D01*
G01X952119Y1767036D01*
G01X951392Y1765763D01*
G01X950482Y1764854D01*
G01X949392Y1764127D01*
G01X945028Y1762491D01*
G01X943755Y1761763D01*
G01X942846Y1760672D01*
G01X942301Y1759036D01*
G01X941937Y1757218D01*
G01X941755Y1751400D01*
G01X941573Y1745945D01*
G01X941210Y1732491D01*
G01X941028Y1723581D01*
G01X941210Y1714672D01*
G01X941573Y1709945D01*
G01X942119Y1708490D01*
G01X943028Y1707218D01*
G01X943937Y1706309D01*
G01X945028Y1705581D01*
G01X946301Y1705036D01*
G01X947573Y1704309D01*
G01X949210Y1703218D01*
G01X949983Y1702354D01*
G01X950482Y1701218D01*
G01X950482Y1698854D01*
G01X949573Y1697399D01*
G01X948664Y1696672D01*
G01X947028Y1695945D01*
G01X923573Y1695581D01*
G37*
G36*
G01X431801Y1549078D02*
G01X430528Y1548896D01*
G01X428528Y1548714D01*
G01X426891Y1548532D01*
G01X425073Y1548351D01*
G01X422891Y1548532D01*
G01X417801Y1548896D01*
G01X415982Y1549260D01*
G01X413982Y1549805D01*
G01X412528Y1550351D01*
G01X411255Y1550896D01*
G01X410164Y1551623D01*
G01X409255Y1552533D01*
G01X408528Y1553623D01*
G01X407800Y1555442D01*
G01X407800Y1557805D01*
G01X408891Y1559805D01*
G01X410346Y1560896D01*
G01X411437Y1561442D01*
G01X412528Y1562169D01*
G01X413800Y1563442D01*
G01X414710Y1564896D01*
G01X415255Y1566714D01*
G01X415619Y1568896D01*
G01X415801Y1571442D01*
G01X415982Y1573623D01*
G01X416164Y1577078D01*
G01X415982Y1580533D01*
G01X415619Y1583442D01*
G01X415073Y1585078D01*
G01X413982Y1586533D01*
G01X411982Y1586896D01*
G01X410164Y1586533D01*
G01X408710Y1585623D01*
G01X407437Y1584714D01*
G01X406528Y1583987D01*
G01X405619Y1583078D01*
G01X403073Y1580896D01*
G01X401255Y1579078D01*
G01X399437Y1577623D01*
G01X398528Y1576714D01*
G01X396709Y1575260D01*
G01X394891Y1573442D01*
G01X393073Y1571987D01*
G01X391255Y1570169D01*
G01X389800Y1569078D01*
G01X387618Y1566896D01*
G01X386164Y1565805D01*
G01X384891Y1564533D01*
G01X382346Y1562351D01*
G01X380528Y1560533D01*
G01X378709Y1559078D01*
G01X376891Y1557260D01*
G01X375073Y1555805D01*
G01X374164Y1554896D01*
G01X372346Y1553442D01*
G01X370528Y1551623D01*
G01X369073Y1550533D01*
G01X367255Y1549260D01*
G01X364891Y1548532D01*
G01X362709Y1548714D01*
G01X361255Y1549623D01*
G01X360164Y1550714D01*
G01X359437Y1551805D01*
G01X358891Y1553260D01*
G01X358346Y1554896D01*
G01X357982Y1556533D01*
G01X357800Y1557987D01*
G01X357437Y1561623D01*
G01X357073Y1607078D01*
G01X356709Y1610714D01*
G01X356346Y1612532D01*
G01X355800Y1614532D01*
G01X355073Y1615987D01*
G01X354164Y1616896D01*
G01X351619Y1618169D01*
G01X350346Y1619078D01*
G01X349437Y1619805D01*
G01X348709Y1620714D01*
G01X348164Y1621987D01*
G01X347800Y1623805D01*
G01X348164Y1625805D01*
G01X348891Y1627078D01*
G01X350164Y1628169D01*
G01X351619Y1629078D01*
G01X353255Y1629623D01*
G01X354891Y1629987D01*
G01X357073Y1630351D01*
G01X359800Y1630532D01*
G01X361437Y1630714D01*
G01X365982Y1630896D01*
G01X370528Y1630714D01*
G01X374528Y1630351D01*
G01X375982Y1629987D01*
G01X377618Y1629441D01*
G01X378891Y1628714D01*
G01X380164Y1627442D01*
G01X381255Y1625442D01*
G01X381618Y1623260D01*
G01X381255Y1621623D01*
G01X380528Y1620532D01*
G01X379255Y1619442D01*
G01X377800Y1618532D01*
G01X376528Y1617805D01*
G01X375437Y1616896D01*
G01X374709Y1615805D01*
G01X373982Y1614351D01*
G01X373437Y1612169D01*
G01X373255Y1609805D01*
G01X373073Y1608169D01*
G01X372891Y1604532D01*
G01X373073Y1600896D01*
G01X373437Y1599623D01*
G01X374164Y1598532D01*
G01X375255Y1597987D01*
G01X376709Y1597805D01*
G01X378346Y1598351D01*
G01X379618Y1599260D01*
G01X381073Y1600351D01*
G01X382346Y1601442D01*
G01X383255Y1602169D01*
G01X384164Y1603078D01*
G01X386709Y1605260D01*
G01X387618Y1606169D01*
G01X389073Y1607260D01*
G01X390346Y1608532D01*
G01X392528Y1610351D01*
G01X393437Y1611260D01*
G01X394891Y1612351D01*
G01X396164Y1613623D01*
G01X398346Y1615442D01*
G01X399255Y1616351D01*
G01X400709Y1617442D01*
G01X401982Y1618714D01*
G01X404164Y1620532D01*
G01X405073Y1621442D01*
G01X406528Y1622532D01*
G01X407800Y1623805D01*
G01X409982Y1625623D01*
G01X410891Y1626532D01*
G01X412346Y1627623D01*
G01X414164Y1628896D01*
G01X415982Y1629805D01*
G01X418164Y1630351D01*
G01X421073Y1630714D01*
G01X425982Y1630896D01*
G01X429801Y1630714D01*
G01X434891Y1630351D01*
G01X436528Y1629987D01*
G01X438346Y1629441D01*
G01X439800Y1628896D01*
G01X441437Y1627987D01*
G01X442710Y1626714D01*
G01X443437Y1625623D01*
G01X443982Y1623805D01*
G01X443800Y1621623D01*
G01X442710Y1619987D01*
G01X441073Y1618714D01*
G01X439437Y1617805D01*
G01X438164Y1617078D01*
G01X437073Y1616351D01*
G01X435982Y1615078D01*
G01X435073Y1613078D01*
G01X434346Y1610714D01*
G01X433982Y1608714D01*
G01X433801Y1607442D01*
G01X433437Y1604532D01*
G01X433073Y1600169D01*
G01X432891Y1587623D01*
G01X433073Y1575078D01*
G01X433437Y1569987D01*
G01X433801Y1566714D01*
G01X434346Y1565260D01*
G01X435437Y1563442D01*
G01X436891Y1562169D01*
G01X438346Y1561260D01*
G01X439619Y1560351D01*
G01X440710Y1559078D01*
G01X441437Y1556896D01*
G01X441255Y1554533D01*
G01X440164Y1552533D01*
G01X438710Y1551442D01*
G01X436164Y1550169D01*
G01X433801Y1549442D01*
G01X431801Y1549078D01*
G37*
G36*
G01X504709Y1549623D02*
G01X503255Y1549260D01*
G01X501437Y1548896D01*
G01X497073Y1548169D01*
G01X493255Y1547987D01*
G01X489800Y1548169D01*
G01X486164Y1548532D01*
G01X482164Y1549260D01*
G01X480346Y1549805D01*
G01X477982Y1550533D01*
G01X475982Y1551260D01*
G01X474164Y1551987D01*
G01X472709Y1552714D01*
G01X470164Y1554169D01*
G01X468710Y1555078D01*
G01X467437Y1555987D01*
G01X466528Y1556714D01*
G01X462891Y1560351D01*
G01X461982Y1561442D01*
G01X461255Y1562533D01*
G01X460528Y1563442D01*
G01X459800Y1564533D01*
G01X459073Y1565987D01*
G01X458346Y1567260D01*
G01X457619Y1568714D01*
G01X456164Y1573078D01*
G01X455437Y1574896D01*
G01X454346Y1575987D01*
G01X452346Y1576533D01*
G01X450528Y1577078D01*
G01X449255Y1577805D01*
G01X448164Y1578896D01*
G01X447437Y1580169D01*
G01X447073Y1582533D01*
G01X447437Y1584896D01*
G01X448164Y1586169D01*
G01X449255Y1587260D01*
G01X450528Y1587987D01*
G01X451982Y1588714D01*
G01X453982Y1589442D01*
G01X456346Y1589987D01*
G01X458164Y1590351D01*
G01X460346Y1590714D01*
G01X463619Y1591078D01*
G01X470528Y1591260D01*
G01X476346Y1591078D01*
G01X479255Y1590714D01*
G01X483255Y1589987D01*
G01X485073Y1589442D01*
G01X487437Y1588714D01*
G01X489255Y1587805D01*
G01X490528Y1586896D01*
G01X491437Y1585805D01*
G01X492164Y1584351D01*
G01X492528Y1582169D01*
G01X492164Y1579987D01*
G01X491437Y1578714D01*
G01X490346Y1577805D01*
G01X488891Y1577078D01*
G01X485800Y1576714D01*
G01X483800Y1576578D01*
G01X482528Y1576169D01*
G01X481255Y1574714D01*
G01X480709Y1572896D01*
G01X480528Y1571078D01*
G01X480891Y1569442D01*
G01X481619Y1567987D01*
G01X482891Y1566533D01*
G01X484346Y1565442D01*
G01X486164Y1564896D01*
G01X488528Y1564714D01*
G01X490164Y1564896D01*
G01X491437Y1565260D01*
G01X492891Y1565805D01*
G01X494528Y1566533D01*
G01X495800Y1567260D01*
G01X497073Y1568169D01*
G01X498346Y1569260D01*
G01X501073Y1571987D01*
G01X501800Y1572896D01*
G01X502528Y1574169D01*
G01X504346Y1577442D01*
G01X505073Y1578896D01*
G01X505618Y1580169D01*
G01X506164Y1581623D01*
G01X506709Y1583260D01*
G01X507255Y1585260D01*
G01X507982Y1588896D01*
G01X508346Y1591805D01*
G01X508528Y1597442D01*
G01X508346Y1601987D01*
G01X507982Y1603623D01*
G01X507437Y1605442D01*
G01X506891Y1606896D01*
G01X506346Y1608169D01*
G01X505618Y1609442D01*
G01X504528Y1611078D01*
G01X503437Y1612532D01*
G01X502346Y1613442D01*
G01X501255Y1614169D01*
G01X499982Y1615078D01*
G01X497982Y1615987D01*
G01X495982Y1616532D01*
G01X493800Y1616896D01*
G01X491073Y1617078D01*
G01X489073Y1616896D01*
G01X487619Y1616532D01*
G01X485982Y1615987D01*
G01X484346Y1615260D01*
G01X482709Y1614351D01*
G01X481437Y1613442D01*
G01X480528Y1612532D01*
G01X479619Y1611805D01*
G01X478528Y1610714D01*
G01X475255Y1606896D01*
G01X473437Y1604714D01*
G01X472528Y1603987D01*
G01X471255Y1603078D01*
G01X469437Y1602169D01*
G01X467255Y1601442D01*
G01X465255Y1601078D01*
G01X463982Y1601260D01*
G01X462346Y1601805D01*
G01X460891Y1602532D01*
G01X459982Y1603260D01*
G01X459073Y1604351D01*
G01X458164Y1605805D01*
G01X457437Y1607260D01*
G01X457073Y1608532D01*
G01X456710Y1610351D01*
G01X456528Y1613623D01*
G01X456710Y1616169D01*
G01X457437Y1619078D01*
G01X457982Y1620532D01*
G01X458710Y1621987D01*
G01X459437Y1623260D01*
G01X460346Y1624714D01*
G01X461255Y1625987D01*
G01X463073Y1627805D01*
G01X464346Y1628714D01*
G01X465982Y1629441D01*
G01X467800Y1629805D01*
G01X469619Y1629441D01*
G01X471255Y1628896D01*
G01X474164Y1628169D01*
G01X476164Y1628169D01*
G01X477800Y1628532D01*
G01X479437Y1629078D01*
G01X481437Y1629623D01*
G01X482891Y1629987D01*
G01X486891Y1630714D01*
G01X490164Y1631078D01*
G01X493437Y1631260D01*
G01X496709Y1631078D01*
G01X501073Y1630714D01*
G01X503255Y1630351D01*
G01X505618Y1629805D01*
G01X507437Y1629260D01*
G01X509073Y1628896D01*
G01X510528Y1628351D01*
G01X512346Y1627623D01*
G01X515619Y1626169D01*
G01X516891Y1625442D01*
G01X517982Y1624714D01*
G01X519255Y1623987D01*
G01X520346Y1623260D01*
G01X523255Y1621078D01*
G01X524164Y1620169D01*
G01X525982Y1618714D01*
G01X526891Y1617805D01*
G01X528346Y1615987D01*
G01X529255Y1614896D01*
G01X529982Y1613805D01*
G01X530891Y1612532D01*
G01X531982Y1610896D01*
G01X532891Y1609260D01*
G01X533619Y1607987D01*
G01X534164Y1606896D01*
G01X534710Y1605623D01*
G01X535437Y1603987D01*
G01X536528Y1600714D01*
G01X537073Y1598532D01*
G01X537437Y1596896D01*
G01X537801Y1594714D01*
G01X537982Y1589260D01*
G01X537801Y1584896D01*
G01X537073Y1580896D01*
G01X536710Y1579442D01*
G01X535619Y1576169D01*
G01X535073Y1574714D01*
G01X533619Y1571442D01*
G01X532164Y1568896D01*
G01X531255Y1567442D01*
G01X529982Y1565623D01*
G01X528891Y1564169D01*
G01X527982Y1563260D01*
G01X526891Y1561987D01*
G01X525619Y1560714D01*
G01X524528Y1559805D01*
G01X523619Y1558896D01*
G01X520709Y1556714D01*
G01X519437Y1555805D01*
G01X517800Y1554896D01*
G01X515255Y1553442D01*
G01X513800Y1552714D01*
G01X511255Y1551623D01*
G01X509800Y1551078D01*
G01X508164Y1550533D01*
G01X506346Y1549987D01*
G01X504709Y1549623D01*
G37*
G36*
G01X640346Y1548896D02*
G01X637800Y1548532D01*
G01X635437Y1548351D01*
G01X634164Y1548169D01*
G01X630709Y1547987D01*
G01X626891Y1548169D01*
G01X622528Y1548532D01*
G01X618164Y1549260D01*
G01X616346Y1549805D01*
G01X613982Y1550533D01*
G01X611982Y1551260D01*
G01X610164Y1551987D01*
G01X608709Y1552714D01*
G01X606164Y1554169D01*
G01X605073Y1554896D01*
G01X602164Y1557078D01*
G01X599437Y1559805D01*
G01X597982Y1561623D01*
G01X597073Y1562896D01*
G01X596164Y1564351D01*
G01X595437Y1565805D01*
G01X594710Y1567442D01*
G01X594164Y1569260D01*
G01X593800Y1570714D01*
G01X593437Y1572533D01*
G01X593255Y1574533D01*
G01X593073Y1575805D01*
G01X593073Y1577987D01*
G01X593437Y1580896D01*
G01X593800Y1582714D01*
G01X594346Y1584169D01*
G01X595073Y1585987D01*
G01X595982Y1587623D01*
G01X597073Y1589260D01*
G01X598164Y1590533D01*
G01X600891Y1593260D01*
G01X601982Y1594169D01*
G01X603619Y1595260D01*
G01X605437Y1596351D01*
G01X607073Y1597260D01*
G01X608891Y1598169D01*
G01X610709Y1598896D01*
G01X618891Y1601623D01*
G01X620346Y1601987D01*
G01X621982Y1602532D01*
G01X624346Y1603260D01*
G01X626346Y1603987D01*
G01X627982Y1604714D01*
G01X629255Y1605442D01*
G01X630164Y1606169D01*
G01X631255Y1607442D01*
G01X631982Y1608896D01*
G01X632346Y1610351D01*
G01X632346Y1612169D01*
G01X631437Y1613987D01*
G01X629800Y1615442D01*
G01X627982Y1616169D01*
G01X625982Y1616532D01*
G01X624346Y1616532D01*
G01X621437Y1616169D01*
G01X619800Y1615623D01*
G01X618164Y1614896D01*
G01X616891Y1614169D01*
G01X615437Y1613260D01*
G01X614164Y1612351D01*
G01X612709Y1611260D01*
G01X611437Y1609987D01*
G01X609255Y1608169D01*
G01X607437Y1606351D01*
G01X606528Y1605623D01*
G01X605619Y1605078D01*
G01X604346Y1604351D01*
G01X602891Y1603805D01*
G01X600891Y1603623D01*
G01X598891Y1603987D01*
G01X597619Y1604714D01*
G01X596346Y1605987D01*
G01X595437Y1607442D01*
G01X594710Y1609260D01*
G01X594346Y1611442D01*
G01X594528Y1612896D01*
G01X594891Y1614714D01*
G01X595437Y1616714D01*
G01X596891Y1619987D01*
G01X598709Y1622896D01*
G01X599437Y1623987D01*
G01X600164Y1624896D01*
G01X601982Y1626714D01*
G01X603255Y1627805D01*
G01X605073Y1628714D01*
G01X607437Y1629078D01*
G01X609619Y1628714D01*
G01X611619Y1628169D01*
G01X613619Y1627987D01*
G01X614891Y1628169D01*
G01X616528Y1628714D01*
G01X618709Y1629260D01*
G01X620346Y1629623D01*
G01X621800Y1629987D01*
G01X623619Y1630351D01*
G01X625800Y1630714D01*
G01X628709Y1631078D01*
G01X631982Y1631260D01*
G01X634164Y1631078D01*
G01X637437Y1630714D01*
G01X639255Y1630351D01*
G01X641255Y1629805D01*
G01X644528Y1628714D01*
G01X646346Y1627987D01*
G01X647800Y1627260D01*
G01X650346Y1625805D01*
G01X651437Y1625078D01*
G01X652528Y1624169D01*
G01X654346Y1622714D01*
G01X655437Y1621805D01*
G01X656710Y1620532D01*
G01X657801Y1619260D01*
G01X658710Y1618169D01*
G01X659619Y1616714D01*
G01X660528Y1615078D01*
G01X661255Y1613623D01*
G01X661801Y1612351D01*
G01X662164Y1611078D01*
G01X662710Y1609442D01*
G01X663073Y1607623D01*
G01X663255Y1606351D01*
G01X663437Y1603623D01*
G01X663255Y1600896D01*
G01X662891Y1599260D01*
G01X662346Y1597442D01*
G01X661801Y1595987D01*
G01X661255Y1594714D01*
G01X660528Y1593442D01*
G01X659619Y1591987D01*
G01X658710Y1590714D01*
G01X657619Y1589260D01*
G01X654528Y1586169D01*
G01X653073Y1585078D01*
G01X651255Y1583623D01*
G01X649437Y1582351D01*
G01X647800Y1581442D01*
G01X646528Y1580714D01*
G01X645073Y1579987D01*
G01X641800Y1578533D01*
G01X635800Y1576351D01*
G01X631437Y1574896D01*
G01X629437Y1574169D01*
G01X627982Y1573442D01*
G01X626891Y1572714D01*
G01X625982Y1571805D01*
G01X625255Y1570896D01*
G01X624528Y1569442D01*
G01X624346Y1567260D01*
G01X624891Y1565805D01*
G01X625619Y1565078D01*
G01X626891Y1564169D01*
G01X628891Y1563260D01*
G01X631618Y1562714D01*
G01X635255Y1562533D01*
G01X637800Y1562714D01*
G01X639437Y1563078D01*
G01X641255Y1563623D01*
G01X642891Y1564169D01*
G01X644528Y1564896D01*
G01X645982Y1565805D01*
G01X647619Y1566896D01*
G01X649073Y1567987D01*
G01X651255Y1570714D01*
G01X651800Y1571805D01*
G01X652528Y1572896D01*
G01X653437Y1574169D01*
G01X654528Y1575805D01*
G01X655437Y1577078D01*
G01X656164Y1577987D01*
G01X657073Y1578896D01*
G01X658164Y1579623D01*
G01X659801Y1580351D01*
G01X661801Y1580533D01*
G01X663073Y1579987D01*
G01X663801Y1579260D01*
G01X664528Y1578169D01*
G01X665255Y1576169D01*
G01X665619Y1573442D01*
G01X665437Y1571442D01*
G01X665073Y1568533D01*
G01X664710Y1566714D01*
G01X664164Y1564714D01*
G01X663073Y1561442D01*
G01X662346Y1559623D01*
G01X661619Y1558169D01*
G01X659801Y1555442D01*
G01X658346Y1554169D01*
G01X657073Y1553442D01*
G01X655437Y1552714D01*
G01X653619Y1551987D01*
G01X650346Y1550896D01*
G01X648891Y1550533D01*
G01X647619Y1550351D01*
G01X646164Y1549987D01*
G01X642528Y1549260D01*
G01X640346Y1548896D01*
G37*
G36*
G01X578164Y1549260D02*
G01X575982Y1548896D01*
G01X573255Y1548714D01*
G01X570891Y1548532D01*
G01X568528Y1548351D01*
G01X565800Y1548532D01*
G01X558528Y1548896D01*
G01X555619Y1549260D01*
G01X553073Y1549623D01*
G01X549437Y1550351D01*
G01X547801Y1550896D01*
G01X546164Y1551623D01*
G01X545073Y1552351D01*
G01X544164Y1553260D01*
G01X543437Y1554351D01*
G01X542891Y1555805D01*
G01X542710Y1557623D01*
G01X543073Y1558896D01*
G01X543801Y1559805D01*
G01X545073Y1560896D01*
G01X546528Y1561805D01*
G01X547801Y1562533D01*
G01X548891Y1563260D01*
G01X549801Y1564351D01*
G01X550528Y1566351D01*
G01X550891Y1568169D01*
G01X551255Y1571442D01*
G01X551619Y1579078D01*
G01X551801Y1592351D01*
G01X551619Y1605623D01*
G01X551255Y1610714D01*
G01X551073Y1611987D01*
G01X550710Y1613442D01*
G01X550164Y1614896D01*
G01X549255Y1616532D01*
G01X547982Y1617623D01*
G01X546891Y1618169D01*
G01X545619Y1618896D01*
G01X543982Y1619987D01*
G01X543255Y1620851D01*
G01X542891Y1621987D01*
G01X542710Y1623987D01*
G01X543073Y1625260D01*
G01X543801Y1626351D01*
G01X545073Y1627442D01*
G01X546891Y1628351D01*
G01X548528Y1629078D01*
G01X550891Y1629623D01*
G01X555982Y1630351D01*
G01X559255Y1630532D01*
G01X561437Y1630714D01*
G01X564346Y1630896D01*
G01X567255Y1630714D01*
G01X571619Y1630351D01*
G01X574528Y1629987D01*
G01X578528Y1629260D01*
G01X581800Y1628532D01*
G01X583437Y1627987D01*
G01X585437Y1627260D01*
G01X586710Y1626532D01*
G01X587619Y1625805D01*
G01X588346Y1624714D01*
G01X588710Y1623442D01*
G01X588891Y1621987D01*
G01X588164Y1620169D01*
G01X586891Y1618896D01*
G01X584346Y1617078D01*
G01X582891Y1615987D01*
G01X581800Y1614714D01*
G01X581255Y1613623D01*
G01X580710Y1611805D01*
G01X580346Y1609987D01*
G01X579982Y1607078D01*
G01X579619Y1601260D01*
G01X579437Y1590714D01*
G01X579619Y1580169D01*
G01X579982Y1571078D01*
G01X580346Y1566714D01*
G01X580710Y1564896D01*
G01X581255Y1563260D01*
G01X581982Y1562351D01*
G01X582891Y1561442D01*
G01X585800Y1559260D01*
G01X586891Y1557987D01*
G01X587619Y1556169D01*
G01X587619Y1554714D01*
G01X587073Y1553442D01*
G01X586164Y1552351D01*
G01X585255Y1551623D01*
G01X583982Y1550896D01*
G01X582528Y1550351D01*
G01X580891Y1549805D01*
G01X578164Y1549260D01*
G37*
G36*
G01X935982Y1549442D02*
G01X933073Y1548896D01*
G01X930528Y1548532D01*
G01X928710Y1548169D01*
G01X924891Y1547987D01*
G01X921437Y1548169D01*
G01X917437Y1548532D01*
G01X913437Y1549260D01*
G01X911801Y1549805D01*
G01X909801Y1550351D01*
G01X908346Y1550896D01*
G01X905801Y1551987D01*
G01X902891Y1553442D01*
G01X899982Y1555260D01*
G01X897073Y1557442D01*
G01X895255Y1559260D01*
G01X894164Y1560533D01*
G01X893255Y1561805D01*
G01X892528Y1562714D01*
G01X891619Y1563987D01*
G01X890710Y1565623D01*
G01X889255Y1568533D01*
G01X888528Y1570351D01*
G01X887800Y1572351D01*
G01X887255Y1574169D01*
G01X886528Y1575442D01*
G01X884891Y1576351D01*
G01X882709Y1576896D01*
G01X880709Y1577805D01*
G01X879255Y1579442D01*
G01X878528Y1581623D01*
G01X878528Y1583805D01*
G01X879073Y1585260D01*
G01X879800Y1586351D01*
G01X881073Y1587442D01*
G01X882528Y1588351D01*
G01X884164Y1589078D01*
G01X886346Y1589623D01*
G01X887982Y1589987D01*
G01X889800Y1590351D01*
G01X891982Y1590714D01*
G01X893800Y1590896D01*
G01X895255Y1591078D01*
G01X901437Y1591260D01*
G01X907619Y1591078D01*
G01X910891Y1590714D01*
G01X912891Y1590351D01*
G01X915073Y1589805D01*
G01X918710Y1588714D01*
G01X920346Y1587987D01*
G01X921619Y1587078D01*
G01X922528Y1586169D01*
G01X923437Y1584896D01*
G01X923982Y1583078D01*
G01X923982Y1581078D01*
G01X923073Y1579078D01*
G01X921437Y1577623D01*
G01X919619Y1576896D01*
G01X916891Y1576714D01*
G01X914164Y1576169D01*
G01X912710Y1574714D01*
G01X912300Y1573533D01*
G01X912164Y1571805D01*
G01X912528Y1569078D01*
G01X913255Y1567623D01*
G01X914164Y1566533D01*
G01X915255Y1565805D01*
G01X916891Y1565078D01*
G01X919619Y1564714D01*
G01X921801Y1564896D01*
G01X923437Y1565442D01*
G01X925437Y1566169D01*
G01X926710Y1566896D01*
G01X928891Y1568351D01*
G01X929801Y1569078D01*
G01X931619Y1570896D01*
G01X932346Y1571805D01*
G01X932891Y1572714D01*
G01X933801Y1573987D01*
G01X935619Y1576896D01*
G01X936528Y1578896D01*
G01X937255Y1580533D01*
G01X937801Y1581987D01*
G01X938164Y1583442D01*
G01X938710Y1585260D01*
G01X939255Y1587805D01*
G01X939619Y1589987D01*
G01X939801Y1591805D01*
G01X939982Y1593260D01*
G01X940164Y1596714D01*
G01X939982Y1600169D01*
G01X939619Y1603078D01*
G01X939255Y1604532D01*
G01X938710Y1606169D01*
G01X937982Y1607805D01*
G01X937255Y1609260D01*
G01X936346Y1610714D01*
G01X935255Y1611987D01*
G01X934346Y1612896D01*
G01X933073Y1613987D01*
G01X931619Y1614896D01*
G01X930164Y1615623D01*
G01X928710Y1616169D01*
G01X927255Y1616532D01*
G01X925437Y1616896D01*
G01X922891Y1617078D01*
G01X920710Y1616896D01*
G01X919073Y1616532D01*
G01X917437Y1615987D01*
G01X916164Y1615442D01*
G01X915073Y1614896D01*
G01X912891Y1613442D01*
G01X911982Y1612714D01*
G01X909255Y1609987D01*
G01X908164Y1608532D01*
G01X906710Y1606714D01*
G01X904528Y1604532D01*
G01X903255Y1603442D01*
G01X901801Y1602532D01*
G01X900164Y1601805D01*
G01X897619Y1601260D01*
G01X895619Y1601260D01*
G01X894346Y1601623D01*
G01X893073Y1602169D01*
G01X891982Y1602896D01*
G01X891073Y1603805D01*
G01X890346Y1604714D01*
G01X889619Y1605805D01*
G01X888891Y1607442D01*
G01X888346Y1609623D01*
G01X887982Y1611987D01*
G01X887982Y1613623D01*
G01X888346Y1616896D01*
G01X888891Y1618714D01*
G01X889619Y1620714D01*
G01X890346Y1622351D01*
G01X891073Y1623623D01*
G01X892891Y1626169D01*
G01X893619Y1627078D01*
G01X894710Y1627987D01*
G01X895801Y1628714D01*
G01X897255Y1629441D01*
G01X899255Y1629805D01*
G01X900710Y1629623D01*
G01X902346Y1629078D01*
G01X904710Y1628351D01*
G01X906710Y1627987D01*
G01X907982Y1628169D01*
G01X909619Y1628714D01*
G01X911619Y1629260D01*
G01X914528Y1629987D01*
G01X916346Y1630351D01*
G01X918528Y1630714D01*
G01X920528Y1630896D01*
G01X921801Y1631078D01*
G01X924891Y1631260D01*
G01X927982Y1631078D01*
G01X932346Y1630714D01*
G01X936710Y1629987D01*
G01X938346Y1629441D01*
G01X940346Y1628896D01*
G01X941982Y1628351D01*
G01X943619Y1627623D01*
G01X945437Y1626896D01*
G01X948346Y1625442D01*
G01X949982Y1624532D01*
G01X951619Y1623442D01*
G01X952891Y1622532D01*
G01X953800Y1621805D01*
G01X955255Y1620714D01*
G01X959255Y1616714D01*
G01X960164Y1615623D01*
G01X960891Y1614532D01*
G01X961619Y1613623D01*
G01X962528Y1612351D01*
G01X963619Y1610714D01*
G01X964528Y1609078D01*
G01X965255Y1607805D01*
G01X966710Y1604532D01*
G01X967255Y1603078D01*
G01X967800Y1601442D01*
G01X968346Y1599623D01*
G01X968710Y1597987D01*
G01X969073Y1595805D01*
G01X969437Y1592896D01*
G01X969619Y1589623D01*
G01X969437Y1587078D01*
G01X969073Y1583805D01*
G01X968710Y1581805D01*
G01X968164Y1579623D01*
G01X967073Y1575987D01*
G01X966346Y1574351D01*
G01X965619Y1572533D01*
G01X964891Y1571078D01*
G01X963437Y1568533D01*
G01X962528Y1567078D01*
G01X961619Y1565805D01*
G01X960891Y1564896D01*
G01X959800Y1563442D01*
G01X955800Y1559442D01*
G01X953073Y1557260D01*
G01X952164Y1556714D01*
G01X950891Y1555805D01*
G01X949073Y1554714D01*
G01X944346Y1552351D01*
G01X942710Y1551623D01*
G01X940891Y1550896D01*
G01X938528Y1550169D01*
G01X935982Y1549442D01*
G37*
G36*
G01X843982Y1551805D02*
G01X842528Y1550714D01*
G01X840710Y1549805D01*
G01X839255Y1549260D01*
G01X835982Y1549078D01*
G01X832710Y1549260D01*
G01X825073Y1549623D01*
G01X820528Y1549805D01*
G01X815982Y1549623D01*
G01X801801Y1549260D01*
G01X795619Y1549078D01*
G01X789437Y1549260D01*
G01X786164Y1549623D01*
G01X784346Y1549987D01*
G01X782346Y1550533D01*
G01X780528Y1551078D01*
G01X778891Y1551623D01*
G01X775982Y1552714D01*
G01X773073Y1554169D01*
G01X771619Y1555078D01*
G01X769982Y1556169D01*
G01X768710Y1557078D01*
G01X766891Y1558533D01*
G01X763255Y1562169D01*
G01X762528Y1563078D01*
G01X761982Y1563987D01*
G01X761255Y1564896D01*
G01X760528Y1565987D01*
G01X759619Y1567442D01*
G01X757982Y1570714D01*
G01X757437Y1571987D01*
G01X756891Y1573442D01*
G01X755800Y1576714D01*
G01X755255Y1578714D01*
G01X754528Y1582351D01*
G01X754164Y1584533D01*
G01X753982Y1586896D01*
G01X753966Y1587078D01*
G01X784164Y1587078D01*
G01X784346Y1579442D01*
G01X784710Y1576896D01*
G01X785437Y1573623D01*
G01X785982Y1571987D01*
G01X786710Y1570169D01*
G01X787437Y1568714D01*
G01X788346Y1567260D01*
G01X789255Y1565987D01*
G01X791073Y1564169D01*
G01X791982Y1563442D01*
G01X794528Y1562169D01*
G01X796346Y1561623D01*
G01X796346Y1561623D01*
G01X798164Y1561260D01*
G01X801255Y1561078D01*
G01X803619Y1561260D01*
G01X804710Y1561623D01*
G01X806164Y1562351D01*
G01X807073Y1563623D01*
G01X807619Y1565260D01*
G01X807801Y1566896D01*
G01X807982Y1568169D01*
G01X808164Y1591078D01*
G01X807982Y1613987D01*
G01X807801Y1615260D01*
G01X807437Y1616351D01*
G01X806528Y1617078D01*
G01X805073Y1617623D01*
G01X803255Y1617987D01*
G01X801437Y1617987D01*
G01X799619Y1617805D01*
G01X798164Y1617623D01*
G01X796346Y1617078D01*
G01X794528Y1616351D01*
G01X793073Y1615442D01*
G01X791801Y1614351D01*
G01X790891Y1613442D01*
G01X789801Y1612169D01*
G01X788710Y1610532D01*
G01X787801Y1608896D01*
G01X787073Y1607260D01*
G01X786528Y1605805D01*
G01X786164Y1604532D01*
G01X785619Y1602714D01*
G01X785073Y1599805D01*
G01X784710Y1597623D01*
G01X784346Y1594714D01*
G01X784164Y1587078D01*
G01X753966Y1587078D01*
G01X753800Y1588896D01*
G01X753619Y1591078D01*
G01X754164Y1597623D01*
G01X754528Y1600169D01*
G01X755255Y1603442D01*
G01X756528Y1607260D01*
G01X757255Y1609260D01*
G01X758709Y1612169D01*
G01X759619Y1613805D01*
G01X760709Y1615442D01*
G01X761982Y1617260D01*
G01X763073Y1618532D01*
G01X763800Y1619442D01*
G01X765619Y1621260D01*
G01X767800Y1623078D01*
G01X768710Y1623805D01*
G01X769982Y1624532D01*
G01X771619Y1625442D01*
G01X772891Y1626169D01*
G01X774346Y1626896D01*
G01X775982Y1627623D01*
G01X777437Y1628169D01*
G01X779073Y1628714D01*
G01X781073Y1629260D01*
G01X782891Y1629623D01*
G01X785073Y1629987D01*
G01X787619Y1630351D01*
G01X789801Y1630532D01*
G01X791619Y1630714D01*
G01X798528Y1630896D01*
G01X805437Y1630714D01*
G01X816346Y1630351D01*
G01X821437Y1630169D01*
G01X826528Y1630351D01*
G01X831255Y1630532D01*
G01X835982Y1630351D01*
G01X837800Y1629987D01*
G01X839619Y1629441D01*
G01X840891Y1628714D01*
G01X842346Y1627442D01*
G01X843255Y1625623D01*
G01X843437Y1623623D01*
G01X843255Y1622578D01*
G01X842710Y1621623D01*
G01X841073Y1620169D01*
G01X837800Y1618532D01*
G01X836891Y1617805D01*
G01X836164Y1616714D01*
G01X835619Y1615078D01*
G01X835437Y1612351D01*
G01X835255Y1609987D01*
G01X835255Y1608532D01*
G01X835437Y1596351D01*
G01X835619Y1584533D01*
G01X835982Y1574714D01*
G01X836346Y1568533D01*
G01X836710Y1565260D01*
G01X837255Y1563623D01*
G01X838528Y1561805D01*
G01X840528Y1560714D01*
G01X842528Y1559987D01*
G01X843800Y1559260D01*
G01X844710Y1558169D01*
G01X845437Y1556169D01*
G01X845437Y1554351D01*
G01X844891Y1553078D01*
G01X843982Y1551805D01*
G37*
G36*
G01X691619Y1549623D02*
G01X685801Y1549260D01*
G01X682891Y1548896D01*
G01X681619Y1548532D01*
G01X679982Y1548351D01*
G01X678346Y1548714D01*
G01X677073Y1549442D01*
G01X675982Y1550714D01*
G01X674164Y1553623D01*
G01X672528Y1556896D01*
G01X671801Y1558533D01*
G01X671073Y1560351D01*
G01X669982Y1563623D01*
G01X669437Y1565805D01*
G01X669073Y1567805D01*
G01X668891Y1570169D01*
G01X669255Y1572714D01*
G01X669801Y1573987D01*
G01X670710Y1575442D01*
G01X672346Y1576714D01*
G01X674164Y1577260D01*
G01X675619Y1577260D01*
G01X677073Y1576714D01*
G01X678346Y1575623D01*
G01X679073Y1574533D01*
G01X679801Y1573260D01*
G01X680528Y1571805D01*
G01X681437Y1570351D01*
G01X682528Y1568533D01*
G01X683437Y1567260D01*
G01X684164Y1566351D01*
G01X685437Y1565260D01*
G01X687073Y1564169D01*
G01X688710Y1563260D01*
G01X690710Y1562533D01*
G01X693073Y1561987D01*
G01X695255Y1561623D01*
G01X697800Y1561442D01*
G01X699982Y1561260D01*
G01X702528Y1561078D01*
G01X705073Y1561260D01*
G01X709073Y1561623D01*
G01X710528Y1562169D01*
G01X711982Y1563442D01*
G01X712710Y1565987D01*
G01X713073Y1568896D01*
G01X713255Y1571442D01*
G01X713437Y1573260D01*
G01X713619Y1577078D01*
G01X713437Y1580896D01*
G01X713073Y1582351D01*
G01X712164Y1583987D01*
G01X710164Y1584896D01*
G01X707982Y1585078D01*
G01X706528Y1584896D01*
G01X705073Y1584351D01*
G01X703800Y1583442D01*
G01X702891Y1582533D01*
G01X702164Y1581442D01*
G01X701800Y1580169D01*
G01X701437Y1578714D01*
G01X701073Y1576896D01*
G01X700528Y1575078D01*
G01X699437Y1573805D01*
G01X697982Y1573260D01*
G01X696710Y1573260D01*
G01X695437Y1573623D01*
G01X694346Y1574351D01*
G01X693437Y1575260D01*
G01X692710Y1576351D01*
G01X692164Y1577805D01*
G01X691437Y1579623D01*
G01X690891Y1581805D01*
G01X690528Y1583442D01*
G01X690164Y1585623D01*
G01X689982Y1588169D01*
G01X689801Y1589623D01*
G01X689619Y1591987D01*
G01X689801Y1594351D01*
G01X690164Y1598351D01*
G01X690528Y1600896D01*
G01X691073Y1602714D01*
G01X691800Y1604896D01*
G01X692891Y1606714D01*
G01X694346Y1607987D01*
G01X695982Y1608532D01*
G01X697619Y1608714D01*
G01X698710Y1608351D01*
G01X699619Y1607623D01*
G01X700528Y1606351D01*
G01X701255Y1604714D01*
G01X701619Y1603078D01*
G01X701800Y1601623D01*
G01X701982Y1600351D01*
G01X702346Y1598896D01*
G01X703073Y1597623D01*
G01X704346Y1596714D01*
G01X708528Y1596351D01*
G01X711210Y1596487D01*
G01X712710Y1596896D01*
G01X713482Y1597578D01*
G01X713982Y1598532D01*
G01X714346Y1606351D01*
G01X714164Y1613623D01*
G01X713800Y1615078D01*
G01X713073Y1616351D01*
G01X712164Y1617078D01*
G01X710891Y1617623D01*
G01X709437Y1617987D01*
G01X706528Y1618351D01*
G01X703437Y1618532D01*
G01X700346Y1618351D01*
G01X695982Y1617987D01*
G01X693437Y1617623D01*
G01X691800Y1617078D01*
G01X689982Y1616169D01*
G01X688710Y1615260D01*
G01X687801Y1614532D01*
G01X687073Y1613805D01*
G01X686346Y1612896D01*
G01X684528Y1610351D01*
G01X683801Y1609442D01*
G01X682710Y1608532D01*
G01X681073Y1607805D01*
G01X679255Y1607623D01*
G01X677619Y1607987D01*
G01X676346Y1608714D01*
G01X675255Y1609987D01*
G01X674346Y1611805D01*
G01X673801Y1614351D01*
G01X673619Y1617078D01*
G01X673801Y1618714D01*
G01X674164Y1620714D01*
G01X674710Y1622896D01*
G01X675255Y1624351D01*
G01X675801Y1625623D01*
G01X676528Y1626896D01*
G01X677437Y1628351D01*
G01X678346Y1629623D01*
G01X679437Y1630532D01*
G01X680710Y1631260D01*
G01X681982Y1631623D01*
G01X683073Y1631805D01*
G01X683982Y1631805D01*
G01X685801Y1631260D01*
G01X688528Y1630714D01*
G01X690528Y1630351D01*
G01X693073Y1629987D01*
G01X701437Y1629623D01*
G01X744346Y1629260D01*
G01X745619Y1628896D01*
G01X747255Y1627987D01*
G01X748346Y1626532D01*
G01X748891Y1625078D01*
G01X749255Y1623260D01*
G01X748891Y1621623D01*
G01X747619Y1620351D01*
G01X745800Y1619442D01*
G01X744164Y1618896D01*
G01X742891Y1618169D01*
G01X741982Y1616896D01*
G01X741255Y1615260D01*
G01X740709Y1613078D01*
G01X740346Y1611078D01*
G01X739982Y1608896D01*
G01X739619Y1605987D01*
G01X739437Y1603078D01*
G01X739255Y1600896D01*
G01X739073Y1588351D01*
G01X739255Y1575805D01*
G01X739619Y1571442D01*
G01X739982Y1568169D01*
G01X740709Y1564169D01*
G01X741255Y1562533D01*
G01X742346Y1560714D01*
G01X743982Y1559442D01*
G01X745800Y1558533D01*
G01X747437Y1557442D01*
G01X748346Y1555805D01*
G01X748528Y1553805D01*
G01X748346Y1552760D01*
G01X747800Y1551805D01*
G01X746164Y1550533D01*
G01X744709Y1549987D01*
G01X691619Y1549623D01*
G37*
G36*
G01X1057437Y1549260D02*
G01X1055619Y1548896D01*
G01X1053073Y1548714D01*
G01X1051619Y1548532D01*
G01X1049982Y1548351D01*
G01X1047982Y1548532D01*
G01X1042891Y1548896D01*
G01X1040891Y1549260D01*
G01X1038710Y1549805D01*
G01X1037073Y1550533D01*
G01X1035255Y1551623D01*
G01X1033982Y1552896D01*
G01X1033255Y1553987D01*
G01X1032710Y1555442D01*
G01X1032528Y1557078D01*
G01X1032892Y1558351D01*
G01X1033619Y1559442D01*
G01X1034892Y1560533D01*
G01X1036346Y1561442D01*
G01X1037437Y1562169D01*
G01X1038346Y1563078D01*
G01X1039073Y1563987D01*
G01X1039801Y1565260D01*
G01X1040346Y1567442D01*
G01X1040710Y1569987D01*
G01X1040891Y1576714D01*
G01X1040710Y1582714D01*
G01X1040346Y1584169D01*
G01X1039437Y1585987D01*
G01X1037982Y1587078D01*
G01X1036710Y1587078D01*
G01X1035255Y1586533D01*
G01X1033619Y1585623D01*
G01X1032346Y1584714D01*
G01X1031437Y1583805D01*
G01X1029255Y1581987D01*
G01X1027437Y1580169D01*
G01X1025619Y1578714D01*
G01X1024710Y1577805D01*
G01X1022891Y1576351D01*
G01X1021073Y1574533D01*
G01X1019255Y1573078D01*
G01X1017437Y1571260D01*
G01X1015982Y1570169D01*
G01X1013800Y1567987D01*
G01X1012346Y1566896D01*
G01X1011073Y1565623D01*
G01X1008528Y1563442D01*
G01X1006710Y1561623D01*
G01X1004891Y1560169D01*
G01X1003073Y1558351D01*
G01X1001255Y1556896D01*
G01X1000346Y1555987D01*
G01X998528Y1554533D01*
G01X996709Y1552714D01*
G01X995255Y1551623D01*
G01X993982Y1550533D01*
G01X993073Y1549805D01*
G01X991800Y1549078D01*
G01X989800Y1548532D01*
G01X987982Y1548532D01*
G01X986709Y1549078D01*
G01X985619Y1549987D01*
G01X984891Y1551078D01*
G01X984164Y1552533D01*
G01X983437Y1554533D01*
G01X982891Y1557260D01*
G01X982528Y1560169D01*
G01X982346Y1582714D01*
G01X982164Y1604532D01*
G01X981800Y1609987D01*
G01X981437Y1611987D01*
G01X980891Y1614169D01*
G01X980164Y1615623D01*
G01X978891Y1616896D01*
G01X977255Y1617805D01*
G01X975982Y1618532D01*
G01X974891Y1619260D01*
G01X973800Y1620532D01*
G01X973073Y1622351D01*
G01X972891Y1624351D01*
G01X973437Y1626351D01*
G01X974528Y1627623D01*
G01X975437Y1628351D01*
G01X976710Y1629078D01*
G01X978891Y1629805D01*
G01X980891Y1630169D01*
G01X982164Y1630351D01*
G01X986528Y1630714D01*
G01X990891Y1630896D01*
G01X995255Y1630714D01*
G01X999619Y1630351D01*
G01X1001073Y1629987D01*
G01X1002528Y1629441D01*
G01X1003800Y1628714D01*
G01X1004891Y1627805D01*
G01X1005619Y1626896D01*
G01X1006346Y1625260D01*
G01X1006528Y1622896D01*
G01X1005982Y1621260D01*
G01X1005255Y1620169D01*
G01X1003982Y1619260D01*
G01X1002709Y1618532D01*
G01X1001619Y1617805D01*
G01X1000528Y1616896D01*
G01X999800Y1615987D01*
G01X999073Y1614714D01*
G01X998528Y1612532D01*
G01X998164Y1610351D01*
G01X997982Y1605078D01*
G01X998164Y1600169D01*
G01X998891Y1598896D01*
G01X1000346Y1597987D01*
G01X1002164Y1597987D01*
G01X1003800Y1598714D01*
G01X1005073Y1599623D01*
G01X1006528Y1600714D01*
G01X1007800Y1601987D01*
G01X1009619Y1603442D01*
G01X1010528Y1604351D01*
G01X1011982Y1605442D01*
G01X1013255Y1606714D01*
G01X1015437Y1608532D01*
G01X1016346Y1609442D01*
G01X1017801Y1610532D01*
G01X1019073Y1611805D01*
G01X1021255Y1613623D01*
G01X1022164Y1614532D01*
G01X1023982Y1615987D01*
G01X1024891Y1616896D01*
G01X1027437Y1619078D01*
G01X1028346Y1619987D01*
G01X1029801Y1621078D01*
G01X1031073Y1622351D01*
G01X1033255Y1624169D01*
G01X1034164Y1625078D01*
G01X1035619Y1626169D01*
G01X1036892Y1627260D01*
G01X1037801Y1627987D01*
G01X1039073Y1628896D01*
G01X1040891Y1629805D01*
G01X1042891Y1630351D01*
G01X1044528Y1630532D01*
G01X1045801Y1630714D01*
G01X1050164Y1630896D01*
G01X1054528Y1630714D01*
G01X1059982Y1630351D01*
G01X1061619Y1629987D01*
G01X1063437Y1629441D01*
G01X1065073Y1628714D01*
G01X1066891Y1627623D01*
G01X1068164Y1625987D01*
G01X1068710Y1624532D01*
G01X1068891Y1622714D01*
G01X1068710Y1621532D01*
G01X1068164Y1620532D01*
G01X1066528Y1619078D01*
G01X1065073Y1618169D01*
G01X1063619Y1617442D01*
G01X1062346Y1616532D01*
G01X1061437Y1615623D01*
G01X1060528Y1614351D01*
G01X1059801Y1612351D01*
G01X1059255Y1609987D01*
G01X1058891Y1608169D01*
G01X1058528Y1605623D01*
G01X1058164Y1601987D01*
G01X1057801Y1594714D01*
G01X1057619Y1588169D01*
G01X1057801Y1581623D01*
G01X1058164Y1572896D01*
G01X1058528Y1568533D01*
G01X1058891Y1566714D01*
G01X1059437Y1564896D01*
G01X1060164Y1563805D01*
G01X1061073Y1562896D01*
G01X1061982Y1562169D01*
G01X1064710Y1560351D01*
G01X1065982Y1558714D01*
G01X1066346Y1556169D01*
G01X1065982Y1553987D01*
G01X1065255Y1552896D01*
G01X1064346Y1551987D01*
G01X1063255Y1551260D01*
G01X1061801Y1550533D01*
G01X1060164Y1549805D01*
G01X1058710Y1549442D01*
G01X1057437Y1549260D01*
G37*
G36*
G01X1094164Y1549623D02*
G01X1088346Y1549260D01*
G01X1085800Y1548896D01*
G01X1084528Y1548532D01*
G01X1082710Y1548351D01*
G01X1080891Y1548714D01*
G01X1079619Y1549442D01*
G01X1078891Y1550351D01*
G01X1078346Y1551260D01*
G01X1077437Y1552533D01*
G01X1076528Y1554351D01*
G01X1075800Y1555623D01*
G01X1075073Y1557078D01*
G01X1073619Y1560714D01*
G01X1072891Y1562896D01*
G01X1072164Y1565260D01*
G01X1071800Y1567260D01*
G01X1071619Y1568533D01*
G01X1071437Y1570169D01*
G01X1071619Y1571805D01*
G01X1071982Y1573078D01*
G01X1072528Y1574351D01*
G01X1073255Y1575442D01*
G01X1074346Y1576351D01*
G01X1075619Y1576896D01*
G01X1076891Y1577260D01*
G01X1078164Y1577260D01*
G01X1079255Y1576896D01*
G01X1080528Y1575987D01*
G01X1081800Y1574351D01*
G01X1082710Y1572896D01*
G01X1083437Y1571442D01*
G01X1084346Y1569805D01*
G01X1085437Y1568169D01*
G01X1086528Y1566896D01*
G01X1088346Y1565078D01*
G01X1089619Y1564169D01*
G01X1091437Y1563260D01*
G01X1093255Y1562533D01*
G01X1094710Y1562169D01*
G01X1095982Y1561987D01*
G01X1097800Y1561623D01*
G01X1100710Y1561442D01*
G01X1102891Y1561260D01*
G01X1105255Y1561078D01*
G01X1107619Y1561260D01*
G01X1111619Y1561623D01*
G01X1113073Y1562169D01*
G01X1114346Y1563078D01*
G01X1115073Y1564351D01*
G01X1115437Y1566169D01*
G01X1115619Y1567805D01*
G01X1115982Y1571805D01*
G01X1116164Y1576896D01*
G01X1115982Y1581987D01*
G01X1115437Y1583260D01*
G01X1114346Y1584351D01*
G01X1112709Y1584896D01*
G01X1110709Y1585078D01*
G01X1109073Y1584896D01*
G01X1107619Y1584351D01*
G01X1106346Y1583442D01*
G01X1105619Y1582533D01*
G01X1104891Y1581442D01*
G01X1104164Y1579442D01*
G01X1103800Y1577442D01*
G01X1103619Y1576169D01*
G01X1103073Y1574896D01*
G01X1101982Y1573805D01*
G01X1100528Y1573260D01*
G01X1099255Y1573260D01*
G01X1097800Y1573805D01*
G01X1096528Y1574714D01*
G01X1095619Y1575987D01*
G01X1094891Y1577442D01*
G01X1094346Y1578896D01*
G01X1093800Y1580714D01*
G01X1093437Y1582351D01*
G01X1093073Y1583805D01*
G01X1092710Y1586351D01*
G01X1092528Y1592533D01*
G01X1092710Y1597623D01*
G01X1093073Y1600169D01*
G01X1093437Y1601805D01*
G01X1093982Y1603623D01*
G01X1094528Y1605078D01*
G01X1095437Y1606714D01*
G01X1097073Y1607987D01*
G01X1098528Y1608532D01*
G01X1099982Y1608714D01*
G01X1101800Y1607987D01*
G01X1103255Y1606351D01*
G01X1103982Y1604169D01*
G01X1104346Y1602351D01*
G01X1104710Y1599805D01*
G01X1105073Y1598532D01*
G01X1105800Y1597442D01*
G01X1107073Y1596714D01*
G01X1111073Y1596351D01*
G01X1115073Y1596714D01*
G01X1116164Y1597442D01*
G01X1116709Y1599078D01*
G01X1116891Y1607078D01*
G01X1116709Y1614351D01*
G01X1116164Y1615623D01*
G01X1115255Y1616714D01*
G01X1114164Y1617442D01*
G01X1111982Y1617987D01*
G01X1109073Y1618351D01*
G01X1105619Y1618532D01*
G01X1102891Y1618351D01*
G01X1098528Y1617987D01*
G01X1096710Y1617623D01*
G01X1094710Y1617078D01*
G01X1093255Y1616532D01*
G01X1092164Y1615987D01*
G01X1091255Y1615260D01*
G01X1089437Y1613442D01*
G01X1088528Y1612351D01*
G01X1087437Y1610714D01*
G01X1086346Y1609260D01*
G01X1085073Y1608351D01*
G01X1083619Y1607805D01*
G01X1081982Y1607623D01*
G01X1079982Y1608169D01*
G01X1078528Y1609078D01*
G01X1077800Y1609987D01*
G01X1077255Y1611078D01*
G01X1076710Y1612896D01*
G01X1076346Y1615260D01*
G01X1076346Y1616896D01*
G01X1076710Y1620532D01*
G01X1077073Y1621987D01*
G01X1077619Y1623623D01*
G01X1078346Y1625442D01*
G01X1079073Y1626896D01*
G01X1079800Y1627987D01*
G01X1080710Y1629078D01*
G01X1081437Y1629805D01*
G01X1082528Y1630714D01*
G01X1084710Y1631623D01*
G01X1086528Y1631805D01*
G01X1089800Y1631078D01*
G01X1091255Y1630714D01*
G01X1093437Y1630351D01*
G01X1095982Y1629987D01*
G01X1100528Y1629805D01*
G01X1104346Y1629623D01*
G01X1147255Y1629260D01*
G01X1148710Y1628714D01*
G01X1149982Y1627805D01*
G01X1150710Y1626896D01*
G01X1151437Y1625623D01*
G01X1151801Y1623442D01*
G01X1151437Y1621623D01*
G01X1150710Y1620532D01*
G01X1149619Y1619805D01*
G01X1146710Y1618714D01*
G01X1145437Y1617987D01*
G01X1144528Y1616532D01*
G01X1143801Y1614896D01*
G01X1143255Y1612532D01*
G01X1142528Y1608169D01*
G01X1142346Y1605805D01*
G01X1142164Y1604532D01*
G01X1141801Y1598714D01*
G01X1141619Y1588351D01*
G01X1141801Y1577987D01*
G01X1142164Y1572533D01*
G01X1142528Y1569260D01*
G01X1142891Y1566714D01*
G01X1143619Y1563078D01*
G01X1144346Y1561623D01*
G01X1145437Y1560351D01*
G01X1146528Y1559623D01*
G01X1147982Y1558896D01*
G01X1149255Y1558169D01*
G01X1150164Y1557442D01*
G01X1150892Y1556169D01*
G01X1151255Y1554714D01*
G01X1151255Y1553260D01*
G01X1150710Y1551987D01*
G01X1149982Y1551260D01*
G01X1148892Y1550533D01*
G01X1147255Y1549987D01*
G01X1120528Y1549805D01*
G01X1094164Y1549623D01*
G37*
G36*
G01X1499982Y1570896D02*
G01X1494528Y1570714D01*
G01X1490528Y1570351D01*
G01X1489255Y1569987D01*
G01X1486891Y1569805D01*
G01X1485437Y1569987D01*
G01X1484346Y1570533D01*
G01X1483073Y1571987D01*
G01X1482346Y1573260D01*
G01X1480891Y1576169D01*
G01X1480346Y1577442D01*
G01X1479800Y1578896D01*
G01X1478710Y1582169D01*
G01X1478164Y1584351D01*
G01X1477800Y1586351D01*
G01X1477619Y1588351D01*
G01X1477755Y1589578D01*
G01X1478164Y1590351D01*
G01X1479028Y1590760D01*
G01X1480528Y1590896D01*
G01X1482891Y1590714D01*
G01X1487982Y1590533D01*
G01X1493073Y1590714D01*
G01X1497437Y1591078D01*
G01X1500710Y1591260D01*
G01X1503801Y1590896D01*
G01X1504710Y1590169D01*
G01X1505801Y1588896D01*
G01X1506892Y1587260D01*
G01X1507801Y1585623D01*
G01X1508528Y1583987D01*
G01X1509255Y1582169D01*
G01X1509982Y1579987D01*
G01X1510528Y1577987D01*
G01X1510892Y1576533D01*
G01X1511073Y1573623D01*
G01X1510892Y1571760D01*
G01X1510346Y1570896D01*
G01X1507801Y1570533D01*
G01X1505437Y1570714D01*
G01X1499982Y1570896D01*
G37*
G36*
G01X1182164Y1548896D02*
G01X1180528Y1548351D01*
G01X1177801Y1547805D01*
G01X1175619Y1547442D01*
G01X1172891Y1547260D01*
G01X1170164Y1547442D01*
G01X1165801Y1547805D01*
G01X1163982Y1548169D01*
G01X1161982Y1548714D01*
G01X1160528Y1549260D01*
G01X1159255Y1549805D01*
G01X1157801Y1550714D01*
G01X1156528Y1551805D01*
G01X1155801Y1552896D01*
G01X1155073Y1554169D01*
G01X1154528Y1555987D01*
G01X1154710Y1557805D01*
G01X1155437Y1559078D01*
G01X1156710Y1559987D01*
G01X1158710Y1560714D01*
G01X1160346Y1561442D01*
G01X1161437Y1562169D01*
G01X1162164Y1563442D01*
G01X1162892Y1566351D01*
G01X1163619Y1570714D01*
G01X1164164Y1572896D01*
G01X1164710Y1575260D01*
G01X1165255Y1576896D01*
G01X1165801Y1578351D01*
G01X1166346Y1579623D01*
G01X1167073Y1580896D01*
G01X1167982Y1582169D01*
G01X1168891Y1583260D01*
G01X1169801Y1584169D01*
G01X1171619Y1585623D01*
G01X1172891Y1586351D01*
G01X1174346Y1587078D01*
G01X1176891Y1588169D01*
G01X1177982Y1588896D01*
G01X1178710Y1589805D01*
G01X1179073Y1591078D01*
G01X1178846Y1591896D01*
G01X1178164Y1592533D01*
G01X1176346Y1593623D01*
G01X1174891Y1594532D01*
G01X1173982Y1595260D01*
G01X1173255Y1595987D01*
G01X1172528Y1596896D01*
G01X1171619Y1597805D01*
G01X1170891Y1598714D01*
G01X1169619Y1601260D01*
G01X1168891Y1602896D01*
G01X1168346Y1604896D01*
G01X1168128Y1605987D01*
G01X1197255Y1605987D01*
G01X1197437Y1602351D01*
G01X1197801Y1601078D01*
G01X1198528Y1599442D01*
G01X1199437Y1597987D01*
G01X1199437Y1597987D01*
G01X1200528Y1597078D01*
G01X1201800Y1596351D01*
G01X1203982Y1595805D01*
G01X1207255Y1595623D01*
G01X1208619Y1595805D01*
G01X1209437Y1596351D01*
G01X1209846Y1598078D01*
G01X1209982Y1601805D01*
G01X1209800Y1607078D01*
G01X1209437Y1614351D01*
G01X1209073Y1615805D01*
G01X1208710Y1616623D01*
G01X1207982Y1617260D01*
G01X1206755Y1617669D01*
G01X1204891Y1617805D01*
G01X1201982Y1617442D01*
G01X1200710Y1616714D01*
G01X1199800Y1615805D01*
G01X1199073Y1614896D01*
G01X1198346Y1613623D01*
G01X1197801Y1611805D01*
G01X1197437Y1609987D01*
G01X1197255Y1605987D01*
G01X1168128Y1605987D01*
G01X1167982Y1606714D01*
G01X1167801Y1610169D01*
G01X1167982Y1613623D01*
G01X1168346Y1615078D01*
G01X1168891Y1616714D01*
G01X1169619Y1618351D01*
G01X1170710Y1620169D01*
G01X1171801Y1621623D01*
G01X1173619Y1623442D01*
G01X1174528Y1624169D01*
G01X1175437Y1624714D01*
G01X1176710Y1625623D01*
G01X1178346Y1626532D01*
G01X1179801Y1627260D01*
G01X1181437Y1627987D01*
G01X1183437Y1628714D01*
G01X1185619Y1629260D01*
G01X1187255Y1629623D01*
G01X1189073Y1629987D01*
G01X1191982Y1630351D01*
G01X1197073Y1630532D01*
G01X1201073Y1630351D01*
G01X1206164Y1629987D01*
G01X1211982Y1629623D01*
G01X1217619Y1629441D01*
G01X1223255Y1629623D01*
G01X1228710Y1629987D01*
G01X1232528Y1630169D01*
G01X1236346Y1629987D01*
G01X1238164Y1629623D01*
G01X1240164Y1629078D01*
G01X1241800Y1628351D01*
G01X1243073Y1627442D01*
G01X1243800Y1626532D01*
G01X1244528Y1625260D01*
G01X1244891Y1623078D01*
G01X1244710Y1621896D01*
G01X1244164Y1620896D01*
G01X1242528Y1619623D01*
G01X1240891Y1618714D01*
G01X1239619Y1617805D01*
G01X1238709Y1616896D01*
G01X1237982Y1615805D01*
G01X1237255Y1613987D01*
G01X1236891Y1611805D01*
G01X1236709Y1610351D01*
G01X1236528Y1591805D01*
G01X1236709Y1573260D01*
G01X1237073Y1568896D01*
G01X1237437Y1567078D01*
G01X1237982Y1565078D01*
G01X1238709Y1563805D01*
G01X1240528Y1561987D01*
G01X1241619Y1561078D01*
G01X1242709Y1560351D01*
G01X1243619Y1559623D01*
G01X1244528Y1558351D01*
G01X1244891Y1556169D01*
G01X1244346Y1554169D01*
G01X1243437Y1552896D01*
G01X1242528Y1552169D01*
G01X1239982Y1550896D01*
G01X1237982Y1550169D01*
G01X1235982Y1549623D01*
G01X1233800Y1549260D01*
G01X1231255Y1548896D01*
G01X1227800Y1548714D01*
G01X1225073Y1548532D01*
G01X1222164Y1548351D01*
G01X1219255Y1548532D01*
G01X1212710Y1548896D01*
G01X1210164Y1549260D01*
G01X1208528Y1549623D01*
G01X1206710Y1550169D01*
G01X1205255Y1550896D01*
G01X1203800Y1551987D01*
G01X1202710Y1553442D01*
G01X1202164Y1555442D01*
G01X1202346Y1557442D01*
G01X1203073Y1558714D01*
G01X1204346Y1559805D01*
G01X1205982Y1560896D01*
G01X1207255Y1561805D01*
G01X1208164Y1563078D01*
G01X1208710Y1565260D01*
G01X1209073Y1567442D01*
G01X1209255Y1569987D01*
G01X1209437Y1572169D01*
G01X1209619Y1575987D01*
G01X1209437Y1579805D01*
G01X1209255Y1581078D01*
G01X1208710Y1582351D01*
G01X1206891Y1583078D01*
G01X1204891Y1583260D01*
G01X1203619Y1583078D01*
G01X1202164Y1582533D01*
G01X1200891Y1581623D01*
G01X1199982Y1580714D01*
G01X1199255Y1579805D01*
G01X1198710Y1578714D01*
G01X1197982Y1577078D01*
G01X1196891Y1573805D01*
G01X1196346Y1571623D01*
G01X1195982Y1569987D01*
G01X1195437Y1568169D01*
G01X1194710Y1565623D01*
G01X1193982Y1563260D01*
G01X1193255Y1561078D01*
G01X1192528Y1559078D01*
G01X1191619Y1557260D01*
G01X1190710Y1555623D01*
G01X1189619Y1553987D01*
G01X1187437Y1551805D01*
G01X1186346Y1550896D01*
G01X1185073Y1550169D01*
G01X1183619Y1549442D01*
G01X1182164Y1548896D01*
G37*
G36*
G01X1303437Y1549078D02*
G01X1299619Y1548532D01*
G01X1297801Y1548351D01*
G01X1296346Y1548169D01*
G01X1293982Y1547987D01*
G01X1291255Y1548169D01*
G01X1287255Y1548532D01*
G01X1283255Y1549260D01*
G01X1281437Y1549805D01*
G01X1279255Y1550351D01*
G01X1274892Y1551987D01*
G01X1271619Y1553442D01*
G01X1270164Y1554351D01*
G01X1268346Y1555442D01*
G01X1266710Y1556533D01*
G01X1265437Y1557442D01*
G01X1263619Y1558896D01*
G01X1259073Y1563442D01*
G01X1256891Y1566351D01*
G01X1255982Y1567623D01*
G01X1254891Y1569260D01*
G01X1252528Y1573987D01*
G01X1251800Y1575987D01*
G01X1251255Y1577623D01*
G01X1279073Y1577623D01*
G01X1279255Y1573987D01*
G01X1279619Y1572533D01*
G01X1280164Y1571078D01*
G01X1280892Y1569805D01*
G01X1281982Y1568169D01*
G01X1283437Y1566896D01*
G01X1284710Y1566169D01*
G01X1284710Y1566169D01*
G01X1286528Y1565623D01*
G01X1288346Y1565260D01*
G01X1289437Y1565260D01*
G01X1290892Y1565442D01*
G01X1292346Y1565805D01*
G01X1293437Y1566351D01*
G01X1294891Y1567260D01*
G01X1296346Y1568351D01*
G01X1297437Y1569623D01*
G01X1299255Y1572169D01*
G01X1300164Y1573805D01*
G01X1300891Y1575078D01*
G01X1301982Y1577623D01*
G01X1302710Y1579078D01*
G01X1304164Y1582714D01*
G01X1304891Y1584714D01*
G01X1305619Y1586896D01*
G01X1306164Y1588896D01*
G01X1307437Y1593987D01*
G01X1307801Y1596169D01*
G01X1307982Y1597623D01*
G01X1308346Y1601987D01*
G01X1308346Y1603805D01*
G01X1307982Y1606169D01*
G01X1307437Y1607987D01*
G01X1306528Y1609623D01*
G01X1305255Y1611442D01*
G01X1303801Y1612714D01*
G01X1302528Y1613442D01*
G01X1300710Y1613987D01*
G01X1298891Y1614351D01*
G01X1297073Y1614351D01*
G01X1295073Y1613805D01*
G01X1293437Y1613078D01*
G01X1292164Y1612169D01*
G01X1290346Y1610714D01*
G01X1289437Y1609805D01*
G01X1288710Y1608896D01*
G01X1288164Y1607987D01*
G01X1287255Y1606714D01*
G01X1286346Y1605078D01*
G01X1285619Y1603805D01*
G01X1284892Y1602351D01*
G01X1284164Y1600714D01*
G01X1282710Y1597078D01*
G01X1282164Y1595442D01*
G01X1281801Y1593987D01*
G01X1281255Y1592351D01*
G01X1280710Y1590169D01*
G01X1280346Y1588533D01*
G01X1279619Y1584533D01*
G01X1279255Y1581260D01*
G01X1279073Y1577623D01*
G01X1251255Y1577623D01*
G01X1251073Y1578169D01*
G01X1250528Y1580533D01*
G01X1250164Y1582351D01*
G01X1249800Y1584896D01*
G01X1249619Y1589442D01*
G01X1249800Y1593987D01*
G01X1250528Y1597623D01*
G01X1251073Y1599442D01*
G01X1251800Y1601805D01*
G01X1252528Y1603805D01*
G01X1253982Y1607078D01*
G01X1255801Y1610351D01*
G01X1256528Y1611623D01*
G01X1259255Y1615442D01*
G01X1260346Y1616714D01*
G01X1264528Y1620896D01*
G01X1265801Y1621987D01*
G01X1267073Y1622896D01*
G01X1267982Y1623623D01*
G01X1269073Y1624351D01*
G01X1270528Y1625260D01*
G01X1272346Y1626351D01*
G01X1273982Y1627078D01*
G01X1275255Y1627623D01*
G01X1276892Y1628351D01*
G01X1279073Y1629078D01*
G01X1281437Y1629805D01*
G01X1284164Y1630351D01*
G01X1286164Y1630714D01*
G01X1289437Y1631078D01*
G01X1293073Y1631260D01*
G01X1296710Y1631078D01*
G01X1300346Y1630714D01*
G01X1302891Y1630351D01*
G01X1304346Y1629987D01*
G01X1306346Y1629441D01*
G01X1308528Y1628714D01*
G01X1310346Y1628169D01*
G01X1311801Y1627623D01*
G01X1313437Y1626896D01*
G01X1316346Y1625442D01*
G01X1317982Y1624532D01*
G01X1319619Y1623442D01*
G01X1321437Y1622169D01*
G01X1323255Y1620714D01*
G01X1327255Y1616714D01*
G01X1329073Y1614532D01*
G01X1329800Y1613623D01*
G01X1330528Y1612351D01*
G01X1331619Y1610714D01*
G01X1333982Y1605987D01*
G01X1334710Y1603987D01*
G01X1335800Y1600714D01*
G01X1336346Y1598169D01*
G01X1336710Y1596169D01*
G01X1337073Y1593260D01*
G01X1337255Y1589260D01*
G01X1337073Y1585260D01*
G01X1336710Y1582351D01*
G01X1335982Y1578714D01*
G01X1335437Y1577078D01*
G01X1334710Y1575078D01*
G01X1333255Y1571442D01*
G01X1332346Y1569805D01*
G01X1330528Y1566896D01*
G01X1329437Y1565260D01*
G01X1328528Y1563987D01*
G01X1327800Y1563078D01*
G01X1323255Y1558533D01*
G01X1321437Y1557078D01*
G01X1320164Y1556169D01*
G01X1318528Y1555078D01*
G01X1316710Y1553987D01*
G01X1313437Y1552351D01*
G01X1312164Y1551805D01*
G01X1310710Y1551260D01*
G01X1308891Y1550533D01*
G01X1306710Y1549987D01*
G01X1304891Y1549442D01*
G01X1303437Y1549078D01*
G37*
G36*
G01X1389801Y1548896D02*
G01X1387255Y1548532D01*
G01X1384710Y1548351D01*
G01X1383619Y1548169D01*
G01X1380164Y1547987D01*
G01X1376346Y1548169D01*
G01X1371982Y1548532D01*
G01X1367619Y1549260D01*
G01X1365800Y1549805D01*
G01X1363437Y1550533D01*
G01X1361437Y1551260D01*
G01X1359619Y1551987D01*
G01X1358164Y1552714D01*
G01X1356710Y1553623D01*
G01X1354891Y1554714D01*
G01X1353073Y1555987D01*
G01X1351255Y1557442D01*
G01X1349073Y1559623D01*
G01X1348164Y1560714D01*
G01X1347437Y1561805D01*
G01X1346528Y1563078D01*
G01X1345619Y1564533D01*
G01X1344891Y1565987D01*
G01X1344164Y1567805D01*
G01X1343437Y1569987D01*
G01X1342891Y1572896D01*
G01X1342710Y1577442D01*
G01X1342891Y1580896D01*
G01X1343437Y1582714D01*
G01X1344164Y1584896D01*
G01X1344891Y1586533D01*
G01X1345619Y1587805D01*
G01X1346346Y1588896D01*
G01X1347437Y1590351D01*
G01X1349619Y1592533D01*
G01X1350891Y1593623D01*
G01X1353437Y1595442D01*
G01X1354891Y1596351D01*
G01X1359255Y1598532D01*
G01X1361255Y1599260D01*
G01X1367800Y1601442D01*
G01X1369800Y1601987D01*
G01X1371437Y1602532D01*
G01X1375073Y1603623D01*
G01X1376710Y1604351D01*
G01X1378164Y1605078D01*
G01X1379255Y1605805D01*
G01X1380164Y1606714D01*
G01X1380891Y1607623D01*
G01X1381619Y1609078D01*
G01X1381982Y1611260D01*
G01X1381437Y1613260D01*
G01X1380528Y1614714D01*
G01X1379437Y1615442D01*
G01X1378164Y1615987D01*
G01X1376528Y1616351D01*
G01X1374891Y1616532D01*
G01X1373800Y1616532D01*
G01X1370891Y1616169D01*
G01X1369437Y1615623D01*
G01X1367619Y1614896D01*
G01X1365982Y1613987D01*
G01X1364346Y1612896D01*
G01X1363073Y1611805D01*
G01X1361255Y1610351D01*
G01X1359437Y1608532D01*
G01X1357619Y1607078D01*
G01X1356710Y1606169D01*
G01X1355255Y1605078D01*
G01X1353255Y1603987D01*
G01X1350528Y1603623D01*
G01X1348346Y1603987D01*
G01X1347255Y1604714D01*
G01X1345437Y1606532D01*
G01X1344710Y1607805D01*
G01X1343982Y1610714D01*
G01X1343982Y1612169D01*
G01X1344164Y1613623D01*
G01X1344528Y1615260D01*
G01X1345073Y1616896D01*
G01X1345619Y1618351D01*
G01X1346346Y1619805D01*
G01X1347255Y1621442D01*
G01X1348346Y1623078D01*
G01X1349255Y1624351D01*
G01X1349982Y1625260D01*
G01X1351800Y1627078D01*
G01X1352710Y1627805D01*
G01X1353800Y1628351D01*
G01X1355255Y1628896D01*
G01X1357437Y1629078D01*
G01X1359255Y1628714D01*
G01X1361437Y1628169D01*
G01X1364164Y1628169D01*
G01X1365800Y1628532D01*
G01X1367437Y1629078D01*
G01X1369619Y1629623D01*
G01X1371255Y1629987D01*
G01X1373073Y1630351D01*
G01X1375255Y1630714D01*
G01X1376891Y1630896D01*
G01X1378164Y1631078D01*
G01X1381073Y1631260D01*
G01X1383982Y1631078D01*
G01X1386892Y1630714D01*
G01X1388710Y1630351D01*
G01X1390710Y1629805D01*
G01X1393982Y1628714D01*
G01X1395437Y1628169D01*
G01X1396710Y1627623D01*
G01X1399255Y1626169D01*
G01X1400710Y1625260D01*
G01X1401982Y1624351D01*
G01X1404710Y1622169D01*
G01X1406528Y1620351D01*
G01X1408710Y1617623D01*
G01X1409255Y1616532D01*
G01X1409982Y1615260D01*
G01X1410710Y1613805D01*
G01X1411437Y1611987D01*
G01X1412164Y1609805D01*
G01X1412528Y1607987D01*
G01X1412710Y1606714D01*
G01X1412892Y1603623D01*
G01X1412710Y1600532D01*
G01X1411982Y1597623D01*
G01X1411437Y1596169D01*
G01X1409982Y1593260D01*
G01X1409255Y1591987D01*
G01X1408528Y1591078D01*
G01X1407437Y1589623D01*
G01X1403437Y1585623D01*
G01X1402528Y1584896D01*
G01X1401619Y1584351D01*
G01X1400710Y1583623D01*
G01X1399437Y1582714D01*
G01X1397982Y1581805D01*
G01X1396710Y1581078D01*
G01X1393801Y1579623D01*
G01X1392164Y1578896D01*
G01X1390346Y1578169D01*
G01X1387437Y1577078D01*
G01X1380891Y1574896D01*
G01X1379437Y1574351D01*
G01X1378164Y1573805D01*
G01X1376710Y1572896D01*
G01X1375437Y1571805D01*
G01X1374710Y1570896D01*
G01X1374164Y1569623D01*
G01X1373800Y1568169D01*
G01X1373982Y1566896D01*
G01X1374710Y1565623D01*
G01X1375619Y1564714D01*
G01X1376710Y1563987D01*
G01X1378346Y1563260D01*
G01X1381073Y1562714D01*
G01X1384710Y1562533D01*
G01X1387255Y1562714D01*
G01X1389073Y1563078D01*
G01X1391073Y1563623D01*
G01X1392892Y1564351D01*
G01X1394528Y1565078D01*
G01X1395982Y1565987D01*
G01X1397801Y1567260D01*
G01X1399255Y1568896D01*
G01X1401073Y1571442D01*
G01X1403255Y1574714D01*
G01X1404164Y1575987D01*
G01X1404892Y1576896D01*
G01X1405982Y1578351D01*
G01X1407619Y1579623D01*
G01X1409255Y1580351D01*
G01X1411073Y1580533D01*
G01X1413073Y1579623D01*
G01X1414164Y1578169D01*
G01X1414528Y1576896D01*
G01X1414892Y1575442D01*
G01X1415073Y1572714D01*
G01X1414892Y1570351D01*
G01X1414528Y1567805D01*
G01X1413982Y1565987D01*
G01X1413437Y1563805D01*
G01X1412892Y1562169D01*
G01X1412164Y1560351D01*
G01X1411437Y1558714D01*
G01X1410710Y1557442D01*
G01X1409619Y1555805D01*
G01X1408346Y1554533D01*
G01X1407255Y1553805D01*
G01X1405801Y1553078D01*
G01X1404164Y1552351D01*
G01X1402164Y1551623D01*
G01X1399801Y1550896D01*
G01X1397437Y1550351D01*
G01X1395619Y1549987D01*
G01X1394164Y1549623D01*
G01X1389801Y1548896D01*
G37*
G36*
G01X1468346Y1578714D02*
G01X1472710Y1575987D01*
G01X1473437Y1574714D01*
G01X1473619Y1561623D01*
G01X1473482Y1552578D01*
G01X1473073Y1549805D01*
G01X1471619Y1550714D01*
G01X1469982Y1551623D01*
G01X1463619Y1555260D01*
G01X1462164Y1556169D01*
G01X1460528Y1557078D01*
G01X1443982Y1566533D01*
G01X1442528Y1567442D01*
G01X1440891Y1568351D01*
G01X1426891Y1576351D01*
G01X1425437Y1577260D01*
G01X1423801Y1578169D01*
G01X1422528Y1578896D01*
G01X1421801Y1579805D01*
G01X1421619Y1590714D01*
G01X1421619Y1601078D01*
G01X1424346Y1602714D01*
G01X1425982Y1603623D01*
G01X1437437Y1610169D01*
G01X1438891Y1611078D01*
G01X1440528Y1611987D01*
G01X1449437Y1617078D01*
G01X1450891Y1617987D01*
G01X1452528Y1618896D01*
G01X1461437Y1623987D01*
G01X1462891Y1624896D01*
G01X1464528Y1625805D01*
G01X1472164Y1630169D01*
G01X1473255Y1630714D01*
G01X1473528Y1629532D01*
G01X1473619Y1625623D01*
G01X1473437Y1619805D01*
G01X1473255Y1612169D01*
G01X1473255Y1605078D01*
G01X1472346Y1604714D01*
G01X1471073Y1603987D01*
G01X1469982Y1603260D01*
G01X1467073Y1601442D01*
G01X1465800Y1600714D01*
G01X1461437Y1597987D01*
G01X1459619Y1596896D01*
G01X1456710Y1595078D01*
G01X1454891Y1593987D01*
G01X1451982Y1592169D01*
G01X1450346Y1591078D01*
G01X1449801Y1590169D01*
G01X1450710Y1589442D01*
G01X1451982Y1588714D01*
G01X1456346Y1585987D01*
G01X1461800Y1582714D01*
G01X1464710Y1580896D01*
G01X1468346Y1578714D01*
G37*
G36*
G01X962119Y1401476D02*
G01X960846Y1400567D01*
G01X959392Y1399840D01*
G01X958483Y1399294D01*
G01X955573Y1399113D01*
G01X952301Y1399476D01*
G01X950846Y1400203D01*
G01X949755Y1401113D01*
G01X948846Y1402022D01*
G01X947937Y1403113D01*
G01X947028Y1404567D01*
G01X946119Y1406203D01*
G01X933028Y1432385D01*
G01X931573Y1435658D01*
G01X917028Y1464749D01*
G01X916301Y1466021D01*
G01X915392Y1467294D01*
G01X913937Y1468749D01*
G01X911937Y1469476D01*
G01X910301Y1469840D01*
G01X909028Y1470021D01*
G01X907573Y1470385D01*
G01X906119Y1471112D01*
G01X904846Y1472385D01*
G01X904301Y1475112D01*
G01X904483Y1476703D01*
G01X905028Y1477840D01*
G01X906664Y1479294D01*
G01X908664Y1480203D01*
G01X911028Y1480749D01*
G01X913210Y1481112D01*
G01X915573Y1481294D01*
G01X917573Y1481476D01*
G01X921573Y1481658D01*
G01X925573Y1481476D01*
G01X929937Y1481112D01*
G01X931755Y1480749D01*
G01X933755Y1480203D01*
G01X935210Y1479658D01*
G01X936483Y1479112D01*
G01X937573Y1478385D01*
G01X938664Y1477112D01*
G01X939392Y1475658D01*
G01X939573Y1474203D01*
G01X938846Y1472385D01*
G01X937392Y1471112D01*
G01X935755Y1470021D01*
G01X934483Y1468567D01*
G01X934119Y1466567D01*
G01X934483Y1464567D01*
G01X935210Y1462749D01*
G01X938846Y1454567D01*
G01X939573Y1453112D01*
G01X940301Y1451294D01*
G01X941755Y1448385D01*
G01X942664Y1446749D01*
G01X943755Y1445112D01*
G01X945210Y1443658D01*
G01X947028Y1442931D01*
G01X948664Y1442931D01*
G01X949937Y1444021D01*
G01X950846Y1445476D01*
G01X958119Y1461840D01*
G01X958664Y1463112D01*
G01X959210Y1464567D01*
G01X959573Y1466385D01*
G01X959392Y1467431D01*
G01X958846Y1468385D01*
G01X957392Y1469658D01*
G01X956301Y1470567D01*
G01X955392Y1471476D01*
G01X954664Y1472931D01*
G01X954482Y1474931D01*
G01X955210Y1476749D01*
G01X956846Y1478203D01*
G01X958664Y1479112D01*
G01X960664Y1479840D01*
G01X963028Y1480385D01*
G01X965210Y1480749D01*
G01X967755Y1481112D01*
G01X971028Y1481294D01*
G01X973210Y1481476D01*
G01X977574Y1481658D01*
G01X981937Y1481476D01*
G01X986665Y1481112D01*
G01X989210Y1480749D01*
G01X991028Y1480385D01*
G01X993028Y1479840D01*
G01X994665Y1479294D01*
G01X996119Y1478749D01*
G01X997574Y1477840D01*
G01X998846Y1476749D01*
G01X999755Y1475840D01*
G01X1000483Y1474749D01*
G01X1000846Y1473476D01*
G01X1001028Y1471658D01*
G01X1000846Y1470476D01*
G01X1000301Y1469476D01*
G01X998483Y1468203D01*
G01X996483Y1467658D01*
G01X995028Y1467112D01*
G01X993574Y1466203D01*
G01X992483Y1465112D01*
G01X991937Y1464203D01*
G01X991210Y1462931D01*
G01X989028Y1458567D01*
G01X987574Y1455294D01*
G01X986846Y1453840D01*
G01X986119Y1452021D01*
G01X985392Y1450567D01*
G01X983937Y1447294D01*
G01X983210Y1445840D01*
G01X982483Y1444021D01*
G01X981755Y1442567D01*
G01X980301Y1439294D01*
G01X979574Y1437840D01*
G01X978846Y1436022D01*
G01X978119Y1434567D01*
G01X976664Y1431294D01*
G01X975937Y1429840D01*
G01X975210Y1428022D01*
G01X974483Y1426567D01*
G01X973028Y1423294D01*
G01X972301Y1421840D01*
G01X971574Y1420022D01*
G01X970846Y1418567D01*
G01X969755Y1416022D01*
G01X969028Y1414567D01*
G01X968301Y1412749D01*
G01X967573Y1411294D01*
G01X966119Y1408022D01*
G01X963937Y1403658D01*
G01X963028Y1402385D01*
G01X962119Y1401476D01*
G37*
G36*
G01X1053210Y1400022D02*
G01X1048119Y1399294D01*
G01X1046119Y1399113D01*
G01X1044483Y1398931D01*
G01X1041028Y1398749D01*
G01X1037210Y1398931D01*
G01X1033210Y1399294D01*
G01X1030664Y1399658D01*
G01X1027392Y1400385D01*
G01X1025574Y1400931D01*
G01X1023574Y1401658D01*
G01X1022119Y1402203D01*
G01X1019574Y1403294D01*
G01X1018483Y1403840D01*
G01X1017210Y1404567D01*
G01X1015937Y1405476D01*
G01X1015028Y1406203D01*
G01X1013574Y1407113D01*
G01X1012301Y1408203D01*
G01X1011392Y1408931D01*
G01X1009210Y1411476D01*
G01X1008301Y1412567D01*
G01X1007574Y1413658D01*
G01X1006846Y1414931D01*
G01X1005392Y1417840D01*
G01X1004664Y1419840D01*
G01X1004119Y1422203D01*
G01X1003755Y1424385D01*
G01X1003574Y1427840D01*
G01X1003755Y1430931D01*
G01X1004119Y1432567D01*
G01X1004664Y1434385D01*
G01X1005210Y1435840D01*
G01X1005755Y1437112D01*
G01X1007574Y1440022D01*
G01X1009028Y1441840D01*
G01X1009937Y1442749D01*
G01X1012664Y1444931D01*
G01X1013937Y1445840D01*
G01X1016846Y1447658D01*
G01X1018664Y1448567D01*
G01X1020301Y1449294D01*
G01X1022119Y1450021D01*
G01X1026483Y1451476D01*
G01X1028483Y1452021D01*
G01X1030119Y1452567D01*
G01X1033755Y1453658D01*
G01X1035392Y1454203D01*
G01X1036846Y1454749D01*
G01X1038119Y1455294D01*
G01X1039210Y1455840D01*
G01X1040301Y1456749D01*
G01X1041392Y1457840D01*
G01X1042119Y1458749D01*
G01X1042664Y1460385D01*
G01X1042846Y1462567D01*
G01X1042483Y1464021D01*
G01X1041755Y1465112D01*
G01X1040664Y1466021D01*
G01X1039210Y1466749D01*
G01X1037573Y1467112D01*
G01X1036119Y1467294D01*
G01X1034664Y1467294D01*
G01X1033028Y1467112D01*
G01X1031574Y1466749D01*
G01X1030119Y1466203D01*
G01X1028483Y1465476D01*
G01X1026846Y1464567D01*
G01X1025392Y1463658D01*
G01X1024119Y1462749D01*
G01X1023210Y1461840D01*
G01X1021392Y1460385D01*
G01X1019574Y1458567D01*
G01X1017755Y1457112D01*
G01X1016483Y1456021D01*
G01X1015028Y1455112D01*
G01X1013210Y1454567D01*
G01X1011028Y1454385D01*
G01X1009392Y1454749D01*
G01X1008119Y1455476D01*
G01X1007210Y1456385D01*
G01X1006483Y1457294D01*
G01X1005755Y1458567D01*
G01X1005210Y1460385D01*
G01X1005028Y1462931D01*
G01X1005210Y1465112D01*
G01X1005755Y1466931D01*
G01X1006483Y1468749D01*
G01X1007028Y1470021D01*
G01X1007574Y1471112D01*
G01X1008301Y1472203D01*
G01X1009210Y1473658D01*
G01X1010119Y1474931D01*
G01X1011574Y1476749D01*
G01X1012664Y1477658D01*
G01X1014846Y1479112D01*
G01X1016664Y1479840D01*
G01X1018301Y1480021D01*
G01X1019755Y1479658D01*
G01X1021392Y1479112D01*
G01X1023574Y1478749D01*
G01X1025755Y1479112D01*
G01X1027574Y1479658D01*
G01X1029210Y1480021D01*
G01X1032846Y1480931D01*
G01X1034846Y1481294D01*
G01X1036119Y1481476D01*
G01X1039028Y1481840D01*
G01X1041937Y1482021D01*
G01X1044846Y1481840D01*
G01X1048119Y1481476D01*
G01X1051392Y1480749D01*
G01X1053028Y1480203D01*
G01X1055028Y1479476D01*
G01X1056846Y1478749D01*
G01X1058301Y1478021D01*
G01X1059573Y1477294D01*
G01X1061028Y1476385D01*
G01X1062664Y1475294D01*
G01X1063937Y1474385D01*
G01X1064846Y1473658D01*
G01X1067573Y1470931D01*
G01X1069028Y1469112D01*
G01X1069937Y1467840D01*
G01X1070846Y1466203D01*
G01X1071573Y1464749D01*
G01X1072301Y1463112D01*
G01X1073028Y1460931D01*
G01X1073573Y1458203D01*
G01X1073937Y1455658D01*
G01X1073937Y1454203D01*
G01X1073573Y1450567D01*
G01X1073028Y1448749D01*
G01X1072301Y1446749D01*
G01X1071573Y1445112D01*
G01X1070664Y1443476D01*
G01X1069755Y1442203D01*
G01X1068664Y1440749D01*
G01X1067573Y1439476D01*
G01X1066846Y1438567D01*
G01X1065937Y1437658D01*
G01X1064483Y1436567D01*
G01X1062664Y1435112D01*
G01X1061028Y1433840D01*
G01X1059573Y1432931D01*
G01X1058301Y1432203D01*
G01X1056846Y1431294D01*
G01X1055210Y1430567D01*
G01X1053937Y1430022D01*
G01X1052301Y1429294D01*
G01X1050483Y1428567D01*
G01X1042301Y1425840D01*
G01X1040846Y1425294D01*
G01X1039573Y1424749D01*
G01X1038119Y1424022D01*
G01X1036846Y1423112D01*
G01X1035755Y1421840D01*
G01X1035028Y1420022D01*
G01X1034846Y1418203D01*
G01X1035573Y1416385D01*
G01X1037210Y1415112D01*
G01X1038664Y1414385D01*
G01X1040483Y1413840D01*
G01X1042301Y1413476D01*
G01X1045392Y1413294D01*
G01X1048483Y1413476D01*
G01X1050119Y1413840D01*
G01X1051937Y1414385D01*
G01X1053392Y1414931D01*
G01X1054664Y1415476D01*
G01X1056119Y1416203D01*
G01X1057392Y1417112D01*
G01X1059210Y1418567D01*
G01X1060119Y1419476D01*
G01X1061028Y1420567D01*
G01X1061937Y1422022D01*
G01X1064119Y1425294D01*
G01X1065028Y1426567D01*
G01X1066119Y1428022D01*
G01X1068301Y1430203D01*
G01X1069573Y1430931D01*
G01X1071028Y1431294D01*
G01X1072301Y1431294D01*
G01X1073937Y1430385D01*
G01X1075210Y1428749D01*
G01X1075755Y1426931D01*
G01X1075937Y1423476D01*
G01X1075755Y1420385D01*
G01X1075392Y1418385D01*
G01X1074846Y1416203D01*
G01X1073755Y1412567D01*
G01X1072301Y1409294D01*
G01X1071573Y1408022D01*
G01X1070846Y1406931D01*
G01X1069028Y1405113D01*
G01X1067937Y1404385D01*
G01X1066664Y1403840D01*
G01X1065028Y1403113D01*
G01X1063210Y1402385D01*
G01X1061392Y1401840D01*
G01X1059755Y1401476D01*
G01X1057937Y1400931D01*
G01X1055210Y1400385D01*
G01X1053210Y1400022D01*
G37*
G36*
G01X1171028Y1402022D02*
G01X1169937Y1401294D01*
G01X1168301Y1400567D01*
G01X1166846Y1400022D01*
G01X1163755Y1399840D01*
G01X1160483Y1400022D01*
G01X1152846Y1400385D01*
G01X1148301Y1400567D01*
G01X1143755Y1400385D01*
G01X1129210Y1400022D01*
G01X1123028Y1399840D01*
G01X1116846Y1400022D01*
G01X1113937Y1400385D01*
G01X1110301Y1401113D01*
G01X1106483Y1402385D01*
G01X1104483Y1403113D01*
G01X1103028Y1403840D01*
G01X1101755Y1404385D01*
G01X1100665Y1404931D01*
G01X1099574Y1405658D01*
G01X1098119Y1406567D01*
G01X1096846Y1407476D01*
G01X1095392Y1408567D01*
G01X1094119Y1409658D01*
G01X1093210Y1410385D01*
G01X1089937Y1414203D01*
G01X1088119Y1416749D01*
G01X1087028Y1418567D01*
G01X1086119Y1420385D01*
G01X1085392Y1422022D01*
G01X1083937Y1425658D01*
G01X1083392Y1427476D01*
G01X1083028Y1429112D01*
G01X1082664Y1430567D01*
G01X1081937Y1434203D01*
G01X1081755Y1435840D01*
G01X1081573Y1437112D01*
G01X1081552Y1437658D01*
G01X1111574Y1437658D01*
G01X1111755Y1432385D01*
G01X1112119Y1428749D01*
G01X1112846Y1425112D01*
G01X1114119Y1421294D01*
G01X1115028Y1419476D01*
G01X1115937Y1418022D01*
G01X1116846Y1416931D01*
G01X1117574Y1416022D01*
G01X1118483Y1415112D01*
G01X1120665Y1413658D01*
G01X1122119Y1412931D01*
G01X1123937Y1412385D01*
G01X1123937Y1412385D01*
G01X1125574Y1412022D01*
G01X1128664Y1411840D01*
G01X1131392Y1412022D01*
G01X1132483Y1412385D01*
G01X1133755Y1413112D01*
G01X1134483Y1414022D01*
G01X1135028Y1415294D01*
G01X1135392Y1416749D01*
G01X1135574Y1441658D01*
G01X1135437Y1460158D01*
G01X1135028Y1466931D01*
G01X1133574Y1468203D01*
G01X1131937Y1468567D01*
G01X1130664Y1468749D01*
G01X1128846Y1468749D01*
G01X1126846Y1468567D01*
G01X1125574Y1468385D01*
G01X1123937Y1467840D01*
G01X1122301Y1467112D01*
G01X1121028Y1466385D01*
G01X1119392Y1465294D01*
G01X1117937Y1463658D01*
G01X1116119Y1461112D01*
G01X1115210Y1459294D01*
G01X1114483Y1457476D01*
G01X1113755Y1455476D01*
G01X1113210Y1453294D01*
G01X1112846Y1451658D01*
G01X1112119Y1447294D01*
G01X1111755Y1442931D01*
G01X1111574Y1437658D01*
G01X1081552Y1437658D01*
G01X1081392Y1441840D01*
G01X1081573Y1446567D01*
G01X1081937Y1449476D01*
G01X1082664Y1453476D01*
G01X1083210Y1455294D01*
G01X1083937Y1457658D01*
G01X1084664Y1459476D01*
G01X1085392Y1461112D01*
G01X1086119Y1462567D01*
G01X1087573Y1465112D01*
G01X1088301Y1466203D01*
G01X1090119Y1468749D01*
G01X1093755Y1472385D01*
G01X1095937Y1474203D01*
G01X1096846Y1474931D01*
G01X1098119Y1475658D01*
G01X1099755Y1476567D01*
G01X1102665Y1478021D01*
G01X1104483Y1478749D01*
G01X1106665Y1479476D01*
G01X1108846Y1480021D01*
G01X1110665Y1480385D01*
G01X1112846Y1480749D01*
G01X1115392Y1481112D01*
G01X1117574Y1481294D01*
G01X1119028Y1481476D01*
G01X1126119Y1481658D01*
G01X1133210Y1481476D01*
G01X1144119Y1481112D01*
G01X1149028Y1480931D01*
G01X1158846Y1481294D01*
G01X1163755Y1481112D01*
G01X1165392Y1480749D01*
G01X1167210Y1480203D01*
G01X1168846Y1479294D01*
G01X1170301Y1477840D01*
G01X1171028Y1476021D01*
G01X1171028Y1474021D01*
G01X1170119Y1472021D01*
G01X1168483Y1470749D01*
G01X1166846Y1470021D01*
G01X1165392Y1469294D01*
G01X1164301Y1468385D01*
G01X1163573Y1467112D01*
G01X1163210Y1465658D01*
G01X1163028Y1464385D01*
G01X1162846Y1454203D01*
G01X1163028Y1444021D01*
G01X1163392Y1430203D01*
G01X1163755Y1421840D01*
G01X1164119Y1417476D01*
G01X1164483Y1415658D01*
G01X1165028Y1413840D01*
G01X1165755Y1412749D01*
G01X1167028Y1411840D01*
G01X1168664Y1411294D01*
G01X1170301Y1410567D01*
G01X1171755Y1409658D01*
G01X1172664Y1408385D01*
G01X1173028Y1406022D01*
G01X1172664Y1404022D01*
G01X1171937Y1402931D01*
G01X1171028Y1402022D01*
G37*
G36*
G01X1219028Y1400022D02*
G01X1215392Y1399294D01*
G01X1213392Y1399113D01*
G01X1212119Y1398931D01*
G01X1209755Y1398749D01*
G01X1207028Y1398931D01*
G01X1203028Y1399294D01*
G01X1199392Y1400022D01*
G01X1197755Y1400567D01*
G01X1195755Y1401294D01*
G01X1193937Y1402022D01*
G01X1192301Y1402931D01*
G01X1190846Y1403840D01*
G01X1189210Y1404931D01*
G01X1187392Y1406385D01*
G01X1184301Y1409476D01*
G01X1183210Y1410931D01*
G01X1181937Y1412749D01*
G01X1180846Y1414385D01*
G01X1179937Y1416022D01*
G01X1179210Y1417476D01*
G01X1178483Y1419112D01*
G01X1178264Y1419658D01*
G01X1201028Y1419658D01*
G01X1201392Y1417476D01*
G01X1202119Y1416385D01*
G01X1203392Y1415476D01*
G01X1203392Y1415476D01*
G01X1204846Y1414931D01*
G01X1206664Y1414749D01*
G01X1208119Y1414931D01*
G01X1209028Y1415294D01*
G01X1210119Y1416022D01*
G01X1211028Y1416749D01*
G01X1212119Y1417840D01*
G01X1213210Y1419112D01*
G01X1213937Y1420022D01*
G01X1215210Y1422567D01*
G01X1215937Y1424203D01*
G01X1216483Y1426567D01*
G01X1216846Y1428931D01*
G01X1216846Y1430203D01*
G01X1216664Y1431476D01*
G01X1216301Y1432749D01*
G01X1215574Y1434022D01*
G01X1214301Y1435112D01*
G01X1212846Y1435658D01*
G01X1210846Y1435840D01*
G01X1208846Y1435476D01*
G01X1207573Y1434749D01*
G01X1206483Y1433840D01*
G01X1205573Y1432931D01*
G01X1204846Y1432022D01*
G01X1204119Y1430749D01*
G01X1203392Y1429294D01*
G01X1202846Y1428022D01*
G01X1202301Y1426567D01*
G01X1201755Y1424931D01*
G01X1201392Y1423294D01*
G01X1201210Y1421840D01*
G01X1201028Y1419658D01*
G01X1178264Y1419658D01*
G01X1177755Y1420931D01*
G01X1177210Y1422749D01*
G01X1176846Y1424385D01*
G01X1176483Y1426203D01*
G01X1176301Y1428203D01*
G01X1176119Y1429476D01*
G01X1175937Y1431112D01*
G01X1176119Y1432749D01*
G01X1176483Y1435294D01*
G01X1177028Y1437112D01*
G01X1177755Y1439294D01*
G01X1178483Y1440749D01*
G01X1179210Y1442022D01*
G01X1179937Y1443112D01*
G01X1180664Y1444021D01*
G01X1183392Y1446749D01*
G01X1184301Y1447476D01*
G01X1185573Y1448385D01*
G01X1187210Y1449476D01*
G01X1188664Y1450203D01*
G01X1189937Y1450749D01*
G01X1191755Y1451476D01*
G01X1194301Y1452021D01*
G01X1197210Y1452385D01*
G01X1200483Y1452385D01*
G01X1203392Y1451840D01*
G01X1205573Y1451294D01*
G01X1208846Y1450203D01*
G01X1210301Y1449840D01*
G01X1211574Y1449658D01*
G01X1212210Y1449840D01*
G01X1212664Y1450385D01*
G01X1213028Y1452203D01*
G01X1212664Y1454021D01*
G01X1212119Y1455476D01*
G01X1211574Y1456749D01*
G01X1210664Y1458203D01*
G01X1209574Y1460021D01*
G01X1208664Y1461294D01*
G01X1206483Y1464021D01*
G01X1205573Y1464931D01*
G01X1203392Y1467476D01*
G01X1202664Y1468385D01*
G01X1202301Y1469476D01*
G01X1202483Y1470749D01*
G01X1203573Y1471840D01*
G01X1204846Y1472567D01*
G01X1207755Y1474021D01*
G01X1209210Y1474567D01*
G01X1210846Y1475112D01*
G01X1212846Y1475658D01*
G01X1216483Y1476385D01*
G01X1218846Y1476385D01*
G01X1220483Y1475840D01*
G01X1221937Y1474931D01*
G01X1223210Y1473840D01*
G01X1225392Y1472021D01*
G01X1226483Y1470567D01*
G01X1227755Y1469294D01*
G01X1231392Y1464931D01*
G01X1232119Y1464021D01*
G01X1232665Y1463112D01*
G01X1233392Y1462203D01*
G01X1234301Y1460931D01*
G01X1236483Y1457658D01*
G01X1237392Y1456203D01*
G01X1238119Y1454931D01*
G01X1238846Y1453476D01*
G01X1239574Y1452203D01*
G01X1240119Y1451112D01*
G01X1240665Y1449840D01*
G01X1241392Y1448203D01*
G01X1242119Y1446385D01*
G01X1242665Y1444749D01*
G01X1243028Y1443294D01*
G01X1243574Y1441476D01*
G01X1243937Y1439476D01*
G01X1244119Y1438203D01*
G01X1244483Y1436022D01*
G01X1244665Y1431840D01*
G01X1244483Y1428749D01*
G01X1244119Y1426203D01*
G01X1243755Y1424567D01*
G01X1243210Y1422749D01*
G01X1242665Y1421112D01*
G01X1242119Y1419658D01*
G01X1240665Y1416385D01*
G01X1239755Y1414931D01*
G01X1238665Y1413112D01*
G01X1237392Y1411294D01*
G01X1235937Y1409476D01*
G01X1233755Y1407294D01*
G01X1231028Y1405113D01*
G01X1229755Y1404385D01*
G01X1228119Y1403476D01*
G01X1226846Y1402749D01*
G01X1225392Y1402022D01*
G01X1223574Y1401294D01*
G01X1221937Y1400749D01*
G01X1219028Y1400022D01*
G37*
G36*
G01X1477392Y1400567D02*
G01X1454664Y1400385D01*
G01X1444483Y1399113D01*
G01X1443392Y1398931D01*
G01X1441937Y1398931D01*
G01X1440119Y1399476D01*
G01X1439028Y1400203D01*
G01X1438119Y1401294D01*
G01X1437392Y1402385D01*
G01X1436483Y1403658D01*
G01X1434301Y1407294D01*
G01X1433573Y1408931D01*
G01X1433028Y1410203D01*
G01X1432483Y1411658D01*
G01X1432119Y1413112D01*
G01X1431573Y1414931D01*
G01X1431210Y1418931D01*
G01X1431392Y1422203D01*
G01X1431937Y1423840D01*
G01X1432664Y1425476D01*
G01X1433392Y1426567D01*
G01X1434664Y1427658D01*
G01X1436664Y1428567D01*
G01X1438846Y1428749D01*
G01X1440301Y1428022D01*
G01X1441028Y1427112D01*
G01X1441573Y1426022D01*
G01X1441937Y1424749D01*
G01X1442483Y1423112D01*
G01X1443210Y1421294D01*
G01X1443937Y1419840D01*
G01X1444664Y1418749D01*
G01X1445392Y1417840D01*
G01X1446301Y1416931D01*
G01X1447210Y1416203D01*
G01X1448483Y1415294D01*
G01X1450483Y1414385D01*
G01X1452119Y1413840D01*
G01X1453937Y1413476D01*
G01X1456846Y1413112D01*
G01X1460119Y1413112D01*
G01X1462846Y1413658D01*
G01X1464846Y1414749D01*
G01X1466301Y1416385D01*
G01X1467028Y1418931D01*
G01X1467392Y1421112D01*
G01X1467755Y1428022D01*
G01X1467937Y1441840D01*
G01X1467755Y1455658D01*
G01X1467392Y1464749D01*
G01X1466846Y1466203D01*
G01X1465937Y1467658D01*
G01X1464483Y1468567D01*
G01X1461574Y1470021D01*
G01X1460301Y1470749D01*
G01X1459392Y1471840D01*
G01X1458983Y1472794D01*
G01X1458846Y1474203D01*
G01X1458983Y1475612D01*
G01X1459392Y1476567D01*
G01X1460301Y1477658D01*
G01X1461574Y1478567D01*
G01X1463574Y1479476D01*
G01X1465937Y1480203D01*
G01X1467937Y1480567D01*
G01X1469210Y1480749D01*
G01X1472483Y1481112D01*
G01X1480119Y1481476D01*
G01X1482483Y1481658D01*
G01X1484846Y1481476D01*
G01X1491392Y1481112D01*
G01X1494301Y1480749D01*
G01X1497937Y1480021D01*
G01X1499574Y1479476D01*
G01X1501210Y1478749D01*
G01X1502301Y1478203D01*
G01X1503755Y1477294D01*
G01X1505210Y1475658D01*
G01X1505937Y1473476D01*
G01X1505755Y1471476D01*
G01X1504846Y1470385D01*
G01X1503937Y1469658D01*
G01X1502665Y1468931D01*
G01X1500665Y1468203D01*
G01X1498846Y1467476D01*
G01X1497574Y1466749D01*
G01X1496665Y1465658D01*
G01X1496119Y1464021D01*
G01X1495755Y1462203D01*
G01X1495574Y1456203D01*
G01X1495392Y1450567D01*
G01X1495028Y1437112D01*
G01X1494846Y1428385D01*
G01X1495028Y1419658D01*
G01X1495392Y1414931D01*
G01X1495937Y1413476D01*
G01X1496846Y1412203D01*
G01X1497755Y1411294D01*
G01X1498846Y1410567D01*
G01X1500119Y1410022D01*
G01X1501574Y1409294D01*
G01X1502846Y1408385D01*
G01X1503574Y1407658D01*
G01X1504301Y1406203D01*
G01X1504301Y1403840D01*
G01X1503392Y1402385D01*
G01X1502483Y1401658D01*
G01X1500846Y1400931D01*
G01X1477392Y1400567D01*
G37*
G36*
G01X1344483Y1400022D02*
G01X1342665Y1399658D01*
G01X1340301Y1399476D01*
G01X1339028Y1399294D01*
G01X1337028Y1399113D01*
G01X1334664Y1399294D01*
G01X1329574Y1399658D01*
G01X1325937Y1400385D01*
G01X1324483Y1400931D01*
G01X1322846Y1401840D01*
G01X1321573Y1402749D01*
G01X1320846Y1403840D01*
G01X1320483Y1405113D01*
G01X1320301Y1406385D01*
G01X1321028Y1408022D01*
G01X1322664Y1409294D01*
G01X1324119Y1410022D01*
G01X1325210Y1410749D01*
G01X1326119Y1411658D01*
G01X1326846Y1412931D01*
G01X1327210Y1414931D01*
G01X1327392Y1416749D01*
G01X1327573Y1423112D01*
G01X1327392Y1429476D01*
G01X1327028Y1435658D01*
G01X1326483Y1436749D01*
G01X1325937Y1437158D01*
G01X1325028Y1437294D01*
G01X1324119Y1437158D01*
G01X1323573Y1436749D01*
G01X1322664Y1435476D01*
G01X1321755Y1433658D01*
G01X1313755Y1415658D01*
G01X1308664Y1405476D01*
G01X1307937Y1404203D01*
G01X1307210Y1403294D01*
G01X1305937Y1402567D01*
G01X1304301Y1402385D01*
G01X1303210Y1402931D01*
G01X1302483Y1403840D01*
G01X1301573Y1405113D01*
G01X1299210Y1409840D01*
G01X1298483Y1411658D01*
G01X1297755Y1413112D01*
G01X1296664Y1415658D01*
G01X1292301Y1425476D01*
G01X1288664Y1432749D01*
G01X1287755Y1434022D01*
G01X1286846Y1434931D01*
G01X1285574Y1435658D01*
G01X1283937Y1435658D01*
G01X1283346Y1435249D01*
G01X1283028Y1434385D01*
G01X1282664Y1432749D01*
G01X1282483Y1425840D01*
G01X1282664Y1418931D01*
G01X1283028Y1415294D01*
G01X1283574Y1413658D01*
G01X1284483Y1412203D01*
G01X1286301Y1410385D01*
G01X1287755Y1409294D01*
G01X1288846Y1407840D01*
G01X1289210Y1406567D01*
G01X1289392Y1405294D01*
G01X1289028Y1404022D01*
G01X1288301Y1402931D01*
G01X1287028Y1402022D01*
G01X1285574Y1401294D01*
G01X1283755Y1400567D01*
G01X1280846Y1400022D01*
G01X1278301Y1399658D01*
G01X1275937Y1399476D01*
G01X1273937Y1399294D01*
G01X1268119Y1399113D01*
G01X1262301Y1399294D01*
G01X1258301Y1399658D01*
G01X1254664Y1400385D01*
G01X1253210Y1400931D01*
G01X1251392Y1401840D01*
G01X1250119Y1402931D01*
G01X1249392Y1403840D01*
G01X1248665Y1405294D01*
G01X1248483Y1407294D01*
G01X1249392Y1409112D01*
G01X1250846Y1410385D01*
G01X1252483Y1411476D01*
G01X1254119Y1413112D01*
G01X1255028Y1415476D01*
G01X1255392Y1417476D01*
G01X1255755Y1421112D01*
G01X1256119Y1425112D01*
G01X1256483Y1431294D01*
G01X1256664Y1442385D01*
G01X1256483Y1453476D01*
G01X1256119Y1457840D01*
G01X1255755Y1461112D01*
G01X1255392Y1463658D01*
G01X1254846Y1465112D01*
G01X1253937Y1466931D01*
G01X1252846Y1468203D01*
G01X1251028Y1469658D01*
G01X1250119Y1470567D01*
G01X1249392Y1471658D01*
G01X1248846Y1473294D01*
G01X1248846Y1474931D01*
G01X1249392Y1476385D01*
G01X1250301Y1477658D01*
G01X1251210Y1478385D01*
G01X1252483Y1479294D01*
G01X1254301Y1480021D01*
G01X1255755Y1480385D01*
G01X1259392Y1481112D01*
G01X1264846Y1481476D01*
G01X1266483Y1481658D01*
G01X1268119Y1481476D01*
G01X1272119Y1481112D01*
G01X1273937Y1480749D01*
G01X1275937Y1480203D01*
G01X1277392Y1479476D01*
G01X1279028Y1478385D01*
G01X1280301Y1476931D01*
G01X1281028Y1475840D01*
G01X1281937Y1474567D01*
G01X1283028Y1472749D01*
G01X1290483Y1457840D01*
G01X1291937Y1455294D01*
G01X1294119Y1450931D01*
G01X1295028Y1449294D01*
G01X1295937Y1448021D01*
G01X1297210Y1447294D01*
G01X1298483Y1446931D01*
G01X1299573Y1447112D01*
G01X1300664Y1447840D01*
G01X1301573Y1449112D01*
G01X1302664Y1450931D01*
G01X1303573Y1452749D01*
G01X1305028Y1455294D01*
G01X1305755Y1456749D01*
G01X1306664Y1458203D01*
G01X1308301Y1461476D01*
G01X1309210Y1462931D01*
G01X1310119Y1464749D01*
G01X1311937Y1468021D01*
G01X1312664Y1469476D01*
G01X1313573Y1470931D01*
G01X1315210Y1474203D01*
G01X1316119Y1475658D01*
G01X1317210Y1477476D01*
G01X1318301Y1478749D01*
G01X1319210Y1479476D01*
G01X1320483Y1480203D01*
G01X1322664Y1480749D01*
G01X1324483Y1481112D01*
G01X1328119Y1481476D01*
G01X1331028Y1481658D01*
G01X1333937Y1481476D01*
G01X1337937Y1481112D01*
G01X1340483Y1480749D01*
G01X1342483Y1480385D01*
G01X1344665Y1479840D01*
G01X1346119Y1479294D01*
G01X1347574Y1478567D01*
G01X1348846Y1477658D01*
G01X1349755Y1476567D01*
G01X1350483Y1475112D01*
G01X1350846Y1473294D01*
G01X1350483Y1471658D01*
G01X1349755Y1470567D01*
G01X1348483Y1469476D01*
G01X1346846Y1468567D01*
G01X1345574Y1467840D01*
G01X1344483Y1467112D01*
G01X1343392Y1465840D01*
G01X1342665Y1464021D01*
G01X1342301Y1462567D01*
G01X1341937Y1460021D01*
G01X1341574Y1455294D01*
G01X1341392Y1450203D01*
G01X1341574Y1445112D01*
G01X1341937Y1433840D01*
G01X1342301Y1426203D01*
G01X1342665Y1420749D01*
G01X1343028Y1417112D01*
G01X1343392Y1414567D01*
G01X1343755Y1413294D01*
G01X1344665Y1411658D01*
G01X1345937Y1410567D01*
G01X1348483Y1409294D01*
G01X1349755Y1408567D01*
G01X1350483Y1407658D01*
G01X1351028Y1406203D01*
G01X1351028Y1404385D01*
G01X1350119Y1402567D01*
G01X1348846Y1401476D01*
G01X1347755Y1400931D01*
G01X1346119Y1400385D01*
G01X1344483Y1400022D01*
G37*
G36*
G01X1402664Y1399658D02*
G01X1400119Y1399294D01*
G01X1397574Y1399113D01*
G01X1396483Y1398931D01*
G01X1393028Y1398749D01*
G01X1389210Y1398931D01*
G01X1384846Y1399294D01*
G01X1380483Y1400022D01*
G01X1378665Y1400567D01*
G01X1376301Y1401294D01*
G01X1374119Y1402022D01*
G01X1372483Y1402749D01*
G01X1369574Y1404203D01*
G01X1368119Y1405113D01*
G01X1366301Y1406385D01*
G01X1364846Y1407476D01*
G01X1361210Y1411112D01*
G01X1360301Y1412203D01*
G01X1358846Y1414385D01*
G01X1358119Y1415658D01*
G01X1357392Y1417294D01*
G01X1356665Y1419112D01*
G01X1356119Y1421112D01*
G01X1355755Y1422931D01*
G01X1355392Y1425476D01*
G01X1355210Y1427476D01*
G01X1355392Y1429476D01*
G01X1355755Y1432385D01*
G01X1356301Y1434022D01*
G01X1357028Y1436022D01*
G01X1357937Y1437840D01*
G01X1359028Y1439658D01*
G01X1360119Y1440931D01*
G01X1361028Y1442022D01*
G01X1361937Y1442931D01*
G01X1362846Y1443658D01*
G01X1364119Y1444749D01*
G01X1366665Y1446567D01*
G01X1368301Y1447476D01*
G01X1369574Y1448203D01*
G01X1371210Y1448931D01*
G01X1373028Y1449658D01*
G01X1375937Y1450749D01*
G01X1379574Y1451840D01*
G01X1381210Y1452385D01*
G01X1382664Y1452749D01*
G01X1388664Y1454749D01*
G01X1390301Y1455476D01*
G01X1391755Y1456385D01*
G01X1393028Y1457476D01*
G01X1393755Y1458567D01*
G01X1394483Y1460385D01*
G01X1394664Y1462567D01*
G01X1394119Y1464203D01*
G01X1393210Y1465294D01*
G01X1392301Y1466021D01*
G01X1390846Y1466749D01*
G01X1389028Y1467112D01*
G01X1387755Y1467294D01*
G01X1386301Y1467294D01*
G01X1384119Y1466931D01*
G01X1382119Y1466385D01*
G01X1380483Y1465658D01*
G01X1379028Y1464931D01*
G01X1377574Y1464021D01*
G01X1376301Y1463112D01*
G01X1375392Y1462385D01*
G01X1374483Y1461476D01*
G01X1372301Y1459658D01*
G01X1370483Y1457840D01*
G01X1368301Y1456021D01*
G01X1367210Y1455294D01*
G01X1365937Y1454749D01*
G01X1363574Y1454385D01*
G01X1360846Y1454931D01*
G01X1359392Y1455840D01*
G01X1358301Y1457112D01*
G01X1357392Y1458931D01*
G01X1356846Y1460749D01*
G01X1356665Y1462749D01*
G01X1356846Y1464385D01*
G01X1357210Y1466021D01*
G01X1357755Y1467840D01*
G01X1358483Y1469476D01*
G01X1359210Y1470931D01*
G01X1360119Y1472385D01*
G01X1361210Y1474021D01*
G01X1362119Y1475294D01*
G01X1364846Y1478021D01*
G01X1365937Y1478749D01*
G01X1367392Y1479476D01*
G01X1369755Y1479840D01*
G01X1371937Y1479476D01*
G01X1373937Y1478931D01*
G01X1375937Y1478749D01*
G01X1377210Y1478931D01*
G01X1378846Y1479476D01*
G01X1381028Y1480021D01*
G01X1382664Y1480385D01*
G01X1384119Y1480749D01*
G01X1387755Y1481476D01*
G01X1389392Y1481658D01*
G01X1390664Y1481840D01*
G01X1393574Y1482021D01*
G01X1396483Y1481840D01*
G01X1399755Y1481476D01*
G01X1403028Y1480749D01*
G01X1406846Y1479476D01*
G01X1408483Y1478749D01*
G01X1411392Y1477294D01*
G01X1412846Y1476385D01*
G01X1414664Y1475112D01*
G01X1416119Y1474021D01*
G01X1419755Y1470385D01*
G01X1420664Y1469294D01*
G01X1422119Y1467112D01*
G01X1422846Y1465840D01*
G01X1423573Y1464203D01*
G01X1424301Y1462385D01*
G01X1424846Y1460567D01*
G01X1425210Y1458931D01*
G01X1425573Y1456385D01*
G01X1425755Y1454385D01*
G01X1425573Y1452385D01*
G01X1425210Y1450567D01*
G01X1424664Y1448567D01*
G01X1423573Y1445658D01*
G01X1422664Y1444021D01*
G01X1421755Y1442567D01*
G01X1419573Y1439658D01*
G01X1416846Y1436931D01*
G01X1413937Y1434749D01*
G01X1412664Y1433840D01*
G01X1411028Y1432749D01*
G01X1409210Y1431658D01*
G01X1407392Y1430749D01*
G01X1405755Y1430022D01*
G01X1402119Y1428567D01*
G01X1393937Y1425840D01*
G01X1392483Y1425294D01*
G01X1391028Y1424567D01*
G01X1389392Y1423658D01*
G01X1388119Y1422749D01*
G01X1387392Y1421840D01*
G01X1386846Y1420567D01*
G01X1386483Y1418749D01*
G01X1386846Y1417112D01*
G01X1387574Y1416022D01*
G01X1388483Y1415294D01*
G01X1389574Y1414749D01*
G01X1391210Y1414022D01*
G01X1393937Y1413476D01*
G01X1397574Y1413294D01*
G01X1400119Y1413476D01*
G01X1401755Y1413840D01*
G01X1403574Y1414385D01*
G01X1405028Y1414931D01*
G01X1406301Y1415476D01*
G01X1407755Y1416203D01*
G01X1409028Y1416931D01*
G01X1409937Y1417658D01*
G01X1411755Y1419476D01*
G01X1412846Y1420749D01*
G01X1416119Y1425658D01*
G01X1417028Y1426931D01*
G01X1418119Y1428385D01*
G01X1419392Y1429658D01*
G01X1420664Y1430567D01*
G01X1422664Y1431294D01*
G01X1423846Y1431294D01*
G01X1424846Y1430931D01*
G01X1426119Y1429840D01*
G01X1426846Y1428931D01*
G01X1427392Y1427294D01*
G01X1427755Y1425476D01*
G01X1427755Y1423658D01*
G01X1427573Y1421294D01*
G01X1427392Y1419658D01*
G01X1427028Y1417840D01*
G01X1426483Y1415840D01*
G01X1425937Y1414022D01*
G01X1425392Y1412385D01*
G01X1424301Y1409840D01*
G01X1423573Y1408385D01*
G01X1422664Y1407113D01*
G01X1421937Y1406203D01*
G01X1421028Y1405294D01*
G01X1419573Y1404385D01*
G01X1417755Y1403476D01*
G01X1415937Y1402749D01*
G01X1414301Y1402203D01*
G01X1412846Y1401840D01*
G01X1411028Y1401294D01*
G01X1408483Y1400749D01*
G01X1404846Y1400022D01*
G01X1402664Y1399658D01*
G37*
G04 Text End*
G54D10*

M02*

