G04 Layer: DrillDrawingLayer*
G04 EasyEDA Pro v2.2.40.8, 2025-10-17 17:16:52*
G04 Gerber Generator version 0.3*
G04 Scale: 100 percent, Rotated: No, Reflected: No*
G04 Dimensions in millimeters*
G04 Leading zeros omitted, absolute positions, 4 integers and 5 decimals*
G04 Generated by one-click*
%FSLAX45Y45*%
%MOMM*%
%AMIconRect*4,1,4,0.2,-0.2,-0.2,-0.2,-0.2,0.2,0.2,0.2,0.2,-0.2,0*4,0,4,0.166667,-0.166667,0.166667,0.166667,-0.166667,0.166667,-0.166667,-0.166667,0.166667,-0.166667,0*%
%AMIconTriangle*4,1,3,-0.242567,0.171767,0.242567,0.171767,0,-0.2706,-0.242567,0.171767,0*4,0,3,-0.189767,0.1386,0,-0.1953,0.190167,0.1386,-0.189767,0.1386,0*%
%AMIconStar6*4,1,12,0.0862,0.1492,0.213233,0.123367,0.172367,0,0.213233,-0.1229,0.0862,-0.148733,0,-0.245767,-0.085767,-0.148733,-0.213267,-0.1229,-0.171933,0,-0.213267,0.1229,-0.085767,0.1492,0,0.245767,0.0862,0.1492,0*4,0,12,-0.000333,0.195333,-0.064333,0.122667,-0.169667,0.097667,-0.138333,-0.005333,-0.169667,-0.098,-0.064333,-0.122667,-0.000333,-0.195667,0.064333,-0.122667,0.169667,-0.098,0.138667,0.005,0.169667,0.098,0.064333,0.122333,-0.000333,0.195333,0*%
%ADD10IconRect*%
%ADD11C,0.44X0.373333*%
%ADD12IconTriangle*%
%ADD13IconStar6*%
G75*


G04 Drill Drawing Start*
G54D10*
G01X2055100Y260013D03*
G01X2267232Y472145D03*
G54D11*
G01X427132Y2716591D03*
G01X427132Y2416591D03*
G01X427132Y2566591D03*
G01X427132Y2866591D03*
G01X488661Y1064010D03*
G01X488661Y1205774D03*
G54D12*
G01X123043Y126081D03*
G01X123043Y380081D03*
G01X123043Y634081D03*
G01X123043Y888081D03*
G01X123043Y1142081D03*
G01X123043Y1396081D03*
G01X123043Y1650081D03*
G01X123043Y1904081D03*
G01X123043Y2158081D03*
G01X123043Y2412081D03*
G01X123043Y2666081D03*
G01X123043Y2920081D03*
G01X123043Y3174081D03*
G01X831090Y2858706D03*
G01X1085090Y2858706D03*
G01X1339090Y2858706D03*
G01X1647043Y126081D03*
G01X1647043Y380081D03*
G01X1647043Y634081D03*
G01X1647043Y888081D03*
G01X1647043Y1142081D03*
G01X1647043Y1396081D03*
G01X1647043Y1650081D03*
G01X1647043Y1904081D03*
G01X1647043Y2158081D03*
G01X1647043Y2412081D03*
G01X1647043Y2666081D03*
G01X1647043Y2920081D03*
G01X1647043Y3174081D03*
G54D13*
G01X57553Y251326D03*
G01X57553Y506828D03*
G01X57553Y762625D03*
G01X57553Y1015137D03*
G01X57553Y1270150D03*
G01X57553Y1525162D03*
G01X57553Y1777674D03*
G01X57553Y2030187D03*
G01X60053Y2285199D03*
G01X60053Y2795224D03*
G01X65053Y2540212D03*
G01X188386Y506585D03*
G01X193386Y761590D03*
G01X278390Y1066591D03*
G01X278390Y1366591D03*
G01X278390Y1666591D03*
G01X278390Y1966591D03*
G01X278390Y2266591D03*
G01X278390Y2566591D03*
G01X278390Y2866591D03*
G01X428390Y1516591D03*
G01X428390Y1816591D03*
G01X428390Y2116591D03*
G01X578390Y1366591D03*
G01X578390Y1666591D03*
G01X578390Y1966591D03*
G01X578390Y2266591D03*
G01X578390Y2566591D03*
G01X578390Y2866591D03*
G01X728390Y916590D03*
G01X728390Y1216591D03*
G01X728390Y1516591D03*
G01X728390Y1816591D03*
G01X728390Y2116591D03*
G01X728390Y2716591D03*
G01X878390Y1366591D03*
G01X878390Y1666591D03*
G01X878390Y1966591D03*
G01X1028390Y916590D03*
G01X1028390Y1216591D03*
G01X1028390Y1516591D03*
G01X1028390Y1816591D03*
G01X1028390Y2116591D03*
G01X1028390Y2716591D03*
G01X1178390Y1366591D03*
G01X1178390Y1666591D03*
G01X1178390Y1966591D03*
G01X1178390Y2266591D03*
G01X1178390Y2566591D03*
G01X1328390Y916590D03*
G01X1328390Y1216591D03*
G01X1328390Y1516591D03*
G01X1328390Y1816591D03*
G01X1328390Y2716591D03*
G01X1440070Y2160105D03*
G01X1467572Y1875092D03*
G01X1478390Y166590D03*
G01X1478390Y766591D03*
G01X1478390Y1366591D03*
G01X1478390Y1666591D03*
G01X1478390Y2566591D03*
G01X1478390Y2866591D03*
G01X1778390Y166590D03*
G01X1778390Y616591D03*
G01X1778390Y766591D03*
G01X1778390Y916590D03*
G01X1778390Y1966591D03*
G01X1778390Y2566591D03*
G01X1778390Y2866591D03*
G01X1795088Y2112603D03*
G01X1795088Y2227609D03*
G01X1795088Y2347615D03*
G01X1795088Y2465120D03*
G01X1928390Y166590D03*
G01X1928390Y916590D03*
G01X1928390Y1216591D03*
G01X1928390Y1516591D03*
G01X1928390Y2716591D03*
G01X1970096Y1646801D03*
G01X1975893Y1851592D03*
G01X1983386Y1369091D03*
G01X2078390Y466591D03*
G01X2078390Y616591D03*
G01X2078390Y2566591D03*
G01X2078390Y2866591D03*
G01X2130104Y1965096D03*
G01X2135893Y799092D03*
G01X2135893Y1199097D03*
G01X2185896Y1519091D03*
G01X2228390Y316591D03*
G01X2228390Y2716591D03*
G01X2239615Y1965096D03*
G01X2310113Y2107603D03*
G01X2351631Y2339657D03*
G01X2378390Y766591D03*
G01X2378390Y1066591D03*
G01X2378390Y1366591D03*
G01X2378390Y2866591D03*
G01X2402617Y1644301D03*
G01X2410118Y2070101D03*
G01X2410118Y2605127D03*
G01X2415892Y1969091D03*
G01X2418392Y1816591D03*
G04 Drill Drawing End*

M02*

