G04 Layer: InnerLayer2*
G04 EasyEDA Pro v2.2.40.8, 2025-10-17 17:16:52*
G04 Gerber Generator version 0.3*
G04 Scale: 100 percent, Rotated: No, Reflected: No*
G04 Dimensions in millimeters*
G04 Leading zeros omitted, absolute positions, 4 integers and 5 decimals*
G04 Generated by one-click*
%FSLAX45Y45*%
%MOMM*%
%AMOval*1,1,$1,$2,$3*1,1,$1,$4,$5*20,1,$1,$2,$3,$4,$5,0*%
%AMRect*21,1,$1,$2,0,0,$3*%
%ADD10C,0.2032*%
%ADD11C,0.254*%
%ADD12C,1.524*%
%ADD13C,1.2*%
%ADD14C,1.1*%
%ADD15Oval,1.5X-0.17678X0.17678X0.17678X-0.17678*%
%ADD16Rect,1.5X2.0X45.0*%
%ADD17C,0.5052*%
%ADD18C,0.5*%
G75*


G04 Copper Start*
G36*
G01X2464986Y2907172D02*
G01X2464986Y2004981D01*
G01X2454532Y2016051D01*
G01X2441655Y2024178D01*
G01X2427164Y2028851D01*
G01X2411966Y2029778D01*
G01X2397014Y2026901D01*
G01X2383246Y2020399D01*
G01X2371524Y2010682D01*
G01X2362583Y1998357D01*
G01X2356984Y1984197D01*
G01X2355078Y1969091D01*
G01X2356984Y1953984D01*
G01X2362583Y1939825D01*
G01X2371524Y1927500D01*
G01X2383246Y1917782D01*
G01X2397014Y1911281D01*
G01X2411966Y1908404D01*
G01X2427164Y1909331D01*
G01X2441655Y1914004D01*
G01X2454532Y1922130D01*
G01X2464986Y1933200D01*
G01X2464986Y1855672D01*
G01X2454146Y1865784D01*
G01X2441182Y1872973D01*
G01X2426864Y1876812D01*
G01X2412042Y1877072D01*
G01X2397598Y1873739D01*
G01X2384389Y1867010D01*
G01X2373201Y1857286D01*
G01X2364698Y1845143D01*
G01X2359385Y1831304D01*
G01X2357578Y1816591D01*
G01X2359385Y1801877D01*
G01X2364698Y1788038D01*
G01X2373201Y1775896D01*
G01X2384389Y1766171D01*
G01X2397598Y1759442D01*
G01X2412042Y1756109D01*
G01X2426864Y1756370D01*
G01X2441182Y1760209D01*
G01X2454146Y1767397D01*
G01X2464986Y1777509D01*
G01X2464986Y492173D01*
G01X2463755Y479665D01*
G01X2460111Y467637D01*
G01X2454192Y456549D01*
G01X2446227Y446827D01*
G01X2442070Y442663D01*
G01X2426602Y458130D01*
G01X2424856Y466076D01*
G01X2421362Y473423D01*
G01X2416300Y479791D01*
G01X2274879Y621213D01*
G01X2268510Y626275D01*
G01X2261163Y629769D01*
G01X2253218Y631515D01*
G01X2145664Y739068D01*
G01X2159868Y743204D01*
G01X2172654Y750646D01*
G01X2183264Y760956D01*
G01X2186764Y766591D01*
G01X2317576Y766591D01*
G01X2319343Y752037D01*
G01X2324542Y738329D01*
G01X2332870Y726263D01*
G01X2343844Y716542D01*
G01X2356825Y709729D01*
G01X2371060Y706220D01*
G01X2385721Y706220D01*
G01X2399955Y709729D01*
G01X2412936Y716542D01*
G01X2423910Y726263D01*
G01X2432238Y738329D01*
G01X2437437Y752037D01*
G01X2439204Y766591D01*
G01X2437437Y781144D01*
G01X2432238Y794852D01*
G01X2423910Y806918D01*
G01X2412936Y816639D01*
G01X2399955Y823453D01*
G01X2385721Y826961D01*
G01X2371060Y826961D01*
G01X2356825Y823453D01*
G01X2343844Y816639D01*
G01X2332870Y806918D01*
G01X2324542Y794852D01*
G01X2319343Y781144D01*
G01X2317576Y766591D01*
G01X2317576Y766591D01*
G01X2186764Y766591D01*
G01X2191070Y773522D01*
G01X2195612Y787602D01*
G01X2196619Y802362D01*
G01X2194033Y816928D01*
G01X2188006Y830438D01*
G01X2178895Y842094D01*
G01X2167239Y851205D01*
G01X2153729Y857232D01*
G01X2139163Y859818D01*
G01X2124403Y858811D01*
G01X2110323Y854269D01*
G01X2097757Y846463D01*
G01X2087447Y835853D01*
G01X2080005Y823067D01*
G01X2075869Y808863D01*
G01X1986399Y898333D01*
G01X1988975Y911315D01*
G01X1988682Y924547D01*
G01X1985533Y937402D01*
G01X1979677Y949271D01*
G01X1971392Y959592D01*
G01X1961071Y967877D01*
G01X1949202Y973733D01*
G01X1936347Y976882D01*
G01X1923115Y977175D01*
G01X1910133Y974599D01*
G01X1818141Y1066591D01*
G01X2317576Y1066591D01*
G01X2319343Y1052037D01*
G01X2324542Y1038329D01*
G01X2332870Y1026264D01*
G01X2343844Y1016542D01*
G01X2356825Y1009729D01*
G01X2371060Y1006220D01*
G01X2385721Y1006220D01*
G01X2399955Y1009729D01*
G01X2412936Y1016542D01*
G01X2423910Y1026264D01*
G01X2432238Y1038329D01*
G01X2437437Y1052037D01*
G01X2439204Y1066591D01*
G01X2437437Y1081144D01*
G01X2432238Y1094852D01*
G01X2423910Y1106918D01*
G01X2412936Y1116640D01*
G01X2399955Y1123453D01*
G01X2385721Y1126961D01*
G01X2371060Y1126961D01*
G01X2356825Y1123453D01*
G01X2343844Y1116640D01*
G01X2332870Y1106918D01*
G01X2324542Y1094852D01*
G01X2319343Y1081144D01*
G01X2317576Y1066591D01*
G01X2317576Y1066591D01*
G01X1818141Y1066591D01*
G01X1794356Y1090376D01*
G01X1786938Y1096068D01*
G01X1778300Y1099646D01*
G01X1769031Y1100866D01*
G01X1751199Y1100866D01*
G01X1756830Y1119855D01*
G01X1759028Y1139540D01*
G01X1757725Y1159304D01*
G01X1752961Y1178529D01*
G01X1744886Y1196615D01*
G01X1733751Y1212996D01*
G01X1730236Y1216591D01*
G01X1867576Y1216591D01*
G01X1869344Y1202037D01*
G01X1874542Y1188329D01*
G01X1882870Y1176264D01*
G01X1893844Y1166542D01*
G01X1906825Y1159729D01*
G01X1921060Y1156220D01*
G01X1935721Y1156220D01*
G01X1949955Y1159729D01*
G01X1962937Y1166542D01*
G01X1973910Y1176264D01*
G01X1982238Y1188329D01*
G01X1986322Y1199097D01*
G01X2075079Y1199097D01*
G01X2076846Y1184543D01*
G01X2082045Y1170836D01*
G01X2090373Y1158770D01*
G01X2101347Y1149048D01*
G01X2114328Y1142235D01*
G01X2128563Y1138727D01*
G01X2143223Y1138727D01*
G01X2157458Y1142235D01*
G01X2170439Y1149048D01*
G01X2181413Y1158770D01*
G01X2189741Y1170836D01*
G01X2194940Y1184543D01*
G01X2196707Y1199097D01*
G01X2194940Y1213651D01*
G01X2189741Y1227359D01*
G01X2181413Y1239424D01*
G01X2170439Y1249146D01*
G01X2157458Y1255959D01*
G01X2143223Y1259468D01*
G01X2128563Y1259468D01*
G01X2114328Y1255959D01*
G01X2101347Y1249146D01*
G01X2090373Y1239424D01*
G01X2082045Y1227359D01*
G01X2076846Y1213651D01*
G01X2075079Y1199097D01*
G01X2075079Y1199097D01*
G01X1986322Y1199097D01*
G01X1987437Y1202037D01*
G01X1989204Y1216591D01*
G01X1987437Y1231144D01*
G01X1982238Y1244852D01*
G01X1973910Y1256918D01*
G01X1962937Y1266640D01*
G01X1949955Y1273453D01*
G01X1935721Y1276961D01*
G01X1921060Y1276961D01*
G01X1906825Y1273453D01*
G01X1893844Y1266640D01*
G01X1882870Y1256918D01*
G01X1874542Y1244852D01*
G01X1869344Y1231144D01*
G01X1867576Y1216591D01*
G01X1867576Y1216591D01*
G01X1730236Y1216591D01*
G01X1719905Y1227159D01*
G01X1703780Y1238662D01*
G01X1685882Y1247146D01*
G01X1666770Y1252344D01*
G01X1647040Y1254095D01*
G01X1627311Y1252343D01*
G01X1608199Y1247144D01*
G01X1590301Y1238659D01*
G01X1574177Y1227155D01*
G01X1560332Y1212991D01*
G01X1549198Y1196610D01*
G01X1541123Y1178524D01*
G01X1536360Y1159298D01*
G01X1535058Y1139534D01*
G01X1537257Y1119850D01*
G01X1542889Y1100860D01*
G01X571673Y1100836D01*
G01X564780Y1113539D01*
G01X555958Y1124987D01*
G01X545432Y1134892D01*
G01X558703Y1147969D01*
G01X569025Y1163480D01*
G01X575965Y1180771D01*
G01X579230Y1199114D01*
G01X578717Y1216591D01*
G01X667576Y1216591D01*
G01X669343Y1202037D01*
G01X674542Y1188329D01*
G01X682870Y1176264D01*
G01X693844Y1166542D01*
G01X706825Y1159729D01*
G01X721060Y1156220D01*
G01X735721Y1156220D01*
G01X749955Y1159729D01*
G01X762936Y1166542D01*
G01X773910Y1176264D01*
G01X782238Y1188329D01*
G01X787437Y1202037D01*
G01X789204Y1216591D01*
G01X967576Y1216591D01*
G01X969343Y1202037D01*
G01X974542Y1188329D01*
G01X982870Y1176264D01*
G01X993844Y1166542D01*
G01X1006825Y1159729D01*
G01X1021060Y1156220D01*
G01X1035720Y1156220D01*
G01X1049955Y1159729D01*
G01X1062936Y1166542D01*
G01X1073910Y1176264D01*
G01X1082238Y1188329D01*
G01X1087437Y1202037D01*
G01X1089204Y1216591D01*
G01X1267576Y1216591D01*
G01X1269343Y1202037D01*
G01X1274542Y1188329D01*
G01X1282870Y1176264D01*
G01X1293844Y1166542D01*
G01X1306825Y1159729D01*
G01X1321060Y1156220D01*
G01X1335721Y1156220D01*
G01X1349955Y1159729D01*
G01X1362937Y1166542D01*
G01X1373910Y1176264D01*
G01X1382238Y1188329D01*
G01X1387437Y1202037D01*
G01X1389204Y1216591D01*
G01X1387437Y1231144D01*
G01X1382238Y1244852D01*
G01X1373910Y1256918D01*
G01X1362937Y1266640D01*
G01X1349955Y1273453D01*
G01X1335721Y1276961D01*
G01X1321060Y1276961D01*
G01X1306825Y1273453D01*
G01X1293844Y1266640D01*
G01X1282870Y1256918D01*
G01X1274542Y1244852D01*
G01X1269343Y1231144D01*
G01X1267576Y1216591D01*
G01X1267576Y1216591D01*
G01X1089204Y1216591D01*
G01X1089204Y1216591D01*
G01X1087437Y1231144D01*
G01X1082238Y1244852D01*
G01X1073910Y1256918D01*
G01X1062936Y1266640D01*
G01X1049955Y1273453D01*
G01X1035720Y1276961D01*
G01X1021060Y1276961D01*
G01X1006825Y1273453D01*
G01X993844Y1266640D01*
G01X982870Y1256918D01*
G01X974542Y1244852D01*
G01X969343Y1231144D01*
G01X967576Y1216591D01*
G01X967576Y1216591D01*
G01X789204Y1216591D01*
G01X789204Y1216591D01*
G01X787437Y1231144D01*
G01X782238Y1244852D01*
G01X773910Y1256918D01*
G01X762936Y1266640D01*
G01X749955Y1273453D01*
G01X735721Y1276961D01*
G01X721060Y1276961D01*
G01X706825Y1273453D01*
G01X693844Y1266640D01*
G01X682870Y1256918D01*
G01X674542Y1244852D01*
G01X669343Y1231144D01*
G01X667576Y1216591D01*
G01X667576Y1216591D01*
G01X578717Y1216591D01*
G01X578683Y1217738D01*
G01X574347Y1235858D01*
G01X566404Y1252711D01*
G01X555189Y1267589D01*
G01X541173Y1279866D01*
G01X524948Y1289023D01*
G01X507194Y1294676D01*
G01X488661Y1296588D01*
G01X470128Y1294676D01*
G01X452374Y1289023D01*
G01X436148Y1279866D01*
G01X422133Y1267589D01*
G01X410918Y1252711D01*
G01X402975Y1235858D01*
G01X398638Y1217738D01*
G01X398091Y1199114D01*
G01X401357Y1180771D01*
G01X408297Y1163480D01*
G01X418619Y1147969D01*
G01X431890Y1134892D01*
G01X421363Y1124986D01*
G01X412540Y1113536D01*
G01X405647Y1100831D01*
G01X328650Y1100829D01*
G01X318926Y1111925D01*
G01X306816Y1120352D01*
G01X293033Y1125615D01*
G01X278389Y1127405D01*
G01X263744Y1125615D01*
G01X249961Y1120351D01*
G01X237852Y1111923D01*
G01X228129Y1100827D01*
G01X227184Y1100827D01*
G01X232945Y1120433D01*
G01X235049Y1140759D01*
G01X233426Y1161129D01*
G01X228128Y1180865D01*
G01X219334Y1199311D01*
G01X207334Y1215852D01*
G01X192529Y1229937D01*
G01X175412Y1241099D01*
G01X156552Y1248965D01*
G01X136577Y1253274D01*
G01X116151Y1253882D01*
G01X118356Y1269028D01*
G01X116711Y1284246D01*
G01X137958Y1285064D01*
G01X158668Y1289883D01*
G01X178095Y1298528D01*
G01X195538Y1310689D01*
G01X210368Y1325927D01*
G01X222052Y1343693D01*
G01X229715Y1330135D01*
G01X240570Y1318967D01*
G01X253906Y1310923D01*
G01X268847Y1306530D01*
G01X284414Y1306076D01*
G01X299586Y1309590D01*
G01X313368Y1316843D01*
G01X324856Y1327358D01*
G01X333297Y1340446D01*
G01X338137Y1355249D01*
G01X338809Y1366591D01*
G01X517576Y1366591D01*
G01X519343Y1352037D01*
G01X524542Y1338329D01*
G01X532870Y1326264D01*
G01X543844Y1316542D01*
G01X556825Y1309729D01*
G01X571060Y1306220D01*
G01X585721Y1306220D01*
G01X599955Y1309729D01*
G01X612937Y1316542D01*
G01X623910Y1326264D01*
G01X632238Y1338329D01*
G01X637437Y1352037D01*
G01X639204Y1366591D01*
G01X817576Y1366591D01*
G01X819343Y1352037D01*
G01X824542Y1338329D01*
G01X832870Y1326264D01*
G01X843844Y1316542D01*
G01X856825Y1309729D01*
G01X871060Y1306220D01*
G01X885720Y1306220D01*
G01X899955Y1309729D01*
G01X912936Y1316542D01*
G01X923910Y1326264D01*
G01X932238Y1338329D01*
G01X937437Y1352037D01*
G01X939204Y1366591D01*
G01X1117576Y1366591D01*
G01X1119344Y1352037D01*
G01X1124542Y1338329D01*
G01X1132870Y1326264D01*
G01X1143844Y1316542D01*
G01X1156825Y1309729D01*
G01X1171060Y1306220D01*
G01X1185721Y1306220D01*
G01X1199955Y1309729D01*
G01X1212937Y1316542D01*
G01X1223910Y1326264D01*
G01X1232238Y1338329D01*
G01X1237437Y1352037D01*
G01X1239204Y1366591D01*
G01X1238664Y1371037D01*
G01X1417739Y1371037D01*
G01X1418485Y1356116D01*
G01X1418485Y1356116D01*
G01X1422847Y1341826D01*
G01X1430561Y1329032D01*
G01X1441161Y1318504D01*
G01X1454009Y1310878D01*
G01X1468328Y1306615D01*
G01X1483254Y1305972D01*
G01X1497887Y1308987D01*
G01X1511343Y1315479D01*
G01X1522811Y1325055D01*
G01X1531597Y1337139D01*
G01X1537172Y1351000D01*
G01X1539199Y1365802D01*
G01X1546861Y1345973D01*
G01X1558131Y1327949D01*
G01X1572604Y1312379D01*
G01X1589757Y1299823D01*
G01X1608973Y1290734D01*
G01X1629561Y1285439D01*
G01X1650778Y1284129D01*
G01X1671861Y1286850D01*
G01X1692049Y1293506D01*
G01X1710617Y1303855D01*
G01X1726896Y1317527D01*
G01X1740298Y1334027D01*
G01X1750342Y1352762D01*
G01X1755430Y1369091D01*
G01X1922572Y1369091D01*
G01X1924339Y1354537D01*
G01X1929538Y1340829D01*
G01X1937866Y1328764D01*
G01X1948839Y1319042D01*
G01X1961821Y1312229D01*
G01X1976055Y1308720D01*
G01X1990716Y1308720D01*
G01X2004951Y1312229D01*
G01X2017932Y1319042D01*
G01X2028906Y1328764D01*
G01X2037234Y1340829D01*
G01X2042432Y1354537D01*
G01X2043896Y1366591D01*
G01X2317576Y1366591D01*
G01X2319343Y1352037D01*
G01X2324542Y1338329D01*
G01X2332870Y1326264D01*
G01X2343844Y1316542D01*
G01X2356825Y1309729D01*
G01X2371060Y1306220D01*
G01X2385721Y1306220D01*
G01X2399955Y1309729D01*
G01X2412936Y1316542D01*
G01X2423910Y1326264D01*
G01X2432238Y1338329D01*
G01X2437437Y1352037D01*
G01X2439204Y1366591D01*
G01X2437437Y1381144D01*
G01X2432238Y1394852D01*
G01X2423910Y1406918D01*
G01X2412936Y1416640D01*
G01X2399955Y1423453D01*
G01X2385721Y1426961D01*
G01X2371060Y1426961D01*
G01X2356825Y1423453D01*
G01X2343844Y1416640D01*
G01X2332870Y1406918D01*
G01X2324542Y1394852D01*
G01X2319343Y1381144D01*
G01X2317576Y1366591D01*
G01X2317576Y1366591D01*
G01X2043896Y1366591D01*
G01X2044200Y1369091D01*
G01X2042432Y1383644D01*
G01X2037234Y1397352D01*
G01X2028906Y1409418D01*
G01X2017932Y1419140D01*
G01X2004951Y1425953D01*
G01X1990716Y1429461D01*
G01X1976055Y1429461D01*
G01X1961821Y1425953D01*
G01X1948839Y1419140D01*
G01X1937866Y1409418D01*
G01X1929538Y1397352D01*
G01X1924339Y1383644D01*
G01X1922572Y1369091D01*
G01X1922572Y1369091D01*
G01X1755430Y1369091D01*
G01X1756665Y1373057D01*
G01X1759041Y1394181D01*
G01X1757383Y1415374D01*
G01X1751751Y1435872D01*
G01X1742348Y1454937D01*
G01X1729513Y1471882D01*
G01X1713708Y1486097D01*
G01X1695501Y1497070D01*
G01X1675550Y1504406D01*
G01X1654572Y1507841D01*
G01X1633322Y1507251D01*
G01X1612567Y1502657D01*
G01X1593054Y1494225D01*
G01X1575485Y1482258D01*
G01X1560493Y1467187D01*
G01X1548618Y1449555D01*
G01X1540288Y1429998D01*
G01X1535802Y1409219D01*
G01X1535323Y1387967D01*
G01X1528394Y1401203D01*
G01X1518446Y1412350D01*
G01X1506080Y1420735D01*
G01X1492044Y1425852D01*
G01X1477183Y1427393D01*
G01X1462396Y1425263D01*
G01X1448573Y1419593D01*
G01X1436550Y1410724D01*
G01X1427053Y1399191D01*
G01X1420654Y1385691D01*
G01X1417739Y1371037D01*
G01X1238664Y1371037D01*
G01X1237437Y1381144D01*
G01X1232238Y1394852D01*
G01X1223910Y1406918D01*
G01X1212937Y1416640D01*
G01X1199955Y1423453D01*
G01X1185721Y1426961D01*
G01X1171060Y1426961D01*
G01X1156825Y1423453D01*
G01X1143844Y1416640D01*
G01X1132870Y1406918D01*
G01X1124542Y1394852D01*
G01X1119344Y1381144D01*
G01X1117576Y1366591D01*
G01X1117576Y1366591D01*
G01X939204Y1366591D01*
G01X939204Y1366591D01*
G01X937437Y1381144D01*
G01X932238Y1394852D01*
G01X923910Y1406918D01*
G01X912936Y1416640D01*
G01X899955Y1423453D01*
G01X885720Y1426961D01*
G01X871060Y1426961D01*
G01X856825Y1423453D01*
G01X843844Y1416640D01*
G01X832870Y1406918D01*
G01X824542Y1394852D01*
G01X819343Y1381144D01*
G01X817576Y1366591D01*
G01X817576Y1366591D01*
G01X639204Y1366591D01*
G01X639204Y1366591D01*
G01X637437Y1381144D01*
G01X632238Y1394852D01*
G01X623910Y1406918D01*
G01X612937Y1416640D01*
G01X599955Y1423453D01*
G01X585721Y1426961D01*
G01X571060Y1426961D01*
G01X556825Y1423453D01*
G01X543844Y1416640D01*
G01X532870Y1406918D01*
G01X524542Y1394852D01*
G01X519343Y1381144D01*
G01X517576Y1366591D01*
G01X517576Y1366591D01*
G01X338809Y1366591D01*
G01X339059Y1370795D01*
G01X336001Y1386066D01*
G01X329166Y1400060D01*
G01X319000Y1411858D01*
G01X306171Y1420688D01*
G01X291521Y1425970D01*
G01X276009Y1427358D01*
G01X260653Y1424760D01*
G01X246460Y1418348D01*
G01X234362Y1408541D01*
G01X229991Y1429388D01*
G01X221752Y1449030D01*
G01X209945Y1466758D01*
G01X194995Y1481930D01*
G01X177443Y1493998D01*
G01X157924Y1502525D01*
G01X137144Y1507203D01*
G01X115855Y1507864D01*
G01X117282Y1516591D01*
G01X367576Y1516591D01*
G01X369343Y1502037D01*
G01X374542Y1488329D01*
G01X382870Y1476263D01*
G01X393844Y1466542D01*
G01X406825Y1459729D01*
G01X421060Y1456220D01*
G01X435721Y1456220D01*
G01X449955Y1459729D01*
G01X462937Y1466542D01*
G01X473910Y1476263D01*
G01X482238Y1488329D01*
G01X487437Y1502037D01*
G01X489204Y1516591D01*
G01X667576Y1516591D01*
G01X669343Y1502037D01*
G01X674542Y1488329D01*
G01X682870Y1476263D01*
G01X693844Y1466542D01*
G01X706825Y1459729D01*
G01X721060Y1456220D01*
G01X735721Y1456220D01*
G01X749955Y1459729D01*
G01X762936Y1466542D01*
G01X773910Y1476263D01*
G01X782238Y1488329D01*
G01X787437Y1502037D01*
G01X789204Y1516591D01*
G01X967576Y1516591D01*
G01X969343Y1502037D01*
G01X974542Y1488329D01*
G01X982870Y1476263D01*
G01X993844Y1466542D01*
G01X1006825Y1459729D01*
G01X1021060Y1456220D01*
G01X1035720Y1456220D01*
G01X1049955Y1459729D01*
G01X1062936Y1466542D01*
G01X1073910Y1476263D01*
G01X1082238Y1488329D01*
G01X1087437Y1502037D01*
G01X1089204Y1516591D01*
G01X1267576Y1516591D01*
G01X1269343Y1502037D01*
G01X1274542Y1488329D01*
G01X1282870Y1476263D01*
G01X1293844Y1466542D01*
G01X1306825Y1459729D01*
G01X1321060Y1456220D01*
G01X1335721Y1456220D01*
G01X1349955Y1459729D01*
G01X1362937Y1466542D01*
G01X1373910Y1476263D01*
G01X1382238Y1488329D01*
G01X1387437Y1502037D01*
G01X1389204Y1516591D01*
G01X1867576Y1516591D01*
G01X1869344Y1502037D01*
G01X1874542Y1488329D01*
G01X1882870Y1476263D01*
G01X1893844Y1466542D01*
G01X1906825Y1459729D01*
G01X1921060Y1456220D01*
G01X1935721Y1456220D01*
G01X1949955Y1459729D01*
G01X1962937Y1466542D01*
G01X1973910Y1476263D01*
G01X1982238Y1488329D01*
G01X1987437Y1502037D01*
G01X1989204Y1516591D01*
G01X1988901Y1519091D01*
G01X2125082Y1519091D01*
G01X2126849Y1504537D01*
G01X2132047Y1490829D01*
G01X2140376Y1478764D01*
G01X2151349Y1469042D01*
G01X2164331Y1462229D01*
G01X2178565Y1458720D01*
G01X2193226Y1458720D01*
G01X2207460Y1462229D01*
G01X2220442Y1469042D01*
G01X2231415Y1478764D01*
G01X2239744Y1490829D01*
G01X2244942Y1504537D01*
G01X2246710Y1519091D01*
G01X2244942Y1533644D01*
G01X2239744Y1547352D01*
G01X2231415Y1559418D01*
G01X2220442Y1569140D01*
G01X2207460Y1575953D01*
G01X2193226Y1579461D01*
G01X2178565Y1579461D01*
G01X2164331Y1575953D01*
G01X2151349Y1569140D01*
G01X2140376Y1559418D01*
G01X2132047Y1547352D01*
G01X2126849Y1533644D01*
G01X2125082Y1519091D01*
G01X2125082Y1519091D01*
G01X1988901Y1519091D01*
G01X1987437Y1531144D01*
G01X1982238Y1544852D01*
G01X1973910Y1556918D01*
G01X1962937Y1566639D01*
G01X1949955Y1573453D01*
G01X1935721Y1576961D01*
G01X1921060Y1576961D01*
G01X1906825Y1573453D01*
G01X1893844Y1566639D01*
G01X1882870Y1556918D01*
G01X1874542Y1544852D01*
G01X1869344Y1531144D01*
G01X1867576Y1516591D01*
G01X1867576Y1516591D01*
G01X1389204Y1516591D01*
G01X1389204Y1516591D01*
G01X1387437Y1531144D01*
G01X1382238Y1544852D01*
G01X1373910Y1556918D01*
G01X1362937Y1566639D01*
G01X1349955Y1573453D01*
G01X1335721Y1576961D01*
G01X1321060Y1576961D01*
G01X1306825Y1573453D01*
G01X1293844Y1566639D01*
G01X1282870Y1556918D01*
G01X1274542Y1544852D01*
G01X1269343Y1531144D01*
G01X1267576Y1516591D01*
G01X1267576Y1516591D01*
G01X1089204Y1516591D01*
G01X1089204Y1516591D01*
G01X1087437Y1531144D01*
G01X1082238Y1544852D01*
G01X1073910Y1556918D01*
G01X1062936Y1566639D01*
G01X1049955Y1573453D01*
G01X1035720Y1576961D01*
G01X1021060Y1576961D01*
G01X1006825Y1573453D01*
G01X993844Y1566639D01*
G01X982870Y1556918D01*
G01X974542Y1544852D01*
G01X969343Y1531144D01*
G01X967576Y1516591D01*
G01X967576Y1516591D01*
G01X789204Y1516591D01*
G01X789204Y1516591D01*
G01X787437Y1531144D01*
G01X782238Y1544852D01*
G01X773910Y1556918D01*
G01X762936Y1566639D01*
G01X749955Y1573453D01*
G01X735721Y1576961D01*
G01X721060Y1576961D01*
G01X706825Y1573453D01*
G01X693844Y1566639D01*
G01X682870Y1556918D01*
G01X674542Y1544852D01*
G01X669343Y1531144D01*
G01X667576Y1516591D01*
G01X667576Y1516591D01*
G01X489204Y1516591D01*
G01X489204Y1516591D01*
G01X487437Y1531144D01*
G01X482238Y1544852D01*
G01X473910Y1556918D01*
G01X462937Y1566639D01*
G01X449955Y1573453D01*
G01X435721Y1576961D01*
G01X421060Y1576961D01*
G01X406825Y1573453D01*
G01X393844Y1566639D01*
G01X382870Y1556918D01*
G01X374542Y1544852D01*
G01X369343Y1531144D01*
G01X367576Y1516591D01*
G01X367576Y1516591D01*
G01X117282Y1516591D01*
G01X118328Y1522979D01*
G01X116946Y1538233D01*
G01X136709Y1538903D01*
G01X156046Y1543039D01*
G01X174354Y1550510D01*
G01X191064Y1561084D01*
G01X205654Y1574432D01*
G01X217669Y1590138D01*
G01X226735Y1607711D01*
G01X232570Y1626605D01*
G01X244037Y1616409D01*
G01X257691Y1609408D01*
G01X272664Y1606047D01*
G01X288000Y1606541D01*
G01X302725Y1610858D01*
G01X315901Y1618723D01*
G01X326688Y1629636D01*
G01X334401Y1642902D01*
G01X338547Y1657676D01*
G01X338731Y1666591D01*
G01X517576Y1666591D01*
G01X519343Y1652037D01*
G01X524542Y1638329D01*
G01X532870Y1626263D01*
G01X543844Y1616542D01*
G01X556825Y1609728D01*
G01X571060Y1606220D01*
G01X585721Y1606220D01*
G01X599955Y1609728D01*
G01X612937Y1616542D01*
G01X623910Y1626263D01*
G01X632238Y1638329D01*
G01X637437Y1652037D01*
G01X639204Y1666591D01*
G01X817576Y1666591D01*
G01X819343Y1652037D01*
G01X824542Y1638329D01*
G01X832870Y1626263D01*
G01X843844Y1616542D01*
G01X856825Y1609728D01*
G01X871060Y1606220D01*
G01X885720Y1606220D01*
G01X899955Y1609728D01*
G01X912936Y1616542D01*
G01X923910Y1626263D01*
G01X932238Y1638329D01*
G01X937437Y1652037D01*
G01X939204Y1666591D01*
G01X1117576Y1666591D01*
G01X1119344Y1652037D01*
G01X1124542Y1638329D01*
G01X1132870Y1626263D01*
G01X1143844Y1616542D01*
G01X1156825Y1609728D01*
G01X1171060Y1606220D01*
G01X1185721Y1606220D01*
G01X1199955Y1609728D01*
G01X1212937Y1616542D01*
G01X1223910Y1626263D01*
G01X1232238Y1638329D01*
G01X1237437Y1652037D01*
G01X1239204Y1666591D01*
G01X1238485Y1672515D01*
G01X1417866Y1672515D01*
G01X1418186Y1657998D01*
G01X1421940Y1643970D01*
G01X1428912Y1631232D01*
G01X1438705Y1620510D01*
G01X1450760Y1612416D01*
G01X1464391Y1607410D01*
G01X1478820Y1605778D01*
G01X1493225Y1607614D01*
G01X1506784Y1612812D01*
G01X1518724Y1621076D01*
G01X1528364Y1631936D01*
G01X1535155Y1644771D01*
G01X1538100Y1624031D01*
G01X1544856Y1604202D01*
G01X1555185Y1585978D01*
G01X1568727Y1569995D01*
G01X1585008Y1556813D01*
G01X1603458Y1546894D01*
G01X1623433Y1540583D01*
G01X1644234Y1538102D01*
G01X1665133Y1539537D01*
G01X1685399Y1544838D01*
G01X1704324Y1553820D01*
G01X1721245Y1566169D01*
G01X1735572Y1581452D01*
G01X1746802Y1599136D01*
G01X1754543Y1618601D01*
G01X1758524Y1639167D01*
G01X1758554Y1646801D01*
G01X1909282Y1646801D01*
G01X1911049Y1632247D01*
G01X1916248Y1618539D01*
G01X1924576Y1606474D01*
G01X1935550Y1596752D01*
G01X1948531Y1589939D01*
G01X1962766Y1586430D01*
G01X1977426Y1586430D01*
G01X1991661Y1589939D01*
G01X2004642Y1596752D01*
G01X2015616Y1606474D01*
G01X2023944Y1618539D01*
G01X2029143Y1632247D01*
G01X2030607Y1644301D01*
G01X2341803Y1644301D01*
G01X2343570Y1629747D01*
G01X2348769Y1616039D01*
G01X2357097Y1603974D01*
G01X2368071Y1594252D01*
G01X2381052Y1587439D01*
G01X2395287Y1583930D01*
G01X2409948Y1583930D01*
G01X2424182Y1587439D01*
G01X2437164Y1594252D01*
G01X2448137Y1603974D01*
G01X2456465Y1616039D01*
G01X2461664Y1629747D01*
G01X2463431Y1644301D01*
G01X2461664Y1658854D01*
G01X2456465Y1672562D01*
G01X2448137Y1684628D01*
G01X2437164Y1694350D01*
G01X2424182Y1701163D01*
G01X2409948Y1704671D01*
G01X2395287Y1704671D01*
G01X2381052Y1701163D01*
G01X2368071Y1694350D01*
G01X2357097Y1684628D01*
G01X2348769Y1672562D01*
G01X2343570Y1658854D01*
G01X2341803Y1644301D01*
G01X2341803Y1644301D01*
G01X2030607Y1644301D01*
G01X2030910Y1646801D01*
G01X2029143Y1661355D01*
G01X2023944Y1675063D01*
G01X2015616Y1687128D01*
G01X2004642Y1696850D01*
G01X1991661Y1703663D01*
G01X1977426Y1707171D01*
G01X1962766Y1707171D01*
G01X1948531Y1703663D01*
G01X1935550Y1696850D01*
G01X1924576Y1687128D01*
G01X1916248Y1675063D01*
G01X1911049Y1661355D01*
G01X1909282Y1646801D01*
G01X1909282Y1646801D01*
G01X1758554Y1646801D01*
G01X1758607Y1660115D01*
G01X1754787Y1680712D01*
G01X1747200Y1700238D01*
G01X1736109Y1718009D01*
G01X1721904Y1733405D01*
G01X1705080Y1745887D01*
G01X1686227Y1755018D01*
G01X1666003Y1760478D01*
G01X1645116Y1762078D01*
G01X1624297Y1759761D01*
G01X1604273Y1753607D01*
G01X1585744Y1743833D01*
G01X1569360Y1730780D01*
G01X1555693Y1714905D01*
G01X1545220Y1696763D01*
G01X1538309Y1676987D01*
G01X1534136Y1690896D01*
G01X1526785Y1703419D01*
G01X1516674Y1713842D01*
G01X1504381Y1721571D01*
G01X1490605Y1726165D01*
G01X1476134Y1727363D01*
G01X1461791Y1725095D01*
G01X1448394Y1719492D01*
G01X1436708Y1710873D01*
G01X1427398Y1699729D01*
G01X1420996Y1686695D01*
G01X1417866Y1672515D01*
G01X1417866Y1672515D01*
G01X1238485Y1672515D01*
G01X1237437Y1681144D01*
G01X1232238Y1694852D01*
G01X1223910Y1706918D01*
G01X1212937Y1716639D01*
G01X1199955Y1723453D01*
G01X1185721Y1726961D01*
G01X1171060Y1726961D01*
G01X1156825Y1723453D01*
G01X1143844Y1716639D01*
G01X1132870Y1706918D01*
G01X1124542Y1694852D01*
G01X1119344Y1681144D01*
G01X1117576Y1666591D01*
G01X1117576Y1666591D01*
G01X939204Y1666591D01*
G01X937437Y1681144D01*
G01X932238Y1694852D01*
G01X923910Y1706918D01*
G01X912936Y1716639D01*
G01X899955Y1723453D01*
G01X885720Y1726961D01*
G01X871060Y1726961D01*
G01X856825Y1723453D01*
G01X843844Y1716639D01*
G01X832870Y1706918D01*
G01X824542Y1694852D01*
G01X819343Y1681144D01*
G01X817576Y1666591D01*
G01X817576Y1666591D01*
G01X639204Y1666591D01*
G01X637437Y1681144D01*
G01X632238Y1694852D01*
G01X623910Y1706918D01*
G01X612937Y1716639D01*
G01X599955Y1723453D01*
G01X585721Y1726961D01*
G01X571060Y1726961D01*
G01X556825Y1723453D01*
G01X543844Y1716639D01*
G01X532870Y1706918D01*
G01X524542Y1694852D01*
G01X519343Y1681144D01*
G01X517576Y1666591D01*
G01X517576Y1666591D01*
G01X338731Y1666591D01*
G01X338863Y1673018D01*
G01X335330Y1687950D01*
G01X328171Y1701522D01*
G01X317842Y1712871D01*
G01X305002Y1721273D01*
G01X290468Y1726193D01*
G01X275164Y1727319D01*
G01X260066Y1724578D01*
G01X246135Y1718146D01*
G01X234257Y1708431D01*
G01X225189Y1696052D01*
G01X215775Y1712913D01*
G01X203605Y1727907D01*
G01X189041Y1740587D01*
G01X172515Y1750578D01*
G01X154519Y1757581D01*
G01X135587Y1761390D01*
G01X116283Y1761890D01*
G01X118364Y1777052D01*
G01X116594Y1792252D01*
G01X137032Y1792943D01*
G01X157003Y1797339D01*
G01X175843Y1805291D01*
G01X192923Y1816537D01*
G01X192980Y1816591D01*
G01X367576Y1816591D01*
G01X369343Y1802037D01*
G01X374542Y1788329D01*
G01X382870Y1776264D01*
G01X393844Y1766542D01*
G01X406825Y1759729D01*
G01X421060Y1756220D01*
G01X435721Y1756220D01*
G01X449955Y1759729D01*
G01X462937Y1766542D01*
G01X473910Y1776264D01*
G01X482238Y1788329D01*
G01X487437Y1802037D01*
G01X489204Y1816591D01*
G01X667576Y1816591D01*
G01X669343Y1802037D01*
G01X674542Y1788329D01*
G01X682870Y1776264D01*
G01X693844Y1766542D01*
G01X706825Y1759729D01*
G01X721060Y1756220D01*
G01X735721Y1756220D01*
G01X749955Y1759729D01*
G01X762936Y1766542D01*
G01X773910Y1776264D01*
G01X782238Y1788329D01*
G01X787437Y1802037D01*
G01X789204Y1816591D01*
G01X967576Y1816591D01*
G01X969343Y1802037D01*
G01X974542Y1788329D01*
G01X982870Y1776264D01*
G01X993844Y1766542D01*
G01X1006825Y1759729D01*
G01X1021060Y1756220D01*
G01X1035720Y1756220D01*
G01X1049955Y1759729D01*
G01X1062936Y1766542D01*
G01X1073910Y1776264D01*
G01X1082238Y1788329D01*
G01X1087437Y1802037D01*
G01X1089204Y1816591D01*
G01X1267576Y1816591D01*
G01X1269343Y1802037D01*
G01X1274542Y1788329D01*
G01X1282870Y1776264D01*
G01X1293844Y1766542D01*
G01X1306825Y1759729D01*
G01X1321060Y1756220D01*
G01X1335721Y1756220D01*
G01X1349955Y1759729D01*
G01X1362937Y1766542D01*
G01X1373910Y1776264D01*
G01X1382238Y1788329D01*
G01X1382751Y1789680D01*
G01X2122696Y1789680D01*
G01X2122696Y1715510D01*
G01X2124631Y1705784D01*
G01X2130140Y1697540D01*
G01X2138384Y1692030D01*
G01X2148110Y1690096D01*
G01X2222110Y1690096D01*
G01X2231836Y1692030D01*
G01X2240081Y1697540D01*
G01X2245590Y1705784D01*
G01X2247524Y1715510D01*
G01X2247524Y1789680D01*
G01X2247524Y1789680D01*
G01X2245590Y1799405D01*
G01X2240081Y1807650D01*
G01X2231836Y1813159D01*
G01X2222110Y1815094D01*
G01X2148110Y1815094D01*
G01X2138384Y1813159D01*
G01X2130140Y1807650D01*
G01X2124631Y1799405D01*
G01X2122696Y1789680D01*
G01X1382751Y1789680D01*
G01X1387437Y1802037D01*
G01X1389204Y1816591D01*
G01X1387437Y1831144D01*
G01X1382238Y1844852D01*
G01X1373910Y1856918D01*
G01X1362937Y1866640D01*
G01X1349955Y1873453D01*
G01X1343307Y1875092D01*
G01X1406758Y1875092D01*
G01X1408525Y1860538D01*
G01X1413724Y1846830D01*
G01X1422052Y1834764D01*
G01X1433025Y1825043D01*
G01X1446007Y1818229D01*
G01X1460241Y1814721D01*
G01X1474902Y1814721D01*
G01X1489137Y1818229D01*
G01X1502118Y1825043D01*
G01X1513092Y1834764D01*
G01X1521420Y1846830D01*
G01X1526618Y1860538D01*
G01X1528386Y1875092D01*
G01X1526618Y1889645D01*
G01X1524485Y1895271D01*
G01X1535376Y1895271D01*
G01X1538836Y1875126D01*
G01X1545899Y1855945D01*
G01X1545899Y1855945D01*
G01X1556331Y1838366D01*
G01X1569783Y1822976D01*
G01X1585807Y1810286D01*
G01X1603871Y1800720D01*
G01X1623373Y1794596D01*
G01X1643663Y1792118D01*
G01X1664065Y1793367D01*
G01X1683900Y1798304D01*
G01X1702508Y1806763D01*
G01X1719270Y1818462D01*
G01X1733626Y1833013D01*
G01X1745098Y1849930D01*
G01X1745827Y1851592D01*
G01X1915079Y1851592D01*
G01X1916846Y1837039D01*
G01X1922045Y1823331D01*
G01X1930373Y1811265D01*
G01X1941346Y1801544D01*
G01X1954328Y1794730D01*
G01X1968562Y1791222D01*
G01X1983223Y1791222D01*
G01X1997458Y1794730D01*
G01X2010439Y1801544D01*
G01X2021413Y1811265D01*
G01X2029741Y1823331D01*
G01X2034939Y1837039D01*
G01X2036707Y1851592D01*
G01X2034939Y1866146D01*
G01X2029741Y1879854D01*
G01X2021413Y1891920D01*
G01X2010439Y1901641D01*
G01X1997458Y1908454D01*
G01X1983223Y1911963D01*
G01X1968562Y1911963D01*
G01X1954328Y1908454D01*
G01X1941346Y1901641D01*
G01X1930373Y1891920D01*
G01X1922045Y1879854D01*
G01X1916846Y1866146D01*
G01X1915079Y1851592D01*
G01X1915079Y1851592D01*
G01X1745827Y1851592D01*
G01X1753306Y1868650D01*
G01X1757975Y1888550D01*
G01X1758951Y1908967D01*
G01X1772844Y1906030D01*
G01X1787039Y1906395D01*
G01X1800763Y1910042D01*
G01X1813267Y1916772D01*
G01X1823870Y1926218D01*
G01X1831992Y1937866D01*
G01X1837193Y1951079D01*
G01X1839181Y1965096D01*
G01X2178801Y1965096D01*
G01X2180568Y1950542D01*
G01X2185767Y1936834D01*
G01X2194095Y1924769D01*
G01X2205069Y1915047D01*
G01X2218050Y1908234D01*
G01X2232285Y1904725D01*
G01X2246945Y1904725D01*
G01X2261180Y1908234D01*
G01X2274161Y1915047D01*
G01X2285135Y1924769D01*
G01X2293463Y1936834D01*
G01X2298662Y1950542D01*
G01X2300429Y1965096D01*
G01X2298662Y1979650D01*
G01X2293463Y1993358D01*
G01X2285135Y2005423D01*
G01X2274161Y2015145D01*
G01X2261180Y2021958D01*
G01X2246945Y2025466D01*
G01X2232285Y2025466D01*
G01X2218050Y2021958D01*
G01X2205069Y2015145D01*
G01X2194095Y2005423D01*
G01X2185767Y1993358D01*
G01X2180568Y1979650D01*
G01X2178801Y1965096D01*
G01X2178801Y1965096D01*
G01X1839181Y1965096D01*
G01X1839187Y1965139D01*
G01X1837866Y1979277D01*
G01X1833303Y1992724D01*
G01X1825745Y2004746D01*
G01X1815605Y2014688D01*
G01X1803437Y2022007D01*
G01X1789903Y2026305D01*
G01X1775741Y2027347D01*
G01X1761723Y2025076D01*
G01X1748615Y2019617D01*
G01X1737129Y2011266D01*
G01X1727894Y2000479D01*
G01X1721411Y1987845D01*
G01X1704951Y1999965D01*
G01X1686563Y2008891D01*
G01X1666859Y2014328D01*
G01X1646495Y2016093D01*
G01X1626149Y2014129D01*
G01X1606499Y2008499D01*
G01X1588199Y1999393D01*
G01X1571858Y1987113D01*
G01X1558021Y1972068D01*
G01X1547149Y1954759D01*
G01X1539603Y1935762D01*
G01X1535635Y1915710D01*
G01X1535376Y1895271D01*
G01X1524485Y1895271D01*
G01X1521420Y1903353D01*
G01X1513092Y1915419D01*
G01X1502118Y1925140D01*
G01X1489137Y1931954D01*
G01X1474902Y1935462D01*
G01X1460241Y1935462D01*
G01X1446007Y1931954D01*
G01X1433025Y1925140D01*
G01X1422052Y1915419D01*
G01X1413724Y1903353D01*
G01X1408525Y1889645D01*
G01X1406758Y1875092D01*
G01X1406758Y1875092D01*
G01X1343307Y1875092D01*
G01X1335721Y1876961D01*
G01X1321060Y1876961D01*
G01X1306825Y1873453D01*
G01X1293844Y1866640D01*
G01X1282870Y1856918D01*
G01X1274542Y1844852D01*
G01X1269343Y1831144D01*
G01X1267576Y1816591D01*
G01X1267576Y1816591D01*
G01X1089204Y1816591D01*
G01X1087437Y1831144D01*
G01X1082238Y1844852D01*
G01X1073910Y1856918D01*
G01X1062936Y1866640D01*
G01X1049955Y1873453D01*
G01X1035720Y1876961D01*
G01X1021060Y1876961D01*
G01X1006825Y1873453D01*
G01X993844Y1866640D01*
G01X982870Y1856918D01*
G01X974542Y1844852D01*
G01X969343Y1831144D01*
G01X967576Y1816591D01*
G01X967576Y1816591D01*
G01X789204Y1816591D01*
G01X787437Y1831144D01*
G01X782238Y1844852D01*
G01X773910Y1856918D01*
G01X762936Y1866640D01*
G01X749955Y1873453D01*
G01X735721Y1876961D01*
G01X721060Y1876961D01*
G01X706825Y1873453D01*
G01X693844Y1866640D01*
G01X682870Y1856918D01*
G01X674542Y1844852D01*
G01X669343Y1831144D01*
G01X667576Y1816591D01*
G01X667576Y1816591D01*
G01X489204Y1816591D01*
G01X487437Y1831144D01*
G01X482238Y1844852D01*
G01X473910Y1856918D01*
G01X462937Y1866640D01*
G01X449955Y1873453D01*
G01X435721Y1876961D01*
G01X421060Y1876961D01*
G01X406825Y1873453D01*
G01X393844Y1866640D01*
G01X382870Y1856918D01*
G01X374542Y1844852D01*
G01X369343Y1831144D01*
G01X367576Y1816591D01*
G01X367576Y1816591D01*
G01X192980Y1816591D01*
G01X207675Y1830700D01*
G01X219605Y1847309D01*
G01X228317Y1865810D01*
G01X233520Y1885587D01*
G01X235041Y1905980D01*
G01X232829Y1926310D01*
G01X244441Y1916135D01*
G01X258241Y1909212D01*
G01X273340Y1905987D01*
G01X288764Y1906668D01*
G01X303520Y1911212D01*
G01X316655Y1919324D01*
G01X327325Y1930484D01*
G01X334841Y1943970D01*
G01X338718Y1958915D01*
G01X338712Y1966591D01*
G01X517576Y1966591D01*
G01X519343Y1952037D01*
G01X524542Y1938329D01*
G01X532870Y1926264D01*
G01X543844Y1916542D01*
G01X556825Y1909729D01*
G01X571060Y1906220D01*
G01X585721Y1906220D01*
G01X599955Y1909729D01*
G01X612937Y1916542D01*
G01X623910Y1926264D01*
G01X632238Y1938329D01*
G01X637437Y1952037D01*
G01X639204Y1966591D01*
G01X817576Y1966591D01*
G01X819343Y1952037D01*
G01X824542Y1938329D01*
G01X832870Y1926264D01*
G01X843844Y1916542D01*
G01X856825Y1909729D01*
G01X871060Y1906220D01*
G01X885720Y1906220D01*
G01X899955Y1909729D01*
G01X912936Y1916542D01*
G01X923910Y1926264D01*
G01X932238Y1938329D01*
G01X937437Y1952037D01*
G01X939204Y1966591D01*
G01X1117576Y1966591D01*
G01X1119344Y1952037D01*
G01X1124542Y1938329D01*
G01X1132870Y1926264D01*
G01X1143844Y1916542D01*
G01X1156825Y1909729D01*
G01X1171060Y1906220D01*
G01X1185721Y1906220D01*
G01X1199955Y1909729D01*
G01X1212937Y1916542D01*
G01X1223910Y1926264D01*
G01X1232238Y1938329D01*
G01X1237437Y1952037D01*
G01X1239204Y1966591D01*
G01X1237437Y1981144D01*
G01X1232238Y1994852D01*
G01X1223910Y2006918D01*
G01X1212937Y2016640D01*
G01X1199955Y2023453D01*
G01X1185721Y2026961D01*
G01X1171060Y2026961D01*
G01X1156825Y2023453D01*
G01X1143844Y2016640D01*
G01X1132870Y2006918D01*
G01X1124542Y1994852D01*
G01X1119344Y1981144D01*
G01X1117576Y1966591D01*
G01X1117576Y1966591D01*
G01X939204Y1966591D01*
G01X937437Y1981144D01*
G01X932238Y1994852D01*
G01X923910Y2006918D01*
G01X912936Y2016640D01*
G01X899955Y2023453D01*
G01X885720Y2026961D01*
G01X871060Y2026961D01*
G01X856825Y2023453D01*
G01X843844Y2016640D01*
G01X832870Y2006918D01*
G01X824542Y1994852D01*
G01X819343Y1981144D01*
G01X817576Y1966591D01*
G01X817576Y1966591D01*
G01X639204Y1966591D01*
G01X637437Y1981144D01*
G01X632238Y1994852D01*
G01X623910Y2006918D01*
G01X612937Y2016640D01*
G01X599955Y2023453D01*
G01X585721Y2026961D01*
G01X571060Y2026961D01*
G01X556825Y2023453D01*
G01X543844Y2016640D01*
G01X532870Y2006918D01*
G01X524542Y1994852D01*
G01X519343Y1981144D01*
G01X517576Y1966591D01*
G01X517576Y1966591D01*
G01X338712Y1966591D01*
G01X338707Y1974354D01*
G01X334808Y1989293D01*
G01X327273Y2002768D01*
G01X316587Y2013912D01*
G01X303440Y2022006D01*
G01X288678Y2026528D01*
G01X273252Y2027187D01*
G01X258158Y2023941D01*
G01X244368Y2016998D01*
G01X232771Y2006806D01*
G01X224114Y1994022D01*
G01X218956Y1979470D01*
G01X217628Y1964088D01*
G01X205579Y1979810D01*
G01X190950Y1993164D01*
G01X174197Y2003732D01*
G01X155844Y2011184D01*
G01X136466Y2015287D01*
G01X116668Y2015913D01*
G01X118360Y2031124D01*
G01X116200Y2046276D01*
G01X136323Y2046856D01*
G01X156017Y2051030D01*
G01X174646Y2058661D01*
G01X191608Y2069503D01*
G01X206355Y2083206D01*
G01X218412Y2099327D01*
G01X227012Y2116591D01*
G01X367576Y2116591D01*
G01X369343Y2102037D01*
G01X374542Y2088329D01*
G01X382870Y2076264D01*
G01X393844Y2066542D01*
G01X406825Y2059729D01*
G01X421060Y2056220D01*
G01X435721Y2056220D01*
G01X449955Y2059729D01*
G01X462937Y2066542D01*
G01X473910Y2076264D01*
G01X482238Y2088329D01*
G01X487437Y2102037D01*
G01X489204Y2116591D01*
G01X667576Y2116591D01*
G01X669343Y2102037D01*
G01X674542Y2088329D01*
G01X682870Y2076264D01*
G01X693844Y2066542D01*
G01X706825Y2059729D01*
G01X721060Y2056220D01*
G01X735721Y2056220D01*
G01X749955Y2059729D01*
G01X762936Y2066542D01*
G01X773910Y2076264D01*
G01X782238Y2088329D01*
G01X787437Y2102037D01*
G01X789204Y2116591D01*
G01X967576Y2116591D01*
G01X969343Y2102037D01*
G01X974542Y2088329D01*
G01X982870Y2076264D01*
G01X993844Y2066542D01*
G01X1006825Y2059729D01*
G01X1021060Y2056220D01*
G01X1035720Y2056220D01*
G01X1049955Y2059729D01*
G01X1062936Y2066542D01*
G01X1073910Y2076264D01*
G01X1082238Y2088329D01*
G01X1087437Y2102037D01*
G01X1089204Y2116591D01*
G01X1087437Y2131144D01*
G01X1082238Y2144852D01*
G01X1073910Y2156918D01*
G01X1070312Y2160105D01*
G01X1379256Y2160105D01*
G01X1381023Y2145552D01*
G01X1386222Y2131844D01*
G01X1394550Y2119778D01*
G01X1405524Y2110057D01*
G01X1418505Y2103243D01*
G01X1432740Y2099735D01*
G01X1447401Y2099735D01*
G01X1461635Y2103243D01*
G01X1474617Y2110057D01*
G01X1485590Y2119778D01*
G01X1493918Y2131844D01*
G01X1499117Y2145552D01*
G01X1500884Y2160105D01*
G01X1499117Y2174659D01*
G01X1493918Y2188367D01*
G01X1485590Y2200433D01*
G01X1474617Y2210154D01*
G01X1461635Y2216967D01*
G01X1447401Y2220476D01*
G01X1432740Y2220476D01*
G01X1418505Y2216967D01*
G01X1405524Y2210154D01*
G01X1394550Y2200433D01*
G01X1386222Y2188367D01*
G01X1381023Y2174659D01*
G01X1379256Y2160105D01*
G01X1379256Y2160105D01*
G01X1070312Y2160105D01*
G01X1062936Y2166640D01*
G01X1049955Y2173453D01*
G01X1035720Y2176961D01*
G01X1021060Y2176961D01*
G01X1006825Y2173453D01*
G01X993844Y2166640D01*
G01X982870Y2156918D01*
G01X974542Y2144852D01*
G01X969343Y2131144D01*
G01X967576Y2116591D01*
G01X967576Y2116591D01*
G01X789204Y2116591D01*
G01X787437Y2131144D01*
G01X782238Y2144852D01*
G01X773910Y2156918D01*
G01X762936Y2166640D01*
G01X749955Y2173453D01*
G01X735721Y2176961D01*
G01X721060Y2176961D01*
G01X706825Y2173453D01*
G01X693844Y2166640D01*
G01X682870Y2156918D01*
G01X674542Y2144852D01*
G01X669343Y2131144D01*
G01X667576Y2116591D01*
G01X667576Y2116591D01*
G01X489204Y2116591D01*
G01X487437Y2131144D01*
G01X482238Y2144852D01*
G01X473910Y2156918D01*
G01X462937Y2166640D01*
G01X449955Y2173453D01*
G01X435721Y2176961D01*
G01X421060Y2176961D01*
G01X406825Y2173453D01*
G01X393844Y2166640D01*
G01X382870Y2156918D01*
G01X374542Y2144852D01*
G01X369343Y2131144D01*
G01X367576Y2116591D01*
G01X367576Y2116591D01*
G01X227012Y2116591D01*
G01X227388Y2117347D01*
G01X232994Y2136682D01*
G01X235049Y2156708D01*
G01X233486Y2176778D01*
G01X228355Y2196245D01*
G01X219823Y2214479D01*
G01X208165Y2230891D01*
G01X193758Y2244951D01*
G01X177067Y2256206D01*
G01X158630Y2264291D01*
G01X148955Y2266591D01*
G01X217576Y2266591D01*
G01X219343Y2252037D01*
G01X224542Y2238329D01*
G01X232870Y2226263D01*
G01X243844Y2216542D01*
G01X256825Y2209729D01*
G01X271060Y2206220D01*
G01X285720Y2206220D01*
G01X299955Y2209729D01*
G01X312936Y2216542D01*
G01X323910Y2226263D01*
G01X332238Y2238329D01*
G01X337437Y2252037D01*
G01X339204Y2266591D01*
G01X517576Y2266591D01*
G01X519343Y2252037D01*
G01X524542Y2238329D01*
G01X532870Y2226263D01*
G01X543844Y2216542D01*
G01X556825Y2209729D01*
G01X571060Y2206220D01*
G01X585721Y2206220D01*
G01X599955Y2209729D01*
G01X612937Y2216542D01*
G01X623910Y2226263D01*
G01X632238Y2238329D01*
G01X637437Y2252037D01*
G01X639204Y2266591D01*
G01X1117576Y2266591D01*
G01X1119344Y2252037D01*
G01X1124542Y2238329D01*
G01X1132870Y2226263D01*
G01X1143844Y2216542D01*
G01X1156825Y2209729D01*
G01X1171060Y2206220D01*
G01X1185721Y2206220D01*
G01X1199955Y2209729D01*
G01X1212937Y2216542D01*
G01X1223910Y2226263D01*
G01X1232238Y2238329D01*
G01X1237437Y2252037D01*
G01X1239204Y2266591D01*
G01X1237437Y2281144D01*
G01X1232238Y2294852D01*
G01X1223910Y2306918D01*
G01X1212937Y2316639D01*
G01X1199955Y2323453D01*
G01X1185721Y2326961D01*
G01X1171060Y2326961D01*
G01X1156825Y2323453D01*
G01X1143844Y2316639D01*
G01X1132870Y2306918D01*
G01X1124542Y2294852D01*
G01X1119344Y2281144D01*
G01X1117576Y2266591D01*
G01X1117576Y2266591D01*
G01X639204Y2266591D01*
G01X637437Y2281144D01*
G01X632238Y2294852D01*
G01X623910Y2306918D01*
G01X612937Y2316639D01*
G01X599955Y2323453D01*
G01X585721Y2326961D01*
G01X571060Y2326961D01*
G01X556825Y2323453D01*
G01X543844Y2316639D01*
G01X532870Y2306918D01*
G01X524542Y2294852D01*
G01X519343Y2281144D01*
G01X517576Y2266591D01*
G01X517576Y2266591D01*
G01X339204Y2266591D01*
G01X337437Y2281144D01*
G01X332238Y2294852D01*
G01X323910Y2306918D01*
G01X312936Y2316639D01*
G01X299955Y2323453D01*
G01X285720Y2326961D01*
G01X271060Y2326961D01*
G01X256825Y2323453D01*
G01X243844Y2316639D01*
G01X232870Y2306918D01*
G01X224542Y2294852D01*
G01X219343Y2281144D01*
G01X217576Y2266591D01*
G01X217576Y2266591D01*
G01X148955Y2266591D01*
G01X139045Y2268946D01*
G01X118942Y2270019D01*
G01X120867Y2285076D01*
G01X119003Y2300139D01*
G01X138690Y2301165D01*
G01X157891Y2305625D01*
G01X176014Y2313383D01*
G01X192496Y2324197D01*
G01X206827Y2337733D01*
G01X218562Y2353572D01*
G01X227340Y2371223D01*
G01X232887Y2390140D01*
G01X235033Y2409736D01*
G01X233709Y2429404D01*
G01X228959Y2448536D01*
G01X220928Y2466539D01*
G01X209865Y2482856D01*
G01X196113Y2496980D01*
G01X180098Y2508475D01*
G01X162317Y2516984D01*
G01X143318Y2522244D01*
G01X123692Y2524093D01*
G01X125856Y2539047D01*
G01X124266Y2554073D01*
G01X143886Y2556023D01*
G01X162859Y2561382D01*
G01X180599Y2569985D01*
G01X196556Y2581565D01*
G01X210236Y2595763D01*
G01X221214Y2612140D01*
G01X229151Y2630188D01*
G01X233800Y2649348D01*
G01X235018Y2669026D01*
G01X232767Y2688613D01*
G01X227117Y2707502D01*
G01X218243Y2725108D01*
G01X206419Y2740885D01*
G01X192012Y2754344D01*
G01X175468Y2765069D01*
G01X157300Y2772728D01*
G01X138071Y2777082D01*
G01X118376Y2777997D01*
G01X120826Y2792990D01*
G01X119483Y2808123D01*
G01X138873Y2809191D01*
G01X157788Y2813591D01*
G01X175658Y2821193D01*
G01X191947Y2831766D01*
G01X206165Y2844994D01*
G01X217884Y2860479D01*
G01X221067Y2846282D01*
G01X227531Y2833248D01*
G01X236907Y2822122D01*
G01X248656Y2813541D01*
G01X262107Y2807997D01*
G01X276491Y2805806D01*
G01X290983Y2807095D01*
G01X304754Y2811789D01*
G01X317016Y2819619D01*
G01X327068Y2830138D01*
G01X334333Y2842743D01*
G01X339390Y2828097D01*
G01X346742Y2814458D01*
G01X356196Y2802182D01*
G01X367505Y2791591D01*
G01X353806Y2778264D01*
G01X343024Y2762484D01*
G01X335589Y2744878D01*
G01X331796Y2726147D01*
G01X331796Y2707035D01*
G01X335589Y2688303D01*
G01X343024Y2670697D01*
G01X353806Y2654917D01*
G01X367505Y2641591D01*
G01X356196Y2630999D01*
G01X346742Y2618723D01*
G01X339390Y2605084D01*
G01X334333Y2590438D01*
G01X326732Y2603488D01*
G01X316150Y2614262D01*
G01X303240Y2622096D01*
G01X288797Y2626508D01*
G01X273712Y2627225D01*
G01X258916Y2624202D01*
G01X245321Y2617628D01*
G01X233765Y2607906D01*
G01X224961Y2595636D01*
G01X219451Y2581575D01*
G01X217576Y2566591D01*
G01X219451Y2551606D01*
G01X224961Y2537545D01*
G01X233765Y2525276D01*
G01X245321Y2515554D01*
G01X258916Y2508979D01*
G01X273712Y2505957D01*
G01X288797Y2506674D01*
G01X303240Y2511086D01*
G01X316150Y2518920D01*
G01X326732Y2529694D01*
G01X334333Y2542743D01*
G01X339390Y2528097D01*
G01X346742Y2514458D01*
G01X356196Y2502182D01*
G01X367506Y2491591D01*
G01X353436Y2477821D01*
G01X342477Y2461467D01*
G01X335093Y2443219D01*
G01X331593Y2423846D01*
G01X332127Y2404168D01*
G01X336671Y2385013D01*
G01X345034Y2367192D01*
G01X356863Y2351456D01*
G01X371658Y2338469D01*
G01X388795Y2328781D01*
G01X407550Y2322799D01*
G01X427132Y2320777D01*
G01X446714Y2322799D01*
G01X465469Y2328781D01*
G01X482606Y2338469D01*
G01X497401Y2351456D01*
G01X509230Y2367192D01*
G01X517593Y2385013D01*
G01X522137Y2404168D01*
G01X522387Y2413379D01*
G01X1535037Y2413379D01*
G01X1536559Y2393632D01*
G01X1541535Y2374462D01*
G01X1549810Y2356468D01*
G01X1561124Y2340213D01*
G01X1575124Y2326204D01*
G01X1591373Y2314880D01*
G01X1609362Y2306595D01*
G01X1628529Y2301607D01*
G01X1648275Y2300073D01*
G01X1667982Y2302041D01*
G01X1687035Y2307449D01*
G01X1704838Y2316128D01*
G01X1720834Y2327806D01*
G01X1734522Y2342120D01*
G01X1737171Y2329066D01*
G01X1742599Y2316902D01*
G01X1750545Y2306211D01*
G01X1760627Y2297507D01*
G01X1772363Y2291206D01*
G01X1785189Y2287612D01*
G01X1771628Y2283716D01*
G01X1759330Y2276800D01*
G01X1748957Y2267236D01*
G01X1741067Y2255539D01*
G01X1736085Y2242339D01*
G01X1734278Y2228346D01*
G01X1720477Y2242666D01*
G01X1704360Y2254319D01*
G01X1686437Y2262939D01*
G01X1667271Y2268253D01*
G01X1647468Y2270094D01*
G01X1627652Y2268403D01*
G01X1608447Y2263235D01*
G01X1590459Y2254752D01*
G01X1574254Y2243221D01*
G01X1560344Y2229006D01*
G01X1549168Y2212555D01*
G01X1541076Y2194387D01*
G01X1536326Y2175074D01*
G01X1535066Y2155226D01*
G01X1537335Y2135468D01*
G01X1543064Y2116422D01*
G01X1552070Y2098690D01*
G01X1564070Y2082830D01*
G01X1578686Y2069342D01*
G01X1595457Y2058652D01*
G01X1613855Y2051096D01*
G01X1633298Y2046913D01*
G01X1653175Y2046234D01*
G01X1672858Y2049082D01*
G01X1691728Y2055365D01*
G01X1709189Y2064887D01*
G01X1724691Y2077346D01*
G01X1737745Y2092351D01*
G01X1744625Y2078663D01*
G01X1754709Y2067129D01*
G01X1767354Y2058481D01*
G01X1781760Y2053268D01*
G01X1797011Y2051820D01*
G01X1812140Y2054229D01*
G01X1826188Y2060343D01*
G01X1838261Y2069773D01*
G01X1847595Y2081922D01*
G01X1853596Y2096017D01*
G01X1855346Y2107603D01*
G01X2249299Y2107603D01*
G01X2251066Y2093049D01*
G01X2256265Y2079341D01*
G01X2264593Y2067276D01*
G01X2275566Y2057554D01*
G01X2288548Y2050741D01*
G01X2302782Y2047232D01*
G01X2317443Y2047232D01*
G01X2331678Y2050741D01*
G01X2344659Y2057554D01*
G01X2355633Y2067276D01*
G01X2363961Y2079341D01*
G01X2369160Y2093049D01*
G01X2370927Y2107603D01*
G01X2369160Y2122157D01*
G01X2363961Y2135864D01*
G01X2355633Y2147930D01*
G01X2344659Y2157652D01*
G01X2331678Y2164465D01*
G01X2317443Y2167973D01*
G01X2302782Y2167973D01*
G01X2288548Y2164465D01*
G01X2275566Y2157652D01*
G01X2264593Y2147930D01*
G01X2256265Y2135864D01*
G01X2251066Y2122157D01*
G01X2249299Y2107603D01*
G01X2249299Y2107603D01*
G01X1855346Y2107603D01*
G01X1855885Y2111165D01*
G01X1854315Y2126405D01*
G01X1848986Y2140768D01*
G01X1840237Y2153344D01*
G01X1828623Y2163335D01*
G01X1814881Y2170106D01*
G01X1826981Y2175829D01*
G01X1837536Y2184060D01*
G01X1846035Y2194401D01*
G01X1852065Y2206351D01*
G01X1855336Y2219331D01*
G01X1855687Y2232711D01*
G01X1853103Y2245845D01*
G01X1847708Y2258095D01*
G01X1839764Y2268868D01*
G01X1829656Y2277642D01*
G01X1817873Y2283993D01*
G01X1804986Y2287612D01*
G01X1818204Y2291365D01*
G01X1830241Y2297990D01*
G01X1840484Y2307148D01*
G01X1848409Y2318372D01*
G01X1853613Y2331088D01*
G01X1855829Y2344648D01*
G01X1854945Y2358360D01*
G01X1851005Y2371523D01*
G01X1844211Y2383465D01*
G01X1834909Y2393578D01*
G01X1823575Y2401344D01*
G01X1810786Y2406367D01*
G01X1824729Y2412019D01*
G01X1836858Y2420921D01*
G01X1846430Y2432528D01*
G01X1852860Y2446129D01*
G01X1855754Y2460893D01*
G01X1854936Y2475916D01*
G01X1853642Y2480060D01*
G01X2040896Y2480060D01*
G01X2040896Y2194820D01*
G01X2042831Y2185095D01*
G01X2048340Y2176850D01*
G01X2056585Y2171341D01*
G01X2066310Y2169406D01*
G01X2301550Y2169406D01*
G01X2311276Y2171341D01*
G01X2319521Y2176850D01*
G01X2325030Y2185095D01*
G01X2326964Y2194820D01*
G01X2326964Y2284070D01*
G01X2341397Y2279710D01*
G01X2356458Y2279035D01*
G01X2371223Y2282085D01*
G01X2384784Y2288674D01*
G01X2396307Y2298397D01*
G01X2405084Y2310656D01*
G01X2410576Y2324696D01*
G01X2412445Y2339657D01*
G01X2410576Y2354617D01*
G01X2405084Y2368658D01*
G01X2396307Y2380917D01*
G01X2384784Y2390639D01*
G01X2371223Y2397229D01*
G01X2356458Y2400279D01*
G01X2341397Y2399604D01*
G01X2326964Y2395244D01*
G01X2326964Y2480060D01*
G01X2326964Y2480060D01*
G01X2325030Y2489786D01*
G01X2319521Y2498030D01*
G01X2311276Y2503540D01*
G01X2301550Y2505474D01*
G01X2066310Y2505474D01*
G01X2056585Y2503540D01*
G01X2048340Y2498030D01*
G01X2042831Y2489786D01*
G01X2040896Y2480060D01*
G01X1853642Y2480060D01*
G01X1850454Y2490278D01*
G01X1842584Y2503100D01*
G01X1831807Y2513598D01*
G01X1818782Y2521128D01*
G01X1828540Y2532191D01*
G01X1835347Y2545278D01*
G01X1838803Y2559619D01*
G01X1838757Y2566591D01*
G01X2017576Y2566591D01*
G01X2019343Y2552037D01*
G01X2024542Y2538329D01*
G01X2032870Y2526264D01*
G01X2043844Y2516542D01*
G01X2056825Y2509729D01*
G01X2071060Y2506220D01*
G01X2085721Y2506220D01*
G01X2099955Y2509729D01*
G01X2112937Y2516542D01*
G01X2123910Y2526264D01*
G01X2132238Y2538329D01*
G01X2137437Y2552037D01*
G01X2139204Y2566591D01*
G01X2137437Y2581144D01*
G01X2132238Y2594852D01*
G01X2123910Y2606918D01*
G01X2112937Y2616640D01*
G01X2099955Y2623453D01*
G01X2085721Y2626961D01*
G01X2071060Y2626961D01*
G01X2056825Y2623453D01*
G01X2043844Y2616640D01*
G01X2032870Y2606918D01*
G01X2024542Y2594852D01*
G01X2019343Y2581144D01*
G01X2017576Y2566591D01*
G01X2017576Y2566591D01*
G01X1838757Y2566591D01*
G01X1838704Y2574370D01*
G01X1835057Y2588664D01*
G01X1828075Y2601658D01*
G01X1818170Y2612590D01*
G01X1805924Y2620815D01*
G01X1792058Y2625849D01*
G01X1777388Y2627396D01*
G01X1762777Y2625366D01*
G01X1749085Y2619878D01*
G01X1755773Y2639154D01*
G01X1758853Y2659324D01*
G01X1758224Y2679718D01*
G01X1753906Y2699660D01*
G01X1746834Y2716591D01*
G01X1867576Y2716591D01*
G01X1869344Y2702037D01*
G01X1874542Y2688329D01*
G01X1882870Y2676264D01*
G01X1893844Y2666542D01*
G01X1906825Y2659729D01*
G01X1921060Y2656220D01*
G01X1935721Y2656220D01*
G01X1949955Y2659729D01*
G01X1962937Y2666542D01*
G01X1973910Y2676264D01*
G01X1982238Y2688329D01*
G01X1987437Y2702037D01*
G01X1989204Y2716591D01*
G01X2167576Y2716591D01*
G01X2169343Y2702037D01*
G01X2174542Y2688329D01*
G01X2182870Y2676264D01*
G01X2193844Y2666542D01*
G01X2206825Y2659729D01*
G01X2221060Y2656220D01*
G01X2235721Y2656220D01*
G01X2249955Y2659729D01*
G01X2262937Y2666542D01*
G01X2273910Y2676264D01*
G01X2282238Y2688329D01*
G01X2287437Y2702037D01*
G01X2289204Y2716591D01*
G01X2287437Y2731144D01*
G01X2282238Y2744852D01*
G01X2273910Y2756918D01*
G01X2262937Y2766640D01*
G01X2249955Y2773453D01*
G01X2235721Y2776961D01*
G01X2221060Y2776961D01*
G01X2206825Y2773453D01*
G01X2193844Y2766640D01*
G01X2182870Y2756918D01*
G01X2174542Y2744852D01*
G01X2169343Y2731144D01*
G01X2167576Y2716591D01*
G01X2167576Y2716591D01*
G01X1989204Y2716591D01*
G01X1987437Y2731144D01*
G01X1982238Y2744852D01*
G01X1973910Y2756918D01*
G01X1962937Y2766640D01*
G01X1949955Y2773453D01*
G01X1935721Y2776961D01*
G01X1921060Y2776961D01*
G01X1906825Y2773453D01*
G01X1893844Y2766640D01*
G01X1882870Y2756918D01*
G01X1874542Y2744852D01*
G01X1869344Y2731144D01*
G01X1867576Y2716591D01*
G01X1867576Y2716591D01*
G01X1746834Y2716591D01*
G01X1746042Y2718487D01*
G01X1734893Y2735576D01*
G01X1720829Y2750358D01*
G01X1704317Y2762345D01*
G01X1685905Y2771137D01*
G01X1666204Y2776444D01*
G01X1645866Y2778088D01*
G01X1625568Y2776017D01*
G01X1605982Y2770297D01*
G01X1587759Y2761120D01*
G01X1571503Y2748789D01*
G01X1557753Y2733714D01*
G01X1546965Y2716395D01*
G01X1539499Y2697407D01*
G01X1535600Y2677379D01*
G01X1535400Y2656976D01*
G01X1538903Y2636876D01*
G01X1545995Y2617744D01*
G01X1556440Y2600216D01*
G01X1569890Y2584874D01*
G01X1585901Y2572225D01*
G01X1603940Y2562692D01*
G01X1623410Y2556588D01*
G01X1643663Y2554118D01*
G01X1664029Y2555362D01*
G01X1683831Y2560280D01*
G01X1702413Y2568708D01*
G01X1719157Y2580368D01*
G01X1717577Y2566308D01*
G01X1719288Y2552263D01*
G01X1724199Y2538993D01*
G01X1732042Y2527218D01*
G01X1742395Y2517574D01*
G01X1754696Y2510583D01*
G01X1746502Y2501696D01*
G01X1740228Y2491364D01*
G01X1736121Y2479995D01*
G01X1736121Y2479995D01*
G01X1722767Y2494621D01*
G01X1707047Y2506668D01*
G01X1689450Y2515757D01*
G01X1670528Y2521605D01*
G01X1650871Y2524029D01*
G01X1631095Y2522953D01*
G01X1611818Y2518412D01*
G01X1593641Y2510546D01*
G01X1577134Y2499601D01*
G01X1562813Y2485921D01*
G01X1551125Y2469932D01*
G01X1542435Y2452135D01*
G01X1537016Y2433085D01*
G01X1535037Y2413379D01*
G01X522387Y2413379D01*
G01X522671Y2423846D01*
G01X519171Y2443219D01*
G01X511786Y2461467D01*
G01X500828Y2477821D01*
G01X486758Y2491591D01*
G01X498766Y2502960D01*
G01X508639Y2516224D01*
G01X516086Y2530988D01*
G01X520882Y2546812D01*
G01X527747Y2532921D01*
G01X537900Y2521216D01*
G01X550681Y2512456D01*
G01X565261Y2507211D01*
G01X580694Y2505820D01*
G01X595976Y2508375D01*
G01X610118Y2514709D01*
G01X622199Y2524411D01*
G01X631436Y2536851D01*
G01X637230Y2551222D01*
G01X639204Y2566591D01*
G01X639204Y2566591D01*
G01X1117576Y2566591D01*
G01X1119344Y2552037D01*
G01X1124542Y2538329D01*
G01X1132870Y2526264D01*
G01X1143844Y2516542D01*
G01X1156825Y2509729D01*
G01X1171060Y2506220D01*
G01X1185721Y2506220D01*
G01X1199955Y2509729D01*
G01X1212937Y2516542D01*
G01X1223910Y2526264D01*
G01X1232238Y2538329D01*
G01X1237437Y2552037D01*
G01X1239204Y2566591D01*
G01X1417576Y2566591D01*
G01X1419343Y2552037D01*
G01X1424542Y2538329D01*
G01X1432870Y2526264D01*
G01X1443844Y2516542D01*
G01X1456825Y2509729D01*
G01X1471060Y2506220D01*
G01X1485721Y2506220D01*
G01X1499955Y2509729D01*
G01X1512936Y2516542D01*
G01X1523910Y2526264D01*
G01X1532238Y2538329D01*
G01X1537437Y2552037D01*
G01X1539204Y2566591D01*
G01X1537437Y2581144D01*
G01X1532238Y2594852D01*
G01X1523910Y2606918D01*
G01X1512936Y2616640D01*
G01X1499955Y2623453D01*
G01X1485721Y2626961D01*
G01X1471060Y2626961D01*
G01X1456825Y2623453D01*
G01X1443844Y2616640D01*
G01X1432870Y2606918D01*
G01X1424542Y2594852D01*
G01X1419343Y2581144D01*
G01X1417576Y2566591D01*
G01X1417576Y2566591D01*
G01X1239204Y2566591D01*
G01X1237437Y2581144D01*
G01X1232238Y2594852D01*
G01X1223910Y2606918D01*
G01X1212937Y2616640D01*
G01X1199955Y2623453D01*
G01X1185721Y2626961D01*
G01X1171060Y2626961D01*
G01X1156825Y2623453D01*
G01X1143844Y2616640D01*
G01X1132870Y2606918D01*
G01X1124542Y2594852D01*
G01X1119344Y2581144D01*
G01X1117576Y2566591D01*
G01X1117576Y2566591D01*
G01X639204Y2566591D01*
G01X637230Y2581959D01*
G01X631436Y2596330D01*
G01X622199Y2608771D01*
G01X610118Y2618473D01*
G01X595976Y2624806D01*
G01X580694Y2627361D01*
G01X565261Y2625971D01*
G01X550681Y2620725D01*
G01X537900Y2611966D01*
G01X527747Y2600260D01*
G01X520882Y2586369D01*
G01X516086Y2602194D01*
G01X508640Y2616958D01*
G01X498766Y2630222D01*
G01X486759Y2641591D01*
G01X500458Y2654917D01*
G01X511240Y2670697D01*
G01X518675Y2688303D01*
G01X522468Y2707035D01*
G01X522468Y2716591D01*
G01X667576Y2716591D01*
G01X669343Y2702037D01*
G01X674542Y2688329D01*
G01X682870Y2676264D01*
G01X693844Y2666542D01*
G01X706825Y2659729D01*
G01X721060Y2656220D01*
G01X735721Y2656220D01*
G01X749955Y2659729D01*
G01X762936Y2666542D01*
G01X773910Y2676264D01*
G01X782238Y2688329D01*
G01X787437Y2702037D01*
G01X789204Y2716591D01*
G01X787437Y2731144D01*
G01X782238Y2744852D01*
G01X773910Y2756918D01*
G01X762936Y2766640D01*
G01X749955Y2773453D01*
G01X735721Y2776961D01*
G01X721060Y2776961D01*
G01X706825Y2773453D01*
G01X693844Y2766640D01*
G01X682870Y2756918D01*
G01X674542Y2744852D01*
G01X669343Y2731144D01*
G01X667576Y2716591D01*
G01X667576Y2716591D01*
G01X522468Y2716591D01*
G01X522468Y2726147D01*
G01X518675Y2744878D01*
G01X511240Y2762484D01*
G01X500458Y2778264D01*
G01X486759Y2791591D01*
G01X498766Y2802960D01*
G01X508640Y2816224D01*
G01X516086Y2830988D01*
G01X520882Y2846812D01*
G01X527661Y2833051D01*
G01X537668Y2821424D01*
G01X550266Y2812671D01*
G01X564653Y2807349D01*
G01X579915Y2805796D01*
G01X595079Y2808111D01*
G01X609182Y2814148D01*
G01X621325Y2823522D01*
G01X630736Y2835636D01*
G01X636817Y2849719D01*
G01X639180Y2864876D01*
G01X637675Y2880143D01*
G01X632398Y2894547D01*
G01X623684Y2907172D01*
G01X730103Y2907172D01*
G01X722956Y2887933D01*
G01X719438Y2867714D01*
G01X719669Y2847192D01*
G01X723640Y2827056D01*
G01X731218Y2807983D01*
G01X742149Y2790613D01*
G01X756065Y2775529D01*
G01X772500Y2763237D01*
G01X790902Y2754150D01*
G01X810653Y2748572D01*
G01X831090Y2746692D01*
G01X851526Y2748572D01*
G01X871277Y2754150D01*
G01X889679Y2763237D01*
G01X906114Y2775529D01*
G01X920030Y2790613D01*
G01X930961Y2807983D01*
G01X938539Y2827056D01*
G01X942510Y2847192D01*
G01X942741Y2867714D01*
G01X939223Y2887933D01*
G01X932076Y2907172D01*
G01X984103Y2907172D01*
G01X976916Y2887787D01*
G01X973414Y2867412D01*
G01X973717Y2846740D01*
G01X977813Y2826475D01*
G01X985563Y2807309D01*
G01X996704Y2789893D01*
G01X1010856Y2774822D01*
G01X997154Y2768769D01*
G01X985346Y2759551D01*
G01X976151Y2747725D01*
G01X970125Y2734011D01*
G01X967634Y2719240D01*
G01X968830Y2704308D01*
G01X973639Y2690121D01*
G01X981771Y2677540D01*
G01X992731Y2667329D01*
G01X1005855Y2660106D01*
G01X1020346Y2656311D01*
G01X1035325Y2656173D01*
G01X1049884Y2659702D01*
G01X1063138Y2666682D01*
G01X1074284Y2676690D01*
G01X1082645Y2689119D01*
G01X1087715Y2703215D01*
G01X1089185Y2718123D01*
G01X1086966Y2732937D01*
G01X1081193Y2746760D01*
G01X1102033Y2747981D01*
G01X1122285Y2753048D01*
G01X1141245Y2761785D01*
G01X1158254Y2773888D01*
G01X1172722Y2788938D01*
G01X1184147Y2806410D01*
G01X1192130Y2825700D01*
G01X1196396Y2846135D01*
G01X1196796Y2867007D01*
G01X1193315Y2887591D01*
G01X1186076Y2907172D01*
G01X1238103Y2907172D01*
G01X1230754Y2887178D01*
G01X1227323Y2866155D01*
G01X1227934Y2844862D01*
G01X1232565Y2824070D01*
G01X1241048Y2804530D01*
G01X1253077Y2786950D01*
G01X1268216Y2771965D01*
G01X1285918Y2760116D01*
G01X1276319Y2748005D01*
G01X1270082Y2733866D01*
G01X1267610Y2718610D01*
G01X1269063Y2703225D01*
G01X1274348Y2688702D01*
G01X1283123Y2675981D01*
G01X1294821Y2665882D01*
G01X1308687Y2659057D01*
G01X1323825Y2655948D01*
G01X1339258Y2656756D01*
G01X1353989Y2661427D01*
G01X1367067Y2669661D01*
G01X1377648Y2680925D01*
G01X1385047Y2694493D01*
G01X1388788Y2709487D01*
G01X1388628Y2724941D01*
G01X1384578Y2739855D01*
G01X1376900Y2753267D01*
G01X1394110Y2761136D01*
G01X1409749Y2771790D01*
G01X1423372Y2784925D01*
G01X1434589Y2800166D01*
G01X1443081Y2817077D01*
G01X1456055Y2810027D01*
G01X1470345Y2806311D01*
G01X1485110Y2806149D01*
G01X1499479Y2809550D01*
G01X1512605Y2816314D01*
G01X1523713Y2826042D01*
G01X1532150Y2838161D01*
G01X1537417Y2851955D01*
G01X1539204Y2866613D01*
G01X1537406Y2881269D01*
G01X1532129Y2895059D01*
G01X1523684Y2907172D01*
G01X1535775Y2907172D01*
G01X1540037Y2886964D01*
G01X1547935Y2867881D01*
G01X1559203Y2850574D01*
G01X1573457Y2835628D01*
G01X1590212Y2823554D01*
G01X1608899Y2814761D01*
G01X1628883Y2809549D01*
G01X1649484Y2808093D01*
G01X1670002Y2810445D01*
G01X1689739Y2816523D01*
G01X1708026Y2826122D01*
G01X1724239Y2838914D01*
G01X1732483Y2826705D01*
G01X1743420Y2816837D01*
G01X1756410Y2809888D01*
G01X1770689Y2806266D01*
G01X1785420Y2806184D01*
G01X1799739Y2809647D01*
G01X1812805Y2816451D01*
G01X1823852Y2826198D01*
G01X1832230Y2838314D01*
G01X1837450Y2852090D01*
G01X1839204Y2866717D01*
G01X1837389Y2881336D01*
G01X1832113Y2895090D01*
G01X1823684Y2907172D01*
G01X2033097Y2907172D01*
G01X2024305Y2894396D01*
G01X2019031Y2879812D01*
G01X2017617Y2864369D01*
G01X2020155Y2849069D01*
G01X2026480Y2834910D01*
G01X2036181Y2822810D01*
G01X2048627Y2813558D01*
G01X2063009Y2807754D01*
G01X2078390Y2805777D01*
G01X2093772Y2807754D01*
G01X2108153Y2813558D01*
G01X2120599Y2822810D01*
G01X2130300Y2834910D01*
G01X2136626Y2849069D01*
G01X2139164Y2864369D01*
G01X2137750Y2879812D01*
G01X2132475Y2894396D01*
G01X2123684Y2907172D01*
G01X2333097Y2907172D01*
G01X2324305Y2894396D01*
G01X2319031Y2879812D01*
G01X2317617Y2864369D01*
G01X2320155Y2849069D01*
G01X2326480Y2834910D01*
G01X2336181Y2822810D01*
G01X2348627Y2813558D01*
G01X2363009Y2807754D01*
G01X2378390Y2805777D01*
G01X2393772Y2807754D01*
G01X2408153Y2813558D01*
G01X2420599Y2822810D01*
G01X2430300Y2834910D01*
G01X2436625Y2849069D01*
G01X2439164Y2864369D01*
G01X2437750Y2879812D01*
G01X2432475Y2894396D01*
G01X2423684Y2907172D01*
G01X2464986Y2907172D01*
G37*
G36*
G01X116456Y1030260D02*
G01X137054Y1030946D01*
G01X157178Y1035394D01*
G01X176146Y1043454D01*
G01X193316Y1054852D01*
G01X218720Y1054853D01*
G01X222953Y1041590D01*
G01X230091Y1029637D01*
G01X239761Y1019621D01*
G01X251455Y1012067D01*
G01X264561Y1007370D01*
G01X278392Y1005777D01*
G01X292222Y1007371D01*
G01X305328Y1012068D01*
G01X317022Y1019623D01*
G01X326691Y1029640D01*
G01X333829Y1041593D01*
G01X338061Y1054856D01*
G01X398309Y1054857D01*
G01X402202Y1036225D01*
G01X409892Y1018814D01*
G01X421043Y1003388D01*
G01X435164Y990625D01*
G01X451636Y981086D01*
G01X469734Y975190D01*
G01X488663Y973196D01*
G01X507593Y975191D01*
G01X525690Y981088D01*
G01X542161Y990628D01*
G01X556282Y1003391D01*
G01X567432Y1018818D01*
G01X575122Y1036230D01*
G01X579013Y1054862D01*
G01X1576726Y1054887D01*
G01X1592460Y1044266D01*
G01X1609760Y1036453D01*
G01X1628132Y1031675D01*
G01X1647046Y1030067D01*
G01X1665960Y1031675D01*
G01X1684332Y1036455D01*
G01X1701632Y1044268D01*
G01X1717364Y1054891D01*
G01X1764823Y1054892D01*
G01X1874653Y945062D01*
G01X1869216Y930615D01*
G01X1867591Y915263D01*
G01X1869884Y899998D01*
G01X1875947Y885801D01*
G01X1885388Y873589D01*
G01X1897601Y864147D01*
G01X1911798Y858084D01*
G01X1927063Y855791D01*
G01X1942414Y857416D01*
G01X1956862Y862853D01*
G01X2211366Y608349D01*
G01X2118164Y515147D01*
G01X2116818Y513725D01*
G01X2103784Y521849D01*
G01X2089131Y526449D01*
G01X2073792Y527230D01*
G01X2058747Y524145D01*
G01X2044954Y517388D01*
G01X2033294Y507391D01*
G01X2024511Y494792D01*
G01X2019164Y480395D01*
G01X2017594Y465117D01*
G01X2019902Y449933D01*
G01X2025941Y435811D01*
G01X2035325Y423652D01*
G01X2047455Y414233D01*
G01X2061559Y408152D01*
G01X2076736Y405799D01*
G01X2092019Y407323D01*
G01X2106432Y412628D01*
G01X2119057Y421374D01*
G01X2129088Y433004D01*
G01X2135886Y446776D01*
G01X2208576Y374086D01*
G01X2195481Y367731D01*
G01X2184271Y358446D01*
G01X2175589Y346763D01*
G01X2169932Y333351D01*
G01X2167623Y318980D01*
G01X2168796Y304471D01*
G01X2173383Y290657D01*
G01X2181121Y278328D01*
G01X2191568Y268192D01*
G01X2204123Y260828D01*
G01X2218069Y256659D01*
G01X2232607Y255923D01*
G01X2246902Y258663D01*
G01X2260138Y264721D01*
G01X2271554Y273751D01*
G01X2280498Y285235D01*
G01X2286456Y298516D01*
G01X2289088Y312831D01*
G01X2300525Y316170D01*
G01X2310234Y323077D01*
G01X2403436Y416279D01*
G01X2409590Y410125D01*
G01X2054753Y54654D01*
G01X2045022Y46655D01*
G01X2033916Y40711D01*
G01X2021862Y37050D01*
G01X2009326Y35814D01*
G01X1713369Y35814D01*
G01X1726704Y47332D01*
G01X1738067Y60798D01*
G01X1747179Y75880D01*
G01X1753812Y92205D01*
G01X1757803Y109367D01*
G01X1772367Y106076D01*
G01X1787294Y106432D01*
G01X1801685Y110415D01*
G01X1814671Y117784D01*
G01X1825470Y128095D01*
G01X1833431Y140727D01*
G01X1838073Y154919D01*
G01X1838986Y167927D01*
G01X1867591Y167927D01*
G01X1869106Y153038D01*
G01X1874211Y138970D01*
G01X1882597Y126574D01*
G01X1882597Y126574D01*
G01X1893757Y116602D01*
G01X1907014Y109657D01*
G01X1921566Y106161D01*
G01X1936531Y106324D01*
G01X1951003Y110137D01*
G01X1964106Y117369D01*
G01X1975045Y127582D01*
G01X1983159Y140157D01*
G01X1987956Y154334D01*
G01X1989146Y169252D01*
G01X1994421Y163978D01*
G01X2010153Y150914D01*
G01X2028018Y140963D01*
G01X2047407Y134464D01*
G01X2067660Y131639D01*
G01X2088088Y132584D01*
G01X2107994Y137266D01*
G01X2126701Y145525D01*
G01X2143571Y157082D01*
G01X2158031Y171542D01*
G01X2169588Y188412D01*
G01X2177847Y207119D01*
G01X2182529Y227025D01*
G01X2183474Y247453D01*
G01X2180649Y267706D01*
G01X2174150Y287095D01*
G01X2164199Y304960D01*
G01X2151135Y320692D01*
G01X2115780Y356048D01*
G01X2099651Y369382D01*
G01X2081303Y379446D01*
G01X2061389Y385882D01*
G01X2040621Y388458D01*
G01X2019739Y387084D01*
G01X1999488Y381809D01*
G01X1980589Y372820D01*
G01X1963717Y360439D01*
G01X1949475Y345106D01*
G01X1938368Y327369D01*
G01X1930795Y307860D01*
G01X1927024Y287276D01*
G01X1927190Y266349D01*
G01X1931288Y245827D01*
G01X1939172Y226441D01*
G01X1924228Y227262D01*
G01X1909537Y224408D01*
G01X1895987Y218053D01*
G01X1884400Y208581D01*
G01X1875477Y196566D01*
G01X1869759Y182735D01*
G01X1867591Y167927D01*
G01X1838986Y167927D01*
G01X1839119Y169813D01*
G01X1836503Y184514D01*
G01X1830384Y198134D01*
G01X1821131Y209852D01*
G01X1809301Y218963D01*
G01X1795608Y224916D01*
G01X1780877Y227354D01*
G01X1765996Y226128D01*
G01X1751863Y221314D01*
G01X1739328Y213200D01*
G01X1729148Y202277D01*
G01X1713728Y216082D01*
G01X1696031Y226814D01*
G01X1676662Y234108D01*
G01X1656281Y237713D01*
G01X1635586Y237507D01*
G01X1615281Y233497D01*
G01X1596061Y225820D01*
G01X1578581Y214737D01*
G01X1563438Y200628D01*
G01X1551150Y183974D01*
G01X1542136Y165344D01*
G01X1536703Y145373D01*
G01X1535037Y124743D01*
G01X1537195Y104159D01*
G01X1543103Y84323D01*
G01X1552560Y65913D01*
G01X1565243Y49557D01*
G01X1580718Y35814D01*
G01X1450344Y35814D01*
G01X1436061Y37423D01*
G01X1422495Y42170D01*
G01X1410325Y49817D01*
G01X1400161Y59981D01*
G01X1392514Y72151D01*
G01X1387767Y85717D01*
G01X1386158Y100000D01*
G01X1386158Y166590D01*
G01X1417576Y166590D01*
G01X1419343Y152037D01*
G01X1424542Y138329D01*
G01X1432870Y126263D01*
G01X1443844Y116542D01*
G01X1456825Y109728D01*
G01X1471060Y106220D01*
G01X1485721Y106220D01*
G01X1499955Y109728D01*
G01X1512936Y116542D01*
G01X1523910Y126263D01*
G01X1532238Y138329D01*
G01X1537437Y152037D01*
G01X1539204Y166590D01*
G01X1537437Y181144D01*
G01X1532238Y194852D01*
G01X1523910Y206918D01*
G01X1512936Y216639D01*
G01X1499955Y223453D01*
G01X1485721Y226961D01*
G01X1471060Y226961D01*
G01X1456825Y223453D01*
G01X1443844Y216639D01*
G01X1432870Y206918D01*
G01X1424542Y194852D01*
G01X1419343Y181144D01*
G01X1417576Y166590D01*
G01X1417576Y166590D01*
G01X1386158Y166590D01*
G01X1386158Y380081D01*
G01X1535029Y380081D01*
G01X1536936Y359498D01*
G01X1542593Y339616D01*
G01X1551807Y321113D01*
G01X1564264Y304617D01*
G01X1579540Y290691D01*
G01X1597114Y279810D01*
G01X1616389Y272343D01*
G01X1636708Y268544D01*
G01X1657379Y268544D01*
G01X1677697Y272343D01*
G01X1696972Y279810D01*
G01X1714547Y290691D01*
G01X1729823Y304617D01*
G01X1742279Y321113D01*
G01X1751493Y339616D01*
G01X1757150Y359498D01*
G01X1759057Y380081D01*
G01X1759057Y380081D01*
G01X1757150Y400663D01*
G01X1751493Y420545D01*
G01X1742279Y439048D01*
G01X1729823Y455544D01*
G01X1714547Y469470D01*
G01X1696972Y480351D01*
G01X1677697Y487818D01*
G01X1657379Y491617D01*
G01X1636708Y491617D01*
G01X1616389Y487818D01*
G01X1597114Y480351D01*
G01X1579540Y469470D01*
G01X1564264Y455544D01*
G01X1551807Y439048D01*
G01X1542593Y420545D01*
G01X1536936Y400663D01*
G01X1535029Y380081D01*
G01X1386158Y380081D01*
G01X1386158Y549999D01*
G01X1384486Y571245D01*
G01X1379511Y591967D01*
G01X1371355Y611657D01*
G01X1361602Y627572D01*
G01X1535218Y627572D01*
G01X1538474Y606515D01*
G01X1545658Y586455D01*
G01X1556511Y568118D01*
G01X1570640Y552168D01*
G01X1587533Y539182D01*
G01X1606580Y529630D01*
G01X1627091Y523858D01*
G01X1648325Y522074D01*
G01X1669511Y524343D01*
G01X1689885Y530583D01*
G01X1708708Y540568D01*
G01X1725300Y553937D01*
G01X1739061Y570206D01*
G01X1751103Y562242D01*
G01X1764683Y557341D01*
G01X1779036Y555780D01*
G01X1793353Y557646D01*
G01X1806826Y562834D01*
G01X1818696Y571052D01*
G01X1828295Y581836D01*
G01X1835081Y594580D01*
G01X1838672Y608564D01*
G01X1838672Y608564D01*
G01X1838780Y616591D01*
G01X2017576Y616591D01*
G01X2019343Y602037D01*
G01X2024542Y588329D01*
G01X2032870Y576263D01*
G01X2043844Y566542D01*
G01X2056825Y559729D01*
G01X2071060Y556220D01*
G01X2085721Y556220D01*
G01X2099955Y559729D01*
G01X2112937Y566542D01*
G01X2123910Y576263D01*
G01X2132238Y588329D01*
G01X2137437Y602037D01*
G01X2139204Y616591D01*
G01X2137437Y631144D01*
G01X2132238Y644852D01*
G01X2123910Y656918D01*
G01X2112937Y666639D01*
G01X2099955Y673453D01*
G01X2085721Y676961D01*
G01X2071060Y676961D01*
G01X2056825Y673453D01*
G01X2043844Y666639D01*
G01X2032870Y656918D01*
G01X2024542Y644852D01*
G01X2019343Y631144D01*
G01X2017576Y616591D01*
G01X2017576Y616591D01*
G01X1838780Y616591D01*
G01X1838865Y623000D01*
G01X1835650Y637075D01*
G01X1829208Y649995D01*
G01X1819902Y661033D01*
G01X1808256Y669566D01*
G01X1794926Y675113D01*
G01X1780665Y677362D01*
G01X1766275Y676186D01*
G01X1752569Y671650D01*
G01X1743545Y690953D01*
G01X1731030Y708198D01*
G01X1715475Y722761D01*
G01X1697444Y734115D01*
G01X1677589Y741849D01*
G01X1656629Y745684D01*
G01X1635323Y745480D01*
G01X1614440Y741245D01*
G01X1594737Y733132D01*
G01X1576927Y721435D01*
G01X1561654Y706577D01*
G01X1549470Y689096D01*
G01X1540818Y669624D01*
G01X1536009Y648866D01*
G01X1535218Y627572D01*
G01X1361602Y627572D01*
G01X1360220Y629828D01*
G01X1346379Y646034D01*
G01X1330173Y659875D01*
G01X1312002Y671010D01*
G01X1292313Y679165D01*
G01X1271590Y684141D01*
G01X1250344Y685813D01*
G01X519999Y685813D01*
G01X498753Y684141D01*
G01X478030Y679165D01*
G01X458341Y671010D01*
G01X440170Y659875D01*
G01X423964Y646034D01*
G01X410123Y629828D01*
G01X398988Y611657D01*
G01X390832Y591967D01*
G01X385857Y571245D01*
G01X384185Y549999D01*
G01X384185Y100000D01*
G01X382576Y85717D01*
G01X377829Y72151D01*
G01X370182Y59981D01*
G01X360018Y49817D01*
G01X347848Y42170D01*
G01X334282Y37423D01*
G01X319999Y35814D01*
G01X189369Y35814D01*
G01X204694Y49397D01*
G01X217290Y65543D01*
G01X226736Y83713D01*
G01X232716Y103298D01*
G01X235031Y123645D01*
G01X233603Y144074D01*
G01X228479Y163900D01*
G01X219832Y182463D01*
G01X207950Y199142D01*
G01X193230Y213378D01*
G01X176164Y224697D01*
G01X157323Y232720D01*
G01X137336Y237179D01*
G01X116872Y237924D01*
G01X118339Y253166D01*
G01X115952Y268291D01*
G01X134393Y268643D01*
G01X152527Y272016D01*
G01X169861Y278320D01*
G01X185925Y287382D01*
G01X200285Y298958D01*
G01X212550Y312733D01*
G01X222388Y328334D01*
G01X229533Y345339D01*
G01X233791Y363285D01*
G01X235046Y381687D01*
G01X233264Y400045D01*
G01X228493Y417861D01*
G01X220864Y434654D01*
G01X210582Y449967D01*
G01X223430Y456883D01*
G01X234260Y466661D01*
G01X242449Y478737D01*
G01X247526Y492417D01*
G01X249199Y506911D01*
G01X247371Y521387D01*
G01X242147Y535011D01*
G01X233829Y546999D01*
G01X222894Y556660D01*
G01X209973Y563439D01*
G01X220600Y579037D01*
G01X228457Y596198D01*
G01X233321Y614435D01*
G01X235054Y633230D01*
G01X233607Y652049D01*
G01X229020Y670357D01*
G01X221425Y687636D01*
G01X211036Y703394D01*
G01X225102Y709702D01*
G01X237129Y719343D01*
G01X246347Y731699D01*
G01X252161Y745975D01*
G01X254199Y761255D01*
G01X253547Y766591D01*
G01X1417576Y766591D01*
G01X1419343Y752037D01*
G01X1424542Y738329D01*
G01X1432870Y726263D01*
G01X1443844Y716542D01*
G01X1456825Y709729D01*
G01X1471060Y706220D01*
G01X1485721Y706220D01*
G01X1499955Y709729D01*
G01X1512936Y716542D01*
G01X1523910Y726263D01*
G01X1532238Y738329D01*
G01X1537437Y752037D01*
G01X1539204Y766591D01*
G01X1717576Y766591D01*
G01X1719343Y752037D01*
G01X1724542Y738329D01*
G01X1732870Y726263D01*
G01X1743844Y716542D01*
G01X1756825Y709729D01*
G01X1771060Y706220D01*
G01X1785720Y706220D01*
G01X1799955Y709729D01*
G01X1812936Y716542D01*
G01X1823910Y726263D01*
G01X1832238Y738329D01*
G01X1837437Y752037D01*
G01X1839204Y766591D01*
G01X1837437Y781144D01*
G01X1832238Y794852D01*
G01X1823910Y806918D01*
G01X1812936Y816639D01*
G01X1799955Y823453D01*
G01X1785720Y826961D01*
G01X1771060Y826961D01*
G01X1756825Y823453D01*
G01X1743844Y816639D01*
G01X1732870Y806918D01*
G01X1724542Y794852D01*
G01X1719343Y781144D01*
G01X1717576Y766591D01*
G01X1717576Y766591D01*
G01X1539204Y766591D01*
G01X1539204Y766591D01*
G01X1537437Y781144D01*
G01X1532238Y794852D01*
G01X1523910Y806918D01*
G01X1512936Y816639D01*
G01X1499955Y823453D01*
G01X1485721Y826961D01*
G01X1471060Y826961D01*
G01X1456825Y823453D01*
G01X1443844Y816639D01*
G01X1432870Y806918D01*
G01X1424542Y794852D01*
G01X1419343Y781144D01*
G01X1417576Y766591D01*
G01X1417576Y766591D01*
G01X253547Y766591D01*
G01X252330Y776556D01*
G01X246673Y790896D01*
G01X237593Y803353D01*
G01X225672Y813126D01*
G01X211677Y819588D01*
G01X221639Y834921D01*
G01X228974Y851669D01*
G01X233486Y869388D01*
G01X235056Y887605D01*
G01X233641Y905834D01*
G01X230999Y916590D01*
G01X667576Y916590D01*
G01X669343Y902037D01*
G01X674542Y888329D01*
G01X682870Y876263D01*
G01X693844Y866542D01*
G01X706825Y859728D01*
G01X721060Y856220D01*
G01X735721Y856220D01*
G01X749955Y859728D01*
G01X762936Y866542D01*
G01X773910Y876263D01*
G01X782238Y888329D01*
G01X787437Y902037D01*
G01X789204Y916590D01*
G01X967576Y916590D01*
G01X969343Y902037D01*
G01X974542Y888329D01*
G01X982870Y876263D01*
G01X993844Y866542D01*
G01X1006825Y859728D01*
G01X1021060Y856220D01*
G01X1035720Y856220D01*
G01X1049955Y859728D01*
G01X1062936Y866542D01*
G01X1073910Y876263D01*
G01X1082238Y888329D01*
G01X1087437Y902037D01*
G01X1089204Y916590D01*
G01X1267576Y916590D01*
G01X1269343Y902037D01*
G01X1274542Y888329D01*
G01X1282870Y876263D01*
G01X1293844Y866542D01*
G01X1306825Y859728D01*
G01X1321060Y856220D01*
G01X1335721Y856220D01*
G01X1349955Y859728D01*
G01X1362937Y866542D01*
G01X1373910Y876263D01*
G01X1379338Y884127D01*
G01X1535099Y884127D01*
G01X1537578Y864320D01*
G01X1543534Y845268D01*
G01X1552776Y827575D01*
G01X1565012Y811804D01*
G01X1579853Y798455D01*
G01X1596828Y787953D01*
G01X1615398Y780630D01*
G01X1634972Y776719D01*
G01X1654930Y776345D01*
G01X1674637Y779519D01*
G01X1693468Y786140D01*
G01X1710825Y795999D01*
G01X1726156Y808782D01*
G01X1738975Y824083D01*
G01X1748875Y841417D01*
G01X1755540Y860233D01*
G01X1769657Y856407D01*
G01X1784278Y856062D01*
G01X1798559Y859219D01*
G01X1811674Y865693D01*
G01X1822863Y875112D01*
G01X1831480Y886929D01*
G01X1837026Y900462D01*
G01X1839181Y914928D01*
G01X1837820Y929490D01*
G01X1837820Y929490D01*
G01X1833022Y943306D01*
G01X1825063Y955577D01*
G01X1814405Y965593D01*
G01X1801664Y972775D01*
G01X1787577Y976706D01*
G01X1772959Y977161D01*
G01X1758654Y974113D01*
G01X1745491Y967737D01*
G01X1734231Y958404D01*
G01X1720365Y972763D01*
G01X1704170Y984432D01*
G01X1686161Y993042D01*
G01X1666910Y998319D01*
G01X1647028Y1000095D01*
G01X1627146Y998313D01*
G01X1607896Y993031D01*
G01X1589890Y984416D01*
G01X1573698Y972742D01*
G01X1559836Y958380D01*
G01X1548743Y941785D01*
G01X1540771Y923484D01*
G01X1536175Y904059D01*
G01X1535099Y884127D01*
G01X1379338Y884127D01*
G01X1382238Y888329D01*
G01X1387437Y902037D01*
G01X1389204Y916590D01*
G01X1387437Y931144D01*
G01X1382238Y944852D01*
G01X1373910Y956918D01*
G01X1362937Y966639D01*
G01X1349955Y973453D01*
G01X1335721Y976961D01*
G01X1321060Y976961D01*
G01X1306825Y973453D01*
G01X1293844Y966639D01*
G01X1282870Y956918D01*
G01X1274542Y944852D01*
G01X1269343Y931144D01*
G01X1267576Y916590D01*
G01X1267576Y916590D01*
G01X1089204Y916590D01*
G01X1089204Y916590D01*
G01X1087437Y931144D01*
G01X1082238Y944852D01*
G01X1073910Y956918D01*
G01X1062936Y966639D01*
G01X1049955Y973453D01*
G01X1035720Y976961D01*
G01X1021060Y976961D01*
G01X1006825Y973453D01*
G01X993844Y966639D01*
G01X982870Y956918D01*
G01X974542Y944852D01*
G01X969343Y931144D01*
G01X967576Y916590D01*
G01X967576Y916590D01*
G01X789204Y916590D01*
G01X789204Y916590D01*
G01X787437Y931144D01*
G01X782238Y944852D01*
G01X773910Y956918D01*
G01X762936Y966639D01*
G01X749955Y973453D01*
G01X735721Y976961D01*
G01X721060Y976961D01*
G01X706825Y973453D01*
G01X693844Y966639D01*
G01X682870Y956918D01*
G01X674542Y944852D01*
G01X669343Y931144D01*
G01X667576Y916590D01*
G01X667576Y916590D01*
G01X230999Y916590D01*
G01X229280Y923591D01*
G01X222087Y940401D01*
G01X212256Y955817D01*
G01X200047Y969429D01*
G01X185787Y980873D01*
G01X169855Y989844D01*
G01X152675Y996104D01*
G01X134706Y999486D01*
G01X116427Y999899D01*
G01X118367Y1015078D01*
G01X116456Y1030260D01*
G37*
G54D10*
G01X2464986Y2907172D02*
G01X2464986Y2004981D01*
G03X2355078Y1969091I-49094J-35890D01*
G03X2464986Y1933200I60814J0D01*
G01X2464986Y1855672D01*
G03X2357578Y1816591I-46594J-39081D01*
G03X2464986Y1777509I60814J0D01*
G01X2464986Y492173D01*
G02X2446227Y446827I-64186J0D01*
G01X2442070Y442663D01*
G01X2426602Y458130D01*
G03X2416300Y479791I-35626J-3663D01*
G01X2274879Y621213D01*
G03X2253218Y631515I-25324J-25324D01*
G01X2145664Y739068D01*
G03X2178895Y842094I-9771J60024D01*
G03X2075869Y808863I-43002J-43002D01*
G01X1986399Y898333D01*
G03X1971392Y959592I-58009J18257D01*
G03X1910133Y974599I-43002J-43002D01*
G01X1794356Y1090376D01*
G03X1769031Y1100866I-25324J-25324D01*
G01X1751199Y1100866D01*
G03X1647040Y1254095I-104156J41215D01*
G03X1542889Y1100860I3J-112014D01*
G01X571673Y1100836D01*
G03X545432Y1134892I-83012J-36826D01*
G03X488661Y1296588I-56771J70882D01*
G03X431890Y1134892I0J-90814D01*
G03X405647Y1100831I56771J-70882D01*
G01X328650Y1100829D01*
G03X228129Y1100827I-50260J-34239D01*
G01X227184Y1100827D01*
G03X116151Y1253882I-104141J41254D01*
G03X116711Y1284246I-58598J16267D01*
G03X222052Y1343693I6333J111835D01*
G03X338137Y1355249I56339J22898D01*
G03X234362Y1408541I-59747J11342D01*
G03X115855Y1507864I-111319J-12461D01*
G03X116946Y1538233I-58302J17298D01*
G03X232570Y1626605I6098J111848D01*
G03X338863Y1673018I45820J39985D01*
G03X225189Y1696052I-60473J-6427D01*
G03X116283Y1761890I-102146J-45971D01*
G03X116594Y1792252I-58730J15784D01*
G03X232829Y1926310I6450J111828D01*
G03X334808Y1989293I45561J40281D01*
G03X217628Y1964088I-56418J-22702D01*
G03X116668Y2015913I-94584J-60008D01*
G03X116200Y2046276I-59115J14274D01*
G03X235049Y2156708I6843J111805D01*
G03X118942Y2270019I-112006J1373D01*
G03X119003Y2300139I-58889J15180D01*
G03X235033Y2409736I4040J111941D01*
G03X123692Y2524093I-111989J2345D01*
G03X124266Y2554073I-58639J16119D01*
G03X235018Y2669026I-1223J112007D01*
G03X118376Y2777997I-111975J-2946D01*
G03X119483Y2808123I-58323J17227D01*
G03X217884Y2860479I3560J111957D01*
G03X334333Y2842743I60506J6112D01*
G03X367505Y2791591I92799J23848D01*
G03X367505Y2641591I59627J-75000D01*
G03X334333Y2590438I59627J-75000D01*
G03X217576Y2566591I-55943J-23848D01*
G03X334333Y2542743I60814J0D01*
G03X367506Y2491591I92799J23848D01*
G03X427132Y2320777I59626J-75000D01*
G03X486758Y2491591I0J95814D01*
G03X520882Y2546812I-59626J75000D01*
G03X639204Y2566591I57508J19778D01*
G03X520882Y2586369I-60814J0D01*
G03X486759Y2641591I-93750J-19778D01*
G03X486759Y2791591I-59627J75000D01*
G03X520882Y2846812I-59627J75000D01*
G03X609182Y2814148I57508J19778D01*
G03X623684Y2907172I-30791J52443D01*
G01X730103Y2907172D01*
G03X831090Y2746692I100986J-48465D01*
G03X932076Y2907172I0J112014D01*
G01X984103Y2907172D01*
G03X1010856Y2774822I100986J-48465D01*
G03X1005855Y2660106I17534J-58231D01*
G03X1081193Y2746760I22535J56484D01*
G03X1186076Y2907172I3896J111946D01*
G01X1238103Y2907172D01*
G03X1285918Y2760116I100986J-48465D01*
G03X1323825Y2655948I42472J-43526D01*
G03X1376900Y2753267I4565J60642D01*
G03X1443081Y2817077I-37811J105440D01*
G03X1523713Y2826042I35310J49513D01*
G03X1523684Y2907172I-45323J40548D01*
G01X1535775Y2907172D01*
G03X1724239Y2838914I111268J12909D01*
G03X1812805Y2816451I54151J27676D01*
G03X1823684Y2907172I-34415J50139D01*
G01X2033097Y2907172D01*
G03X2078390Y2805777I45294J-40581D01*
G03X2123684Y2907172I0J60814D01*
G01X2333097Y2907172D01*
G03X2378390Y2805777I45294J-40581D01*
G03X2423684Y2907172I0J60814D01*
G01X2464986Y2907172D01*
G01X217576Y2266591D02*
G03X339204Y2266591I60814J0D01*
G03X217576Y2266591I-60814J0D01*
G01X367576Y1816591D02*
G03X489204Y1816591I60814J0D01*
G03X367576Y1816591I-60814J0D01*
G01X367576Y2116591D02*
G03X489204Y2116591I60814J0D01*
G03X367576Y2116591I-60814J0D01*
G01X367576Y1516591D02*
G03X489204Y1516591I60814J0D01*
G03X367576Y1516591I-60814J0D01*
G01X517576Y1366591D02*
G03X639204Y1366591I60814J0D01*
G03X517576Y1366591I-60814J0D01*
G01X517576Y2266591D02*
G03X639204Y2266591I60814J0D01*
G03X517576Y2266591I-60814J0D01*
G01X517576Y1966591D02*
G03X639204Y1966591I60814J0D01*
G03X517576Y1966591I-60814J0D01*
G01X517576Y1666591D02*
G03X639204Y1666591I60814J0D01*
G03X517576Y1666591I-60814J0D01*
G01X667576Y2716591D02*
G03X789204Y2716591I60814J0D01*
G03X667576Y2716591I-60814J0D01*
G01X667576Y1216591D02*
G03X789204Y1216591I60814J0D01*
G03X667576Y1216591I-60814J0D01*
G01X667576Y2116591D02*
G03X789204Y2116591I60814J0D01*
G03X667576Y2116591I-60814J0D01*
G01X667576Y1816591D02*
G03X789204Y1816591I60814J0D01*
G03X667576Y1816591I-60814J0D01*
G01X667576Y1516591D02*
G03X789204Y1516591I60814J0D01*
G03X667576Y1516591I-60814J0D01*
G01X817576Y1366591D02*
G03X939204Y1366591I60814J0D01*
G03X817576Y1366591I-60814J0D01*
G01X817576Y1966591D02*
G03X939204Y1966591I60814J0D01*
G03X817576Y1966591I-60814J0D01*
G01X817576Y1666591D02*
G03X939204Y1666591I60814J0D01*
G03X817576Y1666591I-60814J0D01*
G01X967576Y1216591D02*
G03X1089204Y1216591I60814J0D01*
G03X967576Y1216591I-60814J0D01*
G01X967576Y2116591D02*
G03X1089204Y2116591I60814J0D01*
G03X967576Y2116591I-60814J0D01*
G01X967576Y1816591D02*
G03X1089204Y1816591I60814J0D01*
G03X967576Y1816591I-60814J0D01*
G01X967576Y1516591D02*
G03X1089204Y1516591I60814J0D01*
G03X967576Y1516591I-60814J0D01*
G01X1117576Y2566591D02*
G03X1239204Y2566591I60814J0D01*
G03X1117576Y2566591I-60814J0D01*
G01X1117576Y1366591D02*
G03X1239204Y1366591I60814J0D01*
G03X1117576Y1366591I-60814J0D01*
G01X1117576Y2266591D02*
G03X1239204Y2266591I60814J0D01*
G03X1117576Y2266591I-60814J0D01*
G01X1117576Y1966591D02*
G03X1239204Y1966591I60814J0D01*
G03X1117576Y1966591I-60814J0D01*
G01X1117576Y1666591D02*
G03X1239204Y1666591I60814J0D01*
G03X1117576Y1666591I-60814J0D01*
G01X1267576Y1216591D02*
G03X1389204Y1216591I60814J0D01*
G03X1267576Y1216591I-60814J0D01*
G01X1267576Y1816591D02*
G03X1389204Y1816591I60814J0D01*
G03X1267576Y1816591I-60814J0D01*
G01X1267576Y1516591D02*
G03X1389204Y1516591I60814J0D01*
G03X1267576Y1516591I-60814J0D01*
G01X1379256Y2160105D02*
G03X1500884Y2160105I60814J0D01*
G03X1379256Y2160105I-60814J0D01*
G01X1406758Y1875092D02*
G03X1528386Y1875092I60814J0D01*
G03X1406758Y1875092I-60814J0D01*
G01X1417576Y2566591D02*
G03X1539204Y2566591I60814J0D01*
G03X1417576Y2566591I-60814J0D01*
G01X1418485Y1356116D02*
G03X1539199Y1365802I59905J10475D01*
G03X1757383Y1415374I107844J30278D01*
G03X1535323Y1387967I-110340J-19294D01*
G03X1418485Y1356116I-56933J-21376D01*
G01X1417866Y1672515D02*
G03X1535155Y1644771I60525J-5925D01*
G03X1758524Y1639167I111888J5309D01*
G03X1538309Y1676987I-111481J10913D01*
G03X1417866Y1672515I-59919J-10397D01*
G01X1545899Y1855945D02*
G03X1758951Y1908967I101144J48136D01*
G03X1833303Y1992724I19440J57623D01*
G03X1721411Y1987845I-54912J-26134D01*
G03X1545899Y1855945I-74368J-83765D01*
G01X1736121Y2479995D02*
G03X1535037Y2413379I-89078J-67914D01*
G03X1734522Y2342120I112006J-1298D01*
G03X1785189Y2287612I60565J5495D01*
G03X1734278Y2228346I9899J-60003D01*
G03X1535066Y2155226I-87235J-70265D01*
G03X1737745Y2092351I111978J2854D01*
G03X1838261Y2069773I57343J20252D01*
G03X1814881Y2170106I-43173J42830D01*
G03X1855687Y2232711I-19793J57503D01*
G03X1804986Y2287612I-60600J-5103D01*
G03X1855829Y2344648I-9899J60003D01*
G03X1810786Y2406367I-60742J2966D01*
G03X1855754Y2460893I-15698J58753D01*
G03X1818782Y2521128I-60667J4227D01*
G03X1828075Y2601658I-40392J45462D01*
G03X1749085Y2619878I-49685J-35068D01*
G03X1557753Y2733714I-102041J46203D01*
G03X1719157Y2580368I89291J-67634D01*
G03X1754696Y2510583I59233J-13777D01*
G03X1736121Y2479995I40392J-45462D01*
G01X1867576Y2716591D02*
G03X1989204Y2716591I60814J0D01*
G03X1867576Y2716591I-60814J0D01*
G01X1867576Y1216591D02*
G03X1989204Y1216591I60814J0D01*
G03X1867576Y1216591I-60814J0D01*
G01X1867576Y1516591D02*
G03X1989204Y1516591I60814J0D01*
G03X1867576Y1516591I-60814J0D01*
G01X1909282Y1646801D02*
G03X2030910Y1646801I60814J0D01*
G03X1909282Y1646801I-60814J0D01*
G01X1915079Y1851592D02*
G03X2036707Y1851592I60814J0D01*
G03X1915079Y1851592I-60814J0D01*
G01X1922572Y1369091D02*
G03X2044200Y1369091I60814J0D01*
G03X1922572Y1369091I-60814J0D01*
G01X2017576Y2566591D02*
G03X2139204Y2566591I60814J0D01*
G03X2017576Y2566591I-60814J0D01*
G01X2326964Y2480060D02*
G03X2301550Y2505474I-25414J0D01*
G01X2066310Y2505474D01*
G03X2040896Y2480060I0J-25414D01*
G01X2040896Y2194820D01*
G03X2066310Y2169406I25414J0D01*
G01X2301550Y2169406D01*
G03X2326964Y2194820I0J25414D01*
G01X2326964Y2284070D01*
G03X2412445Y2339657I24667J55587D01*
G03X2326964Y2395244I-60814J0D01*
G01X2326964Y2480060D01*
G01X2075079Y1199097D02*
G03X2196707Y1199097I60814J0D01*
G03X2075079Y1199097I-60814J0D01*
G01X2247524Y1789680D02*
G03X2222110Y1815094I-25414J0D01*
G01X2148110Y1815094D01*
G03X2122696Y1789680I0J-25414D01*
G01X2122696Y1715510D01*
G03X2148110Y1690096I25414J0D01*
G01X2222110Y1690096D01*
G03X2247524Y1715510I0J25414D01*
G01X2247524Y1789680D01*
G01X2125082Y1519091D02*
G03X2246710Y1519091I60814J0D01*
G03X2125082Y1519091I-60814J0D01*
G01X2167576Y2716591D02*
G03X2289204Y2716591I60814J0D01*
G03X2167576Y2716591I-60814J0D01*
G01X2178801Y1965096D02*
G03X2300429Y1965096I60814J0D01*
G03X2178801Y1965096I-60814J0D01*
G01X2249299Y2107603D02*
G03X2370927Y2107603I60814J0D01*
G03X2249299Y2107603I-60814J0D01*
G01X2317576Y766591D02*
G03X2439204Y766591I60814J0D01*
G03X2317576Y766591I-60814J0D01*
G01X2317576Y1366591D02*
G03X2439204Y1366591I60814J0D01*
G03X2317576Y1366591I-60814J0D01*
G01X2317576Y1066591D02*
G03X2439204Y1066591I60814J0D01*
G03X2317576Y1066591I-60814J0D01*
G01X2341803Y1644301D02*
G03X2463431Y1644301I60814J0D01*
G03X2341803Y1644301I-60814J0D01*
G01X116456Y1030260D02*
G03X193316Y1054852I6587J111820D01*
G01X218720Y1054853D01*
G03X278392Y1005777I59670J11738D01*
G03X338061Y1054856I-2J60814D01*
G01X398309Y1054857D01*
G03X579013Y1054862I90352J9153D01*
G01X1576726Y1054887D01*
G03X1717364Y1054891I70317J87193D01*
G01X1764823Y1054892D01*
G01X1874653Y945062D01*
G03X1885388Y873589I53737J-28472D01*
G03X1956862Y862853I43002J43002D01*
G01X2211366Y608349D01*
G01X2118164Y515147D01*
G01X2116818Y513725D01*
G03X2019902Y449933I-38428J-47134D01*
G03X2135886Y446776I58488J16658D01*
G01X2208576Y374086D01*
G03X2191568Y268192I19814J-57496D01*
G03X2289088Y312831I36823J48399D01*
G03X2310234Y323077I-4178J35569D01*
G01X2403436Y416279D01*
G01X2409590Y410125D01*
G01X2054753Y54654D01*
G02X2009326Y35814I-45427J45346D01*
G01X1713369Y35814D01*
G03X1757803Y109367I-66326J90267D01*
G03X1836503Y184514I20587J57223D01*
G03X1729148Y202277I-58113J-17923D01*
G03X1563438Y200628I-82105J-76197D01*
G03X1580718Y35814I83605J-74548D01*
G01X1450344Y35814D01*
G02X1386158Y100000I0J64186D01*
G01X1386158Y549999D01*
G03X1250344Y685813I-135814J0D01*
G01X519999Y685813D01*
G03X384185Y549999I0J-135814D01*
G01X384185Y100000D01*
G02X319999Y35814I-64186J0D01*
G01X189369Y35814D01*
G03X116872Y237924I-66326J90267D01*
G03X115952Y268291I-59319J13401D01*
G03X222388Y328334I7091J111789D01*
G03X210582Y449967I-99345J51746D01*
G03X249199Y506911I-22196J56619D01*
G03X209973Y563439I-60813J-326D01*
G03X211036Y703394I-86930J70642D01*
G03X254199Y761255I-17650J58196D01*
G03X211677Y819588I-60813J335D01*
G03X222087Y940401I-88634J68492D01*
G03X116427Y999899I-99044J-52321D01*
G03X116456Y1030260I-58874J15238D01*
G01X667576Y916590D02*
G03X789204Y916590I60814J0D01*
G03X667576Y916590I-60814J0D01*
G01X967576Y916590D02*
G03X1089204Y916590I60814J0D01*
G03X967576Y916590I-60814J0D01*
G01X1267576Y916590D02*
G03X1389204Y916590I60814J0D01*
G03X1267576Y916590I-60814J0D01*
G01X1417576Y166590D02*
G03X1539204Y166590I60814J0D01*
G03X1417576Y166590I-60814J0D01*
G01X1417576Y766591D02*
G03X1539204Y766591I60814J0D01*
G03X1417576Y766591I-60814J0D01*
G01X1759057Y380081D02*
G03X1535029Y380081I-112014J0D01*
G03X1759057Y380081I112014J0D01*
G01X1837820Y929490D02*
G03X1734231Y958404I-59430J-12900D01*
G03X1537578Y864320I-87188J-70323D01*
G03X1755540Y860233I109465J23760D01*
G03X1837820Y929490I22850J56358D01*
G01X1838672Y608564D02*
G03X1752569Y671650I-60282J8027D01*
G03X1536009Y648866I-105526J-37570D01*
G03X1739061Y570206I111034J-14785D01*
G03X1838672Y608564I39330J46384D01*
G01X1717576Y766591D02*
G03X1839204Y766591I60814J0D01*
G03X1717576Y766591I-60814J0D01*
G01X1882597Y126574D02*
G03X1989146Y169252I45793J40016D01*
G01X1994421Y163978D01*
G03X2151135Y320692I78357J78357D01*
G01X2115780Y356048D01*
G03X1939172Y226441I-78357J-78357D01*
G03X1882597Y126574I-10781J-59851D01*
G01X2017576Y616591D02*
G03X2139204Y616591I60814J0D01*
G03X2017576Y616591I-60814J0D01*
G54D11*
G01X1722989Y1396081D02*
G01X1748897Y1396081D01*
G01X1571097Y1396081D02*
G01X1545189Y1396081D01*
G01X1647043Y1320135D02*
G01X1647043Y1294227D01*
G01X1647043Y1472027D02*
G01X1647043Y1497935D01*
G01X198989Y126081D02*
G01X224897Y126081D01*
G01X123043Y202027D02*
G01X123043Y227935D01*
G01X2107954Y312866D02*
G01X2126273Y331186D01*
G01X1984569Y330544D02*
G01X1966249Y348864D01*
G01X2125631Y189482D02*
G01X2143951Y171162D01*
G04 Copper End*

G04 Pad Start*
G54D12*
G01X1647043Y126081D03*
G01X1647043Y380081D03*
G01X1647043Y634081D03*
G01X1647043Y888081D03*
G01X1647043Y1142081D03*
G01X1647043Y1396081D03*
G01X1647043Y1650081D03*
G01X1647043Y1904081D03*
G01X1647043Y2158081D03*
G01X1647043Y2412081D03*
G01X1647043Y2666081D03*
G01X1647043Y2920081D03*
G01X1647043Y3174081D03*
G01X123043Y3174081D03*
G01X123043Y2920081D03*
G01X123043Y2666081D03*
G01X123043Y2412081D03*
G01X123043Y2158081D03*
G01X123043Y1904081D03*
G01X123043Y1650081D03*
G01X123043Y1396081D03*
G01X123043Y1142081D03*
G01X123043Y888081D03*
G01X123043Y634081D03*
G01X123043Y380081D03*
G01X123043Y126081D03*
G01X1339090Y2858706D03*
G01X1085090Y2858706D03*
G01X831090Y2858706D03*
G54D13*
G01X427132Y2866591D03*
G01X427132Y2716591D03*
G01X427132Y2566591D03*
G01X427132Y2416591D03*
G54D14*
G01X488661Y1064010D03*
G01X488661Y1205774D03*
G54D15*
G01X2055100Y260013D03*
G54D16*
G01X2267232Y472145D03*
G04 Pad End*

G04 Via Start*
G54D18*
G01X2130104Y1965096D03*
G01X2239615Y1965096D03*
G01X2351631Y2339657D03*
G01X2410118Y2070101D03*
G01X1795088Y2465120D03*
G01X1795088Y2347615D03*
G01X1795088Y2227609D03*
G01X1795088Y2112603D03*
G01X2402617Y1644301D03*
G01X1970096Y1646801D03*
G01X2310113Y2107603D03*
G01X1467572Y1875092D03*
G01X1440070Y2160105D03*
G01X278390Y2866591D03*
G01X578390Y2866591D03*
G01X1478390Y2866591D03*
G01X1778390Y2866591D03*
G01X2078390Y2866591D03*
G01X2378390Y2866591D03*
G01X728390Y2716591D03*
G01X1028390Y2716591D03*
G01X1328390Y2716591D03*
G01X1928390Y2716591D03*
G01X2228390Y2716591D03*
G01X578390Y2566591D03*
G01X1178390Y2566591D03*
G01X1478390Y2566591D03*
G01X1778390Y2566591D03*
G01X2078390Y2566591D03*
G01X278390Y2266591D03*
G01X1178390Y2266591D03*
G01X428390Y2116591D03*
G01X1028390Y2116591D03*
G01X278390Y1966591D03*
G01X578390Y1966591D03*
G01X1178390Y1966591D03*
G01X1778390Y1966591D03*
G01X2415892Y1969091D03*
G01X428390Y1816591D03*
G01X728390Y1816591D03*
G01X1328390Y1816591D03*
G01X1975893Y1851592D03*
G01X2418392Y1816591D03*
G01X278390Y1666591D03*
G01X578390Y1666591D03*
G01X878390Y1666591D03*
G01X1478390Y1666591D03*
G01X428390Y1516591D03*
G01X728390Y1516591D03*
G01X1028390Y1516591D03*
G01X1928390Y1516591D03*
G01X2185896Y1519091D03*
G01X278390Y1366591D03*
G01X578390Y1366591D03*
G01X878390Y1366591D03*
G01X1178390Y1366591D03*
G01X1983386Y1369091D03*
G01X2378390Y1366591D03*
G01X728390Y1216591D03*
G01X1028390Y1216591D03*
G01X1328390Y1216591D03*
G01X1928390Y1216591D03*
G01X278390Y1066591D03*
G01X2135893Y1199097D03*
G01X2378390Y1066591D03*
G01X728390Y916590D03*
G01X1028390Y916590D03*
G01X1328390Y916590D03*
G01X1778390Y916590D03*
G01X1928390Y916590D03*
G01X2135893Y799092D03*
G01X2378390Y766591D03*
G01X1778390Y616591D03*
G01X2078390Y616591D03*
G01X2078390Y466591D03*
G01X2228390Y316591D03*
G01X1478390Y1366591D03*
G01X1328390Y1516591D03*
G01X1178390Y1666591D03*
G01X1028390Y1816591D03*
G01X878390Y1966591D03*
G01X728390Y2116591D03*
G01X578390Y2266591D03*
G01X278390Y2566591D03*
G01X1778390Y766591D03*
G01X1478390Y766591D03*
G01X1778390Y166590D03*
G01X1928390Y166590D03*
G01X1478390Y166590D03*
G01X193386Y761590D03*
G01X188386Y506585D03*
G01X2410118Y2605127D03*
G01X57553Y251326D03*
G01X57553Y506828D03*
G01X57553Y762625D03*
G01X57553Y1015137D03*
G01X57553Y1270150D03*
G01X57553Y1525162D03*
G01X57553Y1777674D03*
G01X57553Y2030187D03*
G01X60053Y2285199D03*
G01X65053Y2540212D03*
G01X60053Y2795224D03*
G04 Via End*

M02*

