;TYPE=PLATED
;Layer: PTH_Through_Via
;EasyEDA Pro v2.2.40.8, 2025-10-17 17:15:36
;Gerber Generator version 0.3
M48
METRIC,LZ,0000.00000
;Hole size 1 = 0.30000 METRIC
T01C0.30000
%
G05
G90
T01
X1.88386Y5.06585
X1.93386Y7.6159
X2.7839Y19.66591
X2.7839Y10.66591
X2.7839Y16.66591
X2.7839Y13.66591
X2.7839Y28.66591
X2.7839Y25.66591
X2.7839Y22.66591
X4.2839Y21.16591
X4.2839Y15.16591
X4.2839Y18.16591
X5.7839Y16.66591
X5.7839Y13.66591
X5.7839Y25.66591
X5.7839Y22.66591
X5.7839Y19.66591
X5.7839Y28.66591
X7.2839Y27.16591
X7.2839Y21.16591
X7.2839Y18.16591
X7.2839Y12.16591
X7.2839Y9.1659
X7.2839Y15.16591
X8.7839Y13.66591
X8.7839Y16.66591
X8.7839Y19.66591
X10.2839Y21.16591
X10.2839Y12.16591
X10.2839Y27.16591
X10.2839Y9.1659
X10.2839Y15.16591
X10.2839Y18.16591
X11.7339Y25.71591
X11.7839Y16.66591
X11.7839Y22.66591
X11.7839Y13.66591
X11.7839Y19.66591
X13.2839Y18.16591
X13.2839Y15.16591
X13.1339Y27.16591
X13.2839Y9.1659
X13.2839Y12.16591
X14.4007Y21.60105
X14.67572Y18.75091
X14.7839Y25.66591
X14.7839Y7.66591
X14.7839Y28.66591
X14.7839Y1.6659
X14.7839Y16.66591
X14.7839Y13.66591
X17.7839Y28.66591
X17.7839Y7.66591
X17.7839Y6.16591
X17.7839Y9.1659
X17.7839Y1.6659
X19.2839Y9.1659
X19.2839Y12.16591
X19.43391Y15.0909
X19.2839Y1.6659
X19.70096Y16.46801
X19.83386Y13.69091
X20.7839Y28.66591
X20.7839Y6.16591
X20.7839Y4.66591
X21.35893Y11.99097
X21.35893Y7.99092
X21.85896Y14.39087
X22.2839Y3.16591
X23.7839Y28.66591
X23.7839Y10.66591
X23.7839Y7.66591
X23.7839Y13.66591
X24.02617Y16.44301
X15.15074Y27.25133
X23.57757Y23.37487
X24.20118Y20.70101
X21.29391Y16.52371
X22.38408Y16.52371
X17.80087Y21.12603
X17.82587Y22.35109
X17.82587Y24.75121
X17.82587Y23.55115
X23.10068Y21.07519
X20.4432Y18.60091
X23.20893Y18.60091
X24.20118Y26.05127
X19.07593Y25.92627
X0.65003Y25.40124
X0.60003Y27.95136
X0.60003Y22.85112
X0.57503Y20.30099
X0.57503Y17.77587
X0.57503Y15.25074
X0.57503Y12.70062
X0.57503Y10.1505
X0.57503Y7.62537
X0.57503Y5.06741
X0.57503Y2.51238
M30