G04 Layer: InnerLayer1*
G04 EasyEDA Pro v2.2.40.8, 2025-10-17 17:15:36*
G04 Gerber Generator version 0.3*
G04 Scale: 100 percent, Rotated: No, Reflected: No*
G04 Dimensions in millimeters*
G04 Leading zeros omitted, absolute positions, 4 integers and 5 decimals*
G04 Generated by one-click*
%FSLAX45Y45*%
%MOMM*%
%AMOval*1,1,$1,$2,$3*1,1,$1,$4,$5*20,1,$1,$2,$3,$4,$5,0*%
%AMRect*21,1,$1,$2,0,0,$3*%
%ADD10C,0.2032*%
%ADD11C,0.254*%
%ADD12Oval,1.5X-0.17678X0.17678X0.17678X-0.17678*%
%ADD13Rect,1.5X2.0X45.0*%
%ADD14C,1.524*%
%ADD15C,1.2*%
%ADD16C,1.1*%
%ADD17C,0.5082*%
%ADD18C,0.5*%
G75*


G04 Copper Start*
G36*
G01X319959Y35734D02*
G01X189260Y35734D01*
G01X205056Y49785D01*
G01X217931Y66554D01*
G01X227426Y85443D01*
G01X233202Y105779D01*
G01X235055Y126839D01*
G01X232917Y147872D01*
G01X226866Y168129D01*
G01X217116Y186887D01*
G01X204015Y203480D01*
G01X188030Y217316D01*
G01X169730Y227901D01*
G01X149767Y234860D01*
G01X128852Y237944D01*
G01X107730Y237043D01*
G01X87153Y232189D01*
G01X67855Y223556D01*
G01X50523Y211450D01*
G01X35774Y196303D01*
G01X35774Y309858D01*
G01X50567Y294673D01*
G01X67957Y282548D01*
G01X87319Y273916D01*
G01X107961Y269087D01*
G01X129143Y268233D01*
G01X150107Y271385D01*
G01X170101Y278431D01*
G01X188410Y289117D01*
G01X204377Y303061D01*
G01X217431Y319765D01*
G01X227105Y338628D01*
G01X233051Y358976D01*
G01X235057Y380081D01*
G01X233051Y401185D01*
G01X227105Y421533D01*
G01X217431Y440396D01*
G01X204377Y457100D01*
G01X188410Y471044D01*
G01X170101Y481730D01*
G01X150107Y488776D01*
G01X129143Y491928D01*
G01X107961Y491074D01*
G01X87319Y486245D01*
G01X67957Y477613D01*
G01X50567Y465488D01*
G01X35774Y450303D01*
G01X35774Y563858D01*
G01X50567Y548673D01*
G01X67957Y536548D01*
G01X87319Y527916D01*
G01X107961Y523087D01*
G01X129143Y522233D01*
G01X150107Y525385D01*
G01X170101Y532431D01*
G01X188410Y543117D01*
G01X204377Y557061D01*
G01X217431Y573765D01*
G01X227105Y592628D01*
G01X233051Y612976D01*
G01X235057Y634081D01*
G01X233051Y655185D01*
G01X227105Y675533D01*
G01X217431Y694396D01*
G01X204377Y711100D01*
G01X188410Y725044D01*
G01X170101Y735730D01*
G01X150107Y742776D01*
G01X129143Y745928D01*
G01X107961Y745074D01*
G01X87319Y740245D01*
G01X67957Y731613D01*
G01X50567Y719488D01*
G01X35774Y704303D01*
G01X35774Y817858D01*
G01X50567Y802673D01*
G01X67957Y790548D01*
G01X87319Y781916D01*
G01X107961Y777087D01*
G01X129143Y776233D01*
G01X150107Y779385D01*
G01X170101Y786431D01*
G01X188410Y797117D01*
G01X204377Y811061D01*
G01X217431Y827765D01*
G01X227105Y846628D01*
G01X233051Y866976D01*
G01X235057Y888081D01*
G01X1535029Y888081D01*
G01X1536936Y867498D01*
G01X1542593Y847616D01*
G01X1551807Y829113D01*
G01X1564264Y812617D01*
G01X1579540Y798691D01*
G01X1597114Y787810D01*
G01X1616389Y780343D01*
G01X1636708Y776544D01*
G01X1657379Y776544D01*
G01X1677697Y780343D01*
G01X1696972Y787810D01*
G01X1714547Y798691D01*
G01X1729823Y812617D01*
G01X1742279Y829113D01*
G01X1751493Y847616D01*
G01X1757150Y867498D01*
G01X1759057Y888081D01*
G01X1759057Y888081D01*
G01X1757150Y908663D01*
G01X1751493Y928545D01*
G01X1742279Y947048D01*
G01X1729823Y963544D01*
G01X1714547Y977470D01*
G01X1696972Y988351D01*
G01X1677697Y995818D01*
G01X1657379Y999617D01*
G01X1636708Y999617D01*
G01X1616389Y995818D01*
G01X1597114Y988351D01*
G01X1579540Y977470D01*
G01X1564264Y963544D01*
G01X1551807Y947048D01*
G01X1542593Y928545D01*
G01X1536936Y908663D01*
G01X1535029Y888081D01*
G01X235057Y888081D01*
G01X235057Y888081D01*
G01X233051Y909185D01*
G01X227105Y929533D01*
G01X217431Y948396D01*
G01X204377Y965100D01*
G01X188410Y979044D01*
G01X170101Y989730D01*
G01X150107Y996776D01*
G01X129143Y999928D01*
G01X107961Y999074D01*
G01X87319Y994245D01*
G01X67957Y985613D01*
G01X50567Y973488D01*
G01X35774Y958303D01*
G01X35774Y1071858D01*
G01X50567Y1056673D01*
G01X67957Y1044548D01*
G01X87319Y1035916D01*
G01X107961Y1031087D01*
G01X129143Y1030233D01*
G01X150107Y1033385D01*
G01X170101Y1040431D01*
G01X188410Y1051117D01*
G01X204377Y1065061D01*
G01X217431Y1081765D01*
G01X227105Y1100628D01*
G01X233051Y1120976D01*
G01X235057Y1142081D01*
G01X233051Y1163185D01*
G01X227105Y1183533D01*
G01X219115Y1199114D01*
G01X398091Y1199114D01*
G01X401357Y1180771D01*
G01X408297Y1163480D01*
G01X418619Y1147969D01*
G01X431890Y1134892D01*
G01X418619Y1121814D01*
G01X408297Y1106303D01*
G01X401357Y1089013D01*
G01X398091Y1070669D01*
G01X398638Y1052046D01*
G01X402975Y1033926D01*
G01X410918Y1017072D01*
G01X422133Y1002194D01*
G01X436148Y989918D01*
G01X452374Y980760D01*
G01X470128Y975107D01*
G01X488661Y973196D01*
G01X488661Y973196D01*
G01X507194Y975107D01*
G01X524948Y980760D01*
G01X541173Y989918D01*
G01X555189Y1002194D01*
G01X566404Y1017072D01*
G01X574347Y1033926D01*
G01X578683Y1052046D01*
G01X579230Y1070669D01*
G01X575965Y1089013D01*
G01X569025Y1106303D01*
G01X558703Y1121814D01*
G01X545432Y1134892D01*
G01X552727Y1142081D01*
G01X1535029Y1142081D01*
G01X1536936Y1121498D01*
G01X1542593Y1101616D01*
G01X1551807Y1083113D01*
G01X1564264Y1066617D01*
G01X1579540Y1052691D01*
G01X1597114Y1041810D01*
G01X1616389Y1034343D01*
G01X1636708Y1030544D01*
G01X1657379Y1030544D01*
G01X1677697Y1034343D01*
G01X1696972Y1041810D01*
G01X1714547Y1052691D01*
G01X1729823Y1066617D01*
G01X1742279Y1083113D01*
G01X1751493Y1101616D01*
G01X1757150Y1121498D01*
G01X1759057Y1142081D01*
G01X1759057Y1142081D01*
G01X1757150Y1162663D01*
G01X1751493Y1182545D01*
G01X1742279Y1201048D01*
G01X1729823Y1217544D01*
G01X1714547Y1231470D01*
G01X1696972Y1242351D01*
G01X1677697Y1249818D01*
G01X1657379Y1253617D01*
G01X1636708Y1253617D01*
G01X1616389Y1249818D01*
G01X1597114Y1242351D01*
G01X1579540Y1231470D01*
G01X1564264Y1217544D01*
G01X1551807Y1201048D01*
G01X1542593Y1182545D01*
G01X1536936Y1162663D01*
G01X1535029Y1142081D01*
G01X552727Y1142081D01*
G01X558703Y1147969D01*
G01X569025Y1163480D01*
G01X575965Y1180771D01*
G01X579230Y1199114D01*
G01X578683Y1217738D01*
G01X574347Y1235858D01*
G01X566404Y1252711D01*
G01X555189Y1267589D01*
G01X541173Y1279866D01*
G01X524948Y1289023D01*
G01X507194Y1294676D01*
G01X488661Y1296588D01*
G01X470128Y1294676D01*
G01X452374Y1289023D01*
G01X436148Y1279866D01*
G01X422133Y1267589D01*
G01X410918Y1252711D01*
G01X402975Y1235858D01*
G01X398638Y1217738D01*
G01X398091Y1199114D01*
G01X219115Y1199114D01*
G01X217431Y1202396D01*
G01X204377Y1219100D01*
G01X188410Y1233044D01*
G01X170101Y1243730D01*
G01X150107Y1250776D01*
G01X129143Y1253928D01*
G01X107961Y1253074D01*
G01X87319Y1248245D01*
G01X67957Y1239613D01*
G01X50567Y1227488D01*
G01X35774Y1212303D01*
G01X35774Y1325858D01*
G01X50567Y1310673D01*
G01X67957Y1298548D01*
G01X87319Y1289916D01*
G01X107961Y1285087D01*
G01X129143Y1284233D01*
G01X150107Y1287385D01*
G01X170101Y1294431D01*
G01X188410Y1305117D01*
G01X204377Y1319061D01*
G01X217431Y1335765D01*
G01X227105Y1354628D01*
G01X233051Y1374976D01*
G01X235057Y1396081D01*
G01X1535029Y1396081D01*
G01X1536936Y1375498D01*
G01X1542593Y1355616D01*
G01X1551807Y1337113D01*
G01X1564264Y1320617D01*
G01X1579540Y1306691D01*
G01X1597114Y1295810D01*
G01X1616389Y1288343D01*
G01X1636708Y1284544D01*
G01X1657379Y1284544D01*
G01X1677697Y1288343D01*
G01X1696972Y1295810D01*
G01X1714547Y1306691D01*
G01X1729823Y1320617D01*
G01X1742279Y1337113D01*
G01X1751493Y1355616D01*
G01X1757150Y1375498D01*
G01X1759057Y1396081D01*
G01X1759057Y1396081D01*
G01X1757150Y1416663D01*
G01X1751493Y1436545D01*
G01X1742279Y1455048D01*
G01X1729823Y1471544D01*
G01X1714547Y1485470D01*
G01X1696972Y1496351D01*
G01X1677697Y1503818D01*
G01X1657379Y1507617D01*
G01X1636708Y1507617D01*
G01X1616389Y1503818D01*
G01X1597114Y1496351D01*
G01X1579540Y1485470D01*
G01X1564264Y1471544D01*
G01X1551807Y1455048D01*
G01X1542593Y1436545D01*
G01X1536936Y1416663D01*
G01X1535029Y1396081D01*
G01X235057Y1396081D01*
G01X235057Y1396081D01*
G01X233051Y1417185D01*
G01X227105Y1437533D01*
G01X217431Y1456396D01*
G01X204377Y1473100D01*
G01X188410Y1487044D01*
G01X170101Y1497730D01*
G01X150107Y1504776D01*
G01X129143Y1507928D01*
G01X107961Y1507074D01*
G01X87319Y1502245D01*
G01X67957Y1493613D01*
G01X50567Y1481488D01*
G01X35774Y1466303D01*
G01X35774Y1579858D01*
G01X50567Y1564673D01*
G01X67957Y1552548D01*
G01X87319Y1543916D01*
G01X107961Y1539087D01*
G01X129143Y1538233D01*
G01X150107Y1541385D01*
G01X170101Y1548431D01*
G01X188410Y1559117D01*
G01X204377Y1573061D01*
G01X217431Y1589765D01*
G01X227105Y1608628D01*
G01X233051Y1628976D01*
G01X235057Y1650081D01*
G01X235057Y1650081D01*
G01X1535029Y1650081D01*
G01X1536936Y1629498D01*
G01X1542593Y1609616D01*
G01X1551807Y1591113D01*
G01X1564264Y1574617D01*
G01X1579540Y1560691D01*
G01X1597114Y1549810D01*
G01X1616389Y1542343D01*
G01X1636708Y1538544D01*
G01X1657379Y1538544D01*
G01X1677697Y1542343D01*
G01X1696972Y1549810D01*
G01X1714547Y1560691D01*
G01X1729823Y1574617D01*
G01X1742279Y1591113D01*
G01X1751493Y1609616D01*
G01X1757150Y1629498D01*
G01X1759057Y1650081D01*
G01X1759057Y1650081D01*
G01X1757150Y1670663D01*
G01X1751493Y1690545D01*
G01X1742279Y1709048D01*
G01X1729823Y1725544D01*
G01X1714547Y1739470D01*
G01X1696972Y1750351D01*
G01X1677697Y1757818D01*
G01X1657379Y1761617D01*
G01X1636708Y1761617D01*
G01X1616389Y1757818D01*
G01X1597114Y1750351D01*
G01X1579540Y1739470D01*
G01X1564264Y1725544D01*
G01X1551807Y1709048D01*
G01X1542593Y1690545D01*
G01X1536936Y1670663D01*
G01X1535029Y1650081D01*
G01X235057Y1650081D01*
G01X233051Y1671185D01*
G01X227105Y1691533D01*
G01X217431Y1710396D01*
G01X204377Y1727100D01*
G01X188410Y1741044D01*
G01X170101Y1751730D01*
G01X150107Y1758776D01*
G01X129143Y1761928D01*
G01X107961Y1761074D01*
G01X87319Y1756245D01*
G01X67957Y1747613D01*
G01X50567Y1735488D01*
G01X35774Y1720303D01*
G01X35774Y1789596D01*
G01X2122651Y1789596D01*
G01X2122651Y1715426D01*
G01X2124586Y1705701D01*
G01X2130095Y1697456D01*
G01X2138340Y1691947D01*
G01X2148065Y1690012D01*
G01X2190643Y1690012D01*
G01X2183119Y1677698D01*
G01X2178708Y1663958D01*
G01X2177659Y1649565D01*
G01X2180031Y1635330D01*
G01X2185690Y1622055D01*
G01X2194317Y1610487D01*
G01X2205427Y1601278D01*
G01X2218394Y1594945D01*
G01X2232488Y1591846D01*
G01X2246916Y1592155D01*
G01X2260865Y1595855D01*
G01X2273549Y1602738D01*
G01X2284254Y1612415D01*
G01X2292378Y1624342D01*
G01X2297462Y1637847D01*
G01X2299222Y1652170D01*
G01X2297557Y1666505D01*
G01X2292562Y1680044D01*
G01X2284517Y1692024D01*
G01X2273876Y1701772D01*
G01X2261237Y1708738D01*
G01X2247314Y1712530D01*
G01X2247479Y1715426D01*
G01X2247479Y1715426D01*
G01X2247479Y1789596D01*
G01X2245545Y1799322D01*
G01X2240036Y1807567D01*
G01X2231791Y1813076D01*
G01X2222065Y1815010D01*
G01X2148065Y1815010D01*
G01X2138340Y1813076D01*
G01X2130095Y1807567D01*
G01X2124586Y1799322D01*
G01X2122651Y1789596D01*
G01X35774Y1789596D01*
G01X35774Y1833858D01*
G01X50567Y1818673D01*
G01X67957Y1806548D01*
G01X87319Y1797916D01*
G01X107961Y1793087D01*
G01X129143Y1792233D01*
G01X150107Y1795385D01*
G01X170101Y1802431D01*
G01X188410Y1813117D01*
G01X204377Y1827061D01*
G01X217431Y1843765D01*
G01X227105Y1862628D01*
G01X233051Y1882976D01*
G01X235057Y1904081D01*
G01X235057Y1904081D01*
G01X1535029Y1904081D01*
G01X1536936Y1883498D01*
G01X1542593Y1863616D01*
G01X1551807Y1845113D01*
G01X1564264Y1828617D01*
G01X1579540Y1814691D01*
G01X1597114Y1803810D01*
G01X1616389Y1796343D01*
G01X1636708Y1792544D01*
G01X1657379Y1792544D01*
G01X1677697Y1796343D01*
G01X1696972Y1803810D01*
G01X1714547Y1814691D01*
G01X1729823Y1828617D01*
G01X1742279Y1845113D01*
G01X1751493Y1863616D01*
G01X1757150Y1883498D01*
G01X1759057Y1904081D01*
G01X1759057Y1904081D01*
G01X1757150Y1924663D01*
G01X1751493Y1944545D01*
G01X1742279Y1963048D01*
G01X1729823Y1979544D01*
G01X1714547Y1993470D01*
G01X1696972Y2004351D01*
G01X1677697Y2011818D01*
G01X1657379Y2015617D01*
G01X1636708Y2015617D01*
G01X1616389Y2011818D01*
G01X1597114Y2004351D01*
G01X1579540Y1993470D01*
G01X1564264Y1979544D01*
G01X1551807Y1963048D01*
G01X1542593Y1944545D01*
G01X1536936Y1924663D01*
G01X1535029Y1904081D01*
G01X235057Y1904081D01*
G01X233051Y1925185D01*
G01X227105Y1945533D01*
G01X217431Y1964396D01*
G01X204377Y1981100D01*
G01X188410Y1995044D01*
G01X170101Y2005730D01*
G01X150107Y2012776D01*
G01X129143Y2015928D01*
G01X107961Y2015074D01*
G01X87319Y2010245D01*
G01X67957Y2001613D01*
G01X50567Y1989488D01*
G01X35774Y1974303D01*
G01X35774Y2087858D01*
G01X50567Y2072673D01*
G01X67957Y2060548D01*
G01X87319Y2051916D01*
G01X107961Y2047087D01*
G01X129143Y2046233D01*
G01X150107Y2049385D01*
G01X170101Y2056431D01*
G01X188410Y2067117D01*
G01X204377Y2081061D01*
G01X217431Y2097765D01*
G01X227105Y2116628D01*
G01X233051Y2136976D01*
G01X235057Y2158081D01*
G01X235057Y2158081D01*
G01X1535029Y2158081D01*
G01X1536936Y2137498D01*
G01X1542593Y2117616D01*
G01X1551807Y2099113D01*
G01X1564264Y2082617D01*
G01X1579540Y2068691D01*
G01X1597114Y2057810D01*
G01X1616389Y2050343D01*
G01X1636708Y2046544D01*
G01X1657379Y2046544D01*
G01X1677697Y2050343D01*
G01X1696972Y2057810D01*
G01X1714547Y2068691D01*
G01X1729823Y2082617D01*
G01X1742279Y2099113D01*
G01X1751493Y2117616D01*
G01X1757150Y2137498D01*
G01X1759057Y2158081D01*
G01X1759057Y2158081D01*
G01X1757150Y2178663D01*
G01X1751493Y2198545D01*
G01X1742279Y2217048D01*
G01X1729823Y2233544D01*
G01X1714547Y2247470D01*
G01X1696972Y2258351D01*
G01X1677697Y2265818D01*
G01X1657379Y2269617D01*
G01X1636708Y2269617D01*
G01X1616389Y2265818D01*
G01X1597114Y2258351D01*
G01X1579540Y2247470D01*
G01X1564264Y2233544D01*
G01X1551807Y2217048D01*
G01X1542593Y2198545D01*
G01X1536936Y2178663D01*
G01X1535029Y2158081D01*
G01X235057Y2158081D01*
G01X233051Y2179185D01*
G01X227105Y2199533D01*
G01X217431Y2218396D01*
G01X204377Y2235100D01*
G01X188410Y2249044D01*
G01X170101Y2259730D01*
G01X150107Y2266776D01*
G01X129143Y2269928D01*
G01X107961Y2269074D01*
G01X87319Y2264245D01*
G01X67957Y2255613D01*
G01X50567Y2243488D01*
G01X35774Y2228303D01*
G01X35774Y2341858D01*
G01X50567Y2326673D01*
G01X67957Y2314548D01*
G01X87319Y2305916D01*
G01X107961Y2301087D01*
G01X129143Y2300233D01*
G01X150107Y2303385D01*
G01X170101Y2310431D01*
G01X188410Y2321117D01*
G01X204377Y2335061D01*
G01X217431Y2351765D01*
G01X227105Y2370628D01*
G01X233051Y2390976D01*
G01X235057Y2412081D01*
G01X233051Y2433185D01*
G01X227105Y2453533D01*
G01X217431Y2472396D01*
G01X204377Y2489100D01*
G01X188410Y2503044D01*
G01X170101Y2513730D01*
G01X150107Y2520776D01*
G01X129143Y2523928D01*
G01X107961Y2523074D01*
G01X87319Y2518245D01*
G01X67957Y2509613D01*
G01X50567Y2497488D01*
G01X35774Y2482303D01*
G01X35774Y2595858D01*
G01X50567Y2580673D01*
G01X67957Y2568548D01*
G01X87319Y2559916D01*
G01X107961Y2555087D01*
G01X129143Y2554233D01*
G01X150107Y2557385D01*
G01X170101Y2564431D01*
G01X188410Y2575117D01*
G01X204377Y2589061D01*
G01X217431Y2605765D01*
G01X227105Y2624628D01*
G01X233051Y2644976D01*
G01X235057Y2666081D01*
G01X233051Y2687185D01*
G01X227105Y2707533D01*
G01X217431Y2726396D01*
G01X204377Y2743100D01*
G01X188410Y2757044D01*
G01X170101Y2767730D01*
G01X150107Y2774776D01*
G01X129143Y2777928D01*
G01X107961Y2777074D01*
G01X87319Y2772245D01*
G01X67957Y2763613D01*
G01X50567Y2751488D01*
G01X35774Y2736303D01*
G01X35774Y2849858D01*
G01X49807Y2835325D01*
G01X66222Y2823548D01*
G01X84485Y2814912D01*
G01X104002Y2809697D01*
G01X124139Y2808072D01*
G01X144240Y2810090D01*
G01X163652Y2815687D01*
G01X181742Y2824679D01*
G01X197924Y2836774D01*
G01X211669Y2851579D01*
G01X222532Y2868612D01*
G01X230159Y2887319D01*
G01X234302Y2907092D01*
G01X340299Y2907092D01*
G01X334194Y2889890D01*
G01X331462Y2871843D01*
G01X332202Y2853606D01*
G01X336387Y2835839D01*
G01X343865Y2819189D01*
G01X354365Y2804259D01*
G01X367505Y2791591D01*
G01X353806Y2778264D01*
G01X343024Y2762484D01*
G01X335589Y2744878D01*
G01X331796Y2726147D01*
G01X331796Y2707035D01*
G01X335589Y2688303D01*
G01X343024Y2670697D01*
G01X353806Y2654917D01*
G01X367505Y2641591D01*
G01X353806Y2628264D01*
G01X343024Y2612484D01*
G01X335589Y2594878D01*
G01X331796Y2576147D01*
G01X331796Y2557035D01*
G01X335589Y2538303D01*
G01X343024Y2520697D01*
G01X353806Y2504917D01*
G01X367506Y2491591D01*
G01X353436Y2477821D01*
G01X342477Y2461467D01*
G01X335093Y2443219D01*
G01X331593Y2423846D01*
G01X332127Y2404168D01*
G01X336671Y2385013D01*
G01X345034Y2367192D01*
G01X356863Y2351456D01*
G01X371658Y2338469D01*
G01X388795Y2328781D01*
G01X407550Y2322799D01*
G01X427132Y2320777D01*
G01X446714Y2322799D01*
G01X465469Y2328781D01*
G01X482606Y2338469D01*
G01X497401Y2351456D01*
G01X509230Y2367192D01*
G01X517593Y2385013D01*
G01X522137Y2404168D01*
G01X522352Y2412081D01*
G01X1535029Y2412081D01*
G01X1536936Y2391498D01*
G01X1542593Y2371616D01*
G01X1551807Y2353113D01*
G01X1564264Y2336617D01*
G01X1579540Y2322691D01*
G01X1597114Y2311810D01*
G01X1616389Y2304343D01*
G01X1636708Y2300544D01*
G01X1657379Y2300544D01*
G01X1677697Y2304343D01*
G01X1696972Y2311810D01*
G01X1714547Y2322691D01*
G01X1729823Y2336617D01*
G01X1742279Y2353113D01*
G01X1751493Y2371616D01*
G01X1757150Y2391498D01*
G01X1759057Y2412081D01*
G01X1759057Y2412081D01*
G01X1757150Y2432663D01*
G01X1751493Y2452545D01*
G01X1742279Y2471048D01*
G01X1735537Y2479976D01*
G01X2040851Y2479976D01*
G01X2040851Y2194736D01*
G01X2042786Y2185011D01*
G01X2048295Y2176766D01*
G01X2056540Y2171257D01*
G01X2066265Y2169322D01*
G01X2301505Y2169322D01*
G01X2311231Y2171257D01*
G01X2319476Y2176766D01*
G01X2324985Y2185011D01*
G01X2326919Y2194736D01*
G01X2326919Y2479976D01*
G01X2326919Y2479976D01*
G01X2324985Y2489702D01*
G01X2319476Y2497947D01*
G01X2311231Y2503456D01*
G01X2301505Y2505390D01*
G01X2066265Y2505390D01*
G01X2056540Y2503456D01*
G01X2048295Y2497947D01*
G01X2042786Y2489702D01*
G01X2040851Y2479976D01*
G01X1735537Y2479976D01*
G01X1729823Y2487544D01*
G01X1714547Y2501470D01*
G01X1696972Y2512351D01*
G01X1677697Y2519818D01*
G01X1657379Y2523617D01*
G01X1636708Y2523617D01*
G01X1616389Y2519818D01*
G01X1597114Y2512351D01*
G01X1579540Y2501470D01*
G01X1564264Y2487544D01*
G01X1551807Y2471048D01*
G01X1542593Y2452545D01*
G01X1536936Y2432663D01*
G01X1535029Y2412081D01*
G01X522352Y2412081D01*
G01X522671Y2423846D01*
G01X519171Y2443219D01*
G01X511786Y2461467D01*
G01X500828Y2477821D01*
G01X486758Y2491591D01*
G01X500458Y2504917D01*
G01X511240Y2520697D01*
G01X518675Y2538303D01*
G01X522468Y2557035D01*
G01X522468Y2576147D01*
G01X518675Y2594878D01*
G01X511240Y2612484D01*
G01X500458Y2628264D01*
G01X486759Y2641591D01*
G01X500458Y2654917D01*
G01X508085Y2666081D01*
G01X1535029Y2666081D01*
G01X1536936Y2645498D01*
G01X1542593Y2625616D01*
G01X1551807Y2607113D01*
G01X1564264Y2590617D01*
G01X1579540Y2576691D01*
G01X1597114Y2565810D01*
G01X1616389Y2558343D01*
G01X1636708Y2554544D01*
G01X1657379Y2554544D01*
G01X1677697Y2558343D01*
G01X1696972Y2565810D01*
G01X1714547Y2576691D01*
G01X1729823Y2590617D01*
G01X1742279Y2607113D01*
G01X1751493Y2625616D01*
G01X1757150Y2645498D01*
G01X1759057Y2666081D01*
G01X1759057Y2666081D01*
G01X1757150Y2686663D01*
G01X1751493Y2706545D01*
G01X1742279Y2725048D01*
G01X1729823Y2741544D01*
G01X1714547Y2755470D01*
G01X1696972Y2766351D01*
G01X1677697Y2773818D01*
G01X1657379Y2777617D01*
G01X1636708Y2777617D01*
G01X1616389Y2773818D01*
G01X1597114Y2766351D01*
G01X1579540Y2755470D01*
G01X1564264Y2741544D01*
G01X1551807Y2725048D01*
G01X1542593Y2706545D01*
G01X1536936Y2686663D01*
G01X1535029Y2666081D01*
G01X508085Y2666081D01*
G01X511240Y2670697D01*
G01X518675Y2688303D01*
G01X522468Y2707035D01*
G01X522468Y2726147D01*
G01X518675Y2744878D01*
G01X511240Y2762484D01*
G01X500458Y2778264D01*
G01X486759Y2791591D01*
G01X499899Y2804259D01*
G01X510399Y2819189D01*
G01X517877Y2835839D01*
G01X522062Y2853606D01*
G01X522802Y2871843D01*
G01X520070Y2889890D01*
G01X513965Y2907092D01*
G01X730065Y2907092D01*
G01X722935Y2887855D01*
G01X719432Y2867641D01*
G01X719676Y2847128D01*
G01X723656Y2827002D01*
G01X731240Y2807940D01*
G01X742173Y2790581D01*
G01X756089Y2775507D01*
G01X772521Y2763224D01*
G01X790917Y2754144D01*
G01X810661Y2748571D01*
G01X831090Y2746692D01*
G01X851519Y2748571D01*
G01X871262Y2754144D01*
G01X889658Y2763224D01*
G01X906090Y2775507D01*
G01X920006Y2790581D01*
G01X930939Y2807940D01*
G01X938523Y2827002D01*
G01X942503Y2847128D01*
G01X942747Y2867641D01*
G01X939244Y2887855D01*
G01X932114Y2907092D01*
G01X984065Y2907092D01*
G01X976935Y2887855D01*
G01X973432Y2867641D01*
G01X973676Y2847128D01*
G01X977656Y2827002D01*
G01X985240Y2807940D01*
G01X996173Y2790581D01*
G01X1010089Y2775507D01*
G01X1026521Y2763224D01*
G01X1044917Y2754144D01*
G01X1064661Y2748571D01*
G01X1085090Y2746692D01*
G01X1105519Y2748571D01*
G01X1125262Y2754144D01*
G01X1143658Y2763224D01*
G01X1160090Y2775507D01*
G01X1174006Y2790581D01*
G01X1184939Y2807940D01*
G01X1192523Y2827002D01*
G01X1196503Y2847128D01*
G01X1196747Y2867641D01*
G01X1193244Y2887855D01*
G01X1186114Y2907092D01*
G01X1238065Y2907092D01*
G01X1230935Y2887855D01*
G01X1227432Y2867641D01*
G01X1227676Y2847128D01*
G01X1231656Y2827002D01*
G01X1239240Y2807940D01*
G01X1250173Y2790581D01*
G01X1264089Y2775507D01*
G01X1280521Y2763224D01*
G01X1298917Y2754144D01*
G01X1318661Y2748571D01*
G01X1339090Y2746692D01*
G01X1359519Y2748571D01*
G01X1379262Y2754144D01*
G01X1397658Y2763224D01*
G01X1414090Y2775507D01*
G01X1428006Y2790581D01*
G01X1438939Y2807940D01*
G01X1446523Y2827002D01*
G01X1450503Y2847128D01*
G01X1450747Y2867641D01*
G01X1447244Y2887855D01*
G01X1440114Y2907092D01*
G01X1535785Y2907092D01*
G01X1539967Y2887188D01*
G01X1547680Y2868368D01*
G01X1558669Y2851254D01*
G01X1572571Y2836408D01*
G01X1588928Y2824321D01*
G01X1607202Y2815391D01*
G01X1626789Y2809913D01*
G01X1647043Y2808067D01*
G01X1667298Y2809913D01*
G01X1686885Y2815391D01*
G01X1705158Y2824321D01*
G01X1721515Y2836408D01*
G01X1735418Y2851254D01*
G01X1746406Y2868368D01*
G01X1754119Y2887188D01*
G01X1758302Y2907092D01*
G01X2464946Y2907092D01*
G01X2464946Y2646222D01*
G01X2454289Y2655433D01*
G01X2441799Y2661945D01*
G01X2428145Y2665409D01*
G01X2414061Y2665639D01*
G01X2400302Y2662622D01*
G01X2387605Y2656520D01*
G01X2376654Y2647662D01*
G01X2368034Y2636521D01*
G01X2368034Y2775140D01*
G01X2366099Y2784865D01*
G01X2360590Y2793110D01*
G01X2352345Y2798619D01*
G01X2342620Y2800554D01*
G01X2022600Y2800554D01*
G01X2012874Y2798619D01*
G01X2004630Y2793110D01*
G01X1999121Y2784865D01*
G01X1997186Y2775140D01*
G01X1997186Y2625130D01*
G01X1999121Y2615404D01*
G01X2004630Y2607159D01*
G01X2012874Y2601650D01*
G01X2022600Y2599716D01*
G01X2342620Y2599716D01*
G01X2351531Y2601329D01*
G01X2359310Y2605964D01*
G01X2360872Y2591407D01*
G01X2365868Y2577645D01*
G01X2374009Y2565475D01*
G01X2384822Y2555604D01*
G01X2397681Y2548604D01*
G01X2411841Y2544879D01*
G01X2426480Y2544647D01*
G01X2440750Y2547920D01*
G01X2453825Y2554509D01*
G01X2464946Y2564032D01*
G01X2464946Y2111196D01*
G01X2453218Y2121118D01*
G01X2439377Y2127785D01*
G01X2424307Y2130770D01*
G01X2408971Y2129885D01*
G01X2394345Y2125184D01*
G01X2381364Y2116967D01*
G01X2370856Y2105761D01*
G01X2369287Y2121355D01*
G01X2363785Y2136030D01*
G01X2354714Y2148811D01*
G01X2342679Y2158850D01*
G01X2328478Y2165480D01*
G01X2313053Y2168260D01*
G01X2297431Y2167006D01*
G01X2282648Y2161801D01*
G01X2269686Y2152990D01*
G01X2259406Y2141160D01*
G01X2252491Y2127096D01*
G01X2249400Y2111731D01*
G01X2250338Y2096086D01*
G01X2255243Y2081201D01*
G01X2263790Y2068064D01*
G01X2275410Y2057547D01*
G01X2289332Y2050349D01*
G01X2304632Y2046949D01*
G01X2320292Y2047571D01*
G01X2335273Y2052174D01*
G01X2348580Y2060454D01*
G01X2359330Y2071859D01*
G01X2360691Y2057190D01*
G01X2365539Y2043278D01*
G01X2373591Y2030940D01*
G01X2384373Y2020901D01*
G01X2397254Y2013749D01*
G01X2411476Y2009904D01*
G01X2426205Y2009592D01*
G01X2440577Y2012832D01*
G01X2453748Y2019432D01*
G01X2464946Y2029006D01*
G01X2464946Y492093D01*
G01X2463716Y479585D01*
G01X2460071Y467557D01*
G01X2454153Y456469D01*
G01X2446187Y446747D01*
G01X2054713Y54574D01*
G01X2044982Y46575D01*
G01X2033876Y40631D01*
G01X2021822Y36970D01*
G01X2009286Y35734D01*
G01X1713260Y35734D01*
G01X1728305Y48985D01*
G01X1740747Y64706D01*
G01X1750187Y82393D01*
G01X1756322Y101480D01*
G01X1758957Y121354D01*
G01X1758007Y141380D01*
G01X1753503Y160916D01*
G01X1745587Y179336D01*
G01X1734515Y196050D01*
G01X1720641Y210523D01*
G01X1704409Y222290D01*
G01X1686340Y230975D01*
G01X1667011Y236300D01*
G01X1647043Y238095D01*
G01X1627075Y236300D01*
G01X1607747Y230975D01*
G01X1589677Y222290D01*
G01X1573445Y210523D01*
G01X1559571Y196050D01*
G01X1548499Y179336D01*
G01X1540584Y160916D01*
G01X1536079Y141380D01*
G01X1535129Y121354D01*
G01X1537764Y101480D01*
G01X1543900Y82393D01*
G01X1553340Y64706D01*
G01X1565782Y48985D01*
G01X1580827Y35734D01*
G01X1450304Y35734D01*
G01X1436021Y37343D01*
G01X1422455Y42090D01*
G01X1410285Y49737D01*
G01X1400122Y59901D01*
G01X1392475Y72071D01*
G01X1387727Y85637D01*
G01X1386118Y99920D01*
G01X1386118Y380081D01*
G01X1535029Y380081D01*
G01X1536936Y359498D01*
G01X1542593Y339616D01*
G01X1551807Y321113D01*
G01X1564264Y304617D01*
G01X1579540Y290691D01*
G01X1597114Y279810D01*
G01X1616389Y272343D01*
G01X1636708Y268544D01*
G01X1657379Y268544D01*
G01X1677697Y272343D01*
G01X1678085Y272493D01*
G01X1929187Y272493D01*
G01X1932012Y252239D01*
G01X1938511Y232850D01*
G01X1948462Y214985D01*
G01X1961525Y199253D01*
G01X1961525Y199253D01*
G01X1996881Y163898D01*
G01X2012613Y150834D01*
G01X2030478Y140883D01*
G01X2049867Y134384D01*
G01X2070120Y131559D01*
G01X2090548Y132504D01*
G01X2110454Y137186D01*
G01X2129161Y145445D01*
G01X2146031Y157002D01*
G01X2160491Y171462D01*
G01X2172048Y188332D01*
G01X2180308Y207039D01*
G01X2184990Y226945D01*
G01X2185934Y247373D01*
G01X2183109Y267626D01*
G01X2176610Y287015D01*
G01X2166660Y304880D01*
G01X2153596Y320612D01*
G01X2118240Y355968D01*
G01X2102508Y369032D01*
G01X2084643Y378982D01*
G01X2065254Y385481D01*
G01X2045001Y388306D01*
G01X2024573Y387362D01*
G01X2004667Y382680D01*
G01X1985960Y374420D01*
G01X1969090Y362863D01*
G01X1954630Y348404D01*
G01X1943073Y331533D01*
G01X1934813Y312826D01*
G01X1930131Y292920D01*
G01X1929187Y272493D01*
G01X1678085Y272493D01*
G01X1696972Y279810D01*
G01X1714547Y290691D01*
G01X1729823Y304617D01*
G01X1742279Y321113D01*
G01X1751493Y339616D01*
G01X1757150Y359498D01*
G01X1759057Y380081D01*
G01X1759057Y380081D01*
G01X1757150Y400663D01*
G01X1751493Y420545D01*
G01X1742279Y439048D01*
G01X1729823Y455544D01*
G01X1714547Y469470D01*
G01X1696972Y480351D01*
G01X1677697Y487818D01*
G01X1657379Y491617D01*
G01X1636708Y491617D01*
G01X1616389Y487818D01*
G01X1597114Y480351D01*
G01X1579540Y469470D01*
G01X1564264Y455544D01*
G01X1551807Y439048D01*
G01X1542593Y420545D01*
G01X1536936Y400663D01*
G01X1535029Y380081D01*
G01X1386118Y380081D01*
G01X1386118Y495345D01*
G01X2110576Y495345D01*
G01X2110576Y484140D01*
G01X2114038Y473483D01*
G01X2120624Y464418D01*
G01X2262046Y322997D01*
G01X2271111Y316410D01*
G01X2281768Y312948D01*
G01X2292973Y312948D01*
G01X2303629Y316410D01*
G01X2312695Y322997D01*
G01X2418761Y429063D01*
G01X2418761Y429063D01*
G01X2425347Y438128D01*
G01X2428809Y448784D01*
G01X2428809Y459989D01*
G01X2425347Y470646D01*
G01X2418761Y479711D01*
G01X2277339Y621133D01*
G01X2268274Y627719D01*
G01X2257617Y631181D01*
G01X2246412Y631181D01*
G01X2235756Y627719D01*
G01X2226690Y621133D01*
G01X2120624Y515067D01*
G01X2114038Y506002D01*
G01X2110576Y495345D01*
G01X1386118Y495345D01*
G01X1386118Y549919D01*
G01X1384446Y571165D01*
G01X1379471Y591887D01*
G01X1371315Y611577D01*
G01X1360180Y629748D01*
G01X1356480Y634081D01*
G01X1535029Y634081D01*
G01X1536936Y613498D01*
G01X1542593Y593616D01*
G01X1551807Y575113D01*
G01X1564264Y558617D01*
G01X1579540Y544691D01*
G01X1597114Y533810D01*
G01X1616389Y526343D01*
G01X1636708Y522544D01*
G01X1657379Y522544D01*
G01X1677697Y526343D01*
G01X1696972Y533810D01*
G01X1714547Y544691D01*
G01X1729823Y558617D01*
G01X1742279Y575113D01*
G01X1751493Y593616D01*
G01X1757150Y613498D01*
G01X1759057Y634081D01*
G01X1759057Y634081D01*
G01X1757150Y654663D01*
G01X1751493Y674545D01*
G01X1742279Y693048D01*
G01X1729823Y709544D01*
G01X1714547Y723470D01*
G01X1696972Y734351D01*
G01X1677697Y741818D01*
G01X1657379Y745617D01*
G01X1636708Y745617D01*
G01X1616389Y741818D01*
G01X1597114Y734351D01*
G01X1579540Y723470D01*
G01X1564264Y709544D01*
G01X1551807Y693048D01*
G01X1542593Y674545D01*
G01X1536936Y654663D01*
G01X1535029Y634081D01*
G01X1356480Y634081D01*
G01X1346339Y645954D01*
G01X1330134Y659795D01*
G01X1311962Y670930D01*
G01X1292273Y679085D01*
G01X1271550Y684061D01*
G01X1250304Y685733D01*
G01X519959Y685733D01*
G01X498713Y684061D01*
G01X477990Y679085D01*
G01X458301Y670930D01*
G01X440130Y659795D01*
G01X423924Y645954D01*
G01X410083Y629748D01*
G01X398948Y611577D01*
G01X390792Y591887D01*
G01X385817Y571165D01*
G01X384145Y549919D01*
G01X384145Y99920D01*
G01X382536Y85637D01*
G01X377789Y72071D01*
G01X370142Y59901D01*
G01X359979Y49737D01*
G01X347809Y42090D01*
G01X334242Y37343D01*
G01X319959Y35734D01*
G37*
G54D10*
G01X319959Y35734D02*
G01X189260Y35734D01*
G03X204015Y203480I-66217J90347D01*
G03X35774Y196303I-80972J-77400D01*
G01X35774Y309858D01*
G03X235057Y380081I87269J70223D01*
G03X35774Y450303I-112014J0D01*
G01X35774Y563858D01*
G03X235057Y634081I87269J70223D01*
G03X35774Y704303I-112014J0D01*
G01X35774Y817858D01*
G03X235057Y888081I87269J70223D01*
G03X35774Y958303I-112014J0D01*
G01X35774Y1071858D01*
G03X235057Y1142081I87269J70223D01*
G03X35774Y1212303I-112014J0D01*
G01X35774Y1325858D01*
G03X235057Y1396081I87269J70223D01*
G03X35774Y1466303I-112014J0D01*
G01X35774Y1579858D01*
G03X235057Y1650081I87269J70223D01*
G03X35774Y1720303I-112014J0D01*
G01X35774Y1833858D01*
G03X235057Y1904081I87269J70223D01*
G03X35774Y1974303I-112014J0D01*
G01X35774Y2087858D01*
G03X235057Y2158081I87269J70223D01*
G03X35774Y2228303I-112014J0D01*
G01X35774Y2341858D01*
G03X235057Y2412081I87269J70223D01*
G03X35774Y2482303I-112014J0D01*
G01X35774Y2595858D01*
G03X235057Y2666081I87269J70223D01*
G03X35774Y2736303I-112014J0D01*
G01X35774Y2849858D01*
G03X234302Y2907092I87269J70223D01*
G01X340299Y2907092D01*
G03X367505Y2791591I86833J-40501D01*
G03X367505Y2641591I59627J-75000D01*
G03X367506Y2491591I59627J-75000D01*
G03X427132Y2320777I59626J-75000D01*
G03X486758Y2491591I0J95814D01*
G03X486759Y2641591I-59626J75000D01*
G03X486759Y2791591I-59627J75000D01*
G03X513965Y2907092I-59627J75000D01*
G01X730065Y2907092D01*
G03X831090Y2746692I101025J-48385D01*
G03X932114Y2907092I0J112014D01*
G01X984065Y2907092D01*
G03X1085090Y2746692I101025J-48385D01*
G03X1186114Y2907092I0J112014D01*
G01X1238065Y2907092D01*
G03X1339090Y2746692I101025J-48385D01*
G03X1440114Y2907092I0J112014D01*
G01X1535785Y2907092D01*
G03X1758302Y2907092I111258J12989D01*
G01X2464946Y2907092D01*
G01X2464946Y2646222D01*
G03X2368034Y2636521I-44828J-41095D01*
G01X2368034Y2775140D01*
G03X2342620Y2800554I-25414J0D01*
G01X2022600Y2800554D01*
G03X1997186Y2775140I0J-25414D01*
G01X1997186Y2625130D01*
G03X2022600Y2599716I25414J0D01*
G01X2342620Y2599716D01*
G03X2359310Y2605964I0J25414D01*
G03X2464946Y2564032I60808J-837D01*
G01X2464946Y2111196D01*
G03X2370856Y2105761I-44828J-41095D01*
G03X2252491Y2127096I-60789J1758D01*
G03X2359330Y2071859I57577J-19577D01*
G03X2464946Y2029006I60789J-1758D01*
G01X2464946Y492093D01*
G02X2446187Y446747I-64186J0D01*
G01X2054713Y54574D01*
G02X2009286Y35734I-45427J45346D01*
G01X1713260Y35734D01*
G03X1647043Y238095I-66217J90347D01*
G03X1580827Y35734I0J-112014D01*
G01X1450304Y35734D01*
G02X1386118Y99920I0J64186D01*
G01X1386118Y549919D01*
G03X1250304Y685733I-135814J0D01*
G01X519959Y685733D01*
G03X384145Y549919I0J-135814D01*
G01X384145Y99920D01*
G02X319959Y35734I-64186J0D01*
G01X488661Y973196D02*
G03X545432Y1134892I0J90814D01*
G03X488661Y1296588I-56771J70882D01*
G03X431890Y1134892I0J-90814D01*
G03X488661Y973196I56771J-70882D01*
G01X1759057Y380081D02*
G03X1535029Y380081I-112014J0D01*
G03X1759057Y380081I112014J0D01*
G01X1759057Y634081D02*
G03X1535029Y634081I-112014J0D01*
G03X1759057Y634081I112014J0D01*
G01X1759057Y888081D02*
G03X1535029Y888081I-112014J0D01*
G03X1759057Y888081I112014J0D01*
G01X1759057Y1142081D02*
G03X1535029Y1142081I-112014J0D01*
G03X1759057Y1142081I112014J0D01*
G01X1759057Y2666081D02*
G03X1535029Y2666081I-112014J0D01*
G03X1759057Y2666081I112014J0D01*
G01X1759057Y1396081D02*
G03X1535029Y1396081I-112014J0D01*
G03X1759057Y1396081I112014J0D01*
G01X1759057Y1650081D02*
G03X1535029Y1650081I-112014J0D01*
G03X1759057Y1650081I112014J0D01*
G01X1759057Y1904081D02*
G03X1535029Y1904081I-112014J0D01*
G03X1759057Y1904081I112014J0D01*
G01X1759057Y2158081D02*
G03X1535029Y2158081I-112014J0D01*
G03X1759057Y2158081I112014J0D01*
G01X1759057Y2412081D02*
G03X1535029Y2412081I-112014J0D01*
G03X1759057Y2412081I112014J0D01*
G01X1961525Y199253D02*
G01X1996881Y163898D01*
G03X2153596Y320612I78357J78357D01*
G01X2118240Y355968D01*
G03X1961525Y199253I-78357J-78357D01*
G01X2326919Y2479976D02*
G03X2301505Y2505390I-25414J0D01*
G01X2066265Y2505390D01*
G03X2040851Y2479976I0J-25414D01*
G01X2040851Y2194736D01*
G03X2066265Y2169322I25414J0D01*
G01X2301505Y2169322D01*
G03X2326919Y2194736I0J25414D01*
G01X2326919Y2479976D01*
G01X2418761Y429063D02*
G03X2418761Y479711I-25324J25324D01*
G01X2277339Y621133D01*
G03X2226690Y621133I-25324J-25324D01*
G01X2120624Y515067D01*
G03X2120624Y464418I25324J-25324D01*
G01X2262046Y322997D01*
G03X2312695Y322997I25324J25324D01*
G01X2418761Y429063D01*
G01X2247479Y1715426D02*
G01X2247479Y1789596D01*
G03X2222065Y1815010I-25414J0D01*
G01X2148065Y1815010D01*
G03X2122651Y1789596I0J-25414D01*
G01X2122651Y1715426D01*
G03X2148065Y1690012I25414J0D01*
G01X2190643Y1690012D01*
G03X2260865Y1595855I47765J-37641D01*
G03X2247314Y1712530I-22456J56516D01*
G03X2247479Y1715426I-25248J2896D01*
G54D11*
G01X2216839Y419211D02*
G01X2198519Y400892D01*
G01X2322546Y524918D02*
G01X2340866Y543238D01*
G01X2199161Y542596D02*
G01X2180842Y560915D01*
G01X2340224Y401534D02*
G01X2358543Y383214D01*
G01X1722989Y888081D02*
G01X1748897Y888081D01*
G01X1571097Y888081D02*
G01X1545189Y888081D01*
G01X1647043Y812135D02*
G01X1647043Y786227D01*
G01X1647043Y964027D02*
G01X1647043Y989935D01*
G01X1722989Y1142081D02*
G01X1748897Y1142081D01*
G01X1571097Y1142081D02*
G01X1545189Y1142081D01*
G01X1647043Y1066135D02*
G01X1647043Y1040227D01*
G01X1647043Y1218027D02*
G01X1647043Y1243935D01*
G01X198989Y634081D02*
G01X224897Y634081D01*
G01X123043Y558135D02*
G01X123043Y532227D01*
G01X123043Y710027D02*
G01X123043Y735935D01*
G01X1722989Y1650081D02*
G01X1748897Y1650081D01*
G01X1571097Y1650081D02*
G01X1545189Y1650081D01*
G01X1647043Y1574135D02*
G01X1647043Y1548227D01*
G01X1647043Y1726027D02*
G01X1647043Y1751935D01*
G01X486878Y2866591D02*
G01X512786Y2866591D01*
G01X367386Y2866591D02*
G01X341478Y2866591D01*
G04 Copper End*

G04 Pad Start*
G54D12*
G01X2057561Y259933D03*
G54D13*
G01X2269692Y472065D03*
G54D14*
G01X1647043Y126081D03*
G01X1647043Y380081D03*
G01X1647043Y634081D03*
G01X1647043Y888081D03*
G01X1647043Y1142081D03*
G01X1647043Y1396081D03*
G01X1647043Y1650081D03*
G01X1647043Y1904081D03*
G01X1647043Y2158081D03*
G01X1647043Y2412081D03*
G01X1647043Y2666081D03*
G01X1647043Y2920081D03*
G01X1647043Y3174081D03*
G01X123043Y3174081D03*
G01X123043Y2920081D03*
G01X123043Y2666081D03*
G01X123043Y2412081D03*
G01X123043Y2158081D03*
G01X123043Y1904081D03*
G01X123043Y1650081D03*
G01X123043Y1396081D03*
G01X123043Y1142081D03*
G01X123043Y888081D03*
G01X123043Y634081D03*
G01X123043Y380081D03*
G01X123043Y126081D03*
G01X1339090Y2858706D03*
G01X1085090Y2858706D03*
G01X831090Y2858706D03*
G54D15*
G01X427132Y2866591D03*
G01X427132Y2716591D03*
G01X427132Y2566591D03*
G01X427132Y2416591D03*
G54D16*
G01X488661Y1064010D03*
G01X488661Y1205774D03*
G04 Pad End*

G04 Via Start*
G54D18*
G01X188386Y506585D03*
G01X193386Y761590D03*
G01X278390Y1966591D03*
G01X278390Y1066591D03*
G01X278390Y1666591D03*
G01X278390Y1366591D03*
G01X278390Y2866591D03*
G01X278390Y2566591D03*
G01X278390Y2266591D03*
G01X428390Y2116591D03*
G01X428390Y1516591D03*
G01X428390Y1816591D03*
G01X578390Y1666591D03*
G01X578390Y1366591D03*
G01X578390Y2566591D03*
G01X578390Y2266591D03*
G01X578390Y1966591D03*
G01X578390Y2866591D03*
G01X728390Y2716591D03*
G01X728390Y2116591D03*
G01X728390Y1816591D03*
G01X728390Y1216591D03*
G01X728390Y916590D03*
G01X728390Y1516591D03*
G01X878390Y1366591D03*
G01X878390Y1666591D03*
G01X878390Y1966591D03*
G01X1028390Y2116591D03*
G01X1028390Y1216591D03*
G01X1028390Y2716591D03*
G01X1028390Y916590D03*
G01X1028390Y1516591D03*
G01X1028390Y1816591D03*
G01X1173390Y2571591D03*
G01X1178390Y1666591D03*
G01X1178390Y2266591D03*
G01X1178390Y1366591D03*
G01X1178390Y1966591D03*
G01X1328390Y1816591D03*
G01X1328390Y1516591D03*
G01X1313390Y2716591D03*
G01X1328390Y916590D03*
G01X1328390Y1216591D03*
G01X1440070Y2160105D03*
G01X1467572Y1875092D03*
G01X1478390Y2566591D03*
G01X1478390Y766591D03*
G01X1478390Y2866591D03*
G01X1478390Y166590D03*
G01X1478390Y1666591D03*
G01X1478390Y1366591D03*
G01X1778390Y2866591D03*
G01X1778390Y766591D03*
G01X1778390Y616591D03*
G01X1778390Y916590D03*
G01X1778390Y166590D03*
G01X1928390Y916590D03*
G01X1928390Y1216591D03*
G01X1943391Y1509090D03*
G01X1928390Y166590D03*
G01X1970096Y1646801D03*
G01X1983386Y1369091D03*
G01X2078390Y2866591D03*
G01X2078390Y616591D03*
G01X2078390Y466591D03*
G01X2135893Y1199097D03*
G01X2135893Y799092D03*
G01X2185896Y1439087D03*
G01X2228390Y316591D03*
G01X2378390Y2866591D03*
G01X2378390Y1066591D03*
G01X2378390Y766591D03*
G01X2378390Y1366591D03*
G01X2402617Y1644301D03*
G01X1515074Y2725133D03*
G01X2357757Y2337487D03*
G01X2420118Y2070101D03*
G01X2129391Y1652371D03*
G01X2238408Y1652371D03*
G01X1780087Y2112603D03*
G01X1782587Y2235109D03*
G01X1782587Y2475121D03*
G01X1782587Y2355115D03*
G01X2310068Y2107519D03*
G01X2044320Y1860091D03*
G01X2320893Y1860091D03*
G01X2420118Y2605127D03*
G01X1907593Y2592627D03*
G01X65003Y2540124D03*
G01X60003Y2795136D03*
G01X60003Y2285112D03*
G01X57503Y2030099D03*
G01X57503Y1777587D03*
G01X57503Y1525074D03*
G01X57503Y1270062D03*
G01X57503Y1015050D03*
G01X57503Y762537D03*
G01X57503Y506741D03*
G01X57503Y251238D03*
G04 Via End*

M02*

