G04 Layer: TopSilkscreenLayer*
G04 EasyEDA Pro v2.2.40.8, 2025-10-17 17:15:36*
G04 Gerber Generator version 0.3*
G04 Scale: 100 percent, Rotated: No, Reflected: No*
G04 Dimensions in millimeters*
G04 Leading zeros omitted, absolute positions, 4 integers and 5 decimals*
G04 Generated by one-click*
%FSLAX45Y45*%
%MOMM*%
%ADD10C,0.152*%
%ADD11C,0.1524*%
%ADD12C,0.254*%
%ADD13C,0.17*%
%ADD14C,0.15001*%
%ADD15C,0.1031*%
%ADD16C,0.1*%
G75*


G04 Image Start*
G36*
G01X2135762Y2953306D02*
G01X2134355Y2952937D01*
G01X2132948Y2952567D01*
G01X2130804Y2952690D01*
G01X2128660Y2952812D01*
G01X2124916Y2954443D01*
G01X2122738Y2956385D01*
G01X2122038Y2957395D01*
G01X2121338Y2958406D01*
G01X2120867Y2959783D01*
G01X2120396Y2961160D01*
G01X2120396Y2964569D01*
G01X2121162Y2966895D01*
G01X2141060Y3003916D01*
G01X2160959Y3040937D01*
G01X2160628Y3041036D01*
G01X2160297Y3041134D01*
G01X2157931Y3042238D01*
G01X2155566Y3043341D01*
G01X2153024Y3044897D01*
G01X2150483Y3046453D01*
G01X2148230Y3048243D01*
G01X2145977Y3050034D01*
G01X2144016Y3052091D01*
G01X2142056Y3054148D01*
G01X2140240Y3056612D01*
G01X2138424Y3059076D01*
G01X2136923Y3061918D01*
G01X2135421Y3064760D01*
G01X2134515Y3067354D01*
G01X2133608Y3069948D01*
G01X2132478Y3075136D01*
G01X2132363Y3078909D01*
G01X2163460Y3078909D01*
G01X2163760Y3077141D01*
G01X2164061Y3075372D01*
G01X2164921Y3073070D01*
G01X2165782Y3070768D01*
G01X2167042Y3068855D01*
G01X2168302Y3066942D01*
G01X2169952Y3065309D01*
G01X2171602Y3063677D01*
G01X2173117Y3062612D01*
G01X2174633Y3061547D01*
G01X2176762Y3060515D01*
G01X2178891Y3059483D01*
G01X2183305Y3058318D01*
G01X2188442Y3057758D01*
G01X2189735Y3057309D01*
G01X2190857Y3056861D01*
G01X2190857Y3056861D01*
G01X2191111Y3056860D01*
G01X2188220Y3061223D01*
G01X2186055Y3065704D01*
G01X2184407Y3070411D01*
G01X2183424Y3074773D01*
G01X2183115Y3077961D01*
G01X2182835Y3080851D01*
G01X2214096Y3080851D01*
G01X2214398Y3078476D01*
G01X2214701Y3076101D01*
G01X2215996Y3072306D01*
G01X2217119Y3070363D01*
G01X2218242Y3068419D01*
G01X2219398Y3067046D01*
G01X2220555Y3065674D01*
G01X2222131Y3064341D01*
G01X2223708Y3063008D01*
G01X2226049Y3061537D01*
G01X2228037Y3060635D01*
G01X2230025Y3059733D01*
G01X2231795Y3059240D01*
G01X2233565Y3058747D01*
G01X2236497Y3058396D01*
G01X2239429Y3058045D01*
G01X2240748Y3057588D01*
G01X2242067Y3057130D01*
G01X2242067Y3057130D01*
G01X2243483Y3056153D01*
G01X2244900Y3055177D01*
G01X2243719Y3056641D01*
G01X2242539Y3058106D01*
G01X2241145Y3060373D01*
G01X2239751Y3062641D01*
G01X2238591Y3065233D01*
G01X2237431Y3067826D01*
G01X2236770Y3070066D01*
G01X2236110Y3072306D01*
G01X2235294Y3076551D01*
G01X2235144Y3079853D01*
G01X2234994Y3083154D01*
G01X2235612Y3088342D01*
G01X2236366Y3091644D01*
G01X2236505Y3092056D01*
G01X2236645Y3092469D01*
G01X2217725Y3092469D01*
G01X2216614Y3090288D01*
G01X2215502Y3088106D01*
G01X2214677Y3085277D01*
G01X2214387Y3083064D01*
G01X2214096Y3080851D01*
G01X2182835Y3080851D01*
G01X2182806Y3081150D01*
G01X2183115Y3084338D01*
G01X2183424Y3087526D01*
G01X2184441Y3092039D01*
G01X2184732Y3092469D01*
G01X2167152Y3092469D01*
G01X2164843Y3088106D01*
G01X2163751Y3084333D01*
G01X2163460Y3078909D01*
G01X2132363Y3078909D01*
G01X2132220Y3083626D01*
G01X2133060Y3089050D01*
G01X2133552Y3090782D01*
G01X2134045Y3092513D01*
G01X2113811Y3092227D01*
G01X2008443Y3092115D01*
G01X2006698Y3092870D01*
G01X2004952Y3093625D01*
G01X2002108Y3096082D01*
G01X2001320Y3097542D01*
G01X2000533Y3099002D01*
G01X2000239Y3100570D01*
G01X1999945Y3102138D01*
G01X2000262Y3103826D01*
G01X2000579Y3105513D01*
G01X2004324Y3112507D01*
G01X2038234Y3112507D01*
G01X2038304Y3112508D01*
G01X2088596Y3112508D01*
G01X2097655Y3112570D01*
G01X2106713Y3112632D01*
G01X2125084Y3146932D01*
G01X2143456Y3181232D01*
G01X2142993Y3181381D01*
G01X2136925Y3184321D01*
G01X2134547Y3185854D01*
G01X2132169Y3187386D01*
G01X2129809Y3189443D01*
G01X2127449Y3191500D01*
G01X2127796Y3190276D01*
G01X2128144Y3189052D01*
G01X2128144Y3187056D01*
G01X2127860Y3185806D01*
G01X2127576Y3184557D01*
G01X2127576Y3184557D01*
G01X2088823Y3112867D01*
G01X2088596Y3112508D01*
G01X2038304Y3112508D01*
G01X2046527Y3112569D01*
G01X2054819Y3112632D01*
G01X2073013Y3146590D01*
G01X2091206Y3180548D01*
G01X2091214Y3180897D01*
G01X2086569Y3183027D01*
G01X2084829Y3183999D01*
G01X2083089Y3184971D01*
G01X2079205Y3187726D01*
G01X2077268Y3189201D01*
G01X2077265Y3185736D01*
G01X2076980Y3184798D01*
G01X2076695Y3183860D01*
G01X2057613Y3148609D01*
G01X2038530Y3113359D01*
G01X2038382Y3112933D01*
G01X2038382Y3112933D01*
G01X2038234Y3112507D01*
G01X2004324Y3112507D01*
G01X2020593Y3142888D01*
G01X2040706Y3180227D01*
G01X2040467Y3180312D01*
G01X2035302Y3182649D01*
G01X2030129Y3185806D01*
G01X2025746Y3189306D01*
G01X2022353Y3192810D01*
G01X2021174Y3194231D01*
G01X2019996Y3195651D01*
G01X2018800Y3197448D01*
G01X2017605Y3199246D01*
G01X2016326Y3201691D01*
G01X2015047Y3204136D01*
G01X2014146Y3206648D01*
G01X2013245Y3209160D01*
G01X2012652Y3211833D01*
G01X2012059Y3214506D01*
G01X2012076Y3225589D01*
G01X2012769Y3228551D01*
G01X2013462Y3231512D01*
G01X2014394Y3233975D01*
G01X2015326Y3236437D01*
G01X2016621Y3238861D01*
G01X2017917Y3241285D01*
G01X2019465Y3243439D01*
G01X2021014Y3245593D01*
G01X2022438Y3247201D01*
G01X2023861Y3248810D01*
G01X2025411Y3249755D01*
G01X2026960Y3250700D01*
G01X2028273Y3251056D01*
G01X2029585Y3251411D01*
G01X2033816Y3251411D01*
G01X2034878Y3251069D01*
G01X2035940Y3250727D01*
G01X2037170Y3251227D01*
G01X2038401Y3251727D01*
G01X2040418Y3251836D01*
G01X2042435Y3251945D01*
G01X2044105Y3251532D01*
G01X2045776Y3251120D01*
G01X2047271Y3250237D01*
G01X2048767Y3249354D01*
G01X2049710Y3248303D01*
G01X2050654Y3247252D01*
G01X2051308Y3245946D01*
G01X2051963Y3244641D01*
G01X2052242Y3243261D01*
G01X2052522Y3241880D01*
G01X2052343Y3240578D01*
G01X2052165Y3239275D01*
G01X2051146Y3236787D01*
G01X2049359Y3234608D01*
G01X2047573Y3232428D01*
G01X2046564Y3230659D01*
G01X2045556Y3228891D01*
G01X2044239Y3225054D01*
G01X2043934Y3222966D01*
G01X2043630Y3220879D01*
G01X2043796Y3218867D01*
G01X2043963Y3216856D01*
G01X2044479Y3214881D01*
G01X2044996Y3212905D01*
G01X2045991Y3210965D01*
G01X2046987Y3209026D01*
G01X2048098Y3207521D01*
G01X2049210Y3206016D01*
G01X2052863Y3202680D01*
G01X2054412Y3201728D01*
G01X2055962Y3200775D01*
G01X2057511Y3200068D01*
G01X2059061Y3199361D01*
G01X2060740Y3198873D01*
G01X2062418Y3198385D01*
G01X2063248Y3198234D01*
G01X2064078Y3198082D01*
G01X2066606Y3197772D01*
G01X2069133Y3197462D01*
G01X2070142Y3197086D01*
G01X2069477Y3198131D01*
G01X2068811Y3199177D01*
G01X2068021Y3200474D01*
G01X2067230Y3201771D01*
G01X2064918Y3206959D01*
G01X2064256Y3209200D01*
G01X2063595Y3211440D01*
G01X2062799Y3215921D01*
G01X2062478Y3221580D01*
G01X2063082Y3227240D01*
G01X2063742Y3229933D01*
G01X2064401Y3232627D01*
G01X2065174Y3234650D01*
G01X2065947Y3236673D01*
G01X2068399Y3241389D01*
G01X2069847Y3243511D01*
G01X2071294Y3245634D01*
G01X2072986Y3247554D01*
G01X2074677Y3249474D01*
G01X2077397Y3251105D01*
G01X2079980Y3252001D01*
G01X2084886Y3251982D01*
G01X2085953Y3251616D01*
G01X2087019Y3251250D01*
G01X2087675Y3251564D01*
G01X2088331Y3251878D01*
G01X2090159Y3252164D01*
G01X2091988Y3252451D01*
G01X2093652Y3252190D01*
G01X2095316Y3251930D01*
G01X2096687Y3251356D01*
G01X2098057Y3250781D01*
G01X2101022Y3248302D01*
G01X2102964Y3244715D01*
G01X2102964Y3239503D01*
G01X2102332Y3238223D01*
G01X2101699Y3236943D01*
G01X2100048Y3234921D01*
G01X2098398Y3232900D01*
G01X2096597Y3229960D01*
G01X2095871Y3228010D01*
G01X2095145Y3226061D01*
G01X2094823Y3224236D01*
G01X2094501Y3222411D01*
G01X2094638Y3219519D01*
G01X2094775Y3216628D01*
G01X2095450Y3214556D01*
G01X2096124Y3212483D01*
G01X2097060Y3210782D01*
G01X2097996Y3209082D01*
G01X2098782Y3208021D01*
G01X2099567Y3206959D01*
G01X2102111Y3204247D01*
G01X2104187Y3202819D01*
G01X2106262Y3201391D01*
G01X2107970Y3200607D01*
G01X2109679Y3199823D01*
G01X2111812Y3199208D01*
G01X2113946Y3198594D01*
G01X2116965Y3198232D01*
G01X2119985Y3197871D01*
G01X2122721Y3196674D01*
G01X2122721Y3196928D01*
G01X2120981Y3199413D01*
G01X2119758Y3201639D01*
G01X2118535Y3203865D01*
G01X2117681Y3205906D01*
G01X2116828Y3207948D01*
G01X2116153Y3210408D01*
G01X2115479Y3212868D01*
G01X2115102Y3215455D01*
G01X2114725Y3218043D01*
G01X2114725Y3223938D01*
G01X2115090Y3226447D01*
G01X2115456Y3228955D01*
G01X2115972Y3230927D01*
G01X2116488Y3232900D01*
G01X2117432Y3235376D01*
G01X2118375Y3237852D01*
G01X2120038Y3240800D01*
G01X2121701Y3243747D01*
G01X2123361Y3245870D01*
G01X2125020Y3247992D01*
G01X2127818Y3250644D01*
G01X2129466Y3251384D01*
G01X2131114Y3252124D01*
G01X2132276Y3252346D01*
G01X2133438Y3252567D01*
G01X2136914Y3252352D01*
G01X2139249Y3251629D01*
G01X2140476Y3252034D01*
G01X2141702Y3252439D01*
G01X2144027Y3252440D01*
G01X2146351Y3252441D01*
G01X2147798Y3251922D01*
G01X2149246Y3251403D01*
G01X2151709Y3249913D01*
G01X2153942Y3247315D01*
G01X2155131Y3244455D01*
G01X2155121Y3242214D01*
G01X2155111Y3239974D01*
G01X2154516Y3238605D01*
G01X2153921Y3237236D01*
G01X2152236Y3235219D01*
G01X2150552Y3233203D01*
G01X2149435Y3231283D01*
G01X2148319Y3229362D01*
G01X2146973Y3225118D01*
G01X2146752Y3222995D01*
G01X2146531Y3220872D01*
G01X2146766Y3218750D01*
G01X2147001Y3216628D01*
G01X2147525Y3214884D01*
G01X2148048Y3213140D01*
G01X2148911Y3211436D01*
G01X2149773Y3209732D01*
G01X2150837Y3208301D01*
G01X2151900Y3206871D01*
G01X2153351Y3205441D01*
G01X2154801Y3204010D01*
G01X2156501Y3202848D01*
G01X2158200Y3201686D01*
G01X2160281Y3200750D01*
G01X2162363Y3199813D01*
G01X2164132Y3199319D01*
G01X2165902Y3198824D01*
G01X2168834Y3198473D01*
G01X2171766Y3198122D01*
G01X2174291Y3197246D01*
G01X2175477Y3196501D01*
G01X2176663Y3195756D01*
G01X2178489Y3193721D01*
G01X2179160Y3192383D01*
G01X2179830Y3191046D01*
G01X2180103Y3189545D01*
G01X2180375Y3188045D01*
G01X2179985Y3186301D01*
G01X2179596Y3184557D01*
G01X2160159Y3148649D01*
G01X2140722Y3112740D01*
G01X2141020Y3112469D01*
G01X2198990Y3112707D01*
G01X2256959Y3112946D01*
G01X2259208Y3112468D01*
G01X2264199Y3112703D01*
G01X2266149Y3112393D01*
G01X2268099Y3112084D01*
G01X2270960Y3110888D01*
G01X2272384Y3109659D01*
G01X2273808Y3108429D01*
G01X2274582Y3106993D01*
G01X2275356Y3105557D01*
G01X2275660Y3104065D01*
G01X2275964Y3102574D01*
G01X2275347Y3099292D01*
G01X2273829Y3096546D01*
G01X2271942Y3094800D01*
G01X2270054Y3093053D01*
G01X2267825Y3088914D01*
G01X2267189Y3086626D01*
G01X2266554Y3084339D01*
G01X2266398Y3082332D01*
G01X2266243Y3080324D01*
G01X2266853Y3076143D01*
G01X2268179Y3072306D01*
G01X2269038Y3070747D01*
G01X2269897Y3069187D01*
G01X2271460Y3067292D01*
G01X2273024Y3065396D01*
G01X2275994Y3063053D01*
G01X2277802Y3061989D01*
G01X2279610Y3060924D01*
G01X2281207Y3060311D01*
G01X2282804Y3059697D01*
G01X2284693Y3059228D01*
G01X2286583Y3058758D01*
G01X2288967Y3058515D01*
G01X2291352Y3058271D01*
G01X2292712Y3057798D01*
G01X2294072Y3057325D01*
G01X2295289Y3056507D01*
G01X2296507Y3055689D01*
G01X2298554Y3053324D01*
G01X2299122Y3051968D01*
G01X2299689Y3050611D01*
G01X2299817Y3048943D01*
G01X2299945Y3047274D01*
G01X2299645Y3045999D01*
G01X2299346Y3044724D01*
G01X2251977Y2957481D01*
G01X2250638Y2956228D01*
G01X2249299Y2954976D01*
G01X2247607Y2954253D01*
G01X2245916Y2953530D01*
G01X2242528Y2953000D01*
G01X2238547Y2953835D01*
G01X2237514Y2953827D01*
G01X2235260Y2953670D01*
G01X2233006Y2953513D01*
G01X2230572Y2954072D01*
G01X2229200Y2954686D01*
G01X2227827Y2955300D01*
G01X2226438Y2956630D01*
G01X2225049Y2957959D01*
G01X2224409Y2959126D01*
G01X2223769Y2960292D01*
G01X2223440Y2961564D01*
G01X2223112Y2962835D01*
G01X2223253Y2964511D01*
G01X2223393Y2966188D01*
G01X2224430Y2968546D01*
G01X2263727Y3041632D01*
G01X2263718Y3041886D01*
G01X2262241Y3042470D01*
G01X2260763Y3043055D01*
G01X2255592Y3045896D01*
G01X2251202Y3048940D01*
G01X2246037Y3053708D01*
G01X2246796Y3052278D01*
G01X2247556Y3050847D01*
G01X2247667Y3048786D01*
G01X2247778Y3046726D01*
G01X2247475Y3045603D01*
G01X2247171Y3044480D01*
G01X2229582Y3012055D01*
G01X2211992Y2979629D01*
G01X2205983Y2968604D01*
G01X2199974Y2957578D01*
G01X2198456Y2955897D01*
G01X2197142Y2954995D01*
G01X2195827Y2954093D01*
G01X2194217Y2953596D01*
G01X2192607Y2953100D01*
G01X2188657Y2953100D01*
G01X2187426Y2953438D01*
G01X2186196Y2953776D01*
G01X2184928Y2953336D01*
G01X2183199Y2953189D01*
G01X2181471Y2953043D01*
G01X2179862Y2953419D01*
G01X2178253Y2953796D01*
G01X2176974Y2954387D01*
G01X2175695Y2954979D01*
G01X2174351Y2956206D01*
G01X2173007Y2957433D01*
G01X2171511Y2960354D01*
G01X2171217Y2961798D01*
G01X2170923Y2963241D01*
G01X2171203Y2964895D01*
G01X2171483Y2966549D01*
G01X2174547Y2972319D01*
G01X2193053Y3006767D01*
G01X2211560Y3041214D01*
G01X2211560Y3041538D01*
G01X2210134Y3042114D01*
G01X2208707Y3042690D01*
G01X2206281Y3043994D01*
G01X2203855Y3045298D01*
G01X2201832Y3046694D01*
G01X2199809Y3048090D01*
G01X2198145Y3049469D01*
G01X2196480Y3050847D01*
G01X2196877Y3049904D01*
G01X2197161Y3046838D01*
G01X2196762Y3045423D01*
G01X2196364Y3044008D01*
G01X2172948Y3000856D01*
G01X2149532Y2957704D01*
G01X2148673Y2956635D01*
G01X2147814Y2955566D01*
G01X2146695Y2954836D01*
G01X2145576Y2954106D01*
G01X2144543Y2953632D01*
G01X2143510Y2953158D01*
G01X2140773Y2952628D01*
G01X2138587Y2952628D01*
G01X2137174Y2952967D01*
G01X2135762Y2953306D01*
G37*
G04 Image End*

G04 Text Start*
G54D10*
G01X2376715Y1566313D02*
G01X2373667Y1572663D01*
G01X2367317Y1578759D01*
G01X2361221Y1581807D01*
G01X2348775Y1581807D01*
G01X2342679Y1578759D01*
G01X2336329Y1572663D01*
G01X2333281Y1566313D01*
G01X2330233Y1557169D01*
G01X2330233Y1541675D01*
G01X2333281Y1532277D01*
G01X2336329Y1526181D01*
G01X2342679Y1519831D01*
G01X2348775Y1516783D01*
G01X2361221Y1516783D01*
G01X2367317Y1519831D01*
G01X2373667Y1526181D01*
G01X2376715Y1532277D01*
G01X2413037Y1581807D02*
G01X2447073Y1581807D01*
G01X2428531Y1557169D01*
G01X2437675Y1557169D01*
G01X2444025Y1554121D01*
G01X2447073Y1550819D01*
G01X2450121Y1541675D01*
G01X2450121Y1535325D01*
G01X2447073Y1526181D01*
G01X2440723Y1519831D01*
G01X2431579Y1516783D01*
G01X2422181Y1516783D01*
G01X2413037Y1519831D01*
G01X2409989Y1523133D01*
G01X2406687Y1529229D01*
G01X2230228Y2089331D02*
G01X2230228Y2024307D01*
G01X2230228Y2089331D02*
G01X2258168Y2089331D01*
G01X2267312Y2086283D01*
G01X2270360Y2083235D01*
G01X2273662Y2077139D01*
G01X2273662Y2070789D01*
G01X2270360Y2064693D01*
G01X2267312Y2061645D01*
G01X2258168Y2058343D01*
G01X2230228Y2058343D01*
G01X2251818Y2058343D02*
G01X2273662Y2024307D01*
G01X2303634Y2077139D02*
G01X2309984Y2080187D01*
G01X2319128Y2089331D01*
G01X2319128Y2024307D01*
G01X2027719Y2091831D02*
G01X2027719Y2026807D01*
G01X2027719Y2091831D02*
G01X2055659Y2091831D01*
G01X2064803Y2088783D01*
G01X2067851Y2085735D01*
G01X2071153Y2079639D01*
G01X2071153Y2073289D01*
G01X2067851Y2067193D01*
G01X2064803Y2064145D01*
G01X2055659Y2060843D01*
G01X2027719Y2060843D01*
G01X2049309Y2060843D02*
G01X2071153Y2026807D01*
G01X2104427Y2076337D02*
G01X2104427Y2079639D01*
G01X2107475Y2085735D01*
G01X2110523Y2088783D01*
G01X2116619Y2091831D01*
G01X2129065Y2091831D01*
G01X2135161Y2088783D01*
G01X2138463Y2085735D01*
G01X2141511Y2079639D01*
G01X2141511Y2073289D01*
G01X2138463Y2067193D01*
G01X2132113Y2057795D01*
G01X2101125Y2026807D01*
G01X2144559Y2026807D01*
G01X1814646Y2034858D02*
G01X1814646Y1969834D01*
G01X1814646Y2034858D02*
G01X1842586Y2034858D01*
G01X1851730Y2031810D01*
G01X1854778Y2028762D01*
G01X1858080Y2022666D01*
G01X1858080Y2016316D01*
G01X1854778Y2010220D01*
G01X1851730Y2007172D01*
G01X1842586Y2003870D01*
G01X1814646Y2003870D01*
G01X1836236Y2003870D02*
G01X1858080Y1969834D01*
G01X1894402Y2034858D02*
G01X1928438Y2034858D01*
G01X1909896Y2010220D01*
G01X1919040Y2010220D01*
G01X1925390Y2007172D01*
G01X1928438Y2003870D01*
G01X1931486Y1994726D01*
G01X1931486Y1988376D01*
G01X1928438Y1979232D01*
G01X1922088Y1972882D01*
G01X1912944Y1969834D01*
G01X1903546Y1969834D01*
G01X1894402Y1972882D01*
G01X1891354Y1976184D01*
G01X1888052Y1982280D01*
G01X1815208Y1941824D02*
G01X1815208Y1876800D01*
G01X1815208Y1941824D02*
G01X1843148Y1941824D01*
G01X1852292Y1938776D01*
G01X1855340Y1935728D01*
G01X1858642Y1929632D01*
G01X1858642Y1923282D01*
G01X1855340Y1917186D01*
G01X1852292Y1914138D01*
G01X1843148Y1910836D01*
G01X1815208Y1910836D01*
G01X1836798Y1910836D02*
G01X1858642Y1876800D01*
G01X1919602Y1941824D02*
G01X1888614Y1898644D01*
G01X1935096Y1898644D01*
G01X1919602Y1941824D02*
G01X1919602Y1876800D01*
G01X1815208Y1849320D02*
G01X1815208Y1784296D01*
G01X1815208Y1849320D02*
G01X1843148Y1849320D01*
G01X1852292Y1846272D01*
G01X1855340Y1843224D01*
G01X1858642Y1837128D01*
G01X1858642Y1830778D01*
G01X1855340Y1824682D01*
G01X1852292Y1821634D01*
G01X1843148Y1818332D01*
G01X1815208Y1818332D01*
G01X1836798Y1818332D02*
G01X1858642Y1784296D01*
G01X1925952Y1849320D02*
G01X1894964Y1849320D01*
G01X1891916Y1821634D01*
G01X1894964Y1824682D01*
G01X1904108Y1827730D01*
G01X1913506Y1827730D01*
G01X1922650Y1824682D01*
G01X1929000Y1818332D01*
G01X1932048Y1809188D01*
G01X1932048Y1802838D01*
G01X1929000Y1793694D01*
G01X1922650Y1787344D01*
G01X1913506Y1784296D01*
G01X1904108Y1784296D01*
G01X1894964Y1787344D01*
G01X1891916Y1790646D01*
G01X1888614Y1796742D01*
G01X1815208Y1756815D02*
G01X1815208Y1691791D01*
G01X1815208Y1756815D02*
G01X1843148Y1756815D01*
G01X1852292Y1753767D01*
G01X1855340Y1750719D01*
G01X1858642Y1744623D01*
G01X1858642Y1738273D01*
G01X1855340Y1732177D01*
G01X1852292Y1729129D01*
G01X1843148Y1725827D01*
G01X1815208Y1725827D01*
G01X1836798Y1725827D02*
G01X1858642Y1691791D01*
G01X1925952Y1747671D02*
G01X1922650Y1753767D01*
G01X1913506Y1756815D01*
G01X1907410Y1756815D01*
G01X1898012Y1753767D01*
G01X1891916Y1744623D01*
G01X1888614Y1729129D01*
G01X1888614Y1713635D01*
G01X1891916Y1701189D01*
G01X1898012Y1694839D01*
G01X1907410Y1691791D01*
G01X1910458Y1691791D01*
G01X1919602Y1694839D01*
G01X1925952Y1701189D01*
G01X1929000Y1710333D01*
G01X1929000Y1713635D01*
G01X1925952Y1722779D01*
G01X1919602Y1729129D01*
G01X1910458Y1732177D01*
G01X1907410Y1732177D01*
G01X1898012Y1729129D01*
G01X1891916Y1722779D01*
G01X1888614Y1713635D01*
G01X2057720Y1384297D02*
G01X2057720Y1319273D01*
G01X2057720Y1384297D02*
G01X2085660Y1384297D01*
G01X2094804Y1381249D01*
G01X2097852Y1378201D01*
G01X2101154Y1372105D01*
G01X2101154Y1365755D01*
G01X2097852Y1359659D01*
G01X2094804Y1356611D01*
G01X2085660Y1353309D01*
G01X2057720Y1353309D01*
G01X2079310Y1353309D02*
G01X2101154Y1319273D01*
G01X2174560Y1375153D02*
G01X2168464Y1381249D01*
G01X2159066Y1384297D01*
G01X2146620Y1384297D01*
G01X2137476Y1381249D01*
G01X2131126Y1375153D01*
G01X2131126Y1368803D01*
G01X2134428Y1362707D01*
G01X2137476Y1359659D01*
G01X2143572Y1356611D01*
G01X2162114Y1350261D01*
G01X2168464Y1347213D01*
G01X2171512Y1344165D01*
G01X2174560Y1337815D01*
G01X2174560Y1328671D01*
G01X2168464Y1322321D01*
G01X2159066Y1319273D01*
G01X2146620Y1319273D01*
G01X2137476Y1322321D01*
G01X2131126Y1328671D01*
G01X2226376Y1384297D02*
G01X2226376Y1319273D01*
G01X2204532Y1384297D02*
G01X2247966Y1384297D01*
G01X2088653Y972633D02*
G01X2082303Y978729D01*
G01X2073159Y981777D01*
G01X2060713Y981777D01*
G01X2051315Y978729D01*
G01X2045219Y972633D01*
G01X2045219Y966283D01*
G01X2048267Y960187D01*
G01X2051315Y957139D01*
G01X2057665Y954091D01*
G01X2076207Y947741D01*
G01X2082303Y944693D01*
G01X2085351Y941645D01*
G01X2088653Y935295D01*
G01X2088653Y926151D01*
G01X2082303Y919801D01*
G01X2073159Y916753D01*
G01X2060713Y916753D01*
G01X2051315Y919801D01*
G01X2045219Y926151D01*
G01X2118625Y981777D02*
G01X2134119Y916753D01*
G01X2149613Y981777D02*
G01X2134119Y916753D01*
G01X2149613Y981777D02*
G01X2165107Y916753D01*
G01X2180601Y981777D02*
G01X2165107Y916753D01*
G01X2229369Y981777D02*
G01X2219971Y978729D01*
G01X2213875Y969585D01*
G01X2210573Y954091D01*
G01X2210573Y944693D01*
G01X2213875Y929199D01*
G01X2219971Y919801D01*
G01X2229369Y916753D01*
G01X2235465Y916753D01*
G01X2244609Y919801D01*
G01X2250959Y929199D01*
G01X2254007Y944693D01*
G01X2254007Y954091D01*
G01X2250959Y969585D01*
G01X2244609Y978729D01*
G01X2235465Y981777D01*
G01X2229369Y981777D01*
G01X2152169Y2292617D02*
G01X2198651Y2292617D01*
G01X2207795Y2295665D01*
G01X2214145Y2301761D01*
G01X2217193Y2311159D01*
G01X2217193Y2317255D01*
G01X2214145Y2326653D01*
G01X2207795Y2332749D01*
G01X2198651Y2336051D01*
G01X2152169Y2336051D01*
G01X2164361Y2366023D02*
G01X2161313Y2372373D01*
G01X2152169Y2381517D01*
G01X2217193Y2381517D01*
G01X2270230Y1779316D02*
G01X2270230Y1732834D01*
G01X2273278Y1723690D01*
G01X2279374Y1717340D01*
G01X2288772Y1714292D01*
G01X2294868Y1714292D01*
G01X2304266Y1717340D01*
G01X2310362Y1723690D01*
G01X2313664Y1732834D01*
G01X2313664Y1779316D01*
G01X2346938Y1763822D02*
G01X2346938Y1767124D01*
G01X2349986Y1773220D01*
G01X2353034Y1776268D01*
G01X2359130Y1779316D01*
G01X2371576Y1779316D01*
G01X2377672Y1776268D01*
G01X2380974Y1773220D01*
G01X2384022Y1767124D01*
G01X2384022Y1760774D01*
G01X2380974Y1754678D01*
G01X2374624Y1745280D01*
G01X2343636Y1714292D01*
G01X2387070Y1714292D01*
G01X2148375Y2657749D02*
G01X2213399Y2701183D01*
G01X2148375Y2701183D02*
G01X2213399Y2657749D01*
G01X2160567Y2731155D02*
G01X2157519Y2737505D01*
G01X2148375Y2746649D01*
G01X2213399Y2746649D01*
G01X1837454Y1328529D02*
G01X1831358Y1322179D01*
G01X1828310Y1313035D01*
G01X1828310Y1300589D01*
G01X1831358Y1291191D01*
G01X1837454Y1285095D01*
G01X1843804Y1285095D01*
G01X1849900Y1288143D01*
G01X1852948Y1291191D01*
G01X1855996Y1297541D01*
G01X1862346Y1316083D01*
G01X1865394Y1322179D01*
G01X1868442Y1325227D01*
G01X1874792Y1328529D01*
G01X1883936Y1328529D01*
G01X1890286Y1322179D01*
G01X1893334Y1313035D01*
G01X1893334Y1300589D01*
G01X1890286Y1291191D01*
G01X1883936Y1285095D01*
G01X1828310Y1358501D02*
G01X1893334Y1358501D01*
G01X1828310Y1358501D02*
G01X1828310Y1380345D01*
G01X1831358Y1389489D01*
G01X1837454Y1395839D01*
G01X1843804Y1398887D01*
G01X1852948Y1401935D01*
G01X1868442Y1401935D01*
G01X1877840Y1398887D01*
G01X1883936Y1395839D01*
G01X1890286Y1389489D01*
G01X1893334Y1380345D01*
G01X1893334Y1358501D01*
G01X1828310Y1450703D02*
G01X1831358Y1444353D01*
G01X1837454Y1438257D01*
G01X1843804Y1435209D01*
G01X1852948Y1431907D01*
G01X1868442Y1431907D01*
G01X1877840Y1435209D01*
G01X1883936Y1438257D01*
G01X1890286Y1444353D01*
G01X1893334Y1450703D01*
G01X1893334Y1462895D01*
G01X1890286Y1469245D01*
G01X1883936Y1475341D01*
G01X1877840Y1478389D01*
G01X1868442Y1481437D01*
G01X1852948Y1481437D01*
G01X1843804Y1478389D01*
G01X1837454Y1475341D01*
G01X1831358Y1469245D01*
G01X1828310Y1462895D01*
G01X1828310Y1450703D01*
G04 Text End*

G04 PolygonModel Start*
G54D11*
G01X2469978Y2118478D02*
G01X2469978Y2197487D01*
G01X2370258Y2197487D02*
G01X2370258Y2118478D01*
G01X2385498Y2103238D02*
G01X2454738Y2103238D01*
G01X2469978Y2321739D02*
G01X2469978Y2242730D01*
G01X2370258Y2242730D02*
G01X2370258Y2321739D01*
G01X2385498Y2336979D02*
G01X2454738Y2336979D01*
G01X2370258Y2118478D02*
G03X2385498Y2103238I15240J0D01*
G01X2454738Y2103238D02*
G03X2469978Y2118478I0J15240D01*
G01X2370258Y2321739D02*
G02X2385498Y2336979I15240J0D01*
G01X2454738Y2336979D02*
G02X2469978Y2321739I0J-15240D01*
G01X2370258Y2556750D02*
G01X2370258Y2477741D01*
G01X2469978Y2477741D02*
G01X2469978Y2556750D01*
G01X2454738Y2571990D02*
G01X2385498Y2571990D01*
G01X2370258Y2353489D02*
G01X2370258Y2432499D01*
G01X2469978Y2432499D02*
G01X2469978Y2353489D01*
G01X2454738Y2338249D02*
G01X2385498Y2338249D01*
G01X2469978Y2556750D02*
G03X2454738Y2571990I-15240J0D01*
G01X2385498Y2571990D02*
G03X2370258Y2556750I0J-15240D01*
G01X2469978Y2353489D02*
G02X2454738Y2338249I-15240J0D01*
G01X2385498Y2338249D02*
G02X2370258Y2353489I0J15240D01*
G01X2082269Y1500140D02*
G01X2161279Y1500140D01*
G01X2161279Y1599860D02*
G01X2082269Y1599860D01*
G01X2067029Y1584620D02*
G01X2067029Y1515380D01*
G01X2285530Y1500140D02*
G01X2206521Y1500140D01*
G01X2206521Y1599860D02*
G01X2285530Y1599860D01*
G01X2300770Y1584620D02*
G01X2300770Y1515380D01*
G01X2082269Y1599860D02*
G03X2067029Y1584620I0J-15240D01*
G01X2067029Y1515380D02*
G03X2082269Y1500140I15240J0D01*
G01X2285530Y1599860D02*
G02X2300770Y1584620I0J-15240D01*
G01X2300770Y1515380D02*
G02X2285530Y1500140I-15240J0D01*
G01X2254990Y1895235D02*
G01X2183187Y1895235D01*
G01X2183187Y1895235D02*
G01X2183187Y1994955D01*
G01X2183187Y1994955D02*
G01X2254990Y1994955D01*
G01X2300232Y1895235D02*
G01X2372036Y1895235D01*
G01X2372036Y1895235D02*
G01X2372036Y1994955D01*
G01X2372036Y1994955D02*
G01X2300232Y1994955D01*
G01X2110223Y1994955D02*
G01X2182026Y1994955D01*
G01X2182026Y1994955D02*
G01X2182026Y1895235D01*
G01X2182026Y1895235D02*
G01X2110223Y1895235D01*
G01X2064981Y1994955D02*
G01X1993177Y1994955D01*
G01X1993177Y1994955D02*
G01X1993177Y1895235D01*
G01X1993177Y1895235D02*
G01X2064981Y1895235D01*
G01X1930214Y2162463D02*
G01X2002018Y2162463D01*
G01X2002018Y2162463D02*
G01X2002018Y2062743D01*
G01X2002018Y2062743D02*
G01X1930214Y2062743D01*
G01X1884972Y2162463D02*
G01X1813169Y2162463D01*
G01X1813169Y2162463D02*
G01X1813169Y2062743D01*
G01X1813169Y2062743D02*
G01X1884972Y2062743D01*
G01X1930214Y2284969D02*
G01X2002018Y2284969D01*
G01X2002018Y2284969D02*
G01X2002018Y2185249D01*
G01X2002018Y2185249D02*
G01X1930214Y2185249D01*
G01X1884972Y2284969D02*
G01X1813169Y2284969D01*
G01X1813169Y2284969D02*
G01X1813169Y2185249D01*
G01X1813169Y2185249D02*
G01X1884972Y2185249D01*
G01X1930214Y2404975D02*
G01X2002018Y2404975D01*
G01X2002018Y2404975D02*
G01X2002018Y2305255D01*
G01X2002018Y2305255D02*
G01X1930214Y2305255D01*
G01X1884972Y2404975D02*
G01X1813169Y2404975D01*
G01X1813169Y2404975D02*
G01X1813169Y2305255D01*
G01X1813169Y2305255D02*
G01X1884972Y2305255D01*
G01X1930214Y2524981D02*
G01X2002018Y2524981D01*
G01X2002018Y2524981D02*
G01X2002018Y2425261D01*
G01X2002018Y2425261D02*
G01X1930214Y2425261D01*
G01X1884972Y2524981D02*
G01X1813169Y2524981D01*
G01X1813169Y2524981D02*
G01X1813169Y2425261D01*
G01X1813169Y2425261D02*
G01X1884972Y2425261D01*
G54D12*
G01X2047507Y1280005D02*
G01X2222495Y1280005D01*
G01X2047507Y1120005D02*
G01X2222495Y1120005D01*
G01X2047507Y880005D02*
G01X2222495Y880005D01*
G01X2047507Y720005D02*
G01X2222495Y720005D01*
G54D11*
G01X2051279Y2420538D02*
G01X2051279Y2495107D01*
G01X2051279Y2495107D02*
G01X2075851Y2495107D01*
G01X2316521Y2420538D02*
G01X2316521Y2495107D01*
G01X2316521Y2495107D02*
G01X2291949Y2495107D01*
G01X2051279Y2254437D02*
G01X2051279Y2179868D01*
G01X2051279Y2179868D02*
G01X2075851Y2179868D01*
G01X2316521Y2254437D02*
G01X2316521Y2179868D01*
G01X2316521Y2179868D02*
G01X2291949Y2179868D01*
G54D13*
G01X2235896Y1700502D02*
G01X2235896Y1804675D01*
G01X2131893Y1700502D02*
G01X2235896Y1700502D01*
G01X2235896Y1804675D02*
G01X2131893Y1804675D01*
G01X2131893Y1804675D02*
G01X2131893Y1700535D01*
G54D12*
G01X2133100Y2776200D02*
G01X2234700Y2776200D01*
G01X2234700Y2623800D02*
G01X2133100Y2623800D01*
G36*
G01X2161785Y608823D02*
G01X2135482Y582520D01*
G01X2148917Y569085D01*
G01X2175220Y595388D01*
G01X2161785Y608823D01*
G37*
G36*
G01X1914178Y391975D02*
G01X1958442Y347711D01*
G01X1971876Y361146D01*
G01X1927613Y405409D01*
G01X1914178Y391975D01*
G37*
G36*
G01X1958383Y405420D02*
G01X1914119Y361156D01*
G01X1927553Y347722D01*
G01X1971817Y391986D01*
G01X1958383Y405420D01*
G37*
G01X1770041Y3165107D02*
G01X1770041Y133320D01*
G01X1645610Y84D02*
G01X128422Y84D01*
G01X45Y142698D02*
G01X45Y3173646D01*
G01X129716Y3300077D02*
G01X1647162Y3300077D01*

G04 Rect Start*
G01X1385043Y700081D02*
G01X1385043Y-49919D01*
G01X385043Y-49919D01*
G01X385043Y700081D01*
G01X1385043Y700081D01*
G01X1085043Y3250081D02*
G01X1085043Y3150081D01*
G01X685043Y3150081D01*
G01X685043Y3250081D01*
G01X1085043Y3250081D01*
G36*
G01X637498Y2162076D02*
G01X637498Y2662076D01*
G01X1137498Y2662076D01*
G01X1137498Y2162076D01*
G01X637498Y2162076D01*
G37*
G04 Rect End*

G04 Circle Start*
G01X2096913Y1200013D02*
G03X2173113Y1200013I38100J0D01*
G03X2096913Y1200013I-38100J0D01*
G01X2096913Y800013D02*
G03X2173113Y800013I38100J0D01*
G03X2096913Y800013I-38100J0D01*
G54D14*
G01X2100207Y2146987D02*
G03X2115193Y2146987I7493J0D01*
G03X2100207Y2146987I-7493J0D01*
G54D16*
G01X2128972Y1676400D02*
G03X2137202Y1676400I4115J0D01*
G03X2128972Y1676400I-4115J0D01*
G04 Circle End*

M02*

