G04 Layer: TopLayer*
G04 EasyEDA Pro v2.2.40.8, 2025-10-17 17:15:36*
G04 Gerber Generator version 0.3*
G04 Scale: 100 percent, Rotated: No, Reflected: No*
G04 Dimensions in millimeters*
G04 Leading zeros omitted, absolute positions, 4 integers and 5 decimals*
G04 Generated by one-click*
%FSLAX45Y45*%
%MOMM*%
%AMOval*1,1,$1,$2,$3*1,1,$1,$4,$5*20,1,$1,$2,$3,$4,$5,0*%
%AMRect*21,1,$1,$2,0,0,$3*%
%ADD10C,0.2032*%
%ADD11C,0.254*%
%ADD12R,0.54X0.79009*%
%ADD13R,0.79009X0.54*%
%ADD14R,0.56566X0.54*%
%ADD15R,0.55001X0.55001*%
%ADD16R,0.28001X0.67501*%
%ADD17R,0.67501X0.28001*%
%ADD18C,0.18001*%
%ADD19R,1.0023X1.8*%
%ADD20R,1.0X1.8*%
%ADD21Oval,1.5X-0.17678X0.17678X0.17678X-0.17678*%
%ADD22Rect,1.5X2.0X45.0*%
%ADD23C,1.0*%
%ADD24C,1.524*%
%ADD25C,1.2*%
%ADD26C,1.1*%
%ADD27C,0.5*%
%ADD28C,0.2*%
G75*


G04 Copper Start*
G36*
G01X319959Y35734D02*
G01X189260Y35734D01*
G01X205056Y49785D01*
G01X217931Y66554D01*
G01X227426Y85443D01*
G01X233202Y105779D01*
G01X235055Y126839D01*
G01X232917Y147872D01*
G01X226866Y168129D01*
G01X217116Y186887D01*
G01X204015Y203480D01*
G01X188030Y217316D01*
G01X169730Y227901D01*
G01X149767Y234860D01*
G01X128852Y237944D01*
G01X107730Y237043D01*
G01X87153Y232189D01*
G01X67855Y223556D01*
G01X50523Y211450D01*
G01X35774Y196303D01*
G01X35774Y309858D01*
G01X50567Y294673D01*
G01X67957Y282548D01*
G01X87319Y273916D01*
G01X107961Y269087D01*
G01X129143Y268233D01*
G01X150107Y271385D01*
G01X170101Y278431D01*
G01X188410Y289117D01*
G01X204377Y303061D01*
G01X217431Y319765D01*
G01X227105Y338628D01*
G01X233051Y358976D01*
G01X235057Y380081D01*
G01X233051Y401185D01*
G01X227105Y421533D01*
G01X217431Y440396D01*
G01X204377Y457100D01*
G01X188410Y471044D01*
G01X170101Y481730D01*
G01X150107Y488776D01*
G01X129143Y491928D01*
G01X107961Y491074D01*
G01X87319Y486245D01*
G01X67957Y477613D01*
G01X50567Y465488D01*
G01X35774Y450303D01*
G01X35774Y563858D01*
G01X50567Y548673D01*
G01X67957Y536548D01*
G01X87319Y527916D01*
G01X107961Y523087D01*
G01X129143Y522233D01*
G01X150107Y525385D01*
G01X170101Y532431D01*
G01X188410Y543117D01*
G01X204377Y557061D01*
G01X217431Y573765D01*
G01X227105Y592628D01*
G01X233051Y612976D01*
G01X235057Y634081D01*
G01X233051Y655185D01*
G01X227105Y675533D01*
G01X217431Y694396D01*
G01X204377Y711100D01*
G01X188410Y725044D01*
G01X170101Y735730D01*
G01X150107Y742776D01*
G01X129143Y745928D01*
G01X107961Y745074D01*
G01X87319Y740245D01*
G01X67957Y731613D01*
G01X50567Y719488D01*
G01X35774Y704303D01*
G01X35774Y817858D01*
G01X49713Y803406D01*
G01X66008Y791674D01*
G01X84136Y783041D01*
G01X103514Y777782D01*
G01X123519Y776068D01*
G01X143509Y777952D01*
G01X162842Y783375D01*
G01X180896Y792163D01*
G01X197090Y804032D01*
G01X210906Y818602D01*
G01X211362Y819119D01*
G01X211563Y819350D01*
G01X224375Y834135D01*
G01X229047Y838923D01*
G01X789649Y838923D01*
G01X789649Y820983D01*
G01X793379Y803435D01*
G01X800676Y787046D01*
G01X811220Y772532D01*
G01X824552Y760528D01*
G01X840089Y751558D01*
G01X857151Y746014D01*
G01X874993Y744139D01*
G01X892834Y746014D01*
G01X909896Y751558D01*
G01X925433Y760528D01*
G01X938765Y772532D01*
G01X949310Y787046D01*
G01X956607Y803435D01*
G01X960337Y820983D01*
G01X960337Y838923D01*
G01X956607Y856471D01*
G01X949310Y872860D01*
G01X938765Y887374D01*
G01X925433Y899378D01*
G01X909896Y908348D01*
G01X892834Y913892D01*
G01X874993Y915767D01*
G01X874993Y915767D01*
G01X857151Y913892D01*
G01X840089Y908348D01*
G01X824552Y899378D01*
G01X811220Y887374D01*
G01X800676Y872860D01*
G01X793379Y856471D01*
G01X789649Y838923D01*
G01X229047Y838923D01*
G01X229561Y839450D01*
G01X232157Y841642D01*
G01X564978Y841642D01*
G01X576835Y843203D01*
G01X587885Y847780D01*
G01X597373Y855060D01*
G01X713961Y971648D01*
G01X1572454Y971648D01*
G01X1558313Y956448D01*
G01X1547220Y938899D01*
G01X1539556Y919604D01*
G01X1535585Y899227D01*
G01X1535443Y878466D01*
G01X1539134Y858036D01*
G01X1546531Y838638D01*
G01X1557382Y820939D01*
G01X1571313Y805546D01*
G01X1587845Y792988D01*
G01X1606410Y783696D01*
G01X1626372Y777990D01*
G01X1647043Y776067D01*
G01X1667715Y777990D01*
G01X1687676Y783696D01*
G01X1706242Y792988D01*
G01X1722774Y805546D01*
G01X1736704Y820939D01*
G01X1747555Y838638D01*
G01X1754953Y858036D01*
G01X1758644Y878466D01*
G01X1758501Y899227D01*
G01X1754530Y919604D01*
G01X1746866Y938899D01*
G01X1735774Y956448D01*
G01X1721633Y971648D01*
G01X1772536Y971648D01*
G01X1784394Y973209D01*
G01X1795443Y977786D01*
G01X1804932Y985067D01*
G01X1831384Y1011519D01*
G01X1874752Y1011519D01*
G01X1874752Y993579D01*
G01X1878482Y976031D01*
G01X1885779Y959642D01*
G01X1896323Y945128D01*
G01X1909655Y933124D01*
G01X1925192Y924154D01*
G01X1942254Y918610D01*
G01X1960096Y916735D01*
G01X1977937Y918610D01*
G01X1994999Y924154D01*
G01X2010536Y933124D01*
G01X2023868Y945128D01*
G01X2034413Y959642D01*
G01X2041710Y976031D01*
G01X2045440Y993579D01*
G01X2045440Y1011519D01*
G01X2041710Y1029067D01*
G01X2034413Y1045456D01*
G01X2023868Y1059970D01*
G01X2010536Y1071974D01*
G01X1994999Y1080944D01*
G01X1977937Y1086488D01*
G01X1960096Y1088363D01*
G01X1960096Y1088363D01*
G01X1942254Y1086488D01*
G01X1925192Y1080944D01*
G01X1909655Y1071974D01*
G01X1896323Y1059970D01*
G01X1885779Y1045456D01*
G01X1878482Y1029067D01*
G01X1874752Y1011519D01*
G01X1831384Y1011519D01*
G01X1936460Y1116595D01*
G01X1944275Y1116595D01*
G01X1949982Y1109370D01*
G01X1957342Y1103838D01*
G01X1965869Y1100366D01*
G01X1975000Y1099182D01*
G01X2030002Y1099182D01*
G01X2041069Y1100935D01*
G01X2051052Y1106022D01*
G01X2058976Y1113945D01*
G01X2064063Y1123929D01*
G01X2065816Y1134996D01*
G01X2065816Y1189997D01*
G01X2204185Y1189997D01*
G01X2204185Y1134996D01*
G01X2205937Y1123929D01*
G01X2211024Y1113945D01*
G01X2218948Y1106022D01*
G01X2228931Y1100935D01*
G01X2239999Y1099182D01*
G01X2295000Y1099182D01*
G01X2306067Y1100935D01*
G01X2316051Y1106022D01*
G01X2323974Y1113945D01*
G01X2329061Y1123929D01*
G01X2330814Y1134996D01*
G01X2330814Y1189997D01*
G01X2329389Y1200000D01*
G01X2330814Y1210002D01*
G01X2330814Y1265004D01*
G01X2329061Y1276071D01*
G01X2323974Y1286055D01*
G01X2316051Y1293978D01*
G01X2306067Y1299065D01*
G01X2295000Y1300818D01*
G01X2239999Y1300818D01*
G01X2228931Y1299065D01*
G01X2218948Y1293978D01*
G01X2211024Y1286055D01*
G01X2205937Y1276071D01*
G01X2204185Y1265004D01*
G01X2204185Y1210002D01*
G01X2205610Y1200000D01*
G01X2204185Y1189997D01*
G01X2204185Y1189997D01*
G01X2065816Y1189997D01*
G01X2064390Y1200000D01*
G01X2065816Y1210002D01*
G01X2065816Y1265004D01*
G01X2064063Y1276071D01*
G01X2058976Y1286055D01*
G01X2051052Y1293978D01*
G01X2041069Y1299065D01*
G01X2030002Y1300818D01*
G01X1975000Y1300818D01*
G01X1963933Y1299065D01*
G01X1953949Y1293978D01*
G01X1946026Y1286055D01*
G01X1940939Y1276071D01*
G01X1939186Y1265004D01*
G01X1939186Y1210002D01*
G01X1939231Y1208223D01*
G01X1917484Y1208223D01*
G01X1905626Y1206662D01*
G01X1894577Y1202085D01*
G01X1885088Y1194805D01*
G01X1753560Y1063276D01*
G01X1726648Y1063276D01*
G01X1739525Y1078880D01*
G01X1749384Y1096546D01*
G01X1755906Y1115697D01*
G01X1758876Y1135709D01*
G01X1758198Y1155928D01*
G01X1753894Y1175696D01*
G01X1746105Y1194367D01*
G01X1735084Y1211333D01*
G01X1721192Y1226040D01*
G01X1704880Y1238008D01*
G01X1686682Y1246846D01*
G01X1667191Y1252268D01*
G01X1647043Y1254095D01*
G01X1626895Y1252268D01*
G01X1607404Y1246846D01*
G01X1589206Y1238008D01*
G01X1572895Y1226040D01*
G01X1559002Y1211333D01*
G01X1547981Y1194367D01*
G01X1540192Y1175696D01*
G01X1535888Y1155928D01*
G01X1535211Y1135709D01*
G01X1538181Y1115697D01*
G01X1544702Y1096546D01*
G01X1554562Y1078880D01*
G01X1567438Y1063276D01*
G01X694984Y1063276D01*
G01X683126Y1061715D01*
G01X672077Y1057138D01*
G01X662589Y1049857D01*
G01X546001Y933270D01*
G01X228042Y933270D01*
G01X226357Y933344D01*
G01X219393Y945372D01*
G01X217613Y948144D01*
G01X217412Y948427D01*
G01X211096Y957318D01*
G01X209234Y959622D01*
G01X205191Y964231D01*
G01X203834Y965669D01*
G01X187840Y979451D01*
G01X169544Y989986D01*
G01X149597Y996902D01*
G01X128706Y999951D01*
G01X107614Y999027D01*
G01X87070Y994161D01*
G01X67804Y985527D01*
G01X50501Y973431D01*
G01X35774Y958303D01*
G01X35774Y1071858D01*
G01X50567Y1056673D01*
G01X67957Y1044548D01*
G01X87319Y1035916D01*
G01X107961Y1031087D01*
G01X129143Y1030233D01*
G01X150107Y1033385D01*
G01X170101Y1040431D01*
G01X188410Y1051117D01*
G01X204377Y1065061D01*
G01X217431Y1081765D01*
G01X227105Y1100628D01*
G01X233051Y1120976D01*
G01X235057Y1142081D01*
G01X233051Y1163185D01*
G01X227105Y1183533D01*
G01X219115Y1199114D01*
G01X398091Y1199114D01*
G01X401357Y1180771D01*
G01X408297Y1163480D01*
G01X418619Y1147969D01*
G01X431890Y1134892D01*
G01X418619Y1121814D01*
G01X408297Y1106303D01*
G01X401357Y1089013D01*
G01X398091Y1070669D01*
G01X398638Y1052046D01*
G01X402975Y1033926D01*
G01X410918Y1017072D01*
G01X422133Y1002194D01*
G01X436148Y989918D01*
G01X452374Y980760D01*
G01X470128Y975107D01*
G01X488661Y973196D01*
G01X488661Y973196D01*
G01X507194Y975107D01*
G01X524948Y980760D01*
G01X541173Y989918D01*
G01X555189Y1002194D01*
G01X566404Y1017072D01*
G01X574347Y1033926D01*
G01X578683Y1052046D01*
G01X579230Y1070669D01*
G01X575965Y1089013D01*
G01X569025Y1106303D01*
G01X558703Y1121814D01*
G01X545432Y1134892D01*
G01X558703Y1147969D01*
G01X569025Y1163480D01*
G01X575965Y1180771D01*
G01X579230Y1199114D01*
G01X578683Y1217738D01*
G01X574347Y1235858D01*
G01X566404Y1252711D01*
G01X555189Y1267589D01*
G01X541173Y1279866D01*
G01X524948Y1289023D01*
G01X507194Y1294676D01*
G01X488661Y1296588D01*
G01X470128Y1294676D01*
G01X452374Y1289023D01*
G01X436148Y1279866D01*
G01X422133Y1267589D01*
G01X410918Y1252711D01*
G01X402975Y1235858D01*
G01X398638Y1217738D01*
G01X398091Y1199114D01*
G01X219115Y1199114D01*
G01X217431Y1202396D01*
G01X204377Y1219100D01*
G01X188410Y1233044D01*
G01X170101Y1243730D01*
G01X150107Y1250776D01*
G01X129143Y1253928D01*
G01X107961Y1253074D01*
G01X87319Y1248245D01*
G01X67957Y1239613D01*
G01X50567Y1227488D01*
G01X35774Y1212303D01*
G01X35774Y1325858D01*
G01X50567Y1310673D01*
G01X67957Y1298548D01*
G01X87319Y1289916D01*
G01X107961Y1285087D01*
G01X129143Y1284233D01*
G01X150107Y1287385D01*
G01X170101Y1294431D01*
G01X188410Y1305117D01*
G01X204377Y1319061D01*
G01X217431Y1335765D01*
G01X227105Y1354628D01*
G01X233051Y1374976D01*
G01X235057Y1396081D01*
G01X1535029Y1396081D01*
G01X1536936Y1375498D01*
G01X1542593Y1355616D01*
G01X1551807Y1337113D01*
G01X1564264Y1320617D01*
G01X1579540Y1306691D01*
G01X1597114Y1295810D01*
G01X1616389Y1288343D01*
G01X1636708Y1284544D01*
G01X1657379Y1284544D01*
G01X1677697Y1288343D01*
G01X1696972Y1295810D01*
G01X1714547Y1306691D01*
G01X1729823Y1320617D01*
G01X1742279Y1337113D01*
G01X1751493Y1355616D01*
G01X1757150Y1375498D01*
G01X1759057Y1396081D01*
G01X1759057Y1396081D01*
G01X1757150Y1416663D01*
G01X1751493Y1436545D01*
G01X1742279Y1455048D01*
G01X1729823Y1471544D01*
G01X1714547Y1485470D01*
G01X1696972Y1496351D01*
G01X1677697Y1503818D01*
G01X1657379Y1507617D01*
G01X1636708Y1507617D01*
G01X1616389Y1503818D01*
G01X1597114Y1496351D01*
G01X1579540Y1485470D01*
G01X1564264Y1471544D01*
G01X1551807Y1455048D01*
G01X1542593Y1436545D01*
G01X1536936Y1416663D01*
G01X1535029Y1396081D01*
G01X235057Y1396081D01*
G01X235057Y1396081D01*
G01X233051Y1417185D01*
G01X227105Y1437533D01*
G01X217431Y1456396D01*
G01X204377Y1473100D01*
G01X188410Y1487044D01*
G01X170101Y1497730D01*
G01X150107Y1504776D01*
G01X129143Y1507928D01*
G01X107961Y1507074D01*
G01X87319Y1502245D01*
G01X67957Y1493613D01*
G01X50567Y1481488D01*
G01X35774Y1466303D01*
G01X35774Y1579858D01*
G01X50567Y1564673D01*
G01X67957Y1552548D01*
G01X87319Y1543916D01*
G01X107961Y1539087D01*
G01X129143Y1538233D01*
G01X150107Y1541385D01*
G01X170101Y1548431D01*
G01X188410Y1559117D01*
G01X204377Y1573061D01*
G01X217431Y1589765D01*
G01X227105Y1608628D01*
G01X233051Y1628976D01*
G01X235057Y1650081D01*
G01X233051Y1671185D01*
G01X227105Y1691533D01*
G01X217431Y1710396D01*
G01X204377Y1727100D01*
G01X188410Y1741044D01*
G01X170101Y1751730D01*
G01X150107Y1758776D01*
G01X129143Y1761928D01*
G01X107961Y1761074D01*
G01X87319Y1756245D01*
G01X67957Y1747613D01*
G01X50567Y1735488D01*
G01X35774Y1720303D01*
G01X35774Y1833858D01*
G01X50567Y1818673D01*
G01X67957Y1806548D01*
G01X87319Y1797916D01*
G01X107961Y1793087D01*
G01X129143Y1792233D01*
G01X150107Y1795385D01*
G01X170101Y1802431D01*
G01X188410Y1813117D01*
G01X204377Y1827061D01*
G01X217431Y1843765D01*
G01X227105Y1862628D01*
G01X233051Y1882976D01*
G01X235057Y1904081D01*
G01X233051Y1925185D01*
G01X227105Y1945533D01*
G01X217431Y1964396D01*
G01X204377Y1981100D01*
G01X188410Y1995044D01*
G01X170101Y2005730D01*
G01X150107Y2012776D01*
G01X129143Y2015928D01*
G01X107961Y2015074D01*
G01X87319Y2010245D01*
G01X67957Y2001613D01*
G01X50567Y1989488D01*
G01X35774Y1974303D01*
G01X35774Y2087858D01*
G01X50567Y2072673D01*
G01X67957Y2060548D01*
G01X87319Y2051916D01*
G01X107961Y2047087D01*
G01X129143Y2046233D01*
G01X150107Y2049385D01*
G01X170101Y2056431D01*
G01X188410Y2067117D01*
G01X204377Y2081061D01*
G01X217431Y2097765D01*
G01X227105Y2116628D01*
G01X233051Y2136976D01*
G01X235057Y2158081D01*
G01X233051Y2179185D01*
G01X227105Y2199533D01*
G01X217431Y2218396D01*
G01X204377Y2235100D01*
G01X188410Y2249044D01*
G01X170101Y2259730D01*
G01X150107Y2266776D01*
G01X129143Y2269928D01*
G01X107961Y2269074D01*
G01X87319Y2264245D01*
G01X67957Y2255613D01*
G01X50567Y2243488D01*
G01X35774Y2228303D01*
G01X35774Y2341858D01*
G01X50150Y2327029D01*
G01X67003Y2315093D01*
G01X85762Y2306453D01*
G01X105788Y2301404D01*
G01X126401Y2300117D01*
G01X146899Y2302636D01*
G01X166587Y2308876D01*
G01X184794Y2318625D01*
G01X200902Y2331550D01*
G01X214363Y2347213D01*
G01X224720Y2365081D01*
G01X231621Y2384547D01*
G01X236368Y2378972D01*
G01X330122Y2285218D01*
G01X339611Y2277937D01*
G01X350660Y2273360D01*
G01X362518Y2271799D01*
G01X1015050Y2271799D01*
G01X1026907Y2273360D01*
G01X1037957Y2277937D01*
G01X1047445Y2285218D01*
G01X1314252Y2552025D01*
G01X1314252Y1880092D01*
G01X1315813Y1868234D01*
G01X1320390Y1857185D01*
G01X1327671Y1847696D01*
G01X1431249Y1744119D01*
G01X1440737Y1736838D01*
G01X1451786Y1732261D01*
G01X1463644Y1730700D01*
G01X1569277Y1730700D01*
G01X1555928Y1715236D01*
G01X1545610Y1697604D01*
G01X1538666Y1678391D01*
G01X1535327Y1658237D01*
G01X1535703Y1637812D01*
G01X1539783Y1617795D01*
G01X1547430Y1598851D01*
G01X1558391Y1581612D01*
G01X1572301Y1566650D01*
G01X1588696Y1554463D01*
G01X1607032Y1545456D01*
G01X1626699Y1539929D01*
G01X1647043Y1538067D01*
G01X1667387Y1539929D01*
G01X1687054Y1545456D01*
G01X1705390Y1554463D01*
G01X1721786Y1566650D01*
G01X1735695Y1581612D01*
G01X1746656Y1598851D01*
G01X1754303Y1617795D01*
G01X1758383Y1637812D01*
G01X1758760Y1658237D01*
G01X1755420Y1678391D01*
G01X1748476Y1697604D01*
G01X1738158Y1715236D01*
G01X1724810Y1730700D01*
G01X1791578Y1730700D01*
G01X1803867Y1729500D01*
G01X1815699Y1725969D01*
G01X1815699Y1679951D01*
G01X1815333Y1673566D01*
G01X1807412Y1663873D01*
G01X1802409Y1652399D01*
G01X1800699Y1639999D01*
G01X1800699Y1612070D01*
G01X1801646Y1603332D01*
G01X1804441Y1594999D01*
G01X1801646Y1586666D01*
G01X1800699Y1577928D01*
G01X1800699Y1539999D01*
G01X1802260Y1528141D01*
G01X1806837Y1517092D01*
G01X1814118Y1507603D01*
G01X1823606Y1500323D01*
G01X1834656Y1495746D01*
G01X1846513Y1494185D01*
G01X1876513Y1494185D01*
G01X1888371Y1495746D01*
G01X1899420Y1500323D01*
G01X1908909Y1507603D01*
G01X1916189Y1517092D01*
G01X1920766Y1528141D01*
G01X1922327Y1539999D01*
G01X1922327Y1577928D01*
G01X1921380Y1586666D01*
G01X1918585Y1594998D01*
G01X1921381Y1603331D01*
G01X1922327Y1612070D01*
G01X1922327Y1639999D01*
G01X1920617Y1652399D01*
G01X1915615Y1663873D01*
G01X1907693Y1673566D01*
G01X1907327Y1679951D01*
G01X1907327Y1897539D01*
G01X1980223Y1970435D01*
G01X1980223Y1918095D01*
G01X1981976Y1907028D01*
G01X1987063Y1897044D01*
G01X1994986Y1889121D01*
G01X2004970Y1884034D01*
G01X2016037Y1882281D01*
G01X2072603Y1882281D01*
G01X2078936Y1882845D01*
G01X2085069Y1884520D01*
G01X2085069Y1805604D01*
G01X2086631Y1793746D01*
G01X2091207Y1782697D01*
G01X2098488Y1773208D01*
G01X2122332Y1749364D01*
G01X2119413Y1738041D01*
G01X2119523Y1726348D01*
G01X2122653Y1715081D01*
G01X2124686Y1705462D01*
G01X2130217Y1697334D01*
G01X2138419Y1691914D01*
G01X2148065Y1690012D01*
G01X2149978Y1690012D01*
G01X2156850Y1688353D01*
G01X2163897Y1687796D01*
G01X2170945Y1688353D01*
G01X2177816Y1690012D01*
G01X2181710Y1690012D01*
G01X2186946Y1684775D01*
G01X2180448Y1670783D01*
G01X2177680Y1655606D01*
G01X2178821Y1640221D01*
G01X2183795Y1625617D01*
G01X2192285Y1612736D01*
G01X2192594Y1612358D01*
G01X2192594Y1612104D01*
G01X2184043Y1609453D01*
G01X2176654Y1611964D01*
G01X2168896Y1612814D01*
G01X2089887Y1612814D01*
G01X2078820Y1611061D01*
G01X2068836Y1605974D01*
G01X2060913Y1598051D01*
G01X2055826Y1588067D01*
G01X2054073Y1577000D01*
G01X2054073Y1523000D01*
G01X2055826Y1511933D01*
G01X2060913Y1501949D01*
G01X2068836Y1494026D01*
G01X2078820Y1488939D01*
G01X2089887Y1487186D01*
G01X2168896Y1487186D01*
G01X2176577Y1488019D01*
G01X2183900Y1490480D01*
G01X2191223Y1488019D01*
G01X2198904Y1487186D01*
G01X2277913Y1487186D01*
G01X2288980Y1488939D01*
G01X2298964Y1494026D01*
G01X2306887Y1501949D01*
G01X2311974Y1511933D01*
G01X2313727Y1523000D01*
G01X2313727Y1577000D01*
G01X2312345Y1586854D01*
G01X2308304Y1595948D01*
G01X2301918Y1603578D01*
G01X2293679Y1609157D01*
G01X2284222Y1612254D01*
G01X2284222Y1612508D01*
G01X2284495Y1612693D01*
G01X2292517Y1624611D01*
G01X2297519Y1638078D01*
G01X2299222Y1652343D01*
G01X2297532Y1666609D01*
G01X2292543Y1680080D01*
G01X2284533Y1692006D01*
G01X2284222Y1692384D01*
G01X2284222Y1698104D01*
G01X2282661Y1709962D01*
G01X2278084Y1721011D01*
G01X2270804Y1730500D01*
G01X2248703Y1752600D01*
G01X2266725Y1770622D01*
G01X2274006Y1780110D01*
G01X2278582Y1791159D01*
G01X2280144Y1803017D01*
G01X2280144Y1884520D01*
G01X2286277Y1882845D01*
G01X2292610Y1882281D01*
G01X2349176Y1882281D01*
G01X2360243Y1884034D01*
G01X2370227Y1889121D01*
G01X2378150Y1897044D01*
G01X2383237Y1907028D01*
G01X2384990Y1918095D01*
G01X2384990Y1972095D01*
G01X2383237Y1983162D01*
G01X2378150Y1993146D01*
G01X2370227Y2001069D01*
G01X2360243Y2006156D01*
G01X2349176Y2007909D01*
G01X2292610Y2007909D01*
G01X2280923Y2005949D01*
G01X2280923Y2054144D01*
G01X2294485Y2048735D01*
G01X2308946Y2046715D01*
G01X2323471Y2048200D01*
G01X2337223Y2053105D01*
G01X2349410Y2061145D01*
G01X2359330Y2071859D01*
G01X2360691Y2057190D01*
G01X2365539Y2043278D01*
G01X2373591Y2030940D01*
G01X2384373Y2020901D01*
G01X2397254Y2013749D01*
G01X2411476Y2009904D01*
G01X2426205Y2009592D01*
G01X2440577Y2012832D01*
G01X2453748Y2019432D01*
G01X2464946Y2029006D01*
G01X2464946Y492093D01*
G01X2463716Y479585D01*
G01X2460071Y467557D01*
G01X2454153Y456469D01*
G01X2446187Y446747D01*
G01X2054713Y54574D01*
G01X2044982Y46575D01*
G01X2033876Y40631D01*
G01X2021822Y36970D01*
G01X2009286Y35734D01*
G01X1713260Y35734D01*
G01X1728305Y48985D01*
G01X1740747Y64706D01*
G01X1750187Y82393D01*
G01X1756322Y101480D01*
G01X1758957Y121354D01*
G01X1758007Y141380D01*
G01X1753503Y160916D01*
G01X1745587Y179336D01*
G01X1734515Y196050D01*
G01X1720641Y210523D01*
G01X1704409Y222290D01*
G01X1686340Y230975D01*
G01X1667011Y236300D01*
G01X1647043Y238095D01*
G01X1627075Y236300D01*
G01X1607747Y230975D01*
G01X1589677Y222290D01*
G01X1573445Y210523D01*
G01X1559571Y196050D01*
G01X1548499Y179336D01*
G01X1540584Y160916D01*
G01X1536079Y141380D01*
G01X1535129Y121354D01*
G01X1537764Y101480D01*
G01X1543900Y82393D01*
G01X1553340Y64706D01*
G01X1565782Y48985D01*
G01X1580827Y35734D01*
G01X1450304Y35734D01*
G01X1436021Y37343D01*
G01X1422455Y42090D01*
G01X1410285Y49737D01*
G01X1400122Y59901D01*
G01X1392475Y72071D01*
G01X1387727Y85637D01*
G01X1386118Y99920D01*
G01X1386118Y380054D01*
G01X1535029Y380054D01*
G01X1537052Y358888D01*
G01X1543039Y338485D01*
G01X1552773Y319581D01*
G01X1565903Y302857D01*
G01X1581958Y288916D01*
G01X1600358Y278259D01*
G01X1620440Y271272D01*
G01X1641480Y268205D01*
G01X1662721Y269169D01*
G01X1676573Y272493D01*
G01X1929187Y272493D01*
G01X1932012Y252239D01*
G01X1938511Y232850D01*
G01X1948462Y214985D01*
G01X1961525Y199253D01*
G01X1961525Y199253D01*
G01X1996881Y163898D01*
G01X2012613Y150834D01*
G01X2030478Y140883D01*
G01X2049867Y134384D01*
G01X2070120Y131559D01*
G01X2090548Y132504D01*
G01X2110454Y137186D01*
G01X2129161Y145445D01*
G01X2146031Y157002D01*
G01X2160491Y171462D01*
G01X2172048Y188332D01*
G01X2180308Y207039D01*
G01X2184990Y226945D01*
G01X2185934Y247373D01*
G01X2183109Y267626D01*
G01X2176610Y287015D01*
G01X2166660Y304880D01*
G01X2153596Y320612D01*
G01X2118240Y355968D01*
G01X2102508Y369032D01*
G01X2084643Y378982D01*
G01X2065254Y385481D01*
G01X2045001Y388306D01*
G01X2024573Y387362D01*
G01X2004667Y382680D01*
G01X1985960Y374420D01*
G01X1969090Y362863D01*
G01X1954630Y348404D01*
G01X1943073Y331533D01*
G01X1934813Y312826D01*
G01X1930131Y292920D01*
G01X1929187Y272493D01*
G01X1676573Y272493D01*
G01X1683397Y274130D01*
G01X1702763Y282908D01*
G01X1720121Y295188D01*
G01X1734847Y310527D01*
G01X1735945Y311780D01*
G01X1748775Y326618D01*
G01X1753980Y331959D01*
G01X1756605Y334179D01*
G01X1800100Y334179D01*
G01X1811957Y335740D01*
G01X1823007Y340317D01*
G01X1832495Y347598D01*
G01X1889936Y405038D01*
G01X1897217Y414527D01*
G01X1901794Y425576D01*
G01X1903355Y437434D01*
G01X1903355Y495345D01*
G01X2110576Y495345D01*
G01X2110576Y484140D01*
G01X2114038Y473483D01*
G01X2120624Y464418D01*
G01X2262046Y322997D01*
G01X2271111Y316410D01*
G01X2281768Y312948D01*
G01X2292973Y312948D01*
G01X2303629Y316410D01*
G01X2312695Y322997D01*
G01X2418761Y429063D01*
G01X2418761Y429063D01*
G01X2425347Y438128D01*
G01X2428809Y448784D01*
G01X2428809Y459989D01*
G01X2425347Y470646D01*
G01X2418761Y479711D01*
G01X2277339Y621133D01*
G01X2268274Y627719D01*
G01X2257617Y631181D01*
G01X2246412Y631181D01*
G01X2235756Y627719D01*
G01X2226690Y621133D01*
G01X2120624Y515067D01*
G01X2114038Y506002D01*
G01X2110576Y495345D01*
G01X1903355Y495345D01*
G01X1903355Y665969D01*
G01X1948401Y711015D01*
G01X1956035Y704616D01*
G01X1965136Y700568D01*
G01X1975000Y699182D01*
G01X2030002Y699182D01*
G01X2041069Y700935D01*
G01X2051052Y706022D01*
G01X2058976Y713945D01*
G01X2064063Y723929D01*
G01X2065816Y734996D01*
G01X2065816Y789997D01*
G01X2204185Y789997D01*
G01X2204185Y734996D01*
G01X2205937Y723929D01*
G01X2211024Y713945D01*
G01X2218948Y706022D01*
G01X2228931Y700935D01*
G01X2239999Y699182D01*
G01X2295000Y699182D01*
G01X2306067Y700935D01*
G01X2316051Y706022D01*
G01X2323974Y713945D01*
G01X2329061Y723929D01*
G01X2330814Y734996D01*
G01X2330814Y789997D01*
G01X2329389Y800000D01*
G01X2330814Y810002D01*
G01X2330814Y865004D01*
G01X2329061Y876071D01*
G01X2323974Y886055D01*
G01X2316051Y893978D01*
G01X2306067Y899065D01*
G01X2295000Y900818D01*
G01X2239999Y900818D01*
G01X2228931Y899065D01*
G01X2218948Y893978D01*
G01X2211024Y886055D01*
G01X2205937Y876071D01*
G01X2204185Y865004D01*
G01X2204185Y810002D01*
G01X2205610Y800000D01*
G01X2204185Y789997D01*
G01X2204185Y789997D01*
G01X2065816Y789997D01*
G01X2064390Y800000D01*
G01X2065816Y810002D01*
G01X2065816Y865004D01*
G01X2064063Y876071D01*
G01X2058976Y886055D01*
G01X2051052Y893978D01*
G01X2041069Y899065D01*
G01X2030002Y900818D01*
G01X1975000Y900818D01*
G01X1963933Y899065D01*
G01X1953949Y893978D01*
G01X1946026Y886055D01*
G01X1940939Y876071D01*
G01X1939186Y865004D01*
G01X1939186Y810002D01*
G01X1939229Y808264D01*
G01X1935044Y808264D01*
G01X1923187Y806702D01*
G01X1912137Y802126D01*
G01X1902649Y794845D01*
G01X1825145Y717341D01*
G01X1817865Y707853D01*
G01X1813288Y696803D01*
G01X1811727Y684946D01*
G01X1811727Y456410D01*
G01X1811727Y456410D01*
G01X1781123Y425807D01*
G01X1756751Y425807D01*
G01X1754116Y428037D01*
G01X1748905Y433385D01*
G01X1735924Y448407D01*
G01X1734814Y449676D01*
G01X1720081Y465007D01*
G01X1702717Y477279D01*
G01X1683347Y486048D01*
G01X1662668Y490999D01*
G01X1641427Y491954D01*
G01X1620388Y488877D01*
G01X1600309Y481880D01*
G01X1581915Y471215D01*
G01X1565867Y457266D01*
G01X1552744Y440535D01*
G01X1543019Y421627D01*
G01X1537042Y401221D01*
G01X1535029Y380054D01*
G01X1386118Y380054D01*
G01X1386118Y549919D01*
G01X1384446Y571165D01*
G01X1379471Y591887D01*
G01X1371315Y611577D01*
G01X1360180Y629748D01*
G01X1356480Y634081D01*
G01X1535029Y634081D01*
G01X1536936Y613498D01*
G01X1542593Y593616D01*
G01X1551807Y575113D01*
G01X1564264Y558617D01*
G01X1579540Y544691D01*
G01X1597114Y533810D01*
G01X1616389Y526343D01*
G01X1636708Y522544D01*
G01X1657379Y522544D01*
G01X1677697Y526343D01*
G01X1696972Y533810D01*
G01X1714547Y544691D01*
G01X1729823Y558617D01*
G01X1742279Y575113D01*
G01X1751493Y593616D01*
G01X1757150Y613498D01*
G01X1759057Y634081D01*
G01X1759057Y634081D01*
G01X1757150Y654663D01*
G01X1751493Y674545D01*
G01X1742279Y693048D01*
G01X1729823Y709544D01*
G01X1714547Y723470D01*
G01X1696972Y734351D01*
G01X1677697Y741818D01*
G01X1657379Y745617D01*
G01X1636708Y745617D01*
G01X1616389Y741818D01*
G01X1597114Y734351D01*
G01X1579540Y723470D01*
G01X1564264Y709544D01*
G01X1551807Y693048D01*
G01X1542593Y674545D01*
G01X1536936Y654663D01*
G01X1535029Y634081D01*
G01X1356480Y634081D01*
G01X1346339Y645954D01*
G01X1330134Y659795D01*
G01X1311962Y670930D01*
G01X1292273Y679085D01*
G01X1271550Y684061D01*
G01X1250304Y685733D01*
G01X519959Y685733D01*
G01X498713Y684061D01*
G01X477990Y679085D01*
G01X458301Y670930D01*
G01X440130Y659795D01*
G01X423924Y645954D01*
G01X410083Y629748D01*
G01X398948Y611577D01*
G01X390792Y591887D01*
G01X385817Y571165D01*
G01X384145Y549919D01*
G01X384145Y99920D01*
G01X382536Y85637D01*
G01X377789Y72071D01*
G01X370142Y59901D01*
G01X359979Y49737D01*
G01X347809Y42090D01*
G01X334242Y37343D01*
G01X319959Y35734D01*
G37*
G36*
G01X175936Y2764820D02*
G01X158136Y2772455D01*
G01X139287Y2776910D01*
G01X119953Y2778052D01*
G01X100711Y2775846D01*
G01X82136Y2770358D01*
G01X64785Y2761752D01*
G01X49175Y2750287D01*
G01X35774Y2736303D01*
G01X35774Y2849858D01*
G01X49807Y2835325D01*
G01X66222Y2823548D01*
G01X84485Y2814912D01*
G01X104002Y2809697D01*
G01X124139Y2808072D01*
G01X144240Y2810090D01*
G01X163652Y2815687D01*
G01X181742Y2824679D01*
G01X197924Y2836774D01*
G01X211669Y2851579D01*
G01X222532Y2868612D01*
G01X230159Y2887319D01*
G01X234302Y2907092D01*
G01X340299Y2907092D01*
G01X334194Y2889890D01*
G01X331462Y2871843D01*
G01X332202Y2853606D01*
G01X336387Y2835839D01*
G01X343865Y2819189D01*
G01X354365Y2804259D01*
G01X367505Y2791591D01*
G01X353806Y2778264D01*
G01X343024Y2762484D01*
G01X335589Y2744878D01*
G01X331796Y2726147D01*
G01X331796Y2707035D01*
G01X335589Y2688303D01*
G01X343024Y2670697D01*
G01X353806Y2654917D01*
G01X367505Y2641591D01*
G01X353806Y2628264D01*
G01X343024Y2612484D01*
G01X335589Y2594878D01*
G01X331796Y2576147D01*
G01X331796Y2557035D01*
G01X335589Y2538303D01*
G01X343024Y2520697D01*
G01X353806Y2504917D01*
G01X367506Y2491591D01*
G01X354654Y2479259D01*
G01X344308Y2464762D01*
G01X336823Y2448600D01*
G01X332459Y2431333D01*
G01X331366Y2413556D01*
G01X314577Y2430344D01*
G01X314577Y2487621D01*
G01X313016Y2499479D01*
G01X308439Y2510528D01*
G01X301159Y2520017D01*
G01X223716Y2597460D01*
G01X222165Y2599191D01*
G01X221884Y2599597D01*
G01X221853Y2599903D01*
G01X221856Y2600945D01*
G01X221971Y2602216D01*
G01X223173Y2608557D01*
G01X225406Y2616804D01*
G01X229854Y2632339D01*
G01X234070Y2651243D01*
G01X234966Y2670590D01*
G01X232516Y2689803D01*
G01X226794Y2708306D01*
G01X217969Y2725547D01*
G01X206306Y2741010D01*
G01X192154Y2754233D01*
G01X175936Y2764820D01*
G37*
G36*
G01X188915Y2502679D02*
G01X170595Y2513500D01*
G01X150560Y2520662D01*
G01X129532Y2523906D01*
G01X108270Y2523116D01*
G01X87541Y2518319D01*
G01X68092Y2509690D01*
G01X50627Y2497538D01*
G01X35774Y2482303D01*
G01X35774Y2595858D01*
G01X48848Y2582163D01*
G01X64041Y2570865D01*
G01X80920Y2562288D01*
G01X99003Y2556677D01*
G01X117772Y2554191D01*
G01X136692Y2554901D01*
G01X188915Y2502679D01*
G37*
G36*
G01X486759Y2641591D02*
G01X500458Y2654917D01*
G01X511240Y2670697D01*
G01X518675Y2688303D01*
G01X522468Y2707035D01*
G01X522468Y2726147D01*
G01X518675Y2744878D01*
G01X511240Y2762484D01*
G01X500458Y2778264D01*
G01X486759Y2791591D01*
G01X499899Y2804259D01*
G01X510399Y2819189D01*
G01X517877Y2835839D01*
G01X522062Y2853606D01*
G01X522802Y2871843D01*
G01X520070Y2889890D01*
G01X513965Y2907092D01*
G01X730065Y2907092D01*
G01X722935Y2887855D01*
G01X719432Y2867641D01*
G01X719676Y2847128D01*
G01X723656Y2827002D01*
G01X731240Y2807940D01*
G01X742173Y2790581D01*
G01X756089Y2775507D01*
G01X772521Y2763224D01*
G01X790917Y2754144D01*
G01X810661Y2748571D01*
G01X831090Y2746692D01*
G01X851519Y2748571D01*
G01X871262Y2754144D01*
G01X889658Y2763224D01*
G01X906090Y2775507D01*
G01X920006Y2790581D01*
G01X930939Y2807940D01*
G01X938523Y2827002D01*
G01X942503Y2847128D01*
G01X942747Y2867641D01*
G01X939244Y2887855D01*
G01X932114Y2907092D01*
G01X984065Y2907092D01*
G01X976935Y2887855D01*
G01X973432Y2867641D01*
G01X973676Y2847128D01*
G01X977656Y2827002D01*
G01X985240Y2807940D01*
G01X996173Y2790581D01*
G01X1010089Y2775507D01*
G01X1026521Y2763224D01*
G01X1044917Y2754144D01*
G01X1064661Y2748571D01*
G01X1085090Y2746692D01*
G01X1105519Y2748571D01*
G01X1125262Y2754144D01*
G01X1143658Y2763224D01*
G01X1160090Y2775507D01*
G01X1174006Y2790581D01*
G01X1184939Y2807940D01*
G01X1192523Y2827002D01*
G01X1196503Y2847128D01*
G01X1196747Y2867641D01*
G01X1193244Y2887855D01*
G01X1186114Y2907092D01*
G01X1238065Y2907092D01*
G01X1231028Y2888198D01*
G01X1227491Y2868349D01*
G01X1227571Y2848187D01*
G01X1231263Y2828366D01*
G01X1238448Y2809529D01*
G01X1248894Y2792284D01*
G01X1262262Y2777191D01*
G01X1278119Y2764739D01*
G01X1295952Y2755332D01*
G01X1315181Y2749273D01*
G01X1335186Y2746760D01*
G01X1355317Y2747874D01*
G01X1374922Y2752578D01*
G01X1393366Y2760721D01*
G01X996073Y2363427D01*
G01X506844Y2363427D01*
G01X515297Y2379077D01*
G01X520712Y2396020D01*
G01X522902Y2413673D01*
G01X521791Y2431425D01*
G01X517417Y2448667D01*
G01X509933Y2464802D01*
G01X499594Y2479277D01*
G01X486758Y2491591D01*
G01X500458Y2504917D01*
G01X511240Y2520697D01*
G01X518675Y2538303D01*
G01X522468Y2557035D01*
G01X522468Y2576147D01*
G01X518675Y2594878D01*
G01X511240Y2612484D01*
G01X500458Y2628264D01*
G01X486759Y2641591D01*
G37*
G36*
G01X1456547Y2614316D02*
G01X1542567Y2614316D01*
G01X1544863Y2612416D01*
G01X1549849Y2607371D01*
G01X1557649Y2598584D01*
G01X1571980Y2582938D01*
G01X1589004Y2570276D01*
G01X1608110Y2561050D01*
G01X1628613Y2555593D01*
G01X1649778Y2554100D01*
G01X1670844Y2556624D01*
G01X1691056Y2563076D01*
G01X1709690Y2573223D01*
G01X1726075Y2586701D01*
G01X1739626Y2603028D01*
G01X1749854Y2621617D01*
G01X1756394Y2641801D01*
G01X1759011Y2662856D01*
G01X1758280Y2679179D01*
G01X1755184Y2695222D01*
G01X1749786Y2710644D01*
G01X1792838Y2667592D01*
G01X1802327Y2660311D01*
G01X1813376Y2655734D01*
G01X1825234Y2654173D01*
G01X1973080Y2654173D01*
G01X1973080Y2609987D01*
G01X1974833Y2598920D01*
G01X1979920Y2588936D01*
G01X1987843Y2581013D01*
G01X1997827Y2575926D01*
G01X2008894Y2574173D01*
G01X2108894Y2574173D01*
G01X2120159Y2575991D01*
G01X2130280Y2581260D01*
G01X2138231Y2589445D01*
G01X2143203Y2599716D01*
G01X2224597Y2599716D01*
G01X2226040Y2595757D01*
G01X2215650Y2593597D01*
G01X2206036Y2589104D01*
G01X2197713Y2582520D01*
G01X2176498Y2561304D01*
G01X2170331Y2553644D01*
G01X2165940Y2544845D01*
G01X2163529Y2535311D01*
G01X1992614Y2535311D01*
G01X1986013Y2537273D01*
G01X1979158Y2537935D01*
G01X1922592Y2537935D01*
G01X1915737Y2537273D01*
G01X1909135Y2535311D01*
G01X1906051Y2535311D01*
G01X1899450Y2537273D01*
G01X1892594Y2537935D01*
G01X1836029Y2537935D01*
G01X1829173Y2537273D01*
G01X1822572Y2535311D01*
G01X1820625Y2535311D01*
G01X1816105Y2534279D01*
G01X1812481Y2531388D01*
G01X1810471Y2527210D01*
G01X1804903Y2519836D01*
G01X1801407Y2511284D01*
G01X1800215Y2502121D01*
G01X1800215Y2460932D01*
G01X1754100Y2460932D01*
G01X1751639Y2462992D01*
G01X1746540Y2468191D01*
G01X1735501Y2480800D01*
G01X1721614Y2495665D01*
G01X1705269Y2507772D01*
G01X1687003Y2516725D01*
G01X1667419Y2522226D01*
G01X1647163Y2524094D01*
G01X1626904Y2522269D01*
G01X1607308Y2516810D01*
G01X1589023Y2507897D01*
G01X1572652Y2495825D01*
G01X1558733Y2480990D01*
G01X1547727Y2463883D01*
G01X1539997Y2445068D01*
G01X1535796Y2425165D01*
G01X1535264Y2404830D01*
G01X1538418Y2384734D01*
G01X1545155Y2365541D01*
G01X1555252Y2347882D01*
G01X1568376Y2332340D01*
G01X1562682Y2327507D01*
G01X1485179Y2250004D01*
G01X1477898Y2240515D01*
G01X1473321Y2229466D01*
G01X1471760Y2217608D01*
G01X1471760Y2033550D01*
G01X1473321Y2021692D01*
G01X1477898Y2010643D01*
G01X1485179Y2001154D01*
G01X1537124Y1949208D01*
G01X1537411Y1945775D01*
G01X1537314Y1938314D01*
G01X1535874Y1918511D01*
G01X1535771Y1916952D01*
G01X1535315Y1896080D01*
G01X1538740Y1875486D01*
G01X1545928Y1855885D01*
G01X1556628Y1837958D01*
G01X1570469Y1822328D01*
G01X1482621Y1822328D01*
G01X1405880Y1899069D01*
G01X1405880Y2563649D01*
G01X1456547Y2614316D01*
G37*
G36*
G01X1535785Y2907092D02*
G01X1539493Y2888772D01*
G01X1546197Y2871325D01*
G01X1555708Y2855235D01*
G01X1567762Y2840950D01*
G01X1492573Y2840950D01*
G01X1480715Y2839389D01*
G01X1469666Y2834812D01*
G01X1460177Y2827532D01*
G01X1437075Y2804429D01*
G01X1445580Y2823965D01*
G01X1450232Y2844758D01*
G01X1450862Y2866055D01*
G01X1447449Y2887087D01*
G01X1440114Y2907092D01*
G01X1535785Y2907092D01*
G37*
G36*
G01X1572097Y2749322D02*
G01X1561602Y2738522D01*
G01X1560025Y2736649D01*
G01X1556452Y2732098D01*
G01X1554736Y2729717D01*
G01X1548891Y2720866D01*
G01X1547735Y2718993D01*
G01X1543150Y2711023D01*
G01X1540149Y2706038D01*
G01X1538149Y2705944D01*
G01X1468171Y2705944D01*
G01X1511550Y2749322D01*
G01X1572097Y2749322D01*
G37*
G36*
G01X1815699Y1827059D02*
G01X1803850Y1823525D01*
G01X1791543Y1822328D01*
G01X1723618Y1822328D01*
G01X1736941Y1837256D01*
G01X1747396Y1854317D01*
G01X1754649Y1872965D01*
G01X1758468Y1892606D01*
G01X1758732Y1912614D01*
G01X1755432Y1932349D01*
G01X1748673Y1951182D01*
G01X1738671Y1968512D01*
G01X1725746Y1983786D01*
G01X1710309Y1996517D01*
G01X1692854Y2006298D01*
G01X1673937Y2012818D01*
G01X1654162Y2015868D01*
G01X1634159Y2015351D01*
G01X1632383Y2015233D01*
G01X1612810Y2013810D01*
G01X1605348Y2013713D01*
G01X1601915Y2013999D01*
G01X1563388Y2052526D01*
G01X1563388Y2083589D01*
G01X1578494Y2069491D01*
G01X1595933Y2058407D01*
G01X1615110Y2050715D01*
G01X1635375Y2046676D01*
G01X1656036Y2046428D01*
G01X1676392Y2049980D01*
G01X1695749Y2057210D01*
G01X1713448Y2067872D01*
G01X1728888Y2081604D01*
G01X1741542Y2097939D01*
G01X1743438Y2100668D01*
G01X1744807Y2102794D01*
G01X1750290Y2112011D01*
G01X1750604Y2112549D01*
G01X1755085Y2120390D01*
G01X1758680Y2126009D01*
G01X1759187Y2126664D01*
G01X1761675Y2126792D01*
G01X1800215Y2126792D01*
G01X1800215Y2085603D01*
G01X1801967Y2074536D01*
G01X1807054Y2064552D01*
G01X1814978Y2056629D01*
G01X1824961Y2051542D01*
G01X1836029Y2049789D01*
G01X1892594Y2049789D01*
G01X1904281Y2051749D01*
G01X1904281Y2024075D01*
G01X1829118Y1948911D01*
G01X1821837Y1939423D01*
G01X1817260Y1928373D01*
G01X1815699Y1916516D01*
G01X1815699Y1827059D01*
G37*
G36*
G01X1800215Y2249298D02*
G01X1800215Y2218420D01*
G01X1743274Y2218420D01*
G01X1741498Y2219823D01*
G01X1738469Y2222799D01*
G01X1726376Y2237159D01*
G01X1712055Y2249298D01*
G01X1800215Y2249298D01*
G37*
G36*
G01X1758302Y2907092D02*
G01X2464946Y2907092D01*
G01X2464946Y2646222D01*
G01X2453287Y2656099D01*
G01X2439534Y2662758D01*
G01X2424555Y2665779D01*
G01X2409296Y2664970D01*
G01X2394720Y2660383D01*
G01X2394720Y2789987D01*
G01X2392967Y2801054D01*
G01X2387880Y2811038D01*
G01X2379957Y2818961D01*
G01X2369973Y2824048D01*
G01X2358906Y2825801D01*
G01X2258906Y2825801D01*
G01X2247714Y2824007D01*
G01X2237643Y2818806D01*
G01X2229702Y2810718D01*
G01X2224686Y2800554D01*
G01X2143113Y2800554D01*
G01X2138097Y2810718D01*
G01X2130156Y2818806D01*
G01X2120085Y2824007D01*
G01X2108894Y2825801D01*
G01X2008894Y2825801D01*
G01X1997827Y2824048D01*
G01X1987843Y2818961D01*
G01X1979920Y2811038D01*
G01X1974833Y2801054D01*
G01X1973080Y2789987D01*
G01X1973080Y2745801D01*
G01X1844210Y2745801D01*
G01X1762480Y2827532D01*
G01X1752991Y2834812D01*
G01X1741942Y2839389D01*
G01X1730084Y2840950D01*
G01X1726325Y2840950D01*
G01X1738379Y2855235D01*
G01X1747890Y2871325D01*
G01X1754593Y2888772D01*
G01X1758302Y2907092D01*
G37*
G36*
G01X1735286Y2343029D02*
G01X1737308Y2345700D01*
G01X1737954Y2346641D01*
G01X1740808Y2350800D01*
G01X1743275Y2354396D01*
G01X1744684Y2356619D01*
G01X1752032Y2369222D01*
G01X1753837Y2369304D01*
G01X1800215Y2369304D01*
G01X1800215Y2340926D01*
G01X1733786Y2340926D01*
G01X1734396Y2341962D01*
G01X1735286Y2343029D01*
G37*
G36*
G01X2009632Y2066789D02*
G01X2020099Y2066789D01*
G01X2031956Y2068350D01*
G01X2043006Y2072927D01*
G01X2052494Y2080208D01*
G01X2074995Y2102709D01*
G01X2082276Y2112197D01*
G01X2086853Y2123247D01*
G01X2088414Y2135104D01*
G01X2088414Y2142327D01*
G01X2094893Y2141736D01*
G01X2113092Y2141736D01*
G01X2113092Y2127881D01*
G01X2098488Y2113276D01*
G01X2091207Y2103788D01*
G01X2086631Y2092739D01*
G01X2085069Y2080881D01*
G01X2085069Y2005669D01*
G01X2078936Y2007345D01*
G01X2072603Y2007909D01*
G01X2016037Y2007909D01*
G01X2005432Y2006303D01*
G01X1995778Y2001628D01*
G01X1995909Y2005098D01*
G01X1995909Y2053948D01*
G01X2003628Y2059452D01*
G01X2009632Y2066789D01*
G37*
G54D10*
G01X319959Y35734D02*
G01X189260Y35734D01*
G03X204015Y203480I-66217J90347D01*
G03X35774Y196303I-80972J-77400D01*
G01X35774Y309858D01*
G03X235057Y380081I87269J70223D01*
G03X35774Y450303I-112014J0D01*
G01X35774Y563858D01*
G03X235057Y634081I87269J70223D01*
G03X35774Y704303I-112014J0D01*
G01X35774Y817858D01*
G03X210906Y818602I87269J70223D01*
G01X211362Y819119D01*
G01X211563Y819350D01*
G01X224375Y834135D01*
G01X229561Y839450D01*
G01X232157Y841642D01*
G01X564978Y841642D01*
G03X597373Y855060I0J45814D01*
G01X713961Y971648D01*
G01X1572454Y971648D01*
G03X1647043Y776067I74590J-83568D01*
G03X1721633Y971648I0J112014D01*
G01X1772536Y971648D01*
G03X1804932Y985067I0J45814D01*
G01X1936460Y1116595D01*
G01X1944275Y1116595D01*
G03X1975000Y1099182I30725J18401D01*
G01X2030002Y1099182D01*
G03X2065816Y1134996I0J35814D01*
G01X2065816Y1189997D01*
G03X2064390Y1200000I-35814J0D01*
G03X2065816Y1210002I-34389J10003D01*
G01X2065816Y1265004D01*
G03X2030002Y1300818I-35814J0D01*
G01X1975000Y1300818D01*
G03X1939186Y1265004I0J-35814D01*
G01X1939186Y1210002D01*
G01X1939231Y1208223D01*
G01X1917484Y1208223D01*
G03X1885088Y1194805I0J-45814D01*
G01X1753560Y1063276D01*
G01X1726648Y1063276D01*
G03X1647043Y1254095I-79605J78805D01*
G03X1567438Y1063276I0J-112014D01*
G01X694984Y1063276D01*
G03X662589Y1049857I0J-45814D01*
G01X546001Y933270D01*
G01X228042Y933270D01*
G01X226357Y933344D01*
G01X219393Y945372D01*
G03X217613Y948144I-30993J-17946D01*
G01X217412Y948427D01*
G03X211096Y957318I-94369J-60347D01*
G03X209234Y959622I-29110J-21615D01*
G03X205191Y964231I-86191J-71542D01*
G01X203834Y965669D01*
G03X35774Y958303I-80791J-77589D01*
G01X35774Y1071858D01*
G03X235057Y1142081I87269J70223D01*
G03X35774Y1212303I-112014J0D01*
G01X35774Y1325858D01*
G03X235057Y1396081I87269J70223D01*
G03X35774Y1466303I-112014J0D01*
G01X35774Y1579858D01*
G03X235057Y1650081I87269J70223D01*
G03X35774Y1720303I-112014J0D01*
G01X35774Y1833858D01*
G03X235057Y1904081I87269J70223D01*
G03X35774Y1974303I-112014J0D01*
G01X35774Y2087858D01*
G03X235057Y2158081I87269J70223D01*
G03X35774Y2228303I-112014J0D01*
G01X35774Y2341858D01*
G03X231621Y2384547I87269J70223D01*
G03X236368Y2378972I37143J26821D01*
G01X330122Y2285218D01*
G03X362518Y2271799I32395J32395D01*
G01X1015050Y2271799D01*
G03X1047445Y2285218I0J45814D01*
G01X1314252Y2552025D01*
G01X1314252Y1880092D01*
G03X1327671Y1847696I45814J0D01*
G01X1431249Y1744119D01*
G03X1463644Y1730700I32395J32395D01*
G01X1569277Y1730700D01*
G03X1647043Y1538067I77766J-80620D01*
G03X1724810Y1730700I0J112014D01*
G01X1791578Y1730700D01*
G02X1815699Y1725969I-65J-64186D01*
G01X1815699Y1679951D01*
G02X1815333Y1673566I-56686J48D01*
G03X1800699Y1639999I31180J-33567D01*
G01X1800699Y1612070D01*
G03X1804441Y1594999I40814J0D01*
G03X1800699Y1577928I37072J-17071D01*
G01X1800699Y1539999D01*
G03X1846513Y1494185I45814J0D01*
G01X1876513Y1494185D01*
G03X1922327Y1539999I0J45814D01*
G01X1922327Y1577928D01*
G03X1918585Y1594998I-40814J-2D01*
G03X1922327Y1612070I-37072J17072D01*
G01X1922327Y1639999D01*
G03X1907693Y1673566I-45814J0D01*
G02X1907327Y1679951I56320J6433D01*
G01X1907327Y1897539D01*
G01X1980223Y1970435D01*
G01X1980223Y1918095D01*
G03X2016037Y1882281I35814J0D01*
G01X2072603Y1882281D01*
G03X2085069Y1884520I0J35814D01*
G01X2085069Y1805604D01*
G03X2098488Y1773208I45814J0D01*
G01X2122332Y1749364D01*
G03X2122653Y1715081I41565J-16754D01*
G03X2148065Y1690012I25412J345D01*
G01X2149978Y1690012D01*
G03X2163897Y1687796I13919J42598D01*
G03X2177816Y1690012I0J44814D01*
G01X2181710Y1690012D01*
G01X2186946Y1684775D01*
G03X2192285Y1612736I51462J-32404D01*
G01X2192594Y1612358D01*
G01X2192594Y1612104D01*
G03X2184043Y1609453I6220J-35179D01*
G03X2168896Y1612814I-15147J-32453D01*
G01X2089887Y1612814D01*
G03X2054073Y1577000I0J-35814D01*
G01X2054073Y1523000D01*
G03X2089887Y1487186I35814J0D01*
G01X2168896Y1487186D01*
G03X2183900Y1490480I0J35814D01*
G03X2198904Y1487186I15004J32520D01*
G01X2277913Y1487186D01*
G03X2313727Y1523000I0J35814D01*
G01X2313727Y1577000D01*
G03X2284222Y1612254I-35814J0D01*
G01X2284222Y1612508D01*
G01X2284495Y1612693D01*
G03X2284533Y1692006I-46087J39678D01*
G01X2284222Y1692384D01*
G01X2284222Y1698104D01*
G03X2270804Y1730500I-45814J0D01*
G01X2248703Y1752600D01*
G01X2266725Y1770622D01*
G03X2280144Y1803017I-32395J32395D01*
G01X2280144Y1884520D01*
G03X2292610Y1882281I12466J33574D01*
G01X2349176Y1882281D01*
G03X2384990Y1918095I0J35814D01*
G01X2384990Y1972095D01*
G03X2349176Y2007909I-35814J0D01*
G01X2292610Y2007909D01*
G03X2280923Y2005949I0J-35814D01*
G01X2280923Y2054144D01*
G03X2323471Y2048200I29145J53375D01*
G03X2359330Y2071859I-13403J59319D01*
G03X2397254Y2013749I60789J-1758D01*
G03X2464946Y2029006I22864J56352D01*
G01X2464946Y492093D01*
G02X2446187Y446747I-64186J0D01*
G01X2054713Y54574D01*
G02X2009286Y35734I-45427J45346D01*
G01X1713260Y35734D01*
G03X1647043Y238095I-66217J90347D01*
G03X1580827Y35734I0J-112014D01*
G01X1450304Y35734D01*
G02X1386118Y99920I0J64186D01*
G01X1386118Y549919D01*
G03X1250304Y685733I-135814J0D01*
G01X519959Y685733D01*
G03X384145Y549919I0J-135814D01*
G01X384145Y99920D01*
G02X319959Y35734I-64186J0D01*
G01X488661Y973196D02*
G03X545432Y1134892I0J90814D01*
G03X488661Y1296588I-56771J70882D01*
G03X431890Y1134892I0J-90814D01*
G03X488661Y973196I56771J-70882D01*
G01X874993Y915767D02*
G03X874993Y744139I0J-85814D01*
G03X874993Y915767I0J85814D01*
G01X1759057Y634081D02*
G03X1535029Y634081I-112014J0D01*
G03X1759057Y634081I112014J0D01*
G01X1811727Y456410D02*
G01X1781123Y425807D01*
G01X1756751Y425807D01*
G01X1754116Y428037D01*
G01X1748905Y433385D01*
G01X1735924Y448407D01*
G01X1734814Y449676D01*
G03X1535029Y380054I-87770J-69595D01*
G03X1734847Y310527I112014J27D01*
G01X1735945Y311780D01*
G01X1748775Y326618D01*
G01X1753980Y331959D01*
G01X1756605Y334179D01*
G01X1800100Y334179D01*
G03X1832495Y347598I0J45814D01*
G01X1889936Y405038D01*
G03X1903355Y437434I-32395J32395D01*
G01X1903355Y665969D01*
G01X1948401Y711015D01*
G03X1975000Y699182I26600J23981D01*
G01X2030002Y699182D01*
G03X2065816Y734996I0J35814D01*
G01X2065816Y789997D01*
G03X2064390Y800000I-35814J0D01*
G03X2065816Y810002I-34389J10003D01*
G01X2065816Y865004D01*
G03X2030002Y900818I-35814J0D01*
G01X1975000Y900818D01*
G03X1939186Y865004I0J-35814D01*
G01X1939186Y810002D01*
G01X1939229Y808264D01*
G01X1935044Y808264D01*
G03X1902649Y794845I0J-45814D01*
G01X1825145Y717341D01*
G03X1811727Y684946I32395J-32395D01*
G01X1811727Y456410D01*
G01X1759057Y1396081D02*
G03X1535029Y1396081I-112014J0D01*
G03X1759057Y1396081I112014J0D01*
G01X1960096Y1088363D02*
G03X1960096Y916735I0J-85814D01*
G03X1960096Y1088363I0J85814D01*
G01X1961525Y199253D02*
G01X1996881Y163898D01*
G03X2153596Y320612I78357J78357D01*
G01X2118240Y355968D01*
G03X1961525Y199253I-78357J-78357D01*
G01X2418761Y429063D02*
G03X2418761Y479711I-25324J25324D01*
G01X2277339Y621133D01*
G03X2226690Y621133I-25324J-25324D01*
G01X2120624Y515067D01*
G03X2120624Y464418I25324J-25324D01*
G01X2262046Y322997D01*
G03X2312695Y322997I25324J25324D01*
G01X2418761Y429063D01*
G01X2204185Y1189997D02*
G01X2204185Y1134996D01*
G03X2239999Y1099182I35814J0D01*
G01X2295000Y1099182D01*
G03X2330814Y1134996I0J35814D01*
G01X2330814Y1189997D01*
G03X2329389Y1200000I-35814J0D01*
G03X2330814Y1210002I-34389J10003D01*
G01X2330814Y1265004D01*
G03X2295000Y1300818I-35814J0D01*
G01X2239999Y1300818D01*
G03X2204185Y1265004I0J-35814D01*
G01X2204185Y1210002D01*
G03X2205610Y1200000I35814J0D01*
G03X2204185Y1189997I34389J-10003D01*
G01X2204185Y789997D02*
G01X2204185Y734996D01*
G03X2239999Y699182I35814J0D01*
G01X2295000Y699182D01*
G03X2330814Y734996I0J35814D01*
G01X2330814Y789997D01*
G03X2329389Y800000I-35814J0D01*
G03X2330814Y810002I-34389J10003D01*
G01X2330814Y865004D01*
G03X2295000Y900818I-35814J0D01*
G01X2239999Y900818D01*
G03X2204185Y865004I0J-35814D01*
G01X2204185Y810002D01*
G03X2205610Y800000I35814J0D01*
G03X2204185Y789997I34389J-10003D01*
G01X175936Y2764820D02*
G03X35774Y2736303I-52892J-98740D01*
G01X35774Y2849858D01*
G03X234302Y2907092I87269J70223D01*
G01X340299Y2907092D01*
G03X367505Y2791591I86833J-40501D01*
G03X367505Y2641591I59627J-75000D01*
G03X367506Y2491591I59627J-75000D01*
G03X331366Y2413556I59626J-75000D01*
G01X314577Y2430344D01*
G01X314577Y2487621D01*
G03X301159Y2520017I-45814J0D01*
G01X223716Y2597460D01*
G01X222165Y2599191D01*
G01X221884Y2599597D01*
G01X221853Y2599903D01*
G01X221856Y2600945D01*
G01X221971Y2602216D01*
G01X223173Y2608557D01*
G01X225406Y2616804D01*
G01X229854Y2632339D01*
G03X175936Y2764820I-106811J33741D01*
G01X188915Y2502679D02*
G03X35774Y2482303I-65872J-90598D01*
G01X35774Y2595858D01*
G03X136692Y2554901I87269J70223D01*
G01X188915Y2502679D01*
G01X486759Y2641591D02*
G03X486759Y2791591I-59627J75000D01*
G03X513965Y2907092I-59627J75000D01*
G01X730065Y2907092D01*
G03X831090Y2746692I101025J-48385D01*
G03X932114Y2907092I0J112014D01*
G01X984065Y2907092D01*
G03X1085090Y2746692I101025J-48385D01*
G03X1186114Y2907092I0J112014D01*
G01X1238065Y2907092D01*
G03X1393366Y2760721I101025J-48385D01*
G01X996073Y2363427D01*
G01X506844Y2363427D01*
G03X486758Y2491591I-79712J53163D01*
G03X486759Y2641591I-59626J75000D01*
G01X1456547Y2614316D02*
G01X1542567Y2614316D01*
G01X1544863Y2612416D01*
G01X1549849Y2607371D01*
G01X1557649Y2598584D01*
G03X1759011Y2662856I89394J67496D01*
G03X1749786Y2710644I-111992J3167D01*
G01X1792838Y2667592D01*
G03X1825234Y2654173I32395J32395D01*
G01X1973080Y2654173D01*
G01X1973080Y2609987D01*
G03X2008894Y2574173I35814J0D01*
G01X2108894Y2574173D01*
G03X2143203Y2599716I0J35814D01*
G01X2224597Y2599716D01*
G03X2226040Y2595757I34309J10272D01*
G03X2197713Y2582520I4068J-45633D01*
G01X2176498Y2561304D01*
G03X2163529Y2535311I32395J-32395D01*
G01X1992614Y2535311D01*
G03X1979158Y2537935I-13457J-33190D01*
G01X1922592Y2537935D01*
G03X1909135Y2535311I0J-35814D01*
G01X1906051Y2535311D01*
G03X1892594Y2537935I-13457J-33190D01*
G01X1836029Y2537935D01*
G03X1822572Y2535311I0J-35814D01*
G01X1820625Y2535311D01*
G03X1810471Y2527210I0J-10414D01*
G03X1800215Y2502121I25557J-25089D01*
G01X1800215Y2460932D01*
G01X1754100Y2460932D01*
G01X1751639Y2462992D01*
G01X1746540Y2468191D01*
G01X1735501Y2480800D01*
G03X1572652Y2495825I-88458J-68720D01*
G03X1568376Y2332340I74391J-83744D01*
G03X1562682Y2327507I26702J-37228D01*
G01X1485179Y2250004D01*
G03X1471760Y2217608I32395J-32395D01*
G01X1471760Y2033550D01*
G03X1485179Y2001154I45814J0D01*
G01X1537124Y1949208D01*
G01X1537411Y1945775D01*
G01X1537314Y1938314D01*
G01X1535874Y1918511D01*
G01X1535771Y1916952D01*
G03X1570469Y1822328I111272J-12872D01*
G01X1482621Y1822328D01*
G01X1405880Y1899069D01*
G01X1405880Y2563649D01*
G01X1456547Y2614316D01*
G01X1535785Y2907092D02*
G03X1567762Y2840950I111258J12989D01*
G01X1492573Y2840950D01*
G03X1460177Y2827532I0J-45814D01*
G01X1437075Y2804429D01*
G03X1440114Y2907092I-97985J54277D01*
G01X1535785Y2907092D01*
G01X1572097Y2749322D02*
G03X1561602Y2738522I74922J-83300D01*
G01X1560025Y2736649D01*
G01X1556452Y2732098D01*
G03X1554736Y2729717I28169J-22116D01*
G01X1548891Y2720866D01*
G01X1547735Y2718993D01*
G01X1543150Y2711023D01*
G01X1540149Y2706038D01*
G01X1538149Y2705944D01*
G01X1468171Y2705944D01*
G01X1511550Y2749322D01*
G01X1572097Y2749322D01*
G01X1815699Y1827059D02*
G02X1791543Y1822328I-24186J59455D01*
G01X1723618Y1822328D01*
G03X1748673Y1951182I-76575J81752D01*
G03X1634159Y2015351I-101630J-47101D01*
G01X1632383Y2015233D01*
G01X1612810Y2013810D01*
G01X1605348Y2013713D01*
G01X1601915Y2013999D01*
G01X1563388Y2052526D01*
G01X1563388Y2083589D01*
G03X1741542Y2097939I83655J74491D01*
G01X1743438Y2100668D01*
G01X1744807Y2102794D01*
G01X1750290Y2112011D01*
G01X1750604Y2112549D01*
G01X1755085Y2120390D01*
G01X1758680Y2126009D01*
G01X1759187Y2126664D01*
G01X1761675Y2126792D01*
G01X1800215Y2126792D01*
G01X1800215Y2085603D01*
G03X1836029Y2049789I35814J0D01*
G01X1892594Y2049789D01*
G03X1904281Y2051749I0J35814D01*
G01X1904281Y2024075D01*
G01X1829118Y1948911D01*
G03X1815699Y1916516I32395J-32395D01*
G01X1815699Y1827059D01*
G01X1800215Y2249298D02*
G01X1800215Y2218420D01*
G01X1743274Y2218420D01*
G01X1741498Y2219823D01*
G01X1738469Y2222799D01*
G03X1712055Y2249298I-91426J-64719D01*
G01X1800215Y2249298D01*
G01X1758302Y2907092D02*
G01X2464946Y2907092D01*
G01X2464946Y2646222D01*
G03X2394720Y2660383I-44828J-41095D01*
G01X2394720Y2789987D01*
G03X2358906Y2825801I-35814J0D01*
G01X2258906Y2825801D01*
G03X2224686Y2800554I0J-35814D01*
G01X2143113Y2800554D01*
G03X2108894Y2825801I-34220J-10567D01*
G01X2008894Y2825801D01*
G03X1973080Y2789987I0J-35814D01*
G01X1973080Y2745801D01*
G01X1844210Y2745801D01*
G01X1762480Y2827532D01*
G03X1730084Y2840950I-32395J-32395D01*
G01X1726325Y2840950D01*
G03X1758302Y2907092I-79282J79130D01*
G01X1735286Y2343029D02*
G03X1737308Y2345700I-27508J22934D01*
G01X1737954Y2346641D01*
G03X1740808Y2350800I-90911J65439D01*
G01X1743275Y2354396D01*
G03X1744684Y2356619I-29531J20263D01*
G01X1752032Y2369222D01*
G01X1753837Y2369304D01*
G01X1800215Y2369304D01*
G01X1800215Y2340926D01*
G01X1733786Y2340926D01*
G01X1734396Y2341962D01*
G01X1735286Y2343029D01*
G01X2009632Y2066789D02*
G01X2020099Y2066789D01*
G03X2052494Y2080208I0J45814D01*
G01X2074995Y2102709D01*
G03X2088414Y2135104I-32395J32395D01*
G01X2088414Y2142327D01*
G03X2094893Y2141736I6480J35223D01*
G01X2113092Y2141736D01*
G01X2113092Y2127881D01*
G01X2098488Y2113276D01*
G03X2085069Y2080881I32395J-32395D01*
G01X2085069Y2005669D01*
G03X2072603Y2007909I-12466J-33574D01*
G01X2016037Y2007909D01*
G03X1995778Y2001628I0J-35814D01*
G03X1995909Y2005098I-45682J3470D01*
G01X1995909Y2053948D01*
G03X2009632Y2066789I-16752J31655D01*
G54D11*
G01X2016291Y1945095D02*
G01X1990383Y1945095D01*
G01X2044320Y1918349D02*
G01X2044320Y1892441D01*
G01X2044320Y1971841D02*
G01X2044320Y1997749D01*
G01X2090141Y1550000D02*
G01X2064233Y1550000D01*
G01X2129391Y1523254D02*
G01X2129391Y1497346D01*
G01X2129391Y1576746D02*
G01X2129391Y1602654D01*
G01X2240253Y837503D02*
G01X2214345Y837503D01*
G01X2294746Y837503D02*
G01X2320654Y837503D01*
G01X2267499Y864750D02*
G01X2267499Y890658D01*
G01X2240253Y1237503D02*
G01X2214345Y1237503D01*
G01X2294746Y1237503D02*
G01X2320654Y1237503D01*
G01X2267499Y1264750D02*
G01X2267499Y1290658D01*
G01X2240253Y762497D02*
G01X2214345Y762497D01*
G01X2294746Y762497D02*
G01X2320654Y762497D01*
G01X2267499Y735250D02*
G01X2267499Y709342D01*
G01X2240253Y1162497D02*
G01X2214345Y1162497D01*
G01X2294746Y1162497D02*
G01X2320654Y1162497D01*
G01X2267499Y1135250D02*
G01X2267499Y1109342D01*
G01X2348922Y1945095D02*
G01X2374830Y1945095D01*
G01X2320893Y1971841D02*
G01X2320893Y1997749D01*
G01X2320893Y1918349D02*
G01X2320893Y1892441D01*
G01X1836283Y2112603D02*
G01X1810375Y2112603D01*
G01X1864311Y2085857D02*
G01X1864311Y2059949D01*
G01X1861513Y1530253D02*
G01X1861513Y1504345D01*
G01X1836767Y1566463D02*
G01X1810859Y1566463D01*
G01X1886259Y1566463D02*
G01X1912167Y1566463D01*
G01X2216839Y419211D02*
G01X2198519Y400892D01*
G01X2322546Y524918D02*
G01X2340866Y543238D01*
G01X2199161Y542596D02*
G01X2180842Y560915D01*
G01X2340224Y401534D02*
G01X2358543Y383214D01*
G01X1722989Y888081D02*
G01X1748897Y888081D01*
G01X1571097Y888081D02*
G01X1545189Y888081D01*
G01X1647043Y812135D02*
G01X1647043Y786227D01*
G01X1722989Y1142081D02*
G01X1748897Y1142081D01*
G01X1571097Y1142081D02*
G01X1545189Y1142081D01*
G01X1647043Y1218027D02*
G01X1647043Y1243935D01*
G01X198989Y634081D02*
G01X224897Y634081D01*
G01X123043Y558135D02*
G01X123043Y532227D01*
G01X123043Y710027D02*
G01X123043Y735935D01*
G01X1722989Y1650081D02*
G01X1748897Y1650081D01*
G01X1571097Y1650081D02*
G01X1545189Y1650081D01*
G01X1647043Y1574135D02*
G01X1647043Y1548227D01*
G01X486878Y2866591D02*
G01X512786Y2866591D01*
G01X367386Y2866591D02*
G01X341478Y2866591D01*
G04 Copper End*

G04 TearDrop Start*
G36*
G01X2369621Y2155600D02*
G01X2369621Y2175600D01*
G03X2393118Y2190600I0J25903D01*
G01X2393118Y2140600D01*
G03X2369621Y2155600I-23497J-10903D01*
G37*
G36*
G01X2430118Y2096095D02*
G01X2410118Y2096095D01*
G03X2395118Y2126095I-37500J0D01*
G01X2445118Y2126095D01*
G03X2430118Y2096095I22500J-30000D01*
G37*
G36*
G01X2410118Y2338039D02*
G01X2430118Y2338039D01*
G03X2445118Y2314121I26568J0D01*
G01X2395118Y2314121D01*
G03X2410118Y2338039I-11569J23918D01*
G37*
G36*
G01X2363118Y2499628D02*
G01X2363118Y2519628D01*
G03X2393118Y2534628I0J37500D01*
G01X2393118Y2484628D01*
G03X2363118Y2499628I-30000J-22500D01*
G37*
G36*
G01X2410118Y2579133D02*
G01X2430118Y2579133D01*
G03X2445118Y2549133I37500J0D01*
G01X2395118Y2549133D01*
G03X2410118Y2579133I-22500J30000D01*
G37*
G36*
G01X2430118Y2338039D02*
G01X2410118Y2338039D01*
G03X2395118Y2361107I-25237J0D01*
G01X2445118Y2361107D01*
G03X2430118Y2338039I10237J-23068D01*
G37*
G36*
G01X2119391Y1607000D02*
G01X2139391Y1607000D01*
G03X2154391Y1577000I37500J0D01*
G01X2104392Y1577000D01*
G03X2119391Y1607000I-22500J30000D01*
G37*
G36*
G01X2228408Y1607000D02*
G01X2248408Y1607000D01*
G03X2263408Y1577000I37500J0D01*
G01X2213408Y1577000D01*
G03X2228408Y1607000I-22500J30000D01*
G37*
G36*
G01X2330893Y1888095D02*
G01X2310893Y1888095D01*
G03X2295893Y1918095I-37500J0D01*
G01X2345893Y1918095D01*
G03X2330893Y1888095I22500J-30000D01*
G37*
G36*
G01X2225109Y2002095D02*
G01X2245109Y2002095D01*
G03X2260109Y1972095I37500J0D01*
G01X2210109Y1972095D01*
G03X2225109Y2002095I-22500J30000D01*
G37*
G36*
G01X2244330Y1888095D02*
G01X2224330Y1888095D01*
G03X2209330Y1918095I-37500J0D01*
G01X2259329Y1918095D01*
G03X2244330Y1888095I22500J-30000D01*
G37*
G36*
G01X2054320Y1888095D02*
G01X2034320Y1888095D01*
G03X2019320Y1918095I-37500J0D01*
G01X2069320Y1918095D01*
G03X2054320Y1888095I22500J-30000D01*
G37*
G36*
G01X2120883Y2002095D02*
G01X2140883Y2002095D01*
G03X2155883Y1972095I37500J0D01*
G01X2105884Y1972095D01*
G03X2120883Y2002095I-22500J30000D01*
G37*
G36*
G01X2140883Y1888095D02*
G01X2120883Y1888095D01*
G03X2105884Y1918095I-37500J0D01*
G01X2155883Y1918095D01*
G03X2140883Y1888095I22500J-30000D01*
G37*
G36*
G01X1806029Y2102603D02*
G01X1806029Y2122603D01*
G03X1836029Y2137603I0J37500D01*
G01X1836029Y2087603D01*
G03X1806029Y2102603I-30000J-22500D01*
G37*
G36*
G01X1960095Y2055603D02*
G01X1940095Y2055603D01*
G03X1925095Y2085603I-37500J0D01*
G01X1975095Y2085603D01*
G03X1960095Y2055603I22500J-30000D01*
G37*
G36*
G01X2009158Y2122603D02*
G01X2009158Y2102603D01*
G03X1979158Y2087603I0J-37500D01*
G01X1979158Y2137603D01*
G03X2009158Y2122603I30000J22500D01*
G37*
G36*
G01X1806029Y2225109D02*
G01X1806029Y2245109D01*
G03X1836029Y2260109I0J37500D01*
G01X1836029Y2210109D01*
G03X1806029Y2225109I-30000J-22500D01*
G37*
G36*
G01X1960875Y2195887D02*
G01X1940875Y2195887D01*
G03X1925875Y2208109I-15000J-3093D01*
G01X1975875Y2208109D01*
G03X1960875Y2195887I0J-15316D01*
G37*
G36*
G01X1997597Y2245109D02*
G01X1997597Y2225109D01*
G03X1979158Y2210109I0J-18834D01*
G01X1979158Y2260109D01*
G03X1997597Y2245109I18440J3834D01*
G37*
G36*
G01X1806029Y2345115D02*
G01X1806029Y2365115D01*
G03X1836029Y2380115I0J37500D01*
G01X1836029Y2330115D01*
G03X1806029Y2345115I-30000J-22500D01*
G37*
G36*
G01X1960875Y2315892D02*
G01X1940875Y2315892D01*
G03X1925875Y2328115I-15000J-3093D01*
G01X1975875Y2328115D01*
G03X1960875Y2315892I0J-15316D01*
G37*
G36*
G01X2007598Y2365115D02*
G01X2007598Y2345115D01*
G03X1979158Y2330115I0J-34462D01*
G01X1979158Y2380115D01*
G03X2007598Y2365115I28440J19462D01*
G37*
G36*
G01X1806029Y2465121D02*
G01X1806029Y2485121D01*
G03X1836029Y2500121I0J37500D01*
G01X1836029Y2450121D01*
G03X1806029Y2465121I-30000J-22500D01*
G37*
G36*
G01X2005098Y2485121D02*
G01X2005098Y2465121D01*
G03X1979158Y2450121I0J-29930D01*
G01X1979158Y2500121D01*
G03X2005098Y2485121I25940J14930D01*
G37*
G36*
G01X1960875Y2435898D02*
G01X1940875Y2435898D01*
G03X1925875Y2448121I-15000J-3093D01*
G01X1975875Y2448121D01*
G03X1960875Y2435898I0J-15316D01*
G37*
G36*
G01X2012501Y1180002D02*
G01X1992501Y1180002D01*
G03X1977501Y1210002I-37500J0D01*
G01X2027501Y1210002D01*
G03X2012501Y1180002I22500J-30000D01*
G37*
G36*
G01X2277499Y1180002D02*
G01X2257499Y1180002D01*
G03X2242499Y1210002I-37500J0D01*
G01X2292499Y1210002D01*
G03X2277499Y1180002I22500J-30000D01*
G37*
G36*
G01X1945000Y1152409D02*
G01X1945000Y1172409D01*
G03X1975000Y1187409I0J37500D01*
G01X1975000Y1137409D01*
G03X1945000Y1152409I-30000J-22500D01*
G37*
G36*
G01X1992501Y1219997D02*
G01X2012501Y1219997D01*
G03X2027501Y1189997I37500J0D01*
G01X1977501Y1189997D01*
G03X1992501Y1219997I-22500J30000D01*
G37*
G36*
G01X2257499Y1219997D02*
G01X2277499Y1219997D01*
G03X2292499Y1189997I37500J0D01*
G01X2242499Y1189997D01*
G03X2257499Y1219997I-22500J30000D01*
G37*
G36*
G01X2012501Y780003D02*
G01X1992501Y780003D01*
G03X1977501Y810002I-37500J0D01*
G01X2027501Y810002D01*
G03X2012501Y780003I22500J-30000D01*
G37*
G36*
G01X2277499Y780003D02*
G01X2257499Y780003D01*
G03X2242499Y810002I-37500J0D01*
G01X2292499Y810002D01*
G03X2277499Y780003I22500J-30000D01*
G37*
G36*
G01X1945000Y752450D02*
G01X1945000Y772450D01*
G03X1975000Y787450I0J37500D01*
G01X1975000Y737450D01*
G03X1945000Y752450I-30000J-22500D01*
G37*
G36*
G01X1992501Y819997D02*
G01X2012501Y819997D01*
G03X2027501Y789997I37500J0D01*
G01X1977501Y789997D01*
G03X1992501Y819997I-22500J30000D01*
G37*
G36*
G01X2257499Y819997D02*
G01X2277499Y819997D01*
G03X2292499Y789997I37500J0D01*
G01X2242499Y789997D01*
G03X2257499Y819997I-22500J30000D01*
G37*
G36*
G01X2068793Y2201300D02*
G01X2068793Y2221300D01*
G03X2094893Y2236300I0J30207D01*
G01X2094893Y2186300D01*
G03X2068793Y2201300I-26100J-15207D01*
G37*
G36*
G01X2168906Y2147550D02*
G01X2148906Y2147550D01*
G03X2144906Y2177550I-114486J0D01*
G01X2172907Y2177550D01*
G03X2168906Y2147550I110485J-30000D01*
G37*
G36*
G01X2218893Y2147550D02*
G01X2198893Y2147550D01*
G03X2194893Y2177550I-114486J0D01*
G01X2222894Y2177550D01*
G03X2218893Y2147550I110485J-30000D01*
G37*
G36*
G01X2268906Y2158681D02*
G01X2248906Y2158681D01*
G03X2244906Y2177550I-46500J0D01*
G01X2272907Y2177550D01*
G03X2268906Y2158681I42500J-18869D01*
G37*
G36*
G01X2327725Y2297500D02*
G01X2327725Y2277500D01*
G03X2318895Y2273500I0J-11746D01*
G01X2318895Y2301501D01*
G03X2327725Y2297500I8831J7746D01*
G37*
G36*
G01X2348894Y2347487D02*
G01X2348894Y2327487D01*
G03X2318895Y2323487I0J-114486D01*
G01X2318895Y2351488D01*
G03X2348894Y2347487I30000J110485D01*
G37*
G36*
G01X2302906Y2473700D02*
G01X2302906Y2453700D01*
G03X2272907Y2438700I0J-37500D01*
G01X2272907Y2488700D01*
G03X2302906Y2473700I30000J22500D01*
G37*
G36*
G01X2198893Y2527450D02*
G01X2218893Y2527450D01*
G03X2222894Y2497450I114486J0D01*
G01X2194893Y2497450D01*
G03X2198893Y2527450I-110485J30000D01*
G37*
G36*
G01X2035216Y2377500D02*
G01X2035216Y2397500D01*
G03X2048905Y2401500I0J25422D01*
G01X2048905Y2373499D01*
G03X2035216Y2377500I-13689J-21422D01*
G37*
G36*
G01X2025226Y2327487D02*
G01X2025226Y2347487D01*
G03X2048905Y2351488I0J72082D01*
G01X2048905Y2323487D01*
G03X2025226Y2327487I-23680J-68082D01*
G37*
G36*
G01X2032488Y2277500D02*
G01X2032488Y2297500D01*
G03X2048905Y2301501I0J35688D01*
G01X2048905Y2273500D01*
G03X2032488Y2277500I-16418J-31688D01*
G37*
G36*
G01X1978894Y2689987D02*
G01X1978894Y2709987D01*
G03X2008894Y2724987I0J37500D01*
G01X2008894Y2674987D01*
G03X1978894Y2689987I-30000J-22500D01*
G37*
G36*
G01X2318906Y2579987D02*
G01X2298906Y2579987D01*
G03X2283906Y2609987I-37500J0D01*
G01X2333906Y2609987D01*
G03X2318906Y2579987I22500J-30000D01*
G37*
G36*
G01X1750850Y389993D02*
G01X1750719Y369993D01*
G01X1747328Y369593D01*
G01X1743856Y368451D01*
G01X1740322Y366654D01*
G01X1736744Y364287D01*
G01X1729535Y358190D01*
G01X1722382Y350850D01*
G01X1708854Y335205D01*
G01X1702783Y328279D01*
G01X1697379Y322873D01*
G01X1697510Y437173D01*
G01X1702903Y431759D01*
G01X1708970Y424825D01*
G01X1722506Y409160D01*
G01X1729665Y401811D01*
G01X1736879Y395706D01*
G01X1740458Y393336D01*
G01X1743993Y391536D01*
G01X1747463Y390393D01*
G01X1750850Y389993D01*
G37*
G36*
G01X1566616Y1970366D02*
G01X1580758Y1984508D01*
G01X1583437Y1982394D01*
G01X1586700Y1980748D01*
G01X1590471Y1979520D01*
G01X1594676Y1978665D01*
G01X1604089Y1977880D01*
G01X1614342Y1978012D01*
G01X1634981Y1979514D01*
G01X1644172Y1980123D01*
G01X1651815Y1980131D01*
G01X1570993Y1899309D01*
G01X1571001Y1906952D01*
G01X1571610Y1916143D01*
G01X1573111Y1936781D01*
G01X1573244Y1947035D01*
G01X1572459Y1956448D01*
G01X1571603Y1960653D01*
G01X1570376Y1964424D01*
G01X1568729Y1967687D01*
G01X1566616Y1970366D01*
G37*
G36*
G01X1738966Y2182606D02*
G01X1760755Y2162606D01*
G01X1755065Y2162313D01*
G01X1750024Y2161460D01*
G01X1745559Y2160084D01*
G01X1741599Y2158222D01*
G01X1738073Y2155911D01*
G01X1734908Y2153189D01*
G01X1732034Y2150094D01*
G01X1729378Y2146662D01*
G01X1724436Y2138940D01*
G01X1719509Y2130320D01*
G01X1714027Y2121103D01*
G01X1707415Y2111586D01*
G01X1685626Y2223790D01*
G01X1692119Y2219065D01*
G01X1698499Y2213012D01*
G01X1711247Y2199337D01*
G01X1717777Y2192922D01*
G01X1724519Y2187593D01*
G01X1727996Y2185524D01*
G01X1731556Y2183953D01*
G01X1735209Y2182955D01*
G01X1738966Y2182606D01*
G37*
G36*
G01X1748467Y2425118D02*
G01X1753023Y2405118D01*
G01X1746959Y2404842D01*
G01X1741762Y2404037D01*
G01X1737322Y2402738D01*
G01X1733533Y2400981D01*
G01X1730288Y2398802D01*
G01X1727478Y2396234D01*
G01X1724996Y2393314D01*
G01X1722734Y2390076D01*
G01X1713745Y2374659D01*
G01X1707778Y2365963D01*
G01X1704050Y2361492D01*
G01X1699683Y2356985D01*
G01X1695127Y2471194D01*
G01X1700736Y2465907D01*
G01X1706868Y2459135D01*
G01X1720262Y2443836D01*
G01X1727301Y2436659D01*
G01X1734423Y2430697D01*
G01X1737979Y2428383D01*
G01X1741514Y2426625D01*
G01X1745015Y2425509D01*
G01X1748467Y2425118D01*
G37*
G36*
G01X1547919Y2650130D02*
G01X1538993Y2670130D01*
G01X1544953Y2670411D01*
G01X1550106Y2671230D01*
G01X1554549Y2672552D01*
G01X1558380Y2674340D01*
G01X1561698Y2676559D01*
G01X1564601Y2679172D01*
G01X1567186Y2682144D01*
G01X1569551Y2685439D01*
G01X1574015Y2692855D01*
G01X1578778Y2701131D01*
G01X1584622Y2709982D01*
G01X1588195Y2714533D01*
G01X1592333Y2719120D01*
G01X1601259Y2605169D01*
G01X1595441Y2610328D01*
G01X1589246Y2616936D01*
G01X1575996Y2631865D01*
G01X1569074Y2638868D01*
G01X1562042Y2644685D01*
G01X1558506Y2646944D01*
G01X1554968Y2648659D01*
G01X1551436Y2649748D01*
G01X1547919Y2650130D01*
G37*
G36*
G01X197694Y2572833D02*
G01X158997Y2583245D01*
G01X155865Y2585938D01*
G01X152515Y2588034D01*
G01X148971Y2589603D01*
G01X145254Y2590719D01*
G01X137393Y2591881D01*
G01X129112Y2592097D01*
G01X120592Y2591945D01*
G01X112012Y2592006D01*
G01X103552Y2592856D01*
G01X99423Y2593758D01*
G01X95392Y2595074D01*
G01X196949Y2647522D01*
G01X190905Y2626415D01*
G01X188243Y2616584D01*
G01X186459Y2607175D01*
G01X186047Y2602614D01*
G01X186033Y2598141D01*
G01X186479Y2593751D01*
G01X187445Y2589437D01*
G01X188989Y2585194D01*
G01X191172Y2581016D01*
G01X194053Y2576898D01*
G01X197694Y2572833D01*
G37*
G36*
G01X227252Y897456D02*
G01X226314Y877456D01*
G01X222913Y877057D01*
G01X219436Y875920D01*
G01X215901Y874130D01*
G01X212328Y871772D01*
G01X205135Y865699D01*
G01X198002Y858388D01*
G01X184497Y842803D01*
G01X178416Y835905D01*
G01X172974Y830519D01*
G01X173912Y944815D01*
G01X178473Y940381D01*
G01X182331Y935982D01*
G01X188400Y927425D01*
G01X197184Y912256D01*
G01X199356Y909070D01*
G01X201750Y906197D01*
G01X204482Y903670D01*
G01X207667Y901526D01*
G01X211420Y899797D01*
G01X215859Y898519D01*
G01X221097Y897727D01*
G01X227252Y897456D01*
G37*
G36*
G01X1851513Y1679999D02*
G01X1871513Y1679999D01*
G03X1876513Y1649999I92500J0D01*
G01X1871513Y1649999D01*
G01X1851513Y1649999D01*
G01X1846513Y1649999D01*
G03X1851513Y1679999I-87500J30000D01*
G37*
G36*
G01X2323721Y2327487D02*
G01X2323721Y2347487D01*
G01X2326169Y2347684D01*
G01X2328549Y2348239D01*
G01X2333091Y2350222D01*
G01X2337324Y2353024D01*
G01X2341221Y2356237D01*
G01X2341221Y2318737D01*
G01X2337324Y2321950D01*
G01X2333091Y2324753D01*
G01X2328549Y2326735D01*
G01X2326169Y2327291D01*
G01X2323721Y2327487D01*
G37*
G36*
G01X2391793Y2347487D02*
G01X2391793Y2327487D01*
G01X2389346Y2327291D01*
G01X2386966Y2326735D01*
G01X2382423Y2324753D01*
G01X2378190Y2321950D01*
G01X2374293Y2318737D01*
G01X2374293Y2356237D01*
G01X2378190Y2353024D01*
G01X2382423Y2350222D01*
G01X2386966Y2348239D01*
G01X2389346Y2347684D01*
G01X2391793Y2347487D01*
G37*
G36*
G01X2410118Y2104137D02*
G01X2430118Y2104137D01*
G01X2430315Y2101689D01*
G01X2430870Y2099310D01*
G01X2432852Y2094767D01*
G01X2435655Y2090534D01*
G01X2438868Y2086637D01*
G01X2401368Y2086637D01*
G01X2404581Y2090534D01*
G01X2407384Y2094767D01*
G01X2409366Y2099310D01*
G01X2409922Y2101689D01*
G01X2410118Y2104137D01*
G37*
G36*
G01X2139391Y1618335D02*
G01X2119391Y1618335D01*
G01X2119195Y1620783D01*
G01X2118640Y1623163D01*
G01X2116657Y1627706D01*
G01X2113854Y1631938D01*
G01X2110642Y1635835D01*
G01X2148141Y1635835D01*
G01X2144929Y1631938D01*
G01X2142126Y1627706D01*
G01X2140143Y1623163D01*
G01X2139588Y1620783D01*
G01X2139391Y1618335D01*
G37*
G36*
G01X2119391Y1686407D02*
G01X2139391Y1686407D01*
G01X2139588Y1683960D01*
G01X2140143Y1681580D01*
G01X2142126Y1677037D01*
G01X2144929Y1672804D01*
G01X2148141Y1668907D01*
G01X2110642Y1668907D01*
G01X2113854Y1672804D01*
G01X2116657Y1677037D01*
G01X2118640Y1681580D01*
G01X2119195Y1683960D01*
G01X2119391Y1686407D01*
G37*
G36*
G01X2248408Y1618335D02*
G01X2228408Y1618335D01*
G01X2228212Y1620783D01*
G01X2227656Y1623163D01*
G01X2225674Y1627706D01*
G01X2222871Y1631938D01*
G01X2219658Y1635835D01*
G01X2257158Y1635835D01*
G01X2253945Y1631938D01*
G01X2251143Y1627706D01*
G01X2249160Y1623163D01*
G01X2248605Y1620783D01*
G01X2248408Y1618335D01*
G37*
G36*
G01X2228408Y1686407D02*
G01X2248408Y1686407D01*
G01X2248605Y1683960D01*
G01X2249160Y1681580D01*
G01X2251143Y1677037D01*
G01X2253945Y1672804D01*
G01X2257158Y1668907D01*
G01X2219658Y1668907D01*
G01X2222871Y1672804D01*
G01X2225674Y1677037D01*
G01X2227656Y1681580D01*
G01X2228212Y1683960D01*
G01X2228408Y1686407D01*
G37*
G36*
G01X1814123Y2122603D02*
G01X1814123Y2102603D01*
G01X1811675Y2102407D01*
G01X1809296Y2101851D01*
G01X1804753Y2099869D01*
G01X1800520Y2097066D01*
G01X1796623Y2093853D01*
G01X1796623Y2131353D01*
G01X1800520Y2128140D01*
G01X1804753Y2125337D01*
G01X1809296Y2123355D01*
G01X1811675Y2122800D01*
G01X1814123Y2122603D01*
G37*
G36*
G01X1816623Y2245109D02*
G01X1816623Y2225109D01*
G01X1814175Y2224913D01*
G01X1811796Y2224357D01*
G01X1807253Y2222375D01*
G01X1803020Y2219572D01*
G01X1799123Y2216359D01*
G01X1799123Y2253859D01*
G01X1803020Y2250646D01*
G01X1807253Y2247843D01*
G01X1811796Y2245861D01*
G01X1814175Y2245306D01*
G01X1816623Y2245109D01*
G37*
G36*
G01X1816623Y2485121D02*
G01X1816623Y2465121D01*
G01X1814175Y2464924D01*
G01X1811796Y2464369D01*
G01X1807253Y2462386D01*
G01X1803020Y2459584D01*
G01X1799123Y2456371D01*
G01X1799123Y2493871D01*
G01X1803020Y2490658D01*
G01X1807253Y2487855D01*
G01X1811796Y2485873D01*
G01X1814175Y2485317D01*
G01X1816623Y2485121D01*
G37*
G36*
G01X1816623Y2365115D02*
G01X1816623Y2345115D01*
G01X1814175Y2344918D01*
G01X1811796Y2344363D01*
G01X1807253Y2342381D01*
G01X1803020Y2339578D01*
G01X1799123Y2336365D01*
G01X1799123Y2373865D01*
G01X1803020Y2370652D01*
G01X1807253Y2367849D01*
G01X1811796Y2365867D01*
G01X1814175Y2365311D01*
G01X1816623Y2365115D01*
G37*
G36*
G01X2278930Y2124515D02*
G01X2293072Y2138657D01*
G01X2294941Y2137065D01*
G01X2297017Y2135775D01*
G01X2301631Y2133965D01*
G01X2306606Y2132954D01*
G01X2311633Y2132470D01*
G01X2285117Y2105953D01*
G01X2284633Y2110981D01*
G01X2283622Y2115956D01*
G01X2281811Y2120570D01*
G01X2280521Y2122645D01*
G01X2278930Y2124515D01*
G37*
G36*
G01X2034320Y1894127D02*
G01X2054320Y1894127D01*
G01X2054517Y1891679D01*
G01X2055072Y1889299D01*
G01X2057055Y1884757D01*
G01X2059857Y1880524D01*
G01X2063070Y1876627D01*
G01X2025570Y1876627D01*
G01X2028783Y1880524D01*
G01X2031586Y1884757D01*
G01X2033568Y1889299D01*
G01X2034124Y1891679D01*
G01X2034320Y1894127D01*
G37*
G36*
G01X2310893Y1894127D02*
G01X2330893Y1894127D01*
G01X2331089Y1891679D01*
G01X2331645Y1889299D01*
G01X2333627Y1884757D01*
G01X2336430Y1880524D01*
G01X2339643Y1876627D01*
G01X2302143Y1876627D01*
G01X2305356Y1880524D01*
G01X2308158Y1884757D01*
G01X2310141Y1889299D01*
G01X2310696Y1891679D01*
G01X2310893Y1894127D01*
G37*
G36*
G01X2430118Y2571091D02*
G01X2410118Y2571091D01*
G01X2409922Y2573539D01*
G01X2409366Y2575918D01*
G01X2407384Y2580461D01*
G01X2404581Y2584694D01*
G01X2401368Y2588591D01*
G01X2438868Y2588591D01*
G01X2435655Y2584694D01*
G01X2432852Y2580461D01*
G01X2430870Y2575918D01*
G01X2430315Y2573539D01*
G01X2430118Y2571091D01*
G37*
G36*
G01X1791513Y1766514D02*
G02X1851513Y1746514I0J-100000D01*
G01X1861513Y1776514D01*
G01X1851513Y1806514D01*
G02X1791513Y1786514I-60000J80000D01*
G01X1791513Y1766514D01*
G37*
G36*
G01X2357757Y2347487D02*
G03X2410118Y2367487I0J78542D01*
G01X2420118Y2338039D01*
G01X2410118Y2307487D01*
G03X2357757Y2327487I-52361J-58542D01*
G01X2357757Y2347487D01*
G37*
G04 TearDrop End*

G04 Pad Start*
G54D12*
G01X2420118Y2165600D03*
G01X2420118Y2274617D03*
G01X2420118Y2509628D03*
G01X2420118Y2400611D03*
G54D13*
G01X2129391Y1550000D03*
G01X2238408Y1550000D03*
G54D14*
G01X2320893Y1945095D03*
G01X2234330Y1945095D03*
G01X2044320Y1945095D03*
G01X2130883Y1945095D03*
G01X1864311Y2112603D03*
G01X1950875Y2112603D03*
G01X1864311Y2235109D03*
G01X1950875Y2235109D03*
G01X1864311Y2355115D03*
G01X1950875Y2355115D03*
G01X1864311Y2475121D03*
G01X1950875Y2475121D03*
G54D15*
G01X2002501Y1237503D03*
G01X2267499Y1237503D03*
G01X2002501Y1162497D03*
G01X2267499Y1162497D03*
G01X2002501Y837503D03*
G01X2267499Y837503D03*
G01X2002501Y762497D03*
G01X2267499Y762497D03*
G54D16*
G01X2108894Y2211300D03*
G01X2158906Y2211300D03*
G01X2208893Y2211300D03*
G01X2258906Y2211300D03*
G54D17*
G01X2285144Y2287500D03*
G01X2285144Y2337487D03*
G01X2285144Y2387500D03*
G54D16*
G01X2258906Y2463700D03*
G01X2208893Y2463700D03*
G01X2158906Y2463700D03*
G01X2108894Y2463700D03*
G54D17*
G01X2082655Y2387500D03*
G01X2082655Y2337487D03*
G01X2082655Y2287500D03*
G54D18*
G01X2203902Y1772590D03*
G01X2203902Y1732610D03*
G01X2163897Y1772590D03*
G01X2163897Y1732610D03*
G54D20*
G01X2058894Y2699987D03*
G01X2308906Y2699987D03*
G54D21*
G01X2057561Y259933D03*
G54D22*
G01X2269692Y472065D03*
G36*
G01X1846513Y1649999D02*
G01X1876513Y1649999D01*
G02X1886513Y1639999I0J-10000D01*
G01X1886513Y1612070D01*
G02X1877977Y1608535I-5000J0D01*
G01X1865049Y1621463D01*
G03X1857977Y1621463I-3536J-3536D01*
G01X1845049Y1608535D01*
G02X1836513Y1612070I-3535J3536D01*
G01X1836513Y1639999D01*
G02X1846513Y1649999I10000J0D01*
G37*
G36*
G01X1836513Y1539999D02*
G01X1836513Y1577928D01*
G02X1837978Y1581463I5000J0D01*
G01X1857977Y1601463D01*
G02X1865049Y1601463I3536J-3535D01*
G01X1885049Y1581462D01*
G02X1886513Y1577926I-3536J-3536D01*
G01X1886513Y1539999D01*
G02X1876513Y1529999I-10000J0D01*
G01X1846513Y1529999D01*
G02X1836513Y1539999I0J10000D01*
G37*
G54D23*
G01X1960096Y1002549D03*
G01X874993Y829953D03*
G54D24*
G01X1647043Y126081D03*
G01X1647043Y380081D03*
G01X1647043Y634081D03*
G01X1647043Y888081D03*
G01X1647043Y1142081D03*
G01X1647043Y1396081D03*
G01X1647043Y1650081D03*
G01X1647043Y1904081D03*
G01X1647043Y2158081D03*
G01X1647043Y2412081D03*
G01X1647043Y2666081D03*
G01X1647043Y2920081D03*
G01X1647043Y3174081D03*
G01X123043Y3174081D03*
G01X123043Y2920081D03*
G01X123043Y2666081D03*
G01X123043Y2412081D03*
G01X123043Y2158081D03*
G01X123043Y1904081D03*
G01X123043Y1650081D03*
G01X123043Y1396081D03*
G01X123043Y1142081D03*
G01X123043Y888081D03*
G01X123043Y634081D03*
G01X123043Y380081D03*
G01X123043Y126081D03*
G01X1339090Y2858706D03*
G01X1085090Y2858706D03*
G01X831090Y2858706D03*
G54D25*
G01X427132Y2866591D03*
G01X427132Y2716591D03*
G01X427132Y2566591D03*
G01X427132Y2416591D03*
G54D26*
G01X488661Y1064010D03*
G01X488661Y1205774D03*
G04 Pad End*

G04 Via Start*
G54D27*
G01X188386Y506585D03*
G01X193386Y761590D03*
G01X278390Y1966591D03*
G01X278390Y1066591D03*
G01X278390Y1666591D03*
G01X278390Y1366591D03*
G01X278390Y2866591D03*
G01X278390Y2566591D03*
G01X278390Y2266591D03*
G01X428390Y2116591D03*
G01X428390Y1516591D03*
G01X428390Y1816591D03*
G01X578390Y1666591D03*
G01X578390Y1366591D03*
G01X578390Y2566591D03*
G01X578390Y2266591D03*
G01X578390Y1966591D03*
G01X578390Y2866591D03*
G01X728390Y2716591D03*
G01X728390Y2116591D03*
G01X728390Y1816591D03*
G01X728390Y1216591D03*
G01X728390Y916590D03*
G01X728390Y1516591D03*
G01X878390Y1366591D03*
G01X878390Y1666591D03*
G01X878390Y1966591D03*
G01X1028390Y2116591D03*
G01X1028390Y1216591D03*
G01X1028390Y2716591D03*
G01X1028390Y916590D03*
G01X1028390Y1516591D03*
G01X1028390Y1816591D03*
G01X1173390Y2571591D03*
G01X1178390Y1666591D03*
G01X1178390Y2266591D03*
G01X1178390Y1366591D03*
G01X1178390Y1966591D03*
G01X1328390Y1816591D03*
G01X1328390Y1516591D03*
G01X1313390Y2716591D03*
G01X1328390Y916590D03*
G01X1328390Y1216591D03*
G01X1440070Y2160105D03*
G01X1467572Y1875092D03*
G01X1478390Y2566591D03*
G01X1478390Y766591D03*
G01X1478390Y2866591D03*
G01X1478390Y166590D03*
G01X1478390Y1666591D03*
G01X1478390Y1366591D03*
G01X1778390Y2866591D03*
G01X1778390Y766591D03*
G01X1778390Y616591D03*
G01X1778390Y916590D03*
G01X1778390Y166590D03*
G01X1928390Y916590D03*
G01X1928390Y1216591D03*
G01X1943391Y1509090D03*
G01X1928390Y166590D03*
G01X1970096Y1646801D03*
G01X1983386Y1369091D03*
G01X2078390Y2866591D03*
G01X2078390Y616591D03*
G01X2078390Y466591D03*
G01X2135893Y1199097D03*
G01X2135893Y799092D03*
G01X2185896Y1439087D03*
G01X2228390Y316591D03*
G01X2378390Y2866591D03*
G01X2378390Y1066591D03*
G01X2378390Y766591D03*
G01X2378390Y1366591D03*
G01X2402617Y1644301D03*
G01X1515074Y2725133D03*
G01X2357757Y2337487D03*
G01X2420118Y2070101D03*
G01X2129391Y1652371D03*
G01X2238408Y1652371D03*
G01X1780087Y2112603D03*
G01X1782587Y2235109D03*
G01X1782587Y2475121D03*
G01X1782587Y2355115D03*
G01X2310068Y2107519D03*
G01X2044320Y1860091D03*
G01X2320893Y1860091D03*
G01X2420118Y2605127D03*
G01X1907593Y2592627D03*
G01X65003Y2540124D03*
G01X60003Y2795136D03*
G01X60003Y2285112D03*
G01X57503Y2030099D03*
G01X57503Y1777587D03*
G01X57503Y1525074D03*
G01X57503Y1270062D03*
G01X57503Y1015050D03*
G01X57503Y762537D03*
G01X57503Y506741D03*
G01X57503Y251238D03*
G04 Via End*

G04 Track Start*
G54D28*
G01X1861513Y1916516D02*
G01X1950095Y2005098D01*
G01X1950095Y2111824D01*
G01X1950875Y2112603D01*
G01X2108894Y2211300D02*
G01X2068793Y2211300D01*
G01X2042600Y2185107D01*
G01X2042600Y2135104D01*
G01X2020099Y2112603D01*
G01X1950875Y2112603D01*
G01X2082655Y2287500D02*
G01X2032488Y2287500D01*
G01X2020099Y2275111D01*
G01X2020099Y2257610D01*
G01X1997597Y2235109D01*
G01X1950875Y2235109D01*
G01X2082655Y2337487D02*
G01X2025226Y2337487D01*
G01X2007598Y2355115D02*
G01X1950875Y2355115D01*
G01X2025226Y2337487D02*
G01X2007598Y2355115D01*
G01X2082655Y2387500D02*
G01X2035216Y2387500D01*
G01X2022599Y2400117D01*
G01X2022599Y2457620D01*
G01X2005098Y2475121D01*
G01X1950875Y2475121D01*
G01X1950875Y2435898D01*
G01X1930094Y2415118D01*
G01X1650081Y2415118D01*
G01X1647043Y2412081D01*
G01X1950875Y2355115D02*
G01X1950875Y2315892D01*
G01X1930094Y2295112D01*
G01X1595078Y2295112D01*
G01X1517574Y2217608D01*
G01X1517574Y2033550D01*
G01X1647043Y1904081D01*
G01X1950875Y2235109D02*
G01X1950875Y2195887D01*
G01X1927594Y2172606D01*
G01X1661569Y2172606D01*
G01X1647043Y2158081D01*
G01X1861513Y1776514D02*
G01X1463644Y1776514D01*
G01X1360066Y2582626D02*
G01X1437570Y2660130D01*
G01X1641092Y2660130D01*
G01X1647043Y2666081D01*
G01X1861513Y1636463D02*
G01X1861513Y1776514D01*
G01X1861513Y1916516D01*
G01X1463644Y1776514D02*
G01X1360066Y1880092D01*
G01X1360066Y2582626D01*
G01X2058894Y2699987D02*
G01X1825234Y2699987D01*
G01X1730084Y2795136D01*
G01X1492573Y2795136D01*
G01X1015050Y2317613D02*
G01X362518Y2317613D01*
G01X268763Y2411368D01*
G01X268763Y2487621D01*
G01X123043Y2633341D01*
G01X123043Y2666081D01*
G01X1492573Y2795136D02*
G01X1015050Y2317613D01*
G01X2258906Y2463700D02*
G01X2303692Y2463700D01*
G01X2349620Y2509628D02*
G01X2407617Y2509628D01*
G01X2208893Y2463700D02*
G01X2208893Y2528909D01*
G01X2230109Y2550124D01*
G01X2285112Y2550124D01*
G01X2308906Y2573919D02*
G01X2308906Y2699987D01*
G01X2285112Y2550124D02*
G01X2308906Y2573919D01*
G01X2158906Y2211300D02*
G01X2158906Y2108904D01*
G01X2130883Y2080881D02*
G01X2130883Y1945095D01*
G01X2158906Y2108904D02*
G01X2130883Y2080881D01*
G01X2208893Y2211300D02*
G01X2208893Y2113817D01*
G01X2235109Y2087602D01*
G01X2235109Y1945874D01*
G01X2234330Y1945095D01*
G01X2163897Y1772590D02*
G01X2130883Y1805604D01*
G01X2130883Y1945095D01*
G01X2203902Y1772590D02*
G01X2234330Y1803017D01*
G01X2234330Y1945095D01*
G01X2203902Y1732610D02*
G01X2238408Y1698104D01*
G01X2163897Y1732610D02*
G01X2129391Y1698104D01*
G01X2238408Y1698104D02*
G01X2238408Y1652371D01*
G01X2238408Y1550000D01*
G01X2129391Y1698104D02*
G01X2129391Y1652371D01*
G01X2129391Y1550000D01*
G01X2285144Y2337487D02*
G01X2357757Y2337487D01*
G01X2419566Y2337487D01*
G01X2420118Y2338039D01*
G01X2420118Y2400611D02*
G01X2420118Y2338039D01*
G01X2420118Y2274617D01*
G01X1864311Y2475121D02*
G01X1782587Y2475121D01*
G01X1864311Y2235109D02*
G01X1782587Y2235109D01*
G01X1864311Y2112603D02*
G01X1780087Y2112603D01*
G01X1864311Y2355115D02*
G01X1782587Y2355115D01*
G01X1857541Y437434D02*
G01X1857541Y684946D01*
G01X1800100Y379993D02*
G01X1857541Y437434D01*
G01X1857541Y684946D02*
G01X1935044Y762450D01*
G01X1646993Y379993D02*
G01X1800100Y379993D01*
G01X1935044Y762450D02*
G01X2002411Y762450D01*
G01X1917484Y1162409D02*
G01X1772536Y1017462D01*
G01X694984Y1017462D01*
G01X2002451Y1162409D02*
G01X1917484Y1162409D01*
G01X694984Y1017462D02*
G01X564978Y887456D01*
G01X123530Y887456D01*
G01X122993Y887993D01*
G01X2258906Y2211300D02*
G01X2258906Y2158681D01*
G01X2310068Y2107519D01*
G01X2285144Y2287500D02*
G01X2327725Y2287500D01*
G01X2347615Y2267611D01*
G01X2347615Y2187607D01*
G01X2369621Y2165600D01*
G01X2420118Y2165600D01*
G01X2320893Y1945095D02*
G01X2320893Y1860091D01*
G01X2044320Y1945095D02*
G01X2044320Y1860091D01*
G01X2303692Y2463700D02*
G01X2349620Y2509628D01*
G01X2267499Y1237503D02*
G01X2267499Y1162497D01*
G01X2267499Y837503D02*
G01X2267499Y762497D01*
G01X2420118Y2509628D02*
G01X2420118Y2605127D01*
G01X2420118Y2165600D02*
G01X2420118Y2070101D01*
G01X2002501Y1237503D02*
G01X2002501Y1162497D01*
G01X2002501Y837503D02*
G01X2002501Y762497D01*
G04 Track End*

M02*

