G04 Layer: TopSolderMaskLayer*
G04 EasyEDA Pro v2.2.40.8, 2025-10-17 17:15:36*
G04 Gerber Generator version 0.3*
G04 Scale: 100 percent, Rotated: No, Reflected: No*
G04 Dimensions in millimeters*
G04 Leading zeros omitted, absolute positions, 4 integers and 5 decimals*
G04 Generated by one-click*
%FSLAX45Y45*%
%MOMM*%
%AMRoundRect*1,1,$1,$2,$3*1,1,$1,$4,$5*1,1,$1,0-$2,0-$3*1,1,$1,0-$4,0-$5*20,1,$1,$2,$3,$4,$5,0*20,1,$1,$4,$5,0-$2,0-$3,0*20,1,$1,0-$2,0-$3,0-$4,0-$5,0*20,1,$1,0-$4,0-$5,$2,$3,0*4,1,4,$2,$3,$4,$5,0-$2,0-$3,0-$4,0-$5,$2,$3,0*%
%AMOval*1,1,$1,$2,$3*1,1,$1,$4,$5*20,1,$1,$2,$3,$4,$5,0*%
%ADD10RoundRect,0.08771X-0.27695X-0.40199X-0.27695X0.40199*%
%ADD11RoundRect,0.08771X-0.40199X0.27695X0.40199X0.27695*%
%ADD12RoundRect,0.08771X-0.28977X0.27695X0.28977X0.27695*%
%ADD13RoundRect,0.0882X-0.2819X0.2819X0.2819X0.2819*%
%ADD14RoundRect,0.08051X-0.15075X-0.34825X-0.15075X0.34825*%
%ADD15RoundRect,0.08051X-0.34825X-0.15075X-0.34825X0.15075*%
%ADD16C,0.28001*%
%ADD17RoundRect,0.09336X-0.50432X-0.90432X-0.50432X0.90432*%
%ADD18Oval,1.6004X-0.17678X0.17678X0.17678X-0.17678*%
%ADD19Oval,1.6016X-0.17678X0.17678X0.17678X-0.17678*%
%ADD20RoundRect,0.09554X-1.24172X0.17678X-0.17678X1.24172*%
%ADD21C,1.102*%
%ADD22C,1.626*%
%ADD23C,1.302*%
%ADD24C,1.202*%
G75*


G04 Pad Start*
G54D10*
G01X2420118Y2165600D03*
G01X2420118Y2274617D03*
G01X2420118Y2509628D03*
G01X2420118Y2400611D03*
G54D11*
G01X2129391Y1550000D03*
G01X2238408Y1550000D03*
G54D12*
G01X2320893Y1945095D03*
G01X2234330Y1945095D03*
G01X2044320Y1945095D03*
G01X2130883Y1945095D03*
G01X1864311Y2112603D03*
G01X1950875Y2112603D03*
G01X1864311Y2235109D03*
G01X1950875Y2235109D03*
G01X1864311Y2355115D03*
G01X1950875Y2355115D03*
G01X1864311Y2475121D03*
G01X1950875Y2475121D03*
G54D13*
G01X2002501Y1237503D03*
G01X2267499Y1237503D03*
G01X2002501Y1162497D03*
G01X2267499Y1162497D03*
G01X2002501Y837503D03*
G01X2267499Y837503D03*
G01X2002501Y762497D03*
G01X2267499Y762497D03*
G54D14*
G01X2108894Y2211300D03*
G01X2158906Y2211300D03*
G01X2208893Y2211300D03*
G01X2258906Y2211300D03*
G54D15*
G01X2285144Y2287500D03*
G01X2285144Y2337487D03*
G01X2285144Y2387500D03*
G54D14*
G01X2258906Y2463700D03*
G01X2208893Y2463700D03*
G01X2158906Y2463700D03*
G01X2108894Y2463700D03*
G54D15*
G01X2082655Y2387500D03*
G01X2082655Y2337487D03*
G01X2082655Y2287500D03*
G54D16*
G01X2203902Y1772590D03*
G01X2203902Y1732610D03*
G01X2163897Y1772590D03*
G01X2163897Y1732610D03*
G54D17*
G01X2058894Y2699987D03*
G01X2308906Y2699987D03*
G54D19*
G01X2057561Y259933D03*
G54D20*
G01X2269692Y472065D03*
G36*
G01X1846513Y1649999D02*
G01X1876513Y1649999D01*
G02X1886513Y1639999I0J-10000D01*
G01X1886513Y1612070D01*
G02X1877977Y1608535I-5000J0D01*
G01X1865049Y1621463D01*
G03X1857977Y1621463I-3536J-3536D01*
G01X1845049Y1608535D01*
G02X1836513Y1612070I-3535J3536D01*
G01X1836513Y1639999D01*
G02X1846513Y1649999I10000J0D01*
G37*
G36*
G01X1836513Y1539999D02*
G01X1836513Y1577928D01*
G02X1837978Y1581463I5000J0D01*
G01X1857977Y1601463D01*
G02X1865049Y1601463I3536J-3535D01*
G01X1885049Y1581462D01*
G02X1886513Y1577926I-3536J-3536D01*
G01X1886513Y1539999D01*
G02X1876513Y1529999I-10000J0D01*
G01X1846513Y1529999D01*
G02X1836513Y1539999I0J10000D01*
G37*
G54D21*
G01X1960096Y1002549D03*
G01X874993Y829953D03*
G54D22*
G01X1647043Y126081D03*
G01X1647043Y380081D03*
G01X1647043Y634081D03*
G01X1647043Y888081D03*
G01X1647043Y1142081D03*
G01X1647043Y1396081D03*
G01X1647043Y1650081D03*
G01X1647043Y1904081D03*
G01X1647043Y2158081D03*
G01X1647043Y2412081D03*
G01X1647043Y2666081D03*
G01X1647043Y2920081D03*
G01X1647043Y3174081D03*
G01X123043Y3174081D03*
G01X123043Y2920081D03*
G01X123043Y2666081D03*
G01X123043Y2412081D03*
G01X123043Y2158081D03*
G01X123043Y1904081D03*
G01X123043Y1650081D03*
G01X123043Y1396081D03*
G01X123043Y1142081D03*
G01X123043Y888081D03*
G01X123043Y634081D03*
G01X123043Y380081D03*
G01X123043Y126081D03*
G01X1339090Y2858706D03*
G01X1085090Y2858706D03*
G01X831090Y2858706D03*
G54D23*
G01X427132Y2866591D03*
G01X427132Y2716591D03*
G01X427132Y2566591D03*
G01X427132Y2416591D03*
G54D24*
G01X488661Y1064010D03*
G01X488661Y1205774D03*
G04 Pad End*

M02*

